<svg xmlns="http://www.w3.org/2000/svg" version="1.1" xmlns:xlink="http://www.w3.org/1999/xlink" width="1000" height="1000"><g clip-path="url(#SvgjsClipPath1222)"><rect width="1000" height="1000" fill="#242424"></rect><g transform="matrix(37.5,0,0,37.5,50,50)"><svg xmlns="http://www.w3.org/2000/svg" version="1.1" xmlns:xlink="http://www.w3.org/1999/xlink" width="24" height="24"><svg version="1.1" id="Layer_1" xmlns="http://www.w3.org/2000/svg" xmlns:xlink="http://www.w3.org/1999/xlink" x="0px" y="0px" viewBox="0 0 24 24" style="enable-background:new 0 0 24 24;" xml:space="preserve">
<style type="text/css">
	.st0{fill:none;stroke:#1ED760;stroke-width:2;stroke-linecap:round;stroke-linejoin:round;}
	.st1{fill:none;stroke:#FFFFFF;stroke-width:2;stroke-linecap:round;stroke-linejoin:round;}
	.st2{fill:none;stroke:#FFFFFF;stroke-width:1.7531;stroke-linecap:round;stroke-linejoin:round;}
	.st3{fill:#1ED760;}
</style>
<path class="st0" d="M21,15V6"></path>
<path class="st0" d="M18.5,18c1.4,0,2.5-1.1,2.5-2.5S19.9,13,18.5,13S16,14.1,16,15.5S17.1,18,18.5,18z"></path>
<path class="st1" d="M12,14.6H3"></path>
<path class="st2" d="M9.9,18H3"></path>
<path class="st3" d="M15.5,11.4h-12C2.7,11.4,2,10.8,2,10V6.5C2,5.7,2.7,5,3.5,5h12C16.3,5,17,5.7,17,6.5V10
	C17,10.8,16.3,11.4,15.5,11.4z"></path>
</svg></svg></g></g><defs><clipPath id="SvgjsClipPath1222"><rect width="1000" height="1000" x="0" y="0" rx="150" ry="150"></rect></clipPath></defs></svg>