<svg width="761" height="478" viewBox="0 0 761 478" fill="none" xmlns="http://www.w3.org/2000/svg">
<g clip-path="url(#clip0_178_2169)">
<path d="M511.929 82V46.6L476.629 82H511.929Z" fill="#4611EA"/>
<path d="M617.929 371.8C696.74 371.8 760.629 307.911 760.629 229.1C760.629 150.289 696.74 86.4 617.929 86.4C539.118 86.4 475.229 150.289 475.229 229.1C475.229 307.911 539.118 371.8 617.929 371.8Z" stroke="#F8D84D" stroke-width="3" stroke-miterlimit="10" stroke-linecap="round" stroke-linejoin="round"/>
<path d="M617.929 363.8C692.322 363.8 752.629 303.493 752.629 229.1C752.629 154.707 692.322 94.4 617.929 94.4C543.536 94.4 483.229 154.707 483.229 229.1C483.229 303.493 543.536 363.8 617.929 363.8Z" stroke="#F8D84D" stroke-width="3" stroke-miterlimit="10" stroke-linecap="round" stroke-linejoin="round"/>
<path d="M617.929 355.8C687.903 355.8 744.629 299.074 744.629 229.1C744.629 159.126 687.903 102.4 617.929 102.4C547.954 102.4 491.229 159.126 491.229 229.1C491.229 299.074 547.954 355.8 617.929 355.8Z" stroke="#F8D84D" stroke-width="3" stroke-miterlimit="10" stroke-linecap="round" stroke-linejoin="round"/>
<path d="M617.929 347.7C683.43 347.7 736.529 294.601 736.529 229.1C736.529 163.599 683.43 110.5 617.929 110.5C552.428 110.5 499.329 163.599 499.329 229.1C499.329 294.601 552.428 347.7 617.929 347.7Z" stroke="#F8D84D" stroke-width="3" stroke-miterlimit="10" stroke-linecap="round" stroke-linejoin="round"/>
<path d="M617.929 339.7C679.011 339.7 728.529 290.183 728.529 229.1C728.529 168.017 679.011 118.5 617.929 118.5C556.846 118.5 507.329 168.017 507.329 229.1C507.329 290.183 556.846 339.7 617.929 339.7Z" stroke="#F8D84D" stroke-width="3" stroke-miterlimit="10" stroke-linecap="round" stroke-linejoin="round"/>
<path d="M617.929 331.7C674.593 331.7 720.529 285.764 720.529 229.1C720.529 172.436 674.593 126.5 617.929 126.5C561.264 126.5 515.329 172.436 515.329 229.1C515.329 285.764 561.264 331.7 617.929 331.7Z" stroke="#F8D84D" stroke-width="3" stroke-miterlimit="10" stroke-linecap="round" stroke-linejoin="round"/>
<path d="M617.929 323.6C670.12 323.6 712.429 281.291 712.429 229.1C712.429 176.909 670.12 134.6 617.929 134.6C565.738 134.6 523.429 176.909 523.429 229.1C523.429 281.291 565.738 323.6 617.929 323.6Z" stroke="#F8D84D" stroke-width="3" stroke-miterlimit="10" stroke-linecap="round" stroke-linejoin="round"/>
<path d="M617.929 315.6C665.701 315.6 704.429 276.873 704.429 229.1C704.429 181.327 665.701 142.6 617.929 142.6C570.156 142.6 531.429 181.327 531.429 229.1C531.429 276.873 570.156 315.6 617.929 315.6Z" stroke="#F8D84D" stroke-width="3" stroke-miterlimit="10" stroke-linecap="round" stroke-linejoin="round"/>
<path d="M617.929 307.6C661.283 307.6 696.429 272.454 696.429 229.1C696.429 185.746 661.283 150.6 617.929 150.6C574.574 150.6 539.429 185.746 539.429 229.1C539.429 272.454 574.574 307.6 617.929 307.6Z" stroke="#F8D84D" stroke-width="3" stroke-miterlimit="10" stroke-linecap="round" stroke-linejoin="round"/>
<path d="M617.929 236C621.74 236 624.829 232.911 624.829 229.1C624.829 225.289 621.74 222.2 617.929 222.2C614.118 222.2 611.029 225.289 611.029 229.1C611.029 232.911 614.118 236 617.929 236Z" fill="#F8D84D"/>
<path d="M119.429 457.1L348.629 339C352.529 337 354.129 332.2 352.029 328.2L282.229 192.8C280.229 188.9 275.429 187.3 271.429 189.4L42.3288 307.4C38.4288 309.4 36.8288 314.2 38.9288 318.2L108.729 453.6C110.729 457.6 115.529 459.1 119.429 457.1Z" stroke="#6BD3B1" stroke-width="3" stroke-miterlimit="10" stroke-linecap="round" stroke-linejoin="round"/>
<path d="M175.529 311.4L193.529 346.3L216.529 312.4L175.529 311.4Z" fill="#6BD3B1"/>
<path d="M121.929 430.7L325.729 325.7" stroke="#6BD3B1" stroke-width="3" stroke-miterlimit="10" stroke-linecap="round" stroke-linejoin="round"/>
<path d="M147.029 425.5C151.558 425.5 155.229 421.829 155.229 417.3C155.229 412.771 151.558 409.1 147.029 409.1C142.5 409.1 138.829 412.771 138.829 417.3C138.829 421.829 142.5 425.5 147.029 425.5Z" fill="#6BD3B1"/>
<path d="M453.029 476.6L336.329 420.9C332.329 419 330.629 414.2 332.529 410.2L388.229 293.5C390.129 289.5 394.929 287.8 398.929 289.7L515.629 345.4C519.629 347.3 521.329 352.1 519.429 356.1L463.729 472.8C461.729 476.8 457.029 478.5 453.029 476.6Z" stroke="#4611EA" stroke-width="3" stroke-miterlimit="10" stroke-linecap="round" stroke-linejoin="round"/>
<path d="M416.429 398.7L407.329 417.7" stroke="white" stroke-width="3" stroke-miterlimit="10" stroke-linecap="round" stroke-linejoin="round"/>
<path d="M447.729 383.5L445.529 388.2C440.329 399 427.429 403.6 416.629 398.4C405.829 393.2 401.229 380.3 406.429 369.5L408.629 364.8" stroke="white" stroke-width="3" stroke-miterlimit="10" stroke-linecap="round" stroke-linejoin="round"/>
<path d="M421.729 387.5C416.529 385 414.329 378.8 416.829 373.7L426.029 354.5C428.529 349.3 434.729 347.1 439.829 349.6C445.029 352.1 447.229 358.3 444.729 363.4L435.529 382.6C433.129 387.8 426.929 390 421.729 387.5Z" stroke="white" stroke-width="3" stroke-miterlimit="10" stroke-linecap="round" stroke-linejoin="round"/>
<path d="M236.629 107.2L375.629 248.7C378.729 251.9 383.829 251.9 386.929 248.8L481.729 155.7C484.929 152.6 484.929 147.5 481.829 144.4L342.829 2.9C339.729 -0.300001 334.629 -0.300001 331.529 2.8L236.729 95.9C233.529 99 233.529 104.1 236.629 107.2Z" stroke="#7D58F0" stroke-width="3" stroke-miterlimit="10" stroke-linecap="round" stroke-linejoin="round"/>
<path d="M351.729 151.2L365.329 105.3L319.129 118L351.729 151.2Z" fill="#7D58F0"/>
<path d="M363.729 163.4L372.829 132.6L341.829 141.1L363.729 163.4Z" fill="#7D58F0"/>
<path d="M383.829 127.1C386.756 127.1 389.129 124.727 389.129 121.8C389.129 118.873 386.756 116.5 383.829 116.5C380.902 116.5 378.529 118.873 378.529 121.8C378.529 124.727 380.902 127.1 383.829 127.1Z" fill="#7D58F0"/>
<path d="M161.429 168.1V114.3H182.529" stroke="#ED616C" stroke-width="3" stroke-miterlimit="10" stroke-linecap="round" stroke-linejoin="round"/>
<path d="M151.929 178.4C146.629 178.4 142.329 174.1 142.329 168.8C142.329 163.5 146.629 159.2 151.929 159.2C157.229 159.2 161.529 163.5 161.529 168.8C161.429 174.1 157.229 178.4 151.929 178.4Z" stroke="#ED616C" stroke-width="3" stroke-miterlimit="10" stroke-linecap="round" stroke-linejoin="round"/>
<path d="M157.329 219.5C199.247 219.5 233.229 185.518 233.229 143.6C233.229 101.682 199.247 67.7 157.329 67.7C115.41 67.7 81.4288 101.682 81.4288 143.6C81.4288 185.518 115.41 219.5 157.329 219.5Z" stroke="#ED616C" stroke-width="3" stroke-miterlimit="10" stroke-linecap="round" stroke-linejoin="round"/>
<path d="M275.729 447.6C281.031 447.6 285.329 443.302 285.329 438C285.329 432.698 281.031 428.4 275.729 428.4C270.427 428.4 266.129 432.698 266.129 438C266.129 443.302 270.427 447.6 275.729 447.6Z" fill="#4611EA"/>
<path d="M560.529 423.9H545.629L538.229 436.7L545.629 449.6H560.529L567.929 436.7L560.529 423.9Z" fill="#4611EA"/>
</g>
<defs>
<clipPath id="clip0_178_2169">
<rect width="761" height="478" fill="white"/>
</clipPath>
</defs>
</svg>
