<?xml version="1.0" encoding="utf-8"?>
<!-- Generator: Adobe Illustrator 26.5.0, SVG Export Plug-In . SVG Version: 6.00 Build 0)  -->
<svg version="1.1" id="Layer_1" xmlns="http://www.w3.org/2000/svg" xmlns:xlink="http://www.w3.org/1999/xlink" x="0px" y="0px"
	 viewBox="0 0 1027 600" style="enable-background:new 0 0 1027 600;" xml:space="preserve">
<style type="text/css">
	.st0{fill:#EBEBEB;}
	.st1{fill:#FFFFFF;}
	.st2{fill:#263238;}
	.st3{fill:#C7C7C7;}
	.st4{fill:#00C5CD;}
	.st5{fill:#A6A6A6;}
	.st6{fill:#37474F;}
	.st7{fill:#DBDBDB;}
	.st8{fill:#D3766A;}
	.st9{fill:#FF9CBD;}
</style>
<g>
	<g id="freepik--background-complete--inject-29">
		<path class="st0" d="M931.65,136.35l11.44-18.43l-5.68-3.52c-1.64-1.04-2.55-2.92-2.36-4.85c0.09-1.05,0.12-2.11,0.1-3.17
			c-0.06-1.97,1.01-3.81,2.76-4.73l5.86-3.14l-10.26-19.12l-5.86,3.14c-1.68,0.9-3.72,0.79-5.29-0.29
			c-0.95-0.66-1.93-1.27-2.94-1.82c-1.68-0.92-2.69-2.72-2.62-4.63l0.21-6.63l-21.69-0.68l-0.19,6.66c-0.06,1.93-1.2,3.65-2.95,4.45
			c-0.5,0.23-1.01,0.48-1.5,0.76c-0.5,0.28-0.98,0.54-1.46,0.83c-1.63,1.01-3.68,1.01-5.31,0l-5.69-3.52l-11.43,18.43l5.63,3.54
			c1.64,1.03,2.55,2.91,2.34,4.84c-0.09,1.05-0.12,2.1-0.1,3.16c0.06,1.96-0.98,3.79-2.69,4.74l-5.86,3.13l10.26,19.12l5.85-3.13
			c1.74-0.91,3.84-0.77,5.43,0.37c0.86,0.6,1.76,1.16,2.69,1.65c1.72,0.9,2.79,2.69,2.76,4.63l-0.21,6.7l21.67,0.68l0.21-6.65
			c0.08-1.94,1.25-3.67,3.02-4.48c0.48-0.22,0.97-0.47,1.38-0.72s0.94-0.52,1.38-0.8c1.66-1.02,3.76-1.02,5.42,0L931.65,136.35z
			 M915.27,121.43c-7.97,5.73-19.07,3.92-24.81-4.05c-5.73-7.97-3.92-19.07,4.05-24.81c7.97-5.73,19.07-3.92,24.81,4.05
			c0.91,1.27,1.66,2.66,2.21,4.12C924.35,108.27,921.79,116.75,915.27,121.43z"/>
		<path class="st0" d="M833.67,68.47l13.17-7.6l-2.33-3.98c-0.68-1.19-0.63-2.65,0.12-3.79c0.42-0.65,0.81-1.31,1.16-2
			c0.6-1.22,1.85-2,3.21-2h4.65V33.94H849c-1.37-0.01-2.62-0.8-3.21-2.04c-0.35-0.68-0.73-1.34-1.14-1.97
			c-0.76-1.13-0.8-2.6-0.12-3.78l2.33-4.03l-13.17-7.6l-2.33,4.04c-0.69,1.18-1.99,1.86-3.35,1.78c-0.37,0-0.74,0-1.12,0
			s-0.74,0-1.12,0c-1.38,0.11-2.71-0.57-3.42-1.76l-2.34-4.05l-13.15,7.6l2.33,4.04c0.67,1.19,0.61,2.64-0.14,3.78
			c-0.41,0.63-0.79,1.29-1.13,1.96c-0.61,1.22-1.85,2-3.21,2h-4.65v15.17h4.65c1.36,0,2.6,0.77,3.21,1.99
			c0.34,0.67,0.72,1.33,1.13,1.96c0.75,1.14,0.81,2.6,0.14,3.79l-2.33,4.04l13.15,7.6l2.34-4.04c0.69-1.17,1.98-1.86,3.34-1.76h1.13
			h1.12c1.36-0.09,2.65,0.59,3.35,1.76L833.67,68.47z M826.87,53.94c-6.85,0-12.41-5.56-12.41-12.41s5.56-12.41,12.41-12.41
			s12.41,5.56,12.41,12.41l0,0C839.28,48.39,833.73,53.94,826.87,53.94z"/>
		<path class="st0" d="M87.34,388.23c1.18,0.7,1.86,2,1.76,3.36c0,0.37,0,0.74,0,1.12c0,0.37,0,0.74,0,1.12
			c0.09,1.36-0.59,2.65-1.76,3.35l-4.03,2.33l7.58,13.11l4.04-2.33c1.19-0.68,2.65-0.63,3.79,0.12c0.63,0.42,1.29,0.8,1.96,1.14
			c1.21,0.61,1.99,1.84,2,3.2v4.76h15.17v-4.66c0.01-1.36,0.78-2.59,2-3.2c0.67-0.35,1.33-0.73,1.96-1.14
			c1.14-0.76,2.61-0.8,3.79-0.12l4.07,2.23l7.6-13.17l-4.07-2.34c-1.17-0.69-1.84-1.98-1.75-3.34c0-0.37,0-0.74,0-1.12
			c0-0.37,0-0.74,0-1.12c-0.09-1.36,0.59-2.67,1.76-3.36l4.05-2.33l-7.6-13.15l-4.03,2.33c-1.19,0.67-2.66,0.62-3.79-0.14
			c-0.64-0.41-1.29-0.79-1.97-1.13c-1.22-0.61-1.99-1.85-2-3.21v-4.65h-15.17v4.65c-0.01,1.36-0.78,2.6-2,3.21
			c-0.68,0.34-1.33,0.72-1.97,1.13c-1.14,0.76-2.6,0.81-3.79,0.14l-4.03-2.33l-7.61,13.21L87.34,388.23z M110.28,380.25
			c6.85,0,12.41,5.56,12.41,12.41s-5.56,12.41-12.41,12.41s-12.41-5.56-12.41-12.41S103.43,380.25,110.28,380.25z"/>
		<path class="st0" d="M934.03,312.23c-12.98,7.8-29.25,7.59-42.03-0.52c-18.64-11.84-24.16-36.55-12.32-55.19
			c11.84-18.64,36.55-24.16,55.19-12.32c18.64,11.84,24.16,36.55,12.32,55.19C943.87,304.64,939.36,309.03,934.03,312.23z"/>
		<path class="st1" d="M925.58,273.56c-0.08,6.72-5.6,12.09-12.31,12.01c-6.72-0.08-12.09-5.6-12.01-12.31
			c0.08-6.72,5.6-12.09,12.31-12.01c6.71,0.08,12.09,5.57,12.01,12.28C925.58,273.54,925.58,273.55,925.58,273.56z"/>
		<path class="st1" d="M934.03,307.21v5.02c-12.98,7.8-29.25,7.59-42.03-0.52v-5.01c0.4-11.61,10.14-20.69,21.74-20.28
			c11.24,0.39,20.18,9.55,20.3,20.79H934.03z"/>
		<path class="st0" d="M131.71,162.49c-12.4,7.46-28.49,3.45-35.95-8.94s-3.45-28.49,8.94-35.95c12.4-7.46,28.49-3.45,35.95,8.94
			c1.41,2.35,2.45,4.9,3.07,7.56C146.34,145.18,141.48,156.67,131.71,162.49z"/>
		<path class="st1" d="M126.21,137.15c-0.05,4.4-3.65,7.93-8.05,7.89s-7.93-3.65-7.89-8.05c0.05-4.4,3.65-7.93,8.05-7.89
			c0,0,0.01,0,0.01,0C122.73,129.15,126.25,132.76,126.21,137.15z"/>
		<path class="st1" d="M131.75,159.2v3.3c-8.51,5.12-19.19,4.99-27.58-0.34v-3.27c0.09-7.61,6.33-13.72,13.95-13.63
			C125.74,145.34,131.84,151.58,131.75,159.2z"/>
	</g>
	<g id="freepik--Shadow--inject-29">
		<ellipse class="st0" cx="300.53" cy="567.16" rx="197.43" ry="15.29"/>
	</g>
	<g>
		<defs>
			<rect id="SVGID_1_" x="165.48" y="63.11" width="693.88" height="439.34"/>
		</defs>
		<clipPath id="SVGID_00000076562442103860354570000012643680941479128981_">
			<use xlink:href="#SVGID_1_"  style="overflow:visible;"/>
		</clipPath>
		<g transform="matrix(1 0 0 1 0 0)" style="clip-path:url(#SVGID_00000076562442103860354570000012643680941479128981_);">
			
				<image style="overflow:visible;" width="1871" height="1162" xlink:href="C:\Users\syamr\OneDrive\Desktop\thstrhsrth.png"  transform="matrix(0.3704 0 0 0.3704 165.9611 75.0097)">
			</image>
		</g>
	</g>
	<rect x="164.9" y="63.11" class="st2" width="694.46" height="12.53"/>
	<path class="st3" d="M178.33,70.2c-0.04,2.28-1.92,4.1-4.2,4.07c-2.28-0.04-4.1-1.92-4.07-4.2c0.04-2.26,1.88-4.07,4.14-4.07
		c2.28,0,4.14,1.85,4.14,4.14C178.33,70.15,178.33,70.17,178.33,70.2z"/>
	<path class="st1" d="M195.45,70.2c-0.04,2.28-1.92,4.1-4.2,4.07c-2.28-0.04-4.1-1.92-4.07-4.2c0.04-2.26,1.88-4.07,4.14-4.07
		c2.28,0,4.14,1.85,4.14,4.14C195.45,70.15,195.45,70.17,195.45,70.2z"/>
	<path class="st4" d="M212.58,70.2c-0.04,2.28-1.92,4.1-4.2,4.07c-2.28-0.04-4.1-1.92-4.07-4.2c0.04-2.26,1.88-4.07,4.14-4.07
		c2.28,0,4.14,1.85,4.14,4.14C212.58,70.15,212.58,70.17,212.58,70.2z"/>
	<rect x="659.83" y="291.67" class="st1" width="10.95" height="1.35"/>
	<path class="st1" d="M765.74,267.57c0.4,0.89,0.5,1.89,0.3,2.84c-0.18,1.05-0.63,2.03-1.3,2.85c-0.58,0.77-1.48,1.25-2.44,1.31
		c-0.86-0.01-1.63-0.52-1.97-1.31c-0.4-0.89-0.51-1.89-0.3-2.85c0.18-1.04,0.63-2.02,1.3-2.84c0.57-0.79,1.46-1.3,2.44-1.38
		C764.64,266.21,765.42,266.76,765.74,267.57z M764.73,270.41c0.15-0.71,0.07-1.45-0.22-2.11c-0.14-0.42-0.53-0.7-0.97-0.73
		c-0.51,0.05-0.96,0.31-1.25,0.73c-0.49,0.61-0.81,1.34-0.94,2.11c-0.15,0.71-0.08,1.44,0.21,2.11c0.15,0.42,0.52,0.71,0.97,0.74
		c0.5-0.06,0.96-0.33,1.25-0.74C764.27,271.91,764.6,271.19,764.73,270.41z"/>
	<path class="st1" d="M774.64,272.38c-0.07,0.37-0.39,0.65-0.77,0.66h-0.12l-0.15,0.9c-0.08,0.37-0.4,0.64-0.77,0.65
		c-0.3,0.01-0.55-0.22-0.56-0.51c0-0.05,0-0.09,0.01-0.14l0.18-0.9h-3.75c-0.14,0-0.28-0.06-0.39-0.15
		c-0.24-0.27-0.21-0.68,0.06-0.91c0,0,0.01-0.01,0.01-0.01l5.36-5.52l0,0l0,0l0,0l0,0l0,0h0.07h0.44l0,0l0,0l0,0l0,0l0,0l0,0l0,0
		c-0.01,0.02-0.01,0.05,0,0.07l0,0l0,0v0.08l0,0c0,0,0,0,0,0.08l0,0l-0.84,4.8h0.68c0.28-0.1,0.59,0.05,0.69,0.32
		C774.85,272.01,774.8,272.24,774.64,272.38z M772.67,271.72l0.52-2.94l-2.9,2.94H772.67z"/>
	<rect x="759.06" y="278.22" class="st1" width="19.92" height="1.35"/>
	<rect x="759.06" y="281.58" class="st1" width="31.01" height="1.35"/>
	<rect x="759.06" y="288.31" class="st1" width="25.33" height="1.35"/>
	<rect x="759.06" y="291.67" class="st1" width="22.43" height="1.35"/>
	<path class="st1" d="M187.85,149.27c0.19-0.19,0.5-0.19,0.69,0c0.52,0.43,1.16,0.69,1.83,0.74c0.42,0.01,0.84-0.12,1.19-0.36
		c0.24-0.15,0.4-0.41,0.41-0.69c0-0.11-0.03-0.21-0.08-0.3c-0.07-0.12-0.17-0.22-0.29-0.29c-0.41-0.23-0.85-0.38-1.31-0.46l0,0
		c-0.43-0.07-0.85-0.19-1.24-0.37c-0.36-0.15-0.67-0.41-0.88-0.74c-0.14-0.23-0.22-0.5-0.22-0.77c0.03-0.55,0.32-1.06,0.77-1.38
		c0.48-0.34,1.06-0.51,1.64-0.5c0.76,0.04,1.49,0.3,2.1,0.76c0.22,0.15,0.28,0.45,0.13,0.67c0,0,0,0,0,0.01
		c-0.14,0.23-0.44,0.3-0.66,0.16c0,0-0.01-0.01-0.01-0.01c-0.44-0.36-0.98-0.58-1.54-0.62c-0.38,0-0.75,0.11-1.06,0.33
		c-0.22,0.13-0.36,0.36-0.37,0.61c-0.02,0.09-0.02,0.18,0,0.26c0.07,0.1,0.16,0.18,0.26,0.25c0.37,0.22,0.78,0.36,1.2,0.41l0,0
		c0.48,0.07,0.94,0.21,1.38,0.41c0.39,0.17,0.71,0.44,0.95,0.79c0.15,0.25,0.23,0.53,0.23,0.81c-0.02,0.6-0.33,1.15-0.83,1.48
		c-0.52,0.37-1.13,0.56-1.76,0.55c-0.9-0.04-1.76-0.38-2.45-0.95c-0.23-0.16-0.29-0.48-0.13-0.71
		C187.8,149.33,187.83,149.3,187.85,149.27z"/>
	<path class="st1" d="M194,148.55c-0.02-1.3,1.03-2.37,2.33-2.39c0,0,0,0,0,0c1.24-0.01,2.27,0.98,2.3,2.22l0,0
		c0.01,0.03,0.01,0.06,0,0.1c-0.04,0.24-0.26,0.4-0.5,0.37h-3.03c0.04,0.24,0.15,0.46,0.32,0.63c0.25,0.25,0.58,0.4,0.92,0.43
		c0.35,0.03,0.7-0.05,0.99-0.23c0.21-0.18,0.51-0.18,0.72,0c0.17,0.17,0.17,0.45,0,0.62c-0.47,0.43-1.08,0.65-1.71,0.63
		C195.04,150.92,194,149.86,194,148.55z M195.04,148.09h2.76c-0.22-0.58-0.76-0.98-1.38-1.01c-0.65-0.04-1.25,0.38-1.42,1.01H195.04
		z"/>
	<path class="st1" d="M193.81,165.21v5.64c-0.01,0.29-0.24,0.52-0.52,0.52c-0.29,0-0.53-0.23-0.54-0.52v-4.03l-1.38,1.9
		c-0.1,0.14-0.27,0.23-0.44,0.22l0,0c-0.17,0-0.34-0.08-0.44-0.22l-1.38-1.9v4.03c-0.05,0.29-0.32,0.49-0.62,0.45
		c-0.23-0.04-0.41-0.22-0.45-0.45v-5.64c0-0.29,0.23-0.53,0.52-0.54l0,0c0.17,0,0.33,0.09,0.43,0.22l1.9,2.65l1.9-2.65
		c0.1-0.14,0.26-0.22,0.43-0.22l0,0c0.3-0.02,0.56,0.22,0.58,0.52C193.81,165.2,193.81,165.21,193.81,165.21z"/>
	<path class="st1" d="M191.48,190.21h-2.33l-0.47,1.24c-0.08,0.21-0.27,0.35-0.5,0.34c-0.06,0.01-0.12,0.01-0.18,0
		c-0.27-0.1-0.42-0.4-0.32-0.67c0,0,0,0,0-0.01l2.11-5.64c0.13-0.28,0.47-0.4,0.75-0.27c0.12,0.06,0.21,0.15,0.27,0.27l2.11,5.64
		c0.1,0.27-0.04,0.57-0.31,0.67c0,0,0,0-0.01,0c-0.06,0.02-0.12,0.02-0.18,0c-0.22,0-0.42-0.14-0.5-0.34L191.48,190.21z
		 M191.08,189.16l-0.77-2.05l-0.77,2.05H191.08z"/>
	<path class="st1" d="M198.22,191.27c0,0.28-0.23,0.52-0.51,0.52c-0.25,0-0.46-0.17-0.51-0.41c-0.38,0.26-0.83,0.41-1.3,0.41
		c-1.32-0.1-2.31-1.25-2.21-2.57c0.09-1.18,1.03-2.12,2.21-2.21c0.46,0,0.9,0.14,1.28,0.4v-1.79c0.01-0.29,0.26-0.51,0.55-0.5
		c0.01,0,0.01,0,0.02,0c0.28,0.01,0.51,0.24,0.51,0.52v3.78l0,0L198.22,191.27z M195.91,188.06c-0.34,0-0.66,0.14-0.9,0.39
		c-0.25,0.26-0.39,0.61-0.39,0.97c0,0.36,0.14,0.7,0.39,0.95c0.46,0.49,1.24,0.52,1.73,0.06c0.02-0.02,0.04-0.04,0.06-0.06
		c0.25-0.26,0.38-0.6,0.39-0.95c0-0.36-0.14-0.71-0.39-0.97C196.57,188.19,196.25,188.05,195.91,188.06z"/>
	<path class="st5" d="M327.95,396.7L327.95,396.7c-0.14-0.01-0.25-0.13-0.25-0.28v-7.43c0.01-0.15,0.13-0.26,0.28-0.26h1.49
		c2.2,0,3.99,1.78,3.99,3.98c0,2.2-1.78,3.99-3.98,3.99c0,0,0,0-0.01,0L327.95,396.7z M329.42,396.13c1.89,0.01,3.43-1.52,3.43-3.41
		c0,0,0,0,0,0c-0.01-1.9-1.54-3.43-3.43-3.45h-1.2v6.89L329.42,396.13z"/>
	<path class="st5" d="M339.47,394.7h-3.63l-0.72,1.89c-0.04,0.11-0.15,0.18-0.26,0.18h-0.1c-0.14-0.06-0.21-0.21-0.17-0.36l2.76-7.4
		c0.06-0.1,0.16-0.16,0.28-0.17c0.12,0,0.22,0.06,0.28,0.17l2.76,7.4c0.06,0.13,0.01,0.29-0.12,0.35c-0.01,0-0.01,0.01-0.02,0.01
		h-0.11c-0.11-0.01-0.21-0.08-0.26-0.18L339.47,394.7z M336.03,394.15h3.23l-1.6-4.29L336.03,394.15z"/>
	<path class="st5" d="M343.8,392.86l-2.65-3.68c-0.1-0.11-0.1-0.28,0-0.39c0.1-0.11,0.26-0.11,0.37-0.02
		c0.01,0.01,0.01,0.01,0.02,0.02l2.5,3.43l2.51-3.43c0.1-0.12,0.27-0.14,0.39-0.05c0.12,0.1,0.14,0.27,0.05,0.39l-2.66,3.64v3.57
		c0.01,0.14-0.1,0.27-0.25,0.28c-0.01,0-0.02,0-0.03,0c-0.15,0-0.28-0.12-0.28-0.28l0,0L343.8,392.86z"/>
	<path class="st2" d="M331.76,410.11l-3.67,2.87h3.67c0.15-0.01,0.28,0.11,0.29,0.26c0,0,0,0.01,0,0.01c0,0.16-0.13,0.29-0.29,0.29
		h-4.4c-0.09,0-0.18-0.04-0.23-0.11c-0.1-0.11-0.1-0.29,0-0.4l4.32-3.35c0.6-0.46,0.97-1.16,0.99-1.92c0.01-0.35-0.1-0.7-0.3-0.99
		c-0.33-0.43-0.84-0.67-1.38-0.65c-0.55,0-1.08,0.19-1.5,0.54l-0.44,0.36c-0.14,0.08-0.32,0.02-0.39-0.12
		c-0.06-0.1-0.04-0.23,0.03-0.32l0.46-0.36c0.53-0.42,1.18-0.65,1.85-0.65c1.19-0.04,2.19,0.9,2.23,2.09c0,0.03,0,0.07,0,0.1
		C332.95,408.69,332.5,409.55,331.76,410.11z"/>
	<path class="st2" d="M336.26,405.89l-0.8,4.55l5.67-4.81c0.11-0.11,0.28-0.11,0.39,0c0.11,0.1,0.11,0.28,0.01,0.39
		c0,0-0.01,0.01-0.01,0.01l-3.61,3.09l2.56,3.96c0.08,0.13,0.04,0.31-0.08,0.4h-0.15c-0.09,0-0.18-0.04-0.23-0.12l-2.54-3.9
		l-2.1,1.79l0,0l-0.36,2.01c-0.03,0.13-0.14,0.22-0.28,0.22l0,0c-0.15-0.03-0.25-0.17-0.23-0.32l1.38-7.42
		c0.03-0.15,0.18-0.25,0.33-0.22C336.31,405.61,336.34,405.77,336.26,405.89z"/>
	<polygon class="st4" points="326.64,429.47 326.3,428.84 330.71,426.4 334.53,427.58 341.63,422.52 349.42,427 359.09,420.16 
		359.5,420.76 349.46,427.84 341.67,423.36 334.66,428.37 330.8,427.17 	"/>
	<rect x="326.47" y="430.77" class="st0" width="33.41" height="0.47"/>
	<rect x="326.47" y="433.08" class="st0" width="7.79" height="0.47"/>
	<g id="freepik--Plant--inject-29">
		<path class="st2" d="M864.64,389.18c0.41-6.96,1.4-13.88,2.95-20.68c1.46-6.15,3.53-12.41,7.4-17.5
			c3.54-4.63,8.62-8.27,14.53-9.04c5.68-0.7,11.03,1.83,15.28,5.42c5.27,4.44,9.31,10.31,13.1,16.02
			c4.15,6.38,7.93,12.99,11.32,19.8c0.11,0.22-0.23,0.41-0.34,0.19c-2.93-5.77-6.32-11.3-10.12-16.55
			c-3.46-5.04-7.36-9.76-11.65-14.11c-3.9-3.82-8.87-7.38-14.52-7.56s-10.82,2.98-14.22,7.32c-3.79,4.84-5.72,10.91-7.16,16.81
			c-1.5,6.49-2.47,13.1-2.92,19.74c-1.12,13.66-1.38,27.4-1.72,41.1c-0.18,7.75-0.28,15.5-0.34,23.26c0,3.92-0.03,7.84-0.1,11.77
			c0.15,3.79-0.01,7.59-0.46,11.36c-0.12,0.77-1.38,0.69-1.5,0c-0.47-3.57-0.65-7.17-0.52-10.77c-0.06-3.68-0.1-7.4-0.14-11.17
			c0-7.24-0.1-14.48-0.08-21.72C863.47,418.28,863.72,403.69,864.64,389.18z"/>
		<path class="st4" d="M884.16,378.9c0.72-3.86,2.03-8.91,4.23-11.9c3.94-5.38,8.27-3.03,4.27,2.92c-2.91,4.42-4.79,9.44-5.52,14.68
			c0,0,6.65,9.5,14.67,14.17c-0.34-3.65-1.38-9.27-0.66-14.68c1.54-11.73,8.65-11.03,6.89-1.75c-1.38,7.47-2,15.4-1.61,18.85
			c2.68,1.72,5.56,3.1,8.58,4.14c-0.46-1.38-0.95-2.99-1.49-4.96c-2.85-10.52,4.14-13.79,4.38-7.89c0.46,5.05,1.39,10.04,2.76,14.92
			c3.85,1.3,7.05,2.18,8.99,2.87c5.06,1.87,9.58,4.96,13.15,8.99c3.65-3.3,6.69-7.23,8.96-11.6c-2.44-2.11-6.31-5.25-11.71-9.04
			c-10.08-7.11-6.58-16.1,1.38-10.52c5.76,4.03,10.24,11.5,12.27,15.35c2.72-6.68,4.27-13.79,4.56-21
			c-7.91-7.43-27.58-17.8-21.59-17.8c5.31,0,17.19,7.79,21.56,10.8c-0.12-2.05-0.34-4.09-0.68-6.11
			c-7.46-4.88-31.71-12.49-27.84-14.68c4.25-2.4,21.15,5.43,26.2,7.91c-0.96-3.32-2.47-6.46-4.48-9.28
			c-10.31-13.79-28.95-18.56-37.01-15.93c-5.74,1.86-4.05,16.42-5.29,15.93C886.16,344.05,875.68,350.58,884.16,378.9z
			 M940.69,377.3c1.64-1.97,9.21,3.83,7.02,7.02s-9.16-4.48-7.05-7.02H940.69z M901.16,364.89c1.99,1.25-0.95,8.62-4.01,6.38
			c-2.65-1.89,1.99-7.67,3.98-6.38H901.16z"/>
		<path class="st2" d="M904.16,367.12c1.05-2.05,2.12-4.14,3.31-6.08c1.1-1.95,2.38-3.8,3.82-5.52c-0.33-0.4-0.65-0.81-0.99-1.21
			c-0.06-0.07-0.05-0.17,0.01-0.23c0.07-0.06,0.17-0.05,0.23,0.01l0,0c0.39,0.44,0.74,0.88,1.13,1.38c0.07,0.04,0.13,0.11,0.15,0.19
			c1.38,1.7,2.76,3.46,4.05,5.25c2.26,0.52,4.5,1.17,6.69,1.94c2.26,0.76,4.51,1.54,6.7,2.47c0.23,0.1,0.12,0.47-0.11,0.37
			c-2.18-0.97-4.38-1.89-6.65-2.66c-2.26-0.77-4.3-1.27-6.47-1.89c0.7,0.99,1.38,2,2.05,3.02c4.07,1.29,8.03,2.9,11.84,4.83
			c4,1.9,7.85,4.14,11.68,6.33c0.22,0.12,0,0.45-0.21,0.33c-3.76-2.2-7.64-4.21-11.61-6.01c-3.71-1.74-7.56-3.17-11.29-4.81
			c9.42,14.68,15.06,31.64,22.61,47.33c0.11,0.22-0.25,0.41-0.34,0.18c-2.3-5.52-4.96-10.86-7.47-16.27
			c-2.25-4.87-4.45-9.75-6.7-14.62c-0.66-1.42-1.34-2.84-2.03-4.26c0.41,7.85,0.23,15.83,1.53,23.59c0,0.11-0.09,0.19-0.19,0.19
			s-0.19-0.09-0.19-0.19c-0.55-8.38-2.03-16.64-1.96-25.08c-0.01-0.03-0.01-0.06,0-0.1c-1.6-3.21-3.3-6.37-5.14-9.46
			c-3.12,7.35-6.4,14.81-7.85,22.7c0,0.23-0.44,0.12-0.37-0.12c2.11-7.9,4.14-15.81,7.89-23.12c-1.99-3.31-4.19-6.49-6.59-9.51
			c-1.05,1.96-2.39,3.81-3.57,5.67c-1.19,1.86-2.3,3.65-3.38,5.52c-2.32,3.96-4.29,8.11-5.89,12.41c-0.08,0.23-0.47,0.11-0.37-0.12
			C900.28,375.39,902.1,371.26,904.16,367.12z"/>
		<path class="st2" d="M829.95,385.05c6.04-6.07,13.07-14.02,22.41-13.99c9,0,15.64,7.27,19.44,14.75
			c3.98,7.82,5.42,16.68,6.55,25.3c1.33,10.33,2.12,20.72,2.39,31.13c0.17,5.78,0.14,11.55,0,17.33c-0.02,5.86-0.48,11.71-1.38,17.5
			c-0.17,0.94-1.67,0.97-1.72,0c-0.28-4.87,0-9.75,0-14.62s0-9.65-0.23-14.39c-0.36-9.65-1.06-19.37-2.19-28.95
			c-0.99-8.41-1.79-17.07-4.3-25.19c-2.28-7.34-6.54-15.72-13.97-18.94c-10.15-4.4-20.06,3.64-26.69,10.41
			C830.07,385.42,829.77,385.17,829.95,385.05z"/>
		<path class="st4" d="M799.13,398.53L799.13,398.53c0,1.24,0.11,2.47,0.19,3.67c2.91-2.18,6.31-3.6,9.9-4.14
			c8.58-0.91,8.04,5.61,2.3,5.89c-4.03,0.05-8.02,0.85-11.76,2.36c1.38,11.32,4.51,20.42,4.98,20.54
			c7.61-0.43,15.18-1.39,22.65-2.87c-2.12-4.54-6.98-10.58-4.51-11.03s5.18,4.88,6.55,10.64c5.63-1.07,11.16-2.59,16.55-4.54
			c-3.78-3.25-9.65-7.32-7.38-9.06c2.28-1.74,6.89,4,9.65,8.15c2.53-1.03,4.92-2.36,7.13-3.97c-5.09-7.46-17.47-8.98-15.86-14.38
			c1.61-5.4,13.21,2.1,18.41,12.08c6.11-6.33,7.9-15.29,7.27-22.96c-5.32-0.62-15.57,0.51-14.82-3.32
			c0.74-3.83,8.13-3.09,14.19-0.85c-0.56-3.03-1.77-5.91-3.54-8.42c-5.61-7.2-22.74,1.96-22.74,1.96s1.83-17.21-4.69-20.19
			c-3.76-1.7-10.41-1.7-17.07,2.23c3.74,0.3,8.27,1.49,10.07,4.14c2.33,3.31-1.38,5.1-3.67,3.58c-1.63-1.09-4.7-4.49-10.22-4.94
			c-2.37,2-4.45,4.32-6.19,6.89c-0.62,0.88-1.21,1.82-1.79,2.84c6.4-2.88,13.75-2.74,20.03,0.37c7.42,3.68,3.27,11.39-3.12,8.4
			c-6.38-2.99-12.41-5.94-19.23-4.25c-2.39,6.1-3.49,12.63-3.25,19.18c3.32-2.41,7.06-4.2,11.03-5.27c7.38-1.94,9.65,2.47,1.5,3.3
			C807.28,395.01,803,396.36,799.13,398.53z M808.11,386.69c-0.51-2.39,4.72-3.07,5.58-1.13
			C814.42,387.21,808.56,389.09,808.11,386.69z M852.86,399.92c0.5-1.3,4,0.18,3.68,1.81C856.1,403.91,852.38,401.23,852.86,399.92z
			 M828.16,408.32c2.55-1.02,6.54,5.32,3.75,6.77C829.12,416.54,826.07,409.15,828.16,408.32z"/>
		<path class="st2" d="M805.81,425.58c3.83-6.43,7.64-12.89,11.68-19.19c1.88-2.95,3.85-5.83,5.89-8.66c-0.3,0-0.61-0.15-0.91-0.21
			l-1.53-0.3c-1.19-0.19-2.37-0.37-3.57-0.5s-2.25-0.17-3.36-0.18c-1.21-0.06-2.42,0-3.61,0.18c-0.15,0-0.17-0.19,0-0.18
			c1.2,0,2.43-0.11,3.63-0.14c1.2-0.03,2.34,0,3.5,0.08c1.16,0.08,2.19,0.18,3.28,0.34c0.59,0.1,1.2,0.19,1.79,0.32
			c0.34,0.07,0.73,0.12,1.08,0.22c2.08-2.85,4.25-5.67,6.48-8.41c-6.68-3.24-13.8-5.49-21.14-6.67c-0.12,0-0.07-0.21,0-0.19
			c7.41,1.03,14.61,3.22,21.34,6.48c1.24-1.52,2.47-3.02,3.71-4.51c1.24-1.49,2.88-3.31,4.14-5.09c0.08-0.11,0.26,0,0.17,0.12
			c-1.73,1.9-3.36,3.9-4.88,5.97l0,0c2.75,1.92,5.36,4.02,7.83,6.29c2.55,2.26,5.06,4.61,7.47,7.02c0.1,0.1,0,0.23-0.12,0.14
			c-2.4-2.37-4.89-4.64-7.49-6.81c-2.59-2.16-5.34-4.14-7.94-6.27l0,0l-1.79,2.36l-0.9,1.17c0,0,0,0-0.07,0.08
			c-0.99,1.38-2,2.61-2.98,3.93c1.16,1.68,2.15,3.48,2.96,5.35c0.87,1.82,1.61,3.7,2.3,5.58c1.37,3.93,2.45,7.95,3.21,12.04
			c0,0.12-0.17,0.18-0.19,0c-0.82-4.03-1.99-7.98-3.5-11.8c-0.74-1.97-1.6-3.89-2.47-5.79c-0.87-1.9-1.76-3.42-2.52-5.17l-2.56,3.45
			l-0.72,1.03c0.04,0.04,0.04,0.1,0,0.14c-0.02,0.02-0.06,0.03-0.09,0.03l0,0c-2.65,3.7-5.16,7.46-7.6,11.28
			c0.15,0.26,0.26,0.55,0.33,0.84c0.15,0.47,0.3,0.94,0.44,1.38c0.27,0.94,0.5,1.89,0.68,2.85c0.17,0.91,0.29,1.82,0.37,2.76
			c0.02,1.04,0.1,2.07,0.23,3.1c0.02,0.05,0,0.11-0.05,0.13c-0.05,0.02-0.11,0-0.13-0.05c-0.01-0.02-0.01-0.05,0-0.07
			c0.06-0.98-0.02-1.95-0.22-2.91c-0.14-0.99-0.33-1.97-0.55-2.95s-0.44-1.76-0.7-2.63c-0.14-0.44-0.28-0.87-0.43-1.3
			c-0.15-0.43-0.19-0.47-0.26-0.72c-1.14,1.79-2.29,3.6-3.41,5.42c-2.21,3.58-4.4,7.2-6.6,10.8
			C805.93,425.93,805.64,425.76,805.81,425.58z"/>
		<path class="st2" d="M865.09,474.94c0.1-3.64,0.68-7.31,1.08-10.93s0.8-7.27,1.19-10.91c0.76-7.02,1.17-14.19,2.76-21.07
			c1.22-5.99,4.2-11.48,8.56-15.76c2.26-2.26,5.23-3.67,8.41-4.01c3.2-0.1,6.34,0.87,8.92,2.76c2.95,2.17,5.49,4.84,7.5,7.9
			c2.17,3.02,4.13,6.2,5.86,9.5c0,0.14-0.14,0.21-0.21,0.1c-3.24-5.52-7.54-10.34-12.66-14.19c-2.27-1.88-5.05-3.04-7.98-3.32
			c-2.89-0.05-5.67,1.06-7.74,3.07c-4.25,3.7-6.7,9.13-8.18,14.46c-1.74,6.33-2.29,12.97-3.16,19.47
			c-0.51,3.85-1.01,7.71-1.52,11.55c-0.51,3.85-0.83,7.78-1.64,11.55c-0.15,0.32-0.53,0.45-0.85,0.3
			C865.26,475.33,865.13,475.15,865.09,474.94z"/>
		<path class="st4" d="M883.02,446.67c1.12,1.53,2.46,2.89,3.96,4.04c-0.59-3.56-1.38-9.87,0.47-13.24
			c2.76-5.23,6.09-2.62,4.43,1.93c-1.65,4.09-2.56,8.45-2.67,12.86c3.79,2.38,7.85,4.3,12.09,5.71c-0.45-2.05-0.58-4.15-0.39-6.23
			c0.55-5.52,4.83-5.52,3.71,0.33c-0.41,2.25-0.6,4.54-0.58,6.83c6.17,1.9,12.47,3.33,18.86,4.26c3.26-4.23,5.89-8.91,7.8-13.9
			c-4.55-1.14-13.79-1.38-13.55-4.65c0.26-4.37,9.18-1.01,14.39,2.16c1.2-3.8,1.73-7.78,1.57-11.76c-4.09-1.14-8.29-1.84-12.53-2.08
			c-9.36-0.8-8.89-6.11-2.11-5.98c4.99,0.1,11.32,3.16,14.33,4.74c-1.96-12.73-11.66-20.89-19.45-21.19
			c-13.08-0.52-8.37,15.76-8.37,15.76s-8.87-6.25-17.24-6.08S874.01,434.2,883.02,446.67z M917.97,423.12
			c-0.29-1.83,5.52-2.28,5.86,0.08c0.29,2.63-5.61,1.83-5.92-0.08L917.97,423.12z M927.37,442.23c-0.12-1.2,2.4-1.38,2.96,0.1
			c0.33,0.98-2.92,1.08-3.02-0.1H927.37z M895.94,443.34c1.99,0.28,3.1,7.32-0.29,7.18c-2.65-0.11-1.43-7.43,0.23-7.18H895.94z"/>
		<path class="st2" d="M898.61,451.23c0.33-0.88,0.62-1.78,0.9-2.67c-0.25,0.91-0.48,1.82-0.65,2.76c-0.02,0.07-0.1,0.11-0.17,0.08
			C898.63,451.37,898.59,451.3,898.61,451.23z"/>
		<path class="st2" d="M902.07,439.83c0.62-1.81,1.3-3.58,2-5.36c0.39-0.95,0.77-1.89,1.19-2.76c0.29-0.84,0.69-1.63,1.17-2.37
			c-0.42-0.73-0.77-1.49-1.06-2.28c0-0.08,0-0.14,0.11-0.07c0.97,1.23,1.82,2.55,2.55,3.94c0.37,0.62,0.72,1.25,1.08,1.88
			c0.74,0.07,1.47,0.18,2.19,0.33c0.79,0.15,1.57,0.3,2.34,0.48l2.34,0.54c0.76,0.19,1.53,0.44,2.32,0.57
			c0.07,0.02,0.11,0.09,0.09,0.16c-0.02,0.07-0.09,0.11-0.16,0.09c-0.8-0.29-1.62-0.5-2.45-0.63c-0.74-0.17-1.5-0.3-2.26-0.41
			c-0.76-0.11-1.52-0.21-2.29-0.28l-1.72-0.14c0.3,0.55,0.63,1.09,0.94,1.64l0.14,0.26c0.63-0.01,1.26,0.07,1.88,0.22
			c0.68,0.12,1.38,0.25,2.03,0.4c1.38,0.3,2.76,0.63,4.07,1.01c2.84,0.79,5.64,1.7,8.42,2.61c0.17,0,0,0.29-0.1,0.23
			c-2.77-0.94-5.59-1.72-8.45-2.34c-1.38-0.3-2.69-0.62-4.03-0.9l-2.01-0.43c-0.53-0.08-1.06-0.2-1.57-0.34
			c1.45,2.67,2.8,5.37,4.04,8.12c2.76,6.01,5.01,12.19,7.34,18.35c0,0.15-0.18,0.26-0.23,0.11c-2.25-6.12-4.85-12.11-7.8-17.92
			l-1.59-3.19c0,0.22-0.1,0.43-0.14,0.65c-0.14,0.73-0.26,1.46-0.39,2.19c-0.25,1.46-0.5,2.92-0.72,4.38
			c-0.62,2.99-0.97,6.03-1.05,9.09c0,0.19-0.28,0.18-0.25,0c0.18-1.47,0.29-2.95,0.32-4.43c0.1-1.53,0.21-3.06,0.39-4.59
			c0.18-1.53,0.36-2.94,0.61-4.4c0.12-0.73,0.25-1.45,0.39-2.18c0.03-0.55,0.17-1.09,0.41-1.59l-2.3-4.62
			c-0.73-1.38-1.48-2.87-2.22-4.3l-0.99-1.82c-0.24,0.75-0.53,1.49-0.87,2.21c-0.33,0.83-0.68,1.64-1.01,2.47
			c-0.76,1.83-1.38,3.67-2.15,5.52c-0.99,2.62-2.08,5.31-2.9,8.02C900.5,445.19,901.18,442.47,902.07,439.83z"/>
		<path class="st2" d="M899.56,448.47c0-0.21,0.12-0.41,0.19-0.63C899.63,448.09,899.56,448.29,899.56,448.47z"/>
		<polygon class="st6" points="843.16,467.87 844.08,487.35 846.45,537.56 898.25,537.56 900.63,487.35 901.55,467.87 		"/>
		<polygon class="st2" points="843.16,467.87 844.08,487.35 900.63,487.35 901.55,467.87 		"/>
		<rect x="839.46" y="459.98" class="st6" width="65.75" height="15.76"/>
		<rect x="884.96" y="537.57" class="st6" width="9.1" height="8.25"/>
		<rect x="884.96" y="537.57" class="st2" width="9.1" height="4.12"/>
		<rect x="850.64" y="537.57" class="st6" width="9.09" height="8.25"/>
		<rect x="850.64" y="537.57" class="st2" width="9.09" height="4.12"/>
	</g>
	<g id="freepik--Floor--inject-29">
		<polygon class="st2" points="66.38,545.99 178.16,545.66 289.94,545.54 513.5,545.3 737.06,545.54 848.84,545.66 960.62,545.99 
			848.84,546.34 737.06,546.45 513.5,546.68 289.94,546.45 178.16,546.34 		"/>
	</g>
	<g id="freepik--Puff--inject-29">
		<path class="st3" d="M133.59,561.84l199.36,0.85c48.45-38.04,53.46-94.42,18.89-128.59c-20.92-20.68-47.49-16.55-72.79-19.79
			h-0.07c-8.94-0.94-17.63-3.49-25.66-7.53c-26.05-13.79-40.73-46.16-62.65-73.42c-2.76-3.42-5.52-6.74-8.58-9.95
			c-18.02-19.3-53.88-19.87-72.65,7.18C61.78,399.32,83.62,501.62,133.59,561.84z"/>
		<path class="st7" d="M129.17,404.57c5.21,81.78,99.67,112.32,158.66,87.82c51.31-21.32,34.47-69.93-8.78-78.07h-0.07
			c-8.94-0.94-17.63-3.49-25.66-7.53c-26.05-13.79-40.73-46.16-62.65-73.42C158.03,316.4,125.34,344.68,129.17,404.57z"/>
	</g>
	<g id="freepik--Character--inject-29">
		<path class="st8" d="M287.05,575.07c-2.98-1.09-70.1-54.72-71.37-58.39c-0.48-1.38,6.76-11.62,15.86-23.73
			c1.97-2.62,4.01-5.31,6.11-8.02c13.57-17.68,28.38-36.11,28.38-36.11l45,35.75l-29.62,35.12l-6.49,7.72
			c0,0,16.55,32.03,17.47,36.21C293.31,567.79,290.01,576.16,287.05,575.07z"/>
		<path class="st2" d="M287.03,575.07c-2.96-1.09-70.08-54.72-71.35-58.39c-0.4-1.13,4.32-8.12,11.03-17.19
			c9.76,11.66,43.79,46.4,53.08,51.02c5.9,2.95,4.73-2.84,2.52-8.6c4.54,9.06,9.58,19.43,10.11,21.67
			C293.32,567.77,290.01,576.16,287.03,575.07z"/>
		<path class="st6" d="M356.47,415.82c-3.07,23.37-60.67,90.88-67.35,98.61l-1.52,1.76l-47.67-36.63l0.55-0.7l41.97-54.96
			c0,0-69.41,40.51-104.14,22.06c-15.59-8.27-27.15-22.93-27.15-22.93l45.32-24.16c0,0,12.55,4.05,20.56,2.88
			c27.58-4.04,89.54-27.58,104.24-26.96C340.23,375.63,359.31,394.37,356.47,415.82z"/>
		<path class="st2" d="M297.52,403.47c-1.55,1.75-3,3.59-4.33,5.52c-1.49,1.94-2.99,3.87-4.47,5.82l0,0
			c0.28-0.57,0.52-1.14,0.8-1.71c0.94-1.93,1.68-3.93,2.76-5.79c0.03-0.04,0.02-0.1-0.02-0.14s-0.1-0.02-0.14,0.02
			c0,0.01-0.01,0.01-0.01,0.02c-1.14,1.83-2.45,3.58-3.43,5.52c-0.46,0.91-0.9,1.83-1.3,2.76c-0.22,0.51-0.44,1.02-0.65,1.54
			c-0.08,0.23-0.21,0.5-0.28,0.74c-0.66,0.91-1.31,1.82-1.96,2.76c-1.38,2.04-2.65,4.21-4.14,6.23c-0.08,0.11,0.1,0.22,0.17,0.11
			c1.45-1.9,3.07-3.68,4.55-5.52c1.48-1.83,2.92-3.92,4.32-5.92c1.39-2,2.76-3.92,4.14-5.86c1.51-1.92,2.89-3.94,4.14-6.04
			c0.02-0.04,0-0.09-0.04-0.11C297.59,403.41,297.54,403.43,297.52,403.47L297.52,403.47z"/>
		<path class="st2" d="M120.72,363.55c5.32,10.53,17.22,16.68,28.11,19.74c11.11,3.12,24,4.74,35.31,1.67
			c5.05-1.25,9.65-3.87,13.29-7.58c3.78-4.07,5.14-8.89,3.06-13.9c-1.68-4.04-6.44-7.68-5.76-10.91c0.68-3.23,3.83-5.21,5.21-8.16
			c2.34-5.03,0.34-9.65-2.61-13.79c-6.98-10.01-2.33-20.28-5.52-31.56c-1.82-6.41-8.16-18.86-24.57-17.28
			c-6.25,0.61-11.39,5.13-14.95,10.19c-4.14,5.96-4,14.97-8.76,20.53c-4.14,4.74-8.53,4.69-12.52,9.72
			c-1.74,2.19-2.92,4.91-1.56,11.21c0.5,2.28,0.81,5.67-0.57,7.96c-1.92,3.19-6.27,3.9-8.36,7.21
			C117.66,353.11,118.36,358.85,120.72,363.55z"/>
		<path class="st2" d="M193.71,378c5.52,0.25,9.28-6.63,6.73-11.03c-1.63-2.83-4.58-4.61-6.2-7.42c-2.67-4.63,1.19-7.5,3.87-10.93
			c5.85-7.43,1.38-14.22-3.39-20.59c-3.67-4.84-3.64-9.5-2.76-15.29c0-0.1,0.17,0,0.15,0c-0.47,4.32-0.76,8.59,1.48,12.51
			c1.81,3.19,4.59,5.68,6.3,8.95c2.9,4.93,2.27,11.17-1.54,15.43c-1.1,1.38-2.96,2.76-3.63,4.4c-1.57,3.79,0.95,6.45,3.34,8.98
			c1.82,1.94,3.85,4.14,4.14,6.89c0.39,4.23-4.29,8.91-8.48,8.48C193.51,378.32,193.49,378,193.71,378z"/>
		<path class="st2" d="M189.99,381.43c3.65-1.31,7.56-2.37,10.18-5.43c3.9-4.54,1.19-9.13-1.38-13.44
			c-1.24-1.68-1.74-3.79-1.38-5.85c0.8-3.27,3.75-5.52,4.83-8.71c2.55-7.58-4.14-13.88-6.73-20.39s-2.56-13.79-2.59-20.78
			c0.02-0.06,0.09-0.1,0.16-0.08c0.04,0.01,0.06,0.04,0.08,0.08c0.08,9,0.92,17.62,5.52,25.52c3.25,5.52,6.69,11.46,3.35,17.75
			c-0.83,1.54-2.1,2.85-2.88,4.4c-1.56,3.09-1.12,5.39,0.52,8.18c1.64,2.79,3.5,5.52,3.23,8.73c-0.52,6.36-7.5,9.2-12.78,10.58
			c-0.15,0.02-0.29-0.09-0.3-0.25C189.79,381.6,189.87,381.47,189.99,381.43z"/>
		<path class="st2" d="M119.51,346.34c3.38-3.24,7.93-4.29,7.9-9.89c0-3.85-1.38-7.21,0.1-11.03c1.38-2.99,3.73-5.42,6.67-6.89
			c3.64-2.1,7.5-3.61,10.45-6.71c3.23-3.38,5.23-7.69,7.22-11.83c0-0.08,0.19,0,0.15,0c-2.37,5.72-5.05,11.53-10.38,15.1
			c-2.76,1.86-5.97,3.05-8.73,4.94c-4.98,3.41-5.85,8.04-5.09,13.66c0.34,2.59,0.59,5.16-0.98,7.4c-1.57,2.25-4.14,3.32-6.23,5.07
			c-8.63,7.4-0.18,20.6,8.27,23.92c0.39,0.15,0.22,0.74-0.18,0.61c-6.37-2.28-12.13-9.65-12.33-16.44
			C116.26,351.3,117.4,348.42,119.51,346.34z"/>
		<path class="st2" d="M118.89,351.09c0.83-3.92,3.68-5.61,6.15-8.27c3.89-4.27,1.75-9.65,2.37-14.84c0.49-3.42,2.34-6.49,5.13-8.53
			c3.61-2.94,7.86-4.7,11.03-8.27c3.36-3.82,5.53-8.54,6.25-13.58c0-0.1,0.15,0,0.14,0c-0.69,6.92-4.27,13.23-9.86,17.37
			c-3.56,2.62-8.04,4.44-10.51,8.4c-2.61,4.14-1.13,8.76-1.38,13.37c-0.09,2.76-1.3,5.37-3.35,7.22c-1.66,1.32-3.12,2.88-4.32,4.63
			c-1.27,2.67-1.56,5.71-0.8,8.58c1.94,8.93,9.57,15.77,17.52,18.7c0.28,0.1,0.17,0.57-0.11,0.47c-7.31-2.58-13.29-7.96-16.61-14.96
			C118.91,358.21,118.33,354.6,118.89,351.09z"/>
		<path class="st8" d="M172.94,352.99c8.48,12.17,37.57,43.79,57.69,48.38c11.03,2.52,64.65,10.01,71.99,3.34
			c8.59-7.82,4.61-37.31-2.22-37.59c-20.86-0.81-59.48,3.27-69.12,1.13c-4.36-0.95-27.48-15.87-52.17-27.8
			C169.74,335.93,167.42,345.06,172.94,352.99z"/>
		<path class="st0" d="M289.02,365.51l-3.58,44.12c0,0-48.59-0.77-63.26-9.02c-14.67-8.25-38.61-29.3-47.69-43.91
			s-6.08-22.6,11.75-13.61c17.83,8.99,41.92,23.44,45.07,24.2C234.46,368.05,289.02,365.51,289.02,365.51z"/>
		<path class="st1" d="M178.13,339.89c-0.7,1.04-2.1,1.31-3.14,0.61c-0.42-0.28-0.73-0.7-0.89-1.18
			C175.47,339.32,176.83,339.51,178.13,339.89z M176.26,358.85h-0.34c0.73,1.06,1.53,2.15,2.4,3.27c0.16-0.31,0.24-0.66,0.23-1.01
			C178.53,359.86,177.51,358.86,176.26,358.85z M193.23,358.85c-1.27-0.01-2.31,1.02-2.32,2.29c-0.01,1.27,1.02,2.31,2.29,2.32
			c1.27,0.01,2.31-1.02,2.32-2.29c0-0.01,0-0.02,0-0.03C195.51,359.88,194.49,358.86,193.23,358.85z M210.16,358.85
			c-1.27-0.01-2.31,1.02-2.32,2.29c-0.01,1.27,1.02,2.31,2.29,2.32c1.27,0.01,2.31-1.02,2.32-2.29c0-0.01,0-0.02,0-0.03
			C212.45,359.87,211.43,358.85,210.16,358.85L210.16,358.85z M184.7,347.46c-1.26,0-2.29,1.02-2.29,2.29
			c0,1.26,1.02,2.29,2.29,2.29c1.26,0,2.29-1.02,2.29-2.29c-0.01-1.23-1-2.23-2.23-2.26L184.7,347.46z M199.41,350.07
			c0.15,1.13,1.12,1.97,2.26,1.97c0.32,0,0.64-0.07,0.94-0.21L199.41,350.07z M210.16,381.46c-1.26,0-2.29,1.02-2.29,2.29
			c0,1.26,1.02,2.29,2.29,2.29c1.26,0,2.29-1.02,2.29-2.29C212.45,382.49,211.43,381.46,210.16,381.46L210.16,381.46z
			 M227.14,381.46c-1.26,0-2.29,1.02-2.29,2.29c0,1.26,1.02,2.29,2.29,2.29c1.26,0,2.29-1.02,2.29-2.29c0-1.24-0.99-2.26-2.23-2.29
			H227.14z M244.12,381.46c-1.26,0-2.29,1.02-2.29,2.29c0,1.26,1.02,2.29,2.29,2.29c1.26,0,2.29-1.02,2.29-2.29
			c-0.01-1.24-0.99-2.25-2.23-2.29H244.12z M261.1,381.46c-1.26,0-2.29,1.02-2.29,2.29c0,1.26,1.02,2.29,2.29,2.29
			s2.29-1.02,2.29-2.29c0-1.23-0.97-2.24-2.21-2.29H261.1z M185.04,370.1c0.62,0.66,1.25,1.38,1.9,2c-0.1-1.01-0.85-1.82-1.85-2
			H185.04z M201.67,370.1c-1.26,0-2.29,1.02-2.29,2.29c0,1.26,1.02,2.29,2.29,2.29c1.26,0,2.29-1.02,2.29-2.29
			c0.02-1.25-0.98-2.29-2.23-2.32L201.67,370.1z M218.64,370.1c-1.26,0.01-2.28,1.04-2.27,2.3c0.01,1.26,1.04,2.28,2.3,2.27
			c1.26-0.01,2.28-1.03,2.28-2.29c0.02-1.26-0.99-2.29-2.25-2.32L218.64,370.1z M235.63,370.1c-1.26,0-2.29,1.02-2.29,2.29
			c0,1.26,1.02,2.29,2.29,2.29c1.26,0,2.29-1.02,2.29-2.29c0.02-1.25-0.98-2.29-2.23-2.32L235.63,370.1z M252.6,370.1
			c-1.26,0-2.29,1.02-2.29,2.29c0,1.26,1.02,2.29,2.29,2.29c1.26,0,2.29-1.02,2.29-2.29c0.02-1.25-0.98-2.29-2.23-2.32L252.6,370.1z
			 M269.59,370.1c-1.26,0-2.29,1.02-2.29,2.29c0,1.26,1.02,2.29,2.29,2.29s2.29-1.02,2.29-2.29c0.02-1.25-0.98-2.29-2.23-2.32
			L269.59,370.1z M244.11,404.07c-1.2-0.01-2.19,0.91-2.28,2.11c1.49,0.23,2.99,0.45,4.52,0.66c0.01-0.16,0.01-0.32,0-0.48
			c0.02-1.24-0.96-2.26-2.19-2.32L244.11,404.07z M218.64,392.69c-1.26,0.01-2.28,1.04-2.27,2.3c0.01,1.26,1.04,2.28,2.3,2.27
			c1.26-0.01,2.28-1.03,2.28-2.29c0.02-1.26-0.99-2.29-2.25-2.32L218.64,392.69z M235.63,392.69c-1.26,0-2.29,1.02-2.29,2.29
			c0,1.26,1.02,2.29,2.29,2.29c1.26,0,2.29-1.02,2.29-2.29c0.02-1.25-0.98-2.29-2.23-2.32L235.63,392.69z M252.6,392.69
			c-1.26,0-2.29,1.02-2.29,2.29c0,1.26,1.02,2.29,2.29,2.29c1.26,0,2.29-1.02,2.29-2.29c0.02-1.25-0.98-2.29-2.23-2.32L252.6,392.69
			z M269.59,392.69c-1.26,0-2.29,1.02-2.29,2.29c0,1.26,1.02,2.29,2.29,2.29s2.29-1.02,2.29-2.29c0.02-1.25-0.98-2.29-2.23-2.32
			L269.59,392.69z M278.07,381.49c-1.26,0-2.29,1.02-2.29,2.29c0,1.26,1.02,2.29,2.29,2.29s2.29-1.02,2.29-2.29
			c0.01-1.25-0.98-2.28-2.23-2.32L278.07,381.49z M269.59,370.1c-1.26,0-2.29,1.02-2.29,2.29c0,1.26,1.02,2.29,2.29,2.29
			s2.29-1.02,2.29-2.29c0.02-1.25-0.98-2.29-2.23-2.32L269.59,370.1z M286.55,370.1c-1.26,0-2.29,1.02-2.29,2.29
			c0,1.26,1.02,2.29,2.29,2.29c0.66,0,1.3-0.29,1.72-0.8l0.22-2.69l0,0c-0.4-0.67-1.11-1.09-1.89-1.12L286.55,370.1z M261.18,404.05
			c-0.44-0.01-0.86,0.12-1.23,0.36c-0.08,0.04-0.16,0.1-0.22,0.17c-0.27,0.21-0.48,0.49-0.62,0.8c-0.05,0.1-0.09,0.2-0.11,0.3
			c-0.01,0.02-0.01,0.05,0,0.07c-0.03,0.13-0.05,0.26-0.07,0.39l0,0c-0.01,0.06-0.01,0.12,0,0.18c0,0.8,0.42,1.55,1.12,1.96
			l2.01,0.17l0,0c0.7-0.29,1.22-0.9,1.38-1.64c0.01-0.16,0.01-0.32,0-0.48C263.43,405.07,262.42,404.06,261.18,404.05z
			 M278.17,404.05c-1.26,0-2.29,1.02-2.29,2.29c0,1.26,1.02,2.29,2.29,2.29s2.29-1.02,2.29-2.29
			C280.46,405.07,279.43,404.05,278.17,404.05c-0.01,0-0.03,0-0.04,0H278.17z M269.69,392.66c-1.26,0-2.29,1.02-2.29,2.29
			c0,1.26,1.02,2.29,2.29,2.29s2.29-1.02,2.29-2.29C271.98,393.68,270.95,392.66,269.69,392.66c-0.01,0-0.03,0-0.04,0H269.69z
			 M286.65,392.66c-1.26-0.05-2.33,0.94-2.37,2.21c-0.05,1.26,0.94,2.33,2.21,2.37l0.37-4.56L286.65,392.66z"/>
		<path class="st2" d="M281.2,368.57c0-0.11-0.18-0.15-0.19,0c-0.61,3.03-0.85,6.15-1.2,9.21c-0.34,3.06-0.66,6.36-0.95,9.54
			c-0.57,6.34-1.23,12.73-1.38,19.1c0.03,0.11,0.14,0.18,0.25,0.15c0.07-0.02,0.13-0.08,0.15-0.15c0.97-6.26,1.46-12.62,2.05-18.9
			c0.3-3.12,0.58-6.25,0.8-9.38S281.24,371.75,281.2,368.57z"/>
		<path class="st0" d="M129.41,433.65c2.66,0.85,78.43-21.07,78.43-21.07l-8.95-26.31c0,0,4.43-8.45,2.37-16.55
			c-2.76-10.86-22.86-28.75-24.45-29.8c-6.34-4.21-12.3-4.14-17.55-1.38C137.35,350.18,129.41,433.65,129.41,433.65z"/>
		<path class="st2" d="M187.21,349.35c1.96,2.28,4.05,4.44,6.07,6.66c-0.95-1.65-1.88-3.32-2.88-4.95l0,0
			c1.47,1.91,2.76,3.95,3.83,6.11c1.5,1.68,2.88,3.46,4.14,5.34c1.6,2.23,2.79,4.73,3.53,7.38c0.62,2.66,0.7,5.43,0.23,8.12
			c-0.58,3.09-1.44,6.12-2.56,9.06c-0.14,0.4-0.69,0.15-0.58-0.23c1.38-5.14,3.03-10.56,1.89-15.93c-1.14-5.36-4.45-9.79-7.67-13.99
			c-1.9-2.58-3.95-5.03-6.16-7.35C186.96,349.39,187.12,349.2,187.21,349.35z"/>
		<path class="st1" d="M161.56,338.58c0.01,1.26-1.01,2.29-2.27,2.3c0,0-0.01,0-0.01,0c-0.8,0-1.54-0.42-1.94-1.12
			c0.61-0.46,1.25-0.87,1.92-1.23c0.67-0.35,1.37-0.67,2.08-0.94C161.48,337.91,161.56,338.24,161.56,338.58z M176.81,339.88
			c-0.88-0.59-1.8-1.13-2.76-1.6c-0.01,0.1-0.01,0.2,0,0.3c-0.01,1.26,1.01,2.29,2.27,2.3c0,0,0.01,0,0.01,0
			c0.46,0,0.92-0.14,1.3-0.41C177.2,340.17,176.93,339.96,176.81,339.88z M144.48,360.56c-0.32,0.85-0.63,1.71-0.95,2.59
			c0.66-0.42,1.06-1.15,1.06-1.93c0.01-0.24-0.02-0.49-0.11-0.72V360.56z M159.29,358.85c-1.27-0.01-2.31,1.02-2.32,2.29
			c-0.01,1.27,1.02,2.31,2.29,2.32c1.27,0.01,2.31-1.02,2.32-2.29c0-0.01,0-0.02,0-0.03C161.58,359.87,160.55,358.85,159.29,358.85
			L159.29,358.85z M176.26,358.85c-1.27-0.01-2.31,1.02-2.32,2.29c-0.01,1.27,1.02,2.31,2.29,2.32c1.27,0.01,2.31-1.02,2.32-2.29
			c0-0.01,0-0.02,0-0.03C178.55,359.87,177.52,358.85,176.26,358.85L176.26,358.85z M193.23,358.85c-1.27-0.01-2.31,1.02-2.32,2.29
			c-0.01,1.27,1.02,2.31,2.29,2.32c1.27,0.01,2.31-1.02,2.32-2.29c0-0.01,0-0.02,0-0.03C195.51,359.88,194.49,358.86,193.23,358.85z
			 M150.79,347.46h-0.11c-0.66,1.05-1.3,2.16-1.92,3.35c0.59,1.12,1.98,1.54,3.1,0.94c1.12-0.59,1.54-1.98,0.94-3.1
			c-0.4-0.74-1.17-1.21-2.01-1.21V347.46z M167.77,347.46c-1.26,0-2.29,1.02-2.29,2.29s1.02,2.29,2.29,2.29s2.29-1.02,2.29-2.29
			c-0.02-1.25-1.04-2.26-2.29-2.26V347.46z M187,349.39l-1.85-1.89c-0.14-0.01-0.28-0.01-0.41,0c-1.26,0-2.29,1.02-2.29,2.29
			c0,1.26,1.02,2.29,2.29,2.29c1.26,0,2.29-1.02,2.29-2.29c0-0.12-0.01-0.25-0.03-0.37V349.39z M142.3,381.46
			c-1.26,0-2.29,1.02-2.29,2.29c0,1.26,1.02,2.29,2.29,2.29s2.29-1.02,2.29-2.29C144.58,382.49,143.56,381.47,142.3,381.46z
			 M159.29,381.46c-1.26,0-2.29,1.02-2.29,2.29c0,1.26,1.02,2.29,2.29,2.29s2.29-1.02,2.29-2.29
			C161.58,382.49,160.55,381.46,159.29,381.46L159.29,381.46z M176.26,381.46c-1.26,0-2.29,1.02-2.29,2.29
			c0,1.26,1.02,2.29,2.29,2.29c1.26,0,2.29-1.02,2.29-2.29C178.55,382.49,177.52,381.46,176.26,381.46L176.26,381.46z
			 M193.23,381.46c-1.26,0-2.29,1.02-2.29,2.29c0,1.26,1.02,2.29,2.29,2.29c1.26,0,2.29-1.02,2.29-2.29
			C195.51,382.49,194.49,381.47,193.23,381.46z M150.79,370.07c-1.26,0-2.29,1.02-2.29,2.29c0,1.26,1.02,2.29,2.29,2.29
			c1.26,0,2.29-1.02,2.29-2.29C153.08,371.1,152.06,370.07,150.79,370.07L150.79,370.07z M167.77,370.07
			c-1.26,0-2.29,1.02-2.29,2.29c0,1.26,1.02,2.29,2.29,2.29s2.29-1.02,2.29-2.29C170.05,371.1,169.03,370.07,167.77,370.07
			L167.77,370.07z M184.75,370.07c-1.26,0-2.29,1.02-2.29,2.29c0,1.26,1.02,2.29,2.29,2.29c1.26,0,2.29-1.02,2.29-2.29
			C187.04,371.1,186.02,370.07,184.75,370.07L184.75,370.07z M201.3,370.07c-1.25,0.2-2.1,1.37-1.91,2.62
			c0.18,1.12,1.15,1.94,2.28,1.93l0,0c0.08-1.51-0.03-3.03-0.32-4.52L201.3,370.07z M142.24,404.02c-1.26,0-2.29,1.02-2.29,2.29
			c0,1.26,1.02,2.29,2.29,2.29s2.29-1.02,2.29-2.29c-0.01-1.23-1-2.23-2.23-2.26L142.24,404.02z M159.23,404.02
			c-1.26,0-2.29,1.02-2.29,2.29c0,1.26,1.02,2.29,2.29,2.29c1.26,0,2.29-1.02,2.29-2.29c-0.01-1.23-1-2.23-2.23-2.26L159.23,404.02z
			 M176.2,404.02c-1.26,0-2.29,1.02-2.29,2.29c0,1.26,1.02,2.29,2.29,2.29c1.26,0,2.29-1.02,2.29-2.29c-0.01-1.23-1-2.23-2.23-2.26
			L176.2,404.02z M193.18,404.02c-1.26,0-2.29,1.02-2.29,2.29c0,1.26,1.02,2.29,2.29,2.29c1.26,0,2.29-1.02,2.29-2.29
			c-0.01-1.23-1-2.23-2.23-2.26L193.18,404.02z M135.45,393.39c-0.25,1.2-0.48,2.39-0.7,3.58c0.79-0.38,1.3-1.19,1.3-2.07
			c0.01-0.55-0.18-1.08-0.54-1.49L135.45,393.39z M150.74,392.63c-1.26,0-2.29,1.02-2.29,2.29c0,1.26,1.02,2.29,2.29,2.29
			c1.26,0,2.29-1.02,2.29-2.29c-0.01-1.23-1-2.23-2.23-2.26L150.74,392.63z M167.71,392.63c-1.26,0-2.29,1.02-2.29,2.29
			c0,1.26,1.02,2.29,2.29,2.29s2.29-1.02,2.29-2.29c-0.01-1.23-1-2.23-2.23-2.26L167.71,392.63z M184.7,392.63
			c-1.26,0-2.29,1.02-2.29,2.29c0,1.26,1.02,2.29,2.29,2.29c1.26,0,2.29-1.02,2.29-2.29c-0.01-1.23-1-2.23-2.23-2.26L184.7,392.63z
			 M201.04,392.71c-1.22,0.34-1.93,1.6-1.6,2.82c0.28,1,1.19,1.69,2.23,1.68c0.28,0,0.57-0.05,0.83-0.17L201.04,392.71z
			 M142.24,426.6c-1.26,0-2.29,1.02-2.3,2.28c0,0.95,0.58,1.8,1.47,2.15l0,0l2.55-0.66c0.36-0.41,0.55-0.93,0.55-1.48
			c-0.01-1.23-0.99-2.22-2.22-2.26L142.24,426.6z M133.76,415.2c-1.27-0.01-2.31,1.02-2.32,2.29c-0.01,1.27,1.02,2.31,2.29,2.32
			s2.31-1.02,2.32-2.29c0-0.01,0-0.02,0-0.03c-0.01-1.23-1-2.23-2.23-2.26L133.76,415.2z M150.74,415.2
			c-1.27-0.01-2.31,1.02-2.32,2.29c-0.01,1.27,1.02,2.31,2.29,2.32c1.27,0.01,2.31-1.02,2.32-2.29c0-0.01,0-0.02,0-0.03
			c-0.01-1.23-1-2.23-2.23-2.26L150.74,415.2z M167.71,415.2c-1.27-0.01-2.31,1.02-2.32,2.29s1.02,2.31,2.29,2.32
			c1.27,0.01,2.31-1.02,2.32-2.29c0-0.01,0-0.02,0-0.03c-0.02-1.23-1-2.22-2.23-2.26L167.71,415.2z M184.68,415.2
			c-1.26,0.01-2.28,1.03-2.29,2.29c0,0.83,0.45,1.59,1.17,1.99l3.12-0.88c0.2-0.33,0.3-0.72,0.29-1.1c-0.01-1.23-1-2.23-2.23-2.26
			L184.68,415.2z"/>
		<path class="st8" d="M163.99,340.01c0.3,1.38,6.71,10.37,12.97,10.16c2.04,0,2.15-11.22,2.15-11.22l0.21-0.83l2.76-11.5
			l-15.37-10.07C166.7,316.56,163.86,339.44,163.99,340.01z"/>
		<path class="st2" d="M182.06,326.63l-2.76,11.5c-6.28-2.46-11.21-7.48-13.58-13.79c0.48-3.97,0.88-7.27,0.94-7.75
			c0-0.02,0-0.05,0-0.07l1.94,1.17L182.06,326.63z"/>
		<path class="st8" d="M196.97,305.43c5.12,20.12-6.34,25.45-10.69,26.56c-3.93,0.99-17.47,3.89-24.64-15.58
			c-7.17-19.47,0.57-28.21,9.44-30.97S191.85,285.33,196.97,305.43z"/>
		<path class="st2" d="M193.11,302.94c-0.46,0.03-0.92,0.03-1.38,0c-0.51,0.06-1.02-0.05-1.46-0.32c-0.25-0.23-0.31-0.59-0.15-0.88
			c0.39-0.54,1.04-0.82,1.7-0.74c0.67-0.02,1.32,0.21,1.83,0.63c0.29,0.32,0.26,0.82-0.06,1.11
			C193.45,302.86,193.29,302.93,193.11,302.94z"/>
		<path class="st2" d="M179.58,307.17c0.47-0.15,0.87-0.36,1.38-0.55c0.49-0.12,0.94-0.4,1.25-0.8c0.15-0.3,0.08-0.67-0.17-0.9
			c-0.55-0.36-1.26-0.4-1.85-0.1c-0.64,0.22-1.17,0.66-1.5,1.24c-0.18,0.41,0.01,0.88,0.42,1.05
			C179.26,307.18,179.43,307.2,179.58,307.17z"/>
		<path class="st2" d="M183.03,309.7c0,0-0.1,0.1-0.08,0.15c0.33,1.38,0.47,3.01-0.69,3.72c0,0,0,0.08,0,0
			C183.77,313.11,183.55,310.95,183.03,309.7z"/>
		<path class="st2" d="M181.5,308.51c-2.26,0.29-1.52,4.78,0.57,4.52S183.39,308.26,181.5,308.51z"/>
		<path class="st2" d="M180.64,308.9c-0.34,0.32-0.66,0.83-1.12,0.95s-1.03-0.25-1.48-0.65h-0.07c0.14,0.85,0.61,1.7,1.56,1.67
			s1.38-0.88,1.38-1.79C180.97,308.98,180.8,308.76,180.64,308.9z"/>
		<path class="st2" d="M191.03,307.9c0,0,0.11,0,0.12,0.11c0.18,1.38,0.61,2.98,1.94,3.24v0.08
			C191.52,311.36,190.96,309.21,191.03,307.9z"/>
		<path class="st2" d="M192.05,306.25c2.21-0.52,3.09,3.96,1.03,4.44C191.03,311.17,190.19,306.69,192.05,306.25z"/>
		<path class="st2" d="M193.03,306.36c0.4,0.17,0.84,0.54,1.27,0.48c0.43-0.06,0.76-0.62,0.98-1.16c0,0,0.07,0,0.08,0
			c0.19,0.85,0.08,1.79-0.7,2.12c-0.79,0.33-1.38-0.33-1.79-1.14C192.79,306.57,192.87,306.29,193.03,306.36z"/>
		<path class="st2" d="M184.89,322.08c0.36,0.29,0.73,0.72,1.25,0.72c0.52-0.05,1.03-0.22,1.48-0.5c0,0,0.1,0,0,0.07
			c-0.35,0.6-1.01,0.96-1.71,0.92c-0.6-0.1-1.09-0.55-1.23-1.14C184.73,322.06,184.84,322.02,184.89,322.08z"/>
		<path class="st2" d="M190.02,315.69c0,0,0.59,2.05,0.74,3.03c0,0.1-0.22,0.17-0.55,0.25l0,0c-1.67,0.57-3.53,0.15-4.8-1.08
			c-0.08-0.08,0-0.21,0.12-0.15c1.38,0.67,2.94,0.87,4.45,0.59c0-0.29-1.14-3.47-0.99-3.52c0.78-0.04,1.55,0.02,2.32,0.18
			c-1.12-4.29-2.92-8.37-3.97-12.67c-0.01-0.08,0.05-0.14,0.12-0.15c0.05-0.01,0.1,0.02,0.13,0.06c2.06,4.31,3.68,8.82,4.85,13.46
			C192.57,316.24,190.43,315.8,190.02,315.69z"/>
		<path class="st2" d="M190.1,318.59c-0.39,0.91-1.01,1.7-1.81,2.3c-0.45,0.31-0.97,0.47-1.52,0.48c-1.19,0-1.46-1.03-1.48-1.96
			c0-0.49,0.05-0.98,0.17-1.46C186.91,318.65,188.53,318.88,190.1,318.59z"/>
		<path class="st9" d="M188.3,320.89c-0.45,0.31-0.97,0.47-1.52,0.48c-1.19,0-1.46-1.03-1.48-1.96
			C186.52,319.18,187.74,319.78,188.3,320.89z"/>
		<path class="st2" d="M161.91,317.49c2.6-1.57,4.17-4.4,4.14-7.43c3.44-1.98,6.29-4.84,8.27-8.27c-0.1,0.44-0.79,3.63-1.2,5.24
			c12.89-3.79,15.94-14.26,15.94-14.26c2.75,2.06,4.99,4.7,6.58,7.75c0,0-0.73-8.07-5.42-13.04c-3.12-3.54-7.91-5.13-12.53-4.14
			c-6.77-0.93-13.51,1.92-17.57,7.42C152.46,300.94,161.91,317.49,161.91,317.49z"/>
		<path class="st2" d="M182.82,303.92c-2,1.36-4.19,2.43-6.49,3.16l0,0c3.59-1.38,6.73-3.73,9.06-6.8c0.99-1.31,1.8-2.73,2.43-4.25
			c0.75-1.63,1.17-3.39,1.24-5.18c0-0.14,0.21-0.14,0.21,0c0.12,1.78-0.05,3.56-0.51,5.28c-0.53,1.69-1.38,3.26-2.48,4.65
			c-0.99,1.22-2.14,2.3-3.43,3.2"/>
		<path class="st8" d="M165.23,317.14c0,0-5.52-5.67-8.15-3.58s2.23,10.78,5.85,11.49c1.88,0.5,3.82-0.62,4.32-2.51
			c0.01-0.04,0.02-0.07,0.03-0.11L165.23,317.14z"/>
		<path class="st2" d="M158.54,316.01c0,0,0,0.08,0,0.1c2.4,0.74,4.37,2.46,5.43,4.73c-0.71-0.81-1.95-0.9-2.76-0.19
			c-0.07,0.06-0.13,0.12-0.19,0.19c0,0,0,0.15,0.08,0.12c0.82-0.42,1.81-0.27,2.47,0.36c0.52,0.52,0.98,1.09,1.38,1.71
			c0.15,0.19,0.51,0,0.4-0.22l0,0C164.93,319.65,161.91,315.78,158.54,316.01z"/>
		<path class="st8" d="M148.41,357.07c-6.09,34.57-0.21,60.45,5.67,63.66c15.81,8.63,53.77-8.88,64.46-12.41
			c4.33-1.38-15.39-34.47-19.81-32.46c-10.4,4.8-24.98,12.97-25.58,12.91c-1.17-0.12-2.54-8.93-8.58-34.65
			C159.69,333.37,150.88,342.94,148.41,357.07z"/>
		<path class="st8" d="M253.04,359.54c1.08,4.34-9.84,6.11-9.84,6.11c1.82,0.65,3.35,1.91,4.33,3.57c1.59,3.01-2.43,6.89-2.43,6.89
			c1.74,1.07,3.13,2.63,3.97,4.49c1.23,3.03-2.28,7.46-2.28,7.46c1.06,1.86,1.41,4.05,0.99,6.15c-1.38,5.52-9.89,7.76-14.9,10.18
			c-5.38,2.56-14.27,3.52-18.31,5.34l-17.5-32.04c0,0,16.9-17.92,26.54-20.68C228.98,355.4,251.39,352.91,253.04,359.54z"/>
		<path class="st2" d="M243.08,365.54c-6.11-0.02-12.2,0.7-18.13,2.15c-0.12,0-0.08,0.23,0,0.21c5.87-1.28,12.22-1.02,18.12-2.07
			c0.08-0.02,0.13-0.1,0.11-0.18C243.16,365.59,243.12,365.55,243.08,365.54z"/>
		<path class="st2" d="M244.84,375.63c-1.41,0.08-2.8,0.33-4.14,0.76c-1.38,0.37-2.84,0.77-4.26,1.19
			c-2.82,0.83-5.63,1.75-8.41,2.76c-0.12,0-0.08,0.23,0,0.19c2.83-0.81,5.65-1.6,8.51-2.3l4.29-1.02c1.37-0.23,2.71-0.6,4-1.12
			c0.13,0,0.23-0.09,0.23-0.22C245.07,375.74,244.97,375.63,244.84,375.63z"/>
		<path class="st2" d="M246.67,388.02c-1.26,0.08-2.49,0.38-3.64,0.88l-3.85,1.19c-2.56,0.79-5.13,1.56-7.72,2.25
			c-0.14,0-0.08,0.25,0,0.21c2.63-0.69,5.28-1.38,7.91-2.05l3.87-1.06c1.21-0.22,2.36-0.66,3.42-1.28V388.02z"/>
		<path class="st0" d="M197.62,375.63l18.17,38.87c0,0-56.38,16.45-64.03,6.55s-7.13-41.03-3.53-62.57
			c3.6-21.54,13.28-21.95,17.52-2.48s6.74,31.71,7.5,31.71C174.01,387.71,197.62,375.63,197.62,375.63z"/>
		<path class="st1" d="M161.58,361.17c-0.02,1.26-1.05,2.28-2.32,2.26c-1.26-0.02-2.28-1.05-2.26-2.32
			c0.02-1.25,1.04-2.26,2.29-2.26C160.56,358.86,161.58,359.89,161.58,361.17C161.58,361.17,161.58,361.17,161.58,361.17z
			 M151.26,347.53c-0.62,1.38-1.14,2.8-1.56,4.26c0.33,0.18,0.71,0.28,1.09,0.28c1.26,0.02,2.31-0.99,2.33-2.25
			C153.14,348.7,152.35,347.74,151.26,347.53z M159.29,381.46c-1.26,0-2.29,1.02-2.29,2.29c0,1.26,1.02,2.29,2.29,2.29
			s2.29-1.02,2.29-2.29C161.57,382.49,160.55,381.46,159.29,381.46L159.29,381.46z M193.23,381.46c-1.26,0-2.29,1.02-2.29,2.29
			c0,1.26,1.02,2.29,2.29,2.29c1.26,0,2.29-1.02,2.29-2.29C195.51,382.49,194.49,381.47,193.23,381.46L193.23,381.46z
			 M150.79,370.07c-1.26,0-2.29,1.02-2.29,2.29c0,1.26,1.02,2.29,2.29,2.29c1.26,0,2.29-1.02,2.29-2.29
			C153.08,371.1,152.06,370.07,150.79,370.07L150.79,370.07z M168.86,370.36L168.86,370.36c-0.33-0.18-0.71-0.28-1.09-0.28
			c-1.26,0-2.29,1.02-2.29,2.29s1.02,2.29,2.29,2.29c0.72,0,1.4-0.34,1.83-0.91l0,0c-0.25-1.12-0.5-2.22-0.8-3.39L168.86,370.36z
			 M159.29,404.05c-1.26,0-2.29,1.02-2.29,2.29c0,1.26,1.02,2.29,2.29,2.29s2.29-1.02,2.29-2.29
			C161.57,405.07,160.55,404.05,159.29,404.05L159.29,404.05z M176.26,404.05c-1.26,0-2.29,1.02-2.29,2.29
			c0,1.26,1.02,2.29,2.29,2.29c1.26,0,2.29-1.02,2.29-2.29C178.55,405.07,177.52,404.05,176.26,404.05L176.26,404.05z
			 M193.23,404.05c-1.26,0-2.29,1.02-2.29,2.29c0,1.26,1.02,2.29,2.29,2.29c1.26,0,2.29-1.02,2.29-2.29
			C195.52,405.07,194.5,404.05,193.23,404.05L193.23,404.05z M210.96,404.18c-0.24-0.09-0.5-0.14-0.76-0.14
			c-1.26,0-2.29,1.02-2.29,2.29s1.02,2.29,2.29,2.29c0.96,0.01,1.81-0.59,2.14-1.49L210.96,404.18z M150.79,392.66
			c-1.26,0-2.29,1.02-2.29,2.29c0,1.26,1.02,2.29,2.29,2.29c1.26,0,2.29-1.02,2.29-2.29C153.08,393.68,152.06,392.66,150.79,392.66
			L150.79,392.66z M167.77,392.66c-1.26,0-2.29,1.02-2.29,2.29c0,1.26,1.02,2.29,2.29,2.29s2.29-1.02,2.29-2.29
			C170.05,393.68,169.03,392.66,167.77,392.66L167.77,392.66z M184.75,392.66c-1.26,0-2.29,1.02-2.29,2.29
			c0,1.26,1.02,2.29,2.29,2.29c1.26,0,2.29-1.02,2.29-2.29C187.04,393.68,186.02,392.66,184.75,392.66L184.75,392.66z
			 M201.73,392.66c-1.26,0-2.29,1.02-2.29,2.29c0,1.26,1.02,2.29,2.29,2.29c1.26,0,2.29-1.02,2.29-2.29
			C204.01,393.68,202.99,392.66,201.73,392.66L201.73,392.66z M150.79,415.23c-0.65,0-1.27,0.27-1.7,0.76
			c0.47,1.33,1.07,2.6,1.79,3.81c1.22-0.04,2.19-1.05,2.19-2.28C153.07,416.26,152.05,415.24,150.79,415.23L150.79,415.23z
			 M167.77,415.23c-1.27-0.01-2.31,1.02-2.32,2.29c-0.01,1.27,1.02,2.31,2.29,2.32c1.27,0.01,2.31-1.02,2.32-2.29
			c0-0.01,0-0.02,0-0.03C170.05,416.26,169.03,415.24,167.77,415.23L167.77,415.23z M184.75,415.23c-1.27-0.01-2.31,1.02-2.32,2.29
			c-0.01,1.27,1.02,2.31,2.29,2.32c1.27,0.01,2.31-1.02,2.32-2.29c0-0.01,0-0.02,0-0.03C187.04,416.25,186.02,415.23,184.75,415.23
			L184.75,415.23z M201.73,415.23c-1.26,0-2.29,1.02-2.29,2.29l0,0c0,0.4,0.11,0.8,0.32,1.14l4.25-1.02c0.01-0.04,0.01-0.08,0-0.12
			C203.99,416.26,202.98,415.24,201.73,415.23L201.73,415.23z"/>
		<path class="st2" d="M190.27,380.91c0-0.1-0.23,0-0.19,0.07c1.01,2.92,2.37,5.74,3.63,8.56c1.25,2.83,2.63,5.82,4,8.71
			c2.76,5.76,5.36,11.61,8.41,17.19c0.12,0.25,0.44,0,0.34-0.18c-2.33-5.89-5.1-11.62-7.78-17.36c-1.38-2.84-2.66-5.68-4.04-8.49
			C193.26,386.6,191.91,383.59,190.27,380.91z"/>
		<path class="st2" d="M185.99,421.64c-1.59,0.1-3.17,0.37-4.72,0.79c-1.63,0.29-3.27,0.55-4.91,0.76
			c-3.17,0.44-6.37,0.72-9.57,0.83c-3.16,0.08-10.95-0.39-13.35-2.56c-2-1.91-3.43-4.34-4.14-7.02c-0.85-3.64-1.49-7.32-1.93-11.03
			c-0.9-7.88-1.15-15.81-0.74-23.73c0.08-2.21,0.22-4.41,0.39-6.6s0.43-4.49,0.5-6.73c0-0.08-0.12-0.1-0.15,0
			c-0.75,3.58-1.24,7.21-1.49,10.86c-0.14-2.28-0.4-4.55-0.44-6.83c0-0.12-0.21-0.12-0.21,0c0,2.4-0.12,4.78,0,7.18
			c0,1.38,0.18,2.69,0.33,4.03c-0.19,3.03-0.28,6.08-0.25,9.14c-0.11,8.04,0.82,16.05,2.76,23.85c0.92,3.38,2.36,6.62,5.52,8.42
			c2.32,1.13,4.84,1.79,7.42,1.96c5.44,0.36,10.9,0.01,16.24-1.03c1.5-0.28,2.99-0.59,4.48-0.94c1.47-0.21,2.91-0.6,4.27-1.17
			c0.05,0,0.09-0.05,0.08-0.1C186.09,421.67,186.04,421.64,185.99,421.64z"/>
		<polygon class="st2" points="198.35,375.93 198.35,375.95 198.35,375.95 		"/>
		<path class="st2" d="M197.55,374.9c-4.14,2.07-8.27,4.14-12.41,6.27l-6.12,3.14c-1.96,1.01-5.69,3.02-5.69,3.02
			c0-0.92-0.76-3.64-1.16-5.39c-0.4-1.75-0.87-3.82-1.38-5.71c-0.12-0.5-0.26-0.98-0.39-1.48c-0.1-0.91-0.18-1.82-0.26-2.76
			c-0.14-1.48-0.26-2.98-0.48-4.43h-0.08c-0.14,1.38-0.14,2.76,0,4.14c-0.63-2.3-1.3-4.58-1.97-6.89c0-0.07-0.12,0-0.11,0
			c0.73,3.85,1.52,7.69,2.4,11.51c0.44,1.85,0.91,3.7,1.38,5.52c0.44,1.99,0.99,3.95,1.64,5.89c2.12-0.8,4.2-1.72,6.22-2.76
			c2.12-1,4.23-2.03,6.33-3.09c4.14-2.04,8.19-4.14,12.13-6.43c0.09,0.2,0.19,0.4,0.3,0.59c0.1,0.17,0.23-0.12,0.18-0.3
			S197.63,374.86,197.55,374.9z"/>
		<polygon class="st2" points="198.35,375.95 198.35,375.95 198.35,375.95 		"/>
		<rect x="197.22" y="406.68" class="st3" width="80.4" height="3.61"/>
		<polygon class="st5" points="214.41,406.68 211.67,410.29 277.61,410.29 277.61,406.68 		"/>
		<polygon class="st3" points="217.86,410.28 296.21,410.28 302.74,357.07 224.38,357.07 		"/>
		<path class="st1" d="M255.53,383.67c-0.05,2.58,2,4.72,4.58,4.77c0.04,0,0.07,0,0.11,0c2.64-0.01,4.79-2.13,4.85-4.77
			c0.05-2.58-2-4.72-4.58-4.77c-0.04,0-0.07,0-0.11,0C257.73,378.9,255.58,381.02,255.53,383.67z"/>
		<path class="st8" d="M302.1,362.21c2.95,4.56,10.24,9.89,11.24,13.79c0.58,1.96-0.19,4.07-1.9,5.18c0,0,4.22,1.45,4.55,5.16
			c0.17,1.9-2.76,3.83-2.76,3.83c1.92,0.78,3.24,2.56,3.42,4.62c0.07,2.63-2.84,4.14-2.84,4.14s2.62,2.76,1.82,5.52
			c-1.6,5.52-24.03,8.45-28.58,0.65c-2.12-3.64,3.39-4.07,3.39-4.07s-8.08-1.38-8.81-5.92c-0.73-4.54,6.47-4.73,6.47-4.73
			s-7.82-1.38-8.09-6.19s6.89-3.93,6.89-3.93s-5.43-2.76-4.78-6.49c1.05-6.22,13.79,0.4,18.61-1.38L302.1,362.21z"/>
		<path class="st2" d="M313.41,399.43c-7.41,2.9-15.53,3.49-23.27,1.67c-0.25-0.07-0.25-0.48,0-0.47c7.78,0.7,15.62,0.25,23.27-1.32
			V399.43z"/>
		<path class="st2" d="M313.37,390.23c0.1,0,0.12,0.12,0,0.15c-8.2,3.13-17.26,3.22-25.52,0.25c-0.29-0.11-0.43-0.5-0.1-0.39
			C293.5,391.94,306.22,391.8,313.37,390.23z"/>
		<path class="st2" d="M286.44,379.85c8.09,2.76,16.3,2.76,24.69,1.49c0.11,0,0.12,0.14,0,0.18c-3.94,1.74-9.39,1.99-13.64,1.82
			c-3.95-0.07-7.82-1.18-11.21-3.21C286.2,380.04,286.26,379.78,286.44,379.85z"/>
		<path class="st8" d="M461.11,514.28c-1.1,2.96-54.96,69.92-58.63,71.17c-1.38,0.48-11.6-6.8-23.67-15.94
			c-2.62-1.97-5.29-4.03-8.01-6.12c-17.63-13.62-36.01-28.49-36.01-28.49l35.85-44.89l35.04,29.73l7.69,6.51
			c0,0,32.08-16.41,36.26-17.35S462.15,511.32,461.11,514.28z"/>
		<path class="st2" d="M461.11,514.28c-1.1,2.96-54.96,69.92-58.63,71.17c-1.21,0.43-9.17-5.09-19.23-12.59
			c10.27-7.47,49.28-42.62,54.52-52.13c2.76-5.01-1.27-4.96-6.19-3.58c8.04-3.96,16.12-7.8,18.08-8.27
			C453.76,507.97,462.14,511.32,461.11,514.28z"/>
		<path class="st6" d="M403.78,512.96l-37.37,50.41L240.35,475.9l-12.15-8.44c0,0-3.45,2.32-8.63,5.17
			c-7.2,3.98-17.73,9.02-27.07,10.4c-15.65,2.32-41.78,2.07-54.97-15.57c-11.11-14.85-5.07-34.24-5.07-34.24l17.18-7.38
			c0,0,40.66-33.88,67.01-34.9c11.18-0.45,27.48,8.02,42.56,16.89C274.29,416.7,403.78,512.96,403.78,512.96z"/>
		<path class="st2" d="M228.2,467.46c0,0-3.45,2.32-8.63,5.17c-9.16-10.96-28.54-30.87-29.13-31.59L228.2,467.46z"/>
		<path class="st2" d="M164.54,414.5c-2.43,1.7-4.78,3.49-7.18,5.23s-4.8,3.3-7.03,5.16c-2.23,1.86-4.44,3.92-6.59,5.96
			c-1.03,0.98-2.07,1.97-3.07,2.99c-1.06,0.98-2.03,2.05-2.92,3.19c0,0.1,0.08,0.23,0.18,0.17c1.14-0.81,2.23-1.7,3.25-2.65
			l3.41-2.9c2.18-1.86,4.41-3.67,6.59-5.52c2.18-1.85,4.14-3.87,6.31-5.75s4.72-3.87,7.1-5.78
			C164.66,414.54,164.58,414.47,164.54,414.5z"/>
		<path class="st2" d="M395.01,511.15c-2.43,2.62-4.67,5.43-6.89,8.27s-4.52,5.52-6.76,8.36c-4.48,5.52-9,11.17-13.4,16.82
			c-2.43,3.1-4.81,6.23-7.06,9.47c-0.1,0.15,0.12,0.3,0.25,0.18c4.81-5.29,9.22-10.95,13.69-16.55c4.47-5.6,8.95-11.22,13.33-16.89
			c2.41-3.1,4.88-6.19,7.1-9.43C395.31,511.19,395.1,511.04,395.01,511.15z"/>
		<path class="st2" d="M291.51,511.68c-6.27-4.95-12.77-9.65-19.3-14.26c-6.54-4.61-12.93-9.24-19.51-13.71
			c-1.88-1.28-3.78-2.55-5.68-3.81c-1.9-1.25-3.87-2.43-5.72-3.74c-0.11,0-0.21,0.11-0.11,0.18c1.71,1.23,3.32,2.59,5.01,3.86
			c1.68,1.27,3.19,2.44,4.8,3.64c3.14,2.33,6.33,4.62,9.5,6.89c6.43,4.66,12.93,9.26,19.48,13.79c3.72,2.55,7.43,5.1,11.24,7.53
			C291.51,512.2,291.76,511.9,291.51,511.68z"/>
		<path class="st2" d="M331.86,459.67c-5.79-4.81-12.01-9.13-18.08-13.57c-6.07-4.44-12.26-9.03-18.43-13.48l-18.35-13.28
			c-5.94-4.29-11.84-8.65-18.1-12.41c-3.43-2.08-6.89-4.01-10.56-5.75c-3.51-1.79-7.16-3.28-10.92-4.45
			c-0.05,0.03-0.07,0.1-0.04,0.15c0.01,0.02,0.02,0.03,0.04,0.04c3.09,1.72,6.33,3.17,9.46,4.84c3.13,1.67,6.12,3.38,9.11,5.18
			c6.23,3.78,12.11,8.07,18.01,12.3c12.24,8.82,24.47,17.66,36.81,26.36c6.89,4.85,13.68,10,20.85,14.46
			C331.8,460.18,332.06,459.83,331.86,459.67z"/>
	</g>
</g>
</svg>
