<?xml version="1.0" encoding="utf-8"?>
<!-- Generator: Adobe Illustrator 26.5.0, SVG Export Plug-In . SVG Version: 6.00 Build 0)  -->
<svg version="1.1" id="Layer_1" xmlns="http://www.w3.org/2000/svg" xmlns:xlink="http://www.w3.org/1999/xlink" x="0px" y="0px"
	 viewBox="0 0 1027 600" style="enable-background:new 0 0 1027 600;" xml:space="preserve">
<style type="text/css">
	.st0{fill:#324A55;}
	.st1{fill:#E0E0E0;}
	.st2{fill:#263238;}
	.st3{fill:#455A64;}
	.st4{fill:#C9F401;}
	.st5{opacity:0.6;}
	.st6{fill:#FFFFFF;}
	.st7{opacity:0.3;}
	.st8{fill:#FFD6BD;}
	.st9{fill:#FFB394;}
	.st10{opacity:0.3;enable-background:new    ;}
	.st11{fill:#C78976;}
	.st12{fill:#8B5D54;}
	.st13{fill:#FFBE9D;}
	.st14{fill:#EB996E;}
</style>
<g id="freepik--background-complete--inject-133">
	<path class="st0" d="M286,433.4c0,0-7.2,2.9,1.2,18.2c8.3,15.3,14,22.8,14,22.8s1.5,3.6-1.5,4.2c-3,0.6-9.7-0.3-10.9,3.5
		c-1.2,3.7,1.6,7.4,7.3,10.4c5.7,3,18,10.1,19.2,10.8c1.1,0.6,2.2,2.3,0.2,3s-16.9,2.7-15.6,9.7c1.3,7,18.7,12.8,20.6,13.5
		c1.9,0.7,2.3,1.5,2.2,2.5c-0.1,1-5.2,1.2-9.4,1.9c-4.2,0.8-9,2.3-7.9,6.3c1.1,4,11.5,12.2,36.3,13.9l11.5,0.1l6-9.9
		c11.5-22,10.2-35.1,7.4-38.2c-2.8-3.1-6.7,0.1-9.5,3.3c-2.9,3.2-5.7,7.4-6.6,6.9c-0.9-0.5-1.3-1.2-0.9-3.2
		c0.4-1.9,4.6-19.8-0.6-24.6c-5.2-4.9-14.8,6.8-16.5,8.1c-1.7,1.3-2.5-0.5-2.5-1.8s0.5-15.5,1-21.9c0.5-6.4-1-10.8-5-11.7
		c-4-0.9-6.6,5.2-8.7,7.4c-2.1,2.2-4.4-0.9-4.4-0.9s-3.4-8.8-11.9-23.9c-8.6-15.1-15-10.4-15-10.4"/>
	<path class="st1" d="M353.8,556.9c-6.3-11.1-17-31.1-26.4-48.1c-9.3-17.1-17.8-32.5-24-43.7l-7.3-13.2l-2-3.6
		c-0.2-0.4-0.4-0.7-0.5-0.9c-0.1-0.1-0.1-0.2-0.2-0.3l0.2,0.3l0.5,0.9l2.1,3.6c1.8,3.1,4.3,7.6,7.4,13.1
		c6.3,11.1,14.7,26.5,24.1,43.6c9.3,17.1,20.1,37.1,26.3,48.2"/>
	<path class="st1" d="M297.9,483.6c0.3,0,0.5,0.1,0.8,0.2c0.5,0.1,1.3,0.4,2.2,0.7c1.8,0.6,4.3,1.5,7,2.6l6.9,2.7l2.1,0.8
		c0.3,0.1,0.5,0.2,0.8,0.3c-0.3,0-0.6-0.1-0.8-0.2c-0.5-0.1-1.2-0.4-2.2-0.7c-1.8-0.6-4.3-1.6-7-2.6l-7-2.7l-2.1-0.8
		C298.4,483.9,298.2,483.8,297.9,483.6z"/>
	<path class="st1" d="M318.6,490.2c-0.1,0,1.6-5.2,3.7-11.6s3.9-11.5,4-11.5s-1.6,5.2-3.7,11.6C320.5,485.1,318.7,490.2,318.6,490.2
		z"/>
	<path class="st1" d="M331.7,517.1c0.1-0.3,0.3-0.5,0.4-0.7l1.3-1.9c1.2-1.6,2.6-3.8,4.2-6.4s3-4.9,3.9-6.6l1.2-2
		c0.1-0.3,0.3-0.5,0.4-0.7c-0.1,0.3-0.2,0.5-0.3,0.8c-0.2,0.5-0.6,1.2-1.1,2.1c-0.9,1.7-2.3,4.1-3.9,6.6c-1.5,2.5-3.2,4.7-4.3,6.3
		c-0.6,0.8-1.1,1.4-1.4,1.8C332.1,516.7,331.9,516.9,331.7,517.1z"/>
	<path class="st1" d="M311.8,515.2c0.3,0,0.5,0,0.8,0l2.1,0.1c1.8,0.1,4.3,0.3,7,0.5c2.7,0.2,5.2,0.4,7,0.6l2.1,0.2
		c0.3,0,0.5,0.1,0.8,0.1c-0.3,0-0.5,0-0.8,0l-2.1-0.1c-1.8-0.1-4.3-0.3-7-0.5c-2.7-0.2-5.2-0.4-7-0.6l-2.1-0.2
		C312.3,515.4,312,515.3,311.8,515.2z"/>
	<path class="st1" d="M320.3,540.5c0.3,0,0.7,0,1,0l2.7,0.1c2.3,0.1,5.5,0.3,9,0.6c3.5,0.3,6.7,0.5,9,0.7l2.7,0.3
		c0.3,0,0.7,0.1,1,0.1c-0.3,0-0.7,0-1,0l-2.7-0.1c-2.3-0.1-5.5-0.3-9-0.6c-3.5-0.2-6.7-0.5-9-0.7l-2.7-0.3
		C321,540.6,320.7,540.5,320.3,540.5z"/>
	<path class="st1" d="M345.3,542c0.2-0.3,0.3-0.6,0.5-0.9l1.6-2.5c1.3-2.1,3.2-5,5.1-8.2c1.9-3.3,3.6-6.2,4.8-8.4
		c0.6-1,1.1-1.9,1.4-2.6c0.2-0.3,0.4-0.6,0.6-0.9c-0.1,0.3-0.3,0.7-0.4,1c-0.3,0.6-0.7,1.5-1.3,2.6c-1.2,2.2-2.8,5.2-4.7,8.5
		c-1.9,3.3-3.8,6.1-5.2,8.2c-0.7,1-1.3,1.9-1.7,2.4C345.8,541.5,345.5,541.7,345.3,542z"/>
</g>
<g id="freepik--Floor--inject-133">
	<path class="st2" d="M771.6,554.8c0,0.2-112.7,0.3-251.6,0.3s-251.7-0.1-251.7-0.3c0-0.2,112.6-0.3,251.7-0.3
		S771.6,554.7,771.6,554.8z"/>
</g>
<g id="freepik--Plant--inject-133">
	<path class="st3" d="M647.6,504.9c2.4,0.9,4.3,2.8,5.4,5.1c1,2.3,1.4,4.9,1.3,7.4c-0.1,4.9-2.5,10.1-5.1,14.2
		c-4.4-3.2-5.9-9.4-6.4-12.6C641.8,514.1,643.3,504.5,647.6,504.9"/>
	<path class="st3" d="M654.6,539.3c-0.8-2.8-0.1-5.8,1.9-7.9c2-2,4.8-3.2,7.7-3.1c1.3-0.1,2.6,0.3,3.6,1.3c0.7,1,0.9,2.3,0.3,3.5
		c-0.5,1.1-1.3,2.1-2.4,2.8C662.4,538.3,658.7,540.2,654.6,539.3"/>
	<path class="st2" d="M650.6,554.6c0-0.3,0-0.7,0-1c0.1-0.7,0.2-1.6,0.3-2.7c0.2-3,0.9-6,2.1-8.9c1.2-2.8,3.2-5.3,5.6-7.1
		c0.8-0.5,1.6-1,2.4-1.3c0.3-0.1,0.6-0.2,0.7-0.2l0.3-0.1c-1.1,0.5-2.2,1.1-3.3,1.8c-2.4,1.9-4.3,4.3-5.5,7
		c-1.1,2.8-1.9,5.7-2.1,8.8c-0.1,1.2-0.3,2.1-0.4,2.7C650.7,554,650.7,554.3,650.6,554.6z"/>
	<path class="st2" d="M647.2,512.3c0,0.1,0.1,0.3,0.1,0.4c0,0.3,0.1,0.7,0.2,1.2c0.1,1.1,0.3,2.7,0.6,4.6c0.4,3.9,1,9.2,1.5,15.2
		c0.5,6,0.8,11.4,1,15.3c0.1,1.9,0.1,3.5,0.2,4.6c0,0.5,0,0.9,0,1.3c0,0.3,0,0.4,0,0.4c0-0.1,0-0.3,0-0.4c0-0.3,0-0.7-0.1-1.3
		c-0.1-1.2-0.2-2.7-0.3-4.6c-0.2-3.9-0.6-9.3-1.1-15.2c-0.5-6-1-11.3-1.4-15.2c-0.2-1.9-0.3-3.5-0.5-4.6l-0.1-1.3
		C647.2,512.6,647.2,512.5,647.2,512.3z"/>
	<path class="st3" d="M647.7,542.8c-1.5-5.9-5.8-10.7-11.4-12.9c-1.4-0.5-3.3-0.8-4.3,0.3c-1,1.1-0.6,2.9,0,4.3
		c3,5.8,9.1,9.2,15.6,8.7"/>
	<path class="st2" d="M637.4,534.5c0.3,0.1,0.6,0.2,0.9,0.3c0.4,0.1,0.7,0.3,1,0.4c0.4,0.2,0.9,0.4,1.3,0.7c0.5,0.3,1,0.6,1.5,1
		c0.6,0.4,1.1,0.8,1.6,1.3c2.4,2.1,4.3,4.7,5.5,7.6c0.3,0.6,0.5,1.3,0.6,2c0.2,0.6,0.3,1.2,0.4,1.8c0.1,0.5,0.2,1,0.2,1.5
		c0.1,0.4,0.1,0.8,0.1,1.2c0,0.3,0,0.6,0,1c-0.1,0-0.1-1.4-0.5-3.5c-0.1-0.5-0.2-1.2-0.4-1.7c-0.2-0.6-0.4-1.3-0.7-1.9
		c-1.2-2.9-3-5.4-5.4-7.5c-0.6-0.5-1.1-0.9-1.6-1.3c-0.5-0.4-1-0.7-1.5-1C638.6,535,637.3,534.6,637.4,534.5z"/>
</g>
<g id="freepik--Characters--inject-133">
	<path class="st4" d="M395.2,251.2l-17.3,6.3l-9.1,19.2c-0.4,4-10.4,44-10.4,44l-10,35.6c19.1,8.7,44.4,21.2,69.8,20.2l3.2-30.6
		l17.4-66.5l-13.3-26.4l-4.5-0.6L395.2,251.2z"/>
	<path class="st3" d="M314.7,511.8l-13,17c0,0,12.9,19,10.8,22.3L278.6,527l19.2-27.3L314.7,511.8z"/>
	<g class="st5">
		<path class="st6" d="M292.2,519.9c-0.8-0.3-1.7,0.1-2.1,0.9c-0.3,0.8,0.1,1.7,0.9,2.1c0.9,0.3,1.8-0.1,2.2-1
			c0.2-0.9-0.3-1.8-1.2-2.1"/>
	</g>
	<g class="st5">
		<path class="st6" d="M278.6,527l2-2.7l31.7,24.1c0,0,1,1.7,0.1,2.7L278.6,527z"/>
	</g>
	<path class="st2" d="M302.3,529c-0.1,0.2-1-0.3-2.2-0.4c-1.2,0-2.1,0.3-2.2,0.2s0.8-1,2.3-0.9C301.7,528,302.5,528.9,302.3,529z"/>
	<path class="st2" d="M304.8,533c-0.1,0.2-1,0-2.1,0.3s-1.7,0.9-1.9,0.8c-0.2-0.1,0.4-1.2,1.7-1.5
		C303.9,532.2,304.9,532.8,304.8,533z"/>
	<path class="st2" d="M303.8,538.7c-0.2-0.1,0.2-1.1,1.3-1.7c1.1-0.6,2.1-0.4,2.1-0.2c0,0.2-0.9,0.3-1.7,0.8
		C304.6,538.1,304,538.8,303.8,538.7z"/>
	<path class="st2" d="M304.9,524.8c-0.2,0.1-0.8-0.7-1.8-1.3c-1-0.6-1.9-0.8-1.9-1c0-0.2,1.2-0.3,2.3,0.4
		C304.7,523.6,305.1,524.7,304.9,524.8z"/>
	<g class="st7">
		<polygon points="308.8,520 306.5,523 289.9,511 291.9,508.2 		"/>
	</g>
	<path class="st2" d="M307.5,521.3c0,0.1-0.8-0.3-1.7-1.2c-0.5-0.5-1-1.2-1.4-1.8c-0.2-0.4-0.4-0.8-0.6-1.2
		c-0.1-0.2-0.2-0.5-0.2-0.8c0-0.4,0.2-0.8,0.6-0.9c0.3-0.1,0.7-0.1,1,0.1c0.2,0.1,0.4,0.3,0.6,0.5c0.8,0.9,1.3,2,1.6,3.1
		c0.2,0.7,0.2,1.4,0,2.1c-0.1,0-0.1-0.8-0.5-1.9c-0.3-1.1-0.9-2.1-1.7-2.9c-0.3-0.3-0.6-0.6-0.8-0.5c-0.2,0.1-0.1,0.1-0.1,0.2
		c0,0.2,0.1,0.4,0.2,0.6c0.2,0.4,0.3,0.8,0.5,1.2c0.3,0.6,0.7,1.2,1.2,1.8C306.9,520.7,307.5,521.2,307.5,521.3z"/>
	<path class="st2" d="M307.1,521.4c0-0.7,0.3-1.4,0.7-1.9c0.4-0.6,0.9-1.2,1.6-1.7c0.4-0.3,0.7-0.5,1.2-0.7c0.5-0.3,1.2-0.4,1.7-0.1
		c0.3,0.2,0.4,0.6,0.4,1c-0.1,0.3-0.1,0.5-0.3,0.7c-0.6,1.1-1.6,2-2.7,2.4c-0.7,0.3-1.4,0.3-2.1,0c0.6-0.1,1.3-0.3,1.9-0.5
		c0.6-0.3,1.2-0.7,1.7-1.2c0.3-0.3,0.5-0.6,0.7-1c0.2-0.4,0.3-0.8,0.1-0.8c-0.3-0.1-0.7-0.1-1,0.1c-0.4,0.2-0.7,0.4-1.1,0.6
		c-0.6,0.4-1.1,0.9-1.6,1.5C307.4,520.7,307.2,521.4,307.1,521.4z"/>
	<path class="st3" d="M417.7,523.2l-7.5,18.9c0,0,21.6,7.8,21.8,11.8l-41.5,0.3l6.5-30.9L417.7,523.2z"/>
	<g class="st5">
		<path class="st6" d="M397.4,540.4c-0.8,0.3-1.3,1.1-1.2,1.9c0.2,0.8,1.1,1.3,1.9,1.2c0.9-0.3,1.4-1.2,1.2-2.1
			c-0.3-0.9-1.3-1.3-2.2-1"/>
	</g>
	<g class="st5">
		<path class="st6" d="M390.5,554.2l0.7-3.4l39.2,0.9c0,0,1.9,0.8,1.7,2.1L390.5,554.2z"/>
	</g>
	<path class="st2" d="M410.9,541.9c0,0.2-1,0.3-2,1s-1.5,1.5-1.7,1.4c-0.2-0.1,0.1-1.3,1.3-2C409.7,541.5,410.9,541.7,410.9,541.9z"
		/>
	<path class="st2" d="M415.3,543.6c0,0.2-0.8,0.6-1.5,1.4c-0.7,0.9-0.9,1.8-1.1,1.8s-0.3-1.2,0.5-2.2
		C414.1,543.5,415.3,543.4,415.3,543.6z"/>
	<path class="st2" d="M417.8,548.8c-0.2,0-0.5-1,0-2.1c0.5-1.1,1.5-1.6,1.5-1.4s-0.5,0.8-0.9,1.7C418,548,418,548.8,417.8,548.8z"/>
	<path class="st2" d="M412.5,538c-0.1,0.2-1-0.1-2.2,0c-1.2,0.1-2,0.5-2.1,0.3s0.7-0.9,2.1-1C411.6,537.2,412.6,537.8,412.5,538z"/>
	<path class="st2" d="M412.9,535.5c-0.7,0.2-1.4,0.2-2.1,0c-0.7-0.1-1.5-0.3-2.2-0.6c-0.4-0.2-0.8-0.4-1.2-0.6
		c-0.2-0.1-0.4-0.3-0.6-0.5c-0.3-0.3-0.3-0.7-0.1-1.1c0.2-0.3,0.5-0.5,0.9-0.5c0.3,0,0.5,0,0.8,0.1c0.4,0.1,0.9,0.2,1.3,0.4
		c0.7,0.3,1.4,0.7,1.9,1.2c1,0.9,1.3,1.6,1.2,1.7c-0.1,0-0.6-0.6-1.6-1.3c-0.6-0.4-1.2-0.8-1.9-1c-0.4-0.2-0.8-0.3-1.2-0.4
		c-0.4-0.1-0.8-0.1-0.9,0.1c-0.1,0.2,0,0.1,0,0.2c0.1,0.1,0.3,0.3,0.5,0.4c0.4,0.2,0.8,0.4,1.2,0.6c0.6,0.3,1.3,0.6,2,0.8
		C411.6,535.2,412.3,535.3,412.9,535.5z"/>
	<path class="st2" d="M412.9,535.5c-0.4-0.6-0.6-1.3-0.6-2c0-0.8,0-1.6,0.3-2.3c0.1-0.4,0.3-0.9,0.5-1.3c0.2-0.6,0.7-1,1.3-1.1
		c0.4,0,0.7,0.2,0.9,0.6c0.1,0.2,0.2,0.5,0.2,0.8c0.1,0.5,0.1,0.9,0,1.4c-0.1,0.8-0.4,1.5-0.9,2.2c-0.8,1.1-1.6,1.3-1.7,1.3
		c0-0.1,0.6-0.5,1.3-1.5c0.4-0.6,0.6-1.3,0.6-2c0.1-0.4,0.1-0.8,0-1.2c-0.1-0.4-0.2-0.8-0.4-0.7c-0.2,0-0.6,0.3-0.7,0.7
		c-0.2,0.4-0.4,0.8-0.5,1.2c-0.2,0.7-0.4,1.4-0.4,2.1C412.7,534.7,413,535.5,412.9,535.5z"/>
	<path class="st8" d="M466.4,182.6L460,226l-29.3,28.1l10.9,18.7l33.2-31c2.5-1.9,4.3-4.6,5-7.7v-44.9l-0.2-14.6L466.4,182.6z"/>
	<path class="st2" d="M349.2,353c-0.9,1.8-16.6,83.4-16.6,83.4l-43.9,71.5l22.8,16.6l54.3-70.8l29.7-89.9L349.2,353z"/>
	<path class="st2" d="M408.8,361.5c1.3,0.9,34.9,71,34.5,76.1c-0.4,5.1-25.8,98.8-25.8,98.8l-25.8-4.8l16-91.4l-30.3-42.6l9.9-38.8
		L408.8,361.5z"/>
	<polygon class="st4" points="444.1,238.6 427.4,252.4 424.3,252.9 436.8,280.6 460,262 	"/>
	<path class="st4" d="M395.2,251.2l-17.3,6.3l-9.1,19.2c-0.4,4-10.4,44-10.4,44l-10,35.6c19.1,8.7,44.4,21.2,69.8,20.2l3.2-30.6
		l17.6-67.1l-13.4-25.8l-4.5-0.6L395.2,251.2z"/>
	<path class="st8" d="M420.6,256.4c0.4-3.2,0.8-5.9,0.8-6.2c0,0,11,0.4,13.1-10.2c1.1-5.1,2.4-15.9,3.5-25.6
		c1.1-10.4-5.9-20-16.2-22l-1-0.2c-11.2-1.5-18.7,7.2-19.9,18.4l-5.4,41c0,0,10.4,9.2,16.4,12.2
		C419.7,267.7,420.6,256.4,420.6,256.4z"/>
	<path class="st9" d="M421.4,250.1c-4.9-0.9-9.5-3.2-13.1-6.6c0,0,1.8,8.3,12.6,9.4L421.4,250.1z"/>
	<path class="st2" d="M435.4,219.4c-0.2,0.2-1.7-0.4-3.7-0.3s-3.5,0.9-3.7,0.8c-0.2-0.1,0.1-0.4,0.7-0.8c0.9-0.5,1.9-0.8,2.9-0.8
		c1-0.1,2,0.1,2.9,0.4C435.2,219.1,435.5,219.3,435.4,219.4z"/>
	<path class="st2" d="M418.6,218c-0.3,0.1-1.3-1.2-3.1-1.9c-1.8-0.7-3.5-0.7-3.6-0.9c-0.1-0.2,0.3-0.3,1-0.3c1,0,2,0.2,3,0.6
		c0.9,0.4,1.7,0.9,2.4,1.7C418.7,217.6,418.8,218,418.6,218z"/>
	<path class="st2" d="M417.6,220.8c-0.1,0.6-0.7,1.1-1.3,1c0,0,0,0,0,0c-0.6-0.1-1.1-0.7-1-1.3c0,0,0,0,0,0c0.1-0.6,0.7-1.1,1.3-1
		c0,0,0,0,0,0C417.3,219.6,417.7,220.1,417.6,220.8C417.6,220.8,417.6,220.8,417.6,220.8z"/>
	<path class="st2" d="M433.8,223.7c-0.1,0.6-0.7,1.1-1.3,1c0,0,0,0-0.1,0c-0.6-0.1-1.1-0.7-1-1.3c0,0,0,0,0,0c0.1-0.6,0.7-1.1,1.3-1
		c0,0,0,0,0.1,0C433.4,222.4,433.8,223,433.8,223.7C433.8,223.7,433.8,223.7,433.8,223.7z"/>
	<path class="st2" d="M422.2,229.7c0.9-0.1,1.8-0.1,2.7,0c0.4,0,0.8,0,1-0.2c0.1-0.4,0.1-0.9,0-1.3c-0.2-1.1-0.4-2.2-0.6-3.5
		c-0.8-4.9-1.4-8.8-1.2-8.8c0.2,0,1,3.9,1.9,8.7c0.2,1.2,0.4,2.3,0.6,3.5c0.2,0.6,0.1,1.2-0.1,1.7c-0.2,0.3-0.5,0.4-0.8,0.5
		c-0.2,0-0.5,0-0.7,0C424,230.1,423,230,422.2,229.7z"/>
	<path class="st2" d="M419.2,209.8c-0.2,0.4-1.6-0.1-3.3-0.2s-3.2,0.1-3.4-0.3c0-0.2,0.3-0.5,0.9-0.8c0.8-0.3,1.7-0.5,2.6-0.4
		c0.9,0.1,1.7,0.3,2.5,0.8C419,209.3,419.3,209.6,419.2,209.8z"/>
	<path class="st2" d="M435.8,215.2c-0.2,0.3-1.6-0.2-3.3-0.5s-3.1-0.2-3.3-0.6c-0.1-0.2,0.3-0.4,0.9-0.6c0.8-0.2,1.7-0.3,2.6-0.1
		c0.9,0.1,1.7,0.4,2.4,0.9C435.7,214.7,435.9,215,435.8,215.2z"/>
	<path class="st8" d="M400.2,218.7c-0.2-0.1-6.9-3.6-8.1,3.7c-1.2,7.3,6.4,7,6.5,6.8C398.6,229,400.2,218.7,400.2,218.7z"/>
	<path class="st9" d="M396.8,226c0,0-0.1,0.1-0.4,0.1c-0.3,0.1-0.7,0-1-0.1c-0.9-0.8-1.2-1.9-1-3.1c0.1-0.6,0.3-1.2,0.7-1.8
		c0.2-0.5,0.7-0.8,1.2-0.8c0.3,0,0.6,0.2,0.7,0.5c0.1,0.2,0,0.4,0,0.4c0,0,0.2-0.1,0.2-0.4c0-0.2-0.1-0.4-0.2-0.5
		c-0.2-0.2-0.4-0.3-0.7-0.3c-0.6,0-1.2,0.4-1.5,0.9c-0.4,0.6-0.7,1.3-0.8,2c-0.3,1.3,0.2,2.7,1.3,3.5c0.4,0.2,0.8,0.2,1.2,0
		C396.8,226.2,396.8,226.1,396.8,226z"/>
	<path class="st2" d="M419.8,234.6c0.1-0.2-1.3-0.8-2.1-2.3c-0.4-0.6-0.6-1.3-0.8-2c-0.1-0.6-0.3-0.9-0.4-0.9s-0.1,0.4,0,1
		c0.1,0.8,0.3,1.6,0.7,2.3c0.4,0.7,1,1.3,1.7,1.7C419.4,234.6,419.8,234.6,419.8,234.6z"/>
	<path class="st2" d="M453.3,206.5c-0.1-0.5-0.3-0.9-0.7-1.2c-0.8-0.5-1.7-0.7-2.7-0.8c-2.9-0.4-5.5-1.6-7.8-3.4
		c-0.9-1.7-2-3.4-3.2-5c-2.8-3.7-5.2-6.3-7.9-7.8c-4.1-2-8.6-2.9-13.2-2.6c-3.8,0.5-7.5,3.2-8.5,6.9c-1.9-2-5-2.4-7.7-1.6h-0.1
		c-3,0.7-4.9,3.5-6.1,6.3c-1.2,2.8-1.9,5.8-3.7,8.2c-0.4,0.5-0.8,1.2-0.6,1.7c0.2,0.5,0.7,0.7,1.2,0.7c0.5,0,1-0.2,1.4-0.4
		c-0.4,0.7-0.8,1.4-1.2,2.2c1,0.3,2.1,0.4,3.1,0.2c0.2,2.6,0.6,5.3,1.2,7.9c1.1,0,2.1,0.4,2.9,1.2c0.9,1,1.2,2.7,2.9,2.3
		c0.9-0.2,1.9-1.9,2.2-2.7c2.6-5.5,3.9-11.5,3.9-17.6c1.3-1.1,2.9-2,4.5-2.5l-0.1,0.1c3.1-0.7,6.6-1.3,9.3,0.4
		c2.1,1.3,3.1,3.8,4.5,5.8c2.7,3.7,6.8,6.2,11.3,6.9c-0.2,3-1,7.3-1.2,10.3l3.1-4.5l0,0c0.2-0.3,0.5-0.7,0.7-1l0.1-0.1l0,0
		c0.3-0.5,0.7-1.2,1.1-1.6l0,0c0.7,0.7,1.9,0.8,2.7,0c0.6-0.6,0.7-1.5,0.4-2.2c-0.2-0.4-0.5-0.7-0.8-1c0.7,0.8,1.7,1.2,2.8,1.1
		c1.1-0.2,1.9-1.1,1.9-2.1c0-0.7-0.4-1.4-1-1.7c1.3,0.3,2.7,0.1,3.9-0.4C452.7,208.1,453.5,207.5,453.3,206.5z"/>
	<path class="st3" d="M412.7,194.4c-0.4,0.3-0.8,0.5-1.2,0.9c-1,0.9-1.7,2.1-2.1,3.4c-0.3,0.9-0.5,1.8-0.6,2.7
		c-0.1,1-0.2,2.1-0.2,3.2c0,1.2-0.2,2.4-0.3,3.5c-0.1,0.6-0.3,1.2-0.5,1.8c-0.2,0.6-0.5,1.2-1,1.7c-0.4,0.4-1,0.5-1.6,0.3
		c-0.5-0.2-1-0.5-1.3-0.9c-0.5-0.9-0.7-1.9-0.7-2.8l0.2,0.1c-0.4,0.8-0.9,1.5-1.6,2.1c-0.6,0.6-1.4,0.9-2.2,0.9
		c-0.4,0-0.8-0.1-1.1-0.3c-0.3-0.2-0.5-0.5-0.7-0.8c-0.1-0.3-0.2-0.6-0.1-1c0.1-0.3,0.2-0.6,0.4-0.8l0.1,0.1
		c-0.7,0.7-1.6,1.2-2.5,1.5c-0.2,0.1-0.5,0.1-0.7,0.2c-0.1,0-0.2,0-0.3,0l0.3-0.1c0.2,0,0.4-0.1,0.7-0.2c0.9-0.3,1.7-0.8,2.4-1.5
		l0.1,0.1c-0.4,0.4-0.5,1.1-0.3,1.6c0.1,0.3,0.3,0.6,0.6,0.7c0.3,0.2,0.6,0.3,1,0.3c0.8,0,1.5-0.3,2.1-0.8c0.6-0.6,1.1-1.3,1.5-2.1
		l0.2-0.3v0.4c0,0.9,0.2,1.9,0.7,2.7c0.3,0.4,0.7,0.7,1.2,0.8c0.5,0.1,1,0,1.3-0.3c0.4-0.5,0.7-1,0.9-1.6c0.2-0.6,0.3-1.2,0.4-1.8
		c0.2-1.1,0.3-2.3,0.3-3.5c0.1-1.2,0.1-2.2,0.3-3.2c0.1-0.9,0.3-1.8,0.6-2.7c0.4-1.3,1.2-2.5,2.2-3.4
		C411.8,194.8,412.2,194.6,412.7,194.4z"/>
	<path class="st3" d="M444.6,208.8L444.6,208.8l-0.4,0.2c-0.2,0.1-0.3,0.2-0.5,0.2c-0.2,0.1-0.5,0.2-0.7,0.3
		c-1.5,0.5-3.1,0.6-4.7,0.3c-2.3-0.4-4.5-1.5-6.2-3.1c-2.1-2-3.7-4.4-4.8-7.1c-0.6-1.4-1.2-2.8-1.7-4.1c-0.5-1.3-1.2-2.5-2-3.6
		c-0.8-1-1.7-1.7-2.9-2.2c-0.5-0.2-1.1-0.3-1.6-0.4c-0.5,0-1,0-1.5,0.1c-0.9,0.2-1.7,0.6-2.4,1.1c-0.5,0.4-1,0.9-1.4,1.4
		c-0.3,0.5-0.6,1-0.7,1.5c0,0,0,0,0-0.1l0.1-0.3c0.1-0.4,0.3-0.8,0.6-1.2c0.4-0.6,0.9-1.1,1.4-1.5c1.1-0.9,2.6-1.3,4-1.3
		c0.6,0,1.1,0.2,1.7,0.4c1.2,0.5,2.2,1.3,3,2.3c0.9,1.1,1.6,2.3,2.1,3.6c0.6,1.3,1,2.7,1.7,4.1c1.1,2.6,2.7,5,4.7,7
		c1.7,1.6,3.8,2.7,6.1,3.1c1.5,0.3,3.1,0.2,4.6-0.2C444,209.1,444.6,208.7,444.6,208.8z"/>
	<path class="st3" d="M446.1,204.2c0,0-0.1,0.1-0.4,0.2c-0.4,0.2-0.8,0.3-1.2,0.4c-0.6,0.2-1.2,0.3-1.9,0.4c-0.8,0.1-1.5,0.1-2.3,0
		c-0.8-0.1-1.6-0.2-2.3-0.4c-0.6-0.2-1.2-0.4-1.8-0.7c-0.4-0.2-0.8-0.4-1.2-0.6c-0.1-0.1-0.3-0.2-0.4-0.3c0,0,0.6,0.3,1.6,0.8
		c0.6,0.3,1.2,0.5,1.8,0.6c0.8,0.2,1.5,0.3,2.3,0.4c0.8,0.1,1.5,0.1,2.3,0c0.6-0.1,1.2-0.2,1.9-0.3
		C445.5,204.4,446.1,204.1,446.1,204.2z"/>
	<path class="st10" d="M373.3,286.2c0,0,14.5,21,24.9,20.8h3.6l1.7-3.1c0,0,23.1,4.6,28.2,2.8L403.2,296l-5.5,3.2L373.3,286.2z"/>
	<path class="st8" d="M391.1,295.8c0,0,51.9,15.1,58,13.7c6.1-1.4,44-31.8,44-31.8l-8.6-10.3l-39.2,21.6l-47-14.9L391.1,295.8z"/>
	<path class="st4" d="M378.1,257.4c0,0-8.7,1.9-10,16.1c-1.5,17,32.1,30.3,32.1,30.3l16.6-27.7L378.1,257.4z"/>
	<path class="st2" d="M396,268.5c0.1,0,0.3,0.1,0.4,0.1l1,0.5l4,1.9l14.1,6.8l0.3,0.1l-0.1,0.2c-3.3,5.7-7.1,12.4-11.3,19.6
		l-3.7,6.3l-0.1,0.2l-0.2-0.1c-4.6-1.5-9.1-3.6-13.3-6c-3.4-2-6.5-4.4-9.3-7.1c-2.6-2.4-4.9-5.1-6.9-8c0.2,0.2,0.4,0.3,0.5,0.5
		l1.3,1.6c1.7,2,3.5,3.8,5.4,5.6c2.8,2.6,6,5,9.3,6.9c4.2,2.4,8.6,4.4,13.2,5.9l-0.3,0.1l3.7-6.3c4.2-7.1,8.1-13.8,11.4-19.5
		l0.1,0.4l-14-6.9l-3.9-2l-1-0.5L396,268.5z"/>
	<path class="st2" d="M436.4,272.8c-0.2,0.1-1.6-3.5-3.7-7.6c-2.1-4.1-4-7.4-3.9-7.5c0.6,0.6,1.1,1.3,1.5,2c2.1,3.4,4,6.9,5.4,10.7
		C436,271.2,436.3,272,436.4,272.8z"/>
	<path class="st3" d="M311.5,524.5c0.1-0.1,0.1-0.2,0.2-0.4l0.7-1c0.7-0.9,1.6-2.2,2.8-3.8l10.6-13.9l35-45.8
		c1.6-2.1,3.2-4.1,4.6-6.1v0.1l16.6-49.9l5-14.9c0.6-1.7,1-3.1,1.4-4l0.4-1c0-0.1,0.1-0.2,0.1-0.3c0,0.1,0,0.2-0.1,0.4
		c-0.1,0.3-0.2,0.6-0.3,1.1c-0.3,0.9-0.7,2.3-1.3,4c-1.2,3.5-2.8,8.6-4.8,14.9L366,453.9v0.1l0,0l-4.6,6.1l-35.2,45.7l-10.7,13.8
		l-3,3.7l-0.8,1C311.7,524.3,311.6,524.5,311.5,524.5z"/>
	<path class="st3" d="M417.5,435.5c-1.6,0.9-3.3,1.6-5.1,2.1c-1.7,0.7-3.5,1.2-5.3,1.5c1.6-0.9,3.3-1.6,5.1-2.2
		C413.9,436.3,415.7,435.8,417.5,435.5z"/>
	<path class="st3" d="M417.1,442.8c-1.5-0.1-3-0.4-4.5-1c-1.5-0.3-3-0.8-4.3-1.5c1.5,0.1,3,0.4,4.5,1
		C414.3,441.6,415.8,442.1,417.1,442.8z"/>
	<path class="st2" d="M417.9,340.9c-0.4,0.3-0.9,0.7-1.3,0.9c-0.9,0.6-2.2,1.3-3.8,2.2c-4.2,2.3-8.7,4.1-13.3,5.4
		c-4.6,1.3-9.4,2.2-14.2,2.5c-1.8,0.1-3.3,0.2-4.4,0.1c-0.5,0-1.1,0-1.6-0.1c0.5-0.1,1.1-0.2,1.6-0.1c1,0,2.5-0.1,4.3-0.3
		c4.8-0.5,9.5-1.4,14.1-2.7c4.6-1.3,9.1-3.1,13.4-5.2c1.7-0.8,3-1.5,3.9-2C417,341.4,417.5,341.2,417.9,340.9z"/>
	<path class="st3" d="M589,523.9l7.7,18.8c0,0-21.5,8.1-21.7,12l41.5-0.1l-6.8-30.8L589,523.9z"/>
	<g class="st5">
		<path class="st6" d="M609.5,540.8c0.8,0.3,1.3,1.1,1.2,1.9c-0.2,0.8-1.1,1.3-1.9,1.2c-0.9-0.3-1.4-1.2-1.2-2.1
			c0.3-0.8,1.3-1.3,2.1-1"/>
	</g>
	<g class="st5">
		<path class="st6" d="M616.5,554.6l-0.7-3.4l-39.2,1.3c0,0-1.8,0.8-1.6,2.1L616.5,554.6z"/>
	</g>
	<path class="st2" d="M596,542.5c0,0.2,1,0.3,2,0.9c1,0.7,1.5,1.5,1.7,1.4c0.2-0.1-0.1-1.3-1.3-2S596,542.3,596,542.5z"/>
	<path class="st2" d="M591.7,544.3c0,0.2,0.8,0.5,1.5,1.4c0.7,0.9,0.9,1.8,1.2,1.8s0.3-1.2-0.6-2.2
		C592.9,544.2,591.7,544.1,591.7,544.3z"/>
	<path class="st2" d="M589.2,549.5c0.2,0,0.5-1-0.1-2.1c-0.5-1.1-1.5-1.6-1.6-1.4s0.5,0.8,0.9,1.7
		C588.9,548.7,589,549.5,589.2,549.5z"/>
	<path class="st2" d="M594.4,538.6c0.1,0.2,1-0.1,2.2,0c1.1,0.1,2,0.4,2.2,0.3c0.1-0.2-0.8-0.9-2.1-1
		C595.2,537.9,594.3,538.5,594.4,538.6z"/>
	<path class="st2" d="M593.9,536.2c0.7,0.2,1.4,0.2,2.1,0c0.8-0.1,1.5-0.4,2.2-0.7c0.4-0.2,0.8-0.4,1.2-0.6c0.2-0.1,0.4-0.3,0.6-0.5
		c0.3-0.3,0.3-0.7,0.1-1.1c-0.2-0.3-0.5-0.5-0.9-0.5c-0.3,0-0.5,0-0.8,0.1c-1.2,0.3-2.3,0.9-3.2,1.7c-1,0.9-1.3,1.7-1.2,1.7
		c0.1,0,0.6-0.6,1.5-1.3c0.6-0.4,1.2-0.8,1.9-1.1c0.4-0.1,0.8-0.3,1.2-0.4c0.4-0.1,0.8-0.1,0.9,0.1s0,0.1,0,0.2
		c-0.1,0.1-0.3,0.3-0.5,0.4c-0.4,0.2-0.7,0.4-1.1,0.6c-0.6,0.3-1.3,0.6-2,0.8C595.2,535.8,594.6,535.9,593.9,536.2z"/>
	<path class="st2" d="M594,536.2c0.4-0.6,0.6-1.3,0.5-2c0-0.8-0.1-1.6-0.3-2.3c-0.1-0.4-0.3-0.9-0.5-1.3c-0.2-0.6-0.7-1-1.3-1
		c-0.4,0-0.7,0.2-0.9,0.6c-0.1,0.2-0.2,0.5-0.2,0.8c-0.2,1.3,0.2,2.5,0.9,3.6c0.8,1.1,1.7,1.3,1.7,1.2c0-0.1-0.6-0.5-1.3-1.5
		c-0.4-0.6-0.6-1.3-0.7-2c-0.1-0.4-0.1-0.8,0-1.2c0.1-0.4,0.2-0.8,0.4-0.7s0.6,0.3,0.7,0.7c0.2,0.4,0.4,0.8,0.5,1.2
		c0.2,0.7,0.4,1.4,0.4,2.1C594.1,535.4,593.9,536.1,594,536.2z"/>
	<path class="st2" d="M616.2,367.8c-1.2,0.6-43.8,60.3-56.1,76.7c-2.3,3-3.2,6.8-2.4,10.5c5.5,21.2,27.8,86.4,27.8,86.4l30-6.2
		l-18.8-77.9l46.5-49.9l-5.3-39.7L616.2,367.8z"/>
	<path class="st3" d="M596.2,458.6c-1.4-0.5-2.7-1.1-3.9-1.9c-1.3-0.6-2.5-1.4-3.6-2.4c1.4,0.5,2.7,1.1,3.9,1.9
		C593.9,456.8,595.2,457.6,596.2,458.6z"/>
	<path class="st11" d="M492.5,228.7c0.2,0.1,1.9,1,3.6,1.8c1.9,0.9,3.5,2.4,4.5,4.3c1.2,2.1,2.7,4.7,2.9,4.8l6.2,4.8l-8.4,11.5
		L499,254c0,0-8.4-0.4-11.5-2c-3.2-1.5-6.1-4-5.7-5.1l0.5-1.4c-0.7-1.1-1-2.4-0.8-3.8c0,0-1.9-2.2-1.6-3.8c0.3-1.5,1.5-2.6,3-2.9
		c0,0-0.9-2.6,0-4c0.7-0.9,1.7-1.5,2.8-1.8l7.9,3.4L492.5,228.7z"/>
	<path class="st3" d="M706,526.9l13.7,16.5c0,0-12.1,19.5-9.9,22.8l32.9-25.4l-20.3-26.5L706,526.9z"/>
	<g class="st5">
		<path class="st6" d="M728.8,534.1c0.8-0.3,1.7,0,2.1,0.8c0.3,0.8,0,1.7-0.8,2.1c-0.9,0.3-1.8-0.1-2.2-0.9
			c-0.3-0.9,0.2-1.8,1.1-2.1"/>
	</g>
	<g class="st5">
		<path class="st6" d="M742.7,540.7l-2.2-2.5l-30.7,25.4c0,0-1,1.8,0,2.7L742.7,540.7z"/>
	</g>
	<path class="st2" d="M719,543.6c0.1,0.2,1-0.4,2.2-0.5s2.1,0.3,2.2,0.1c0.1-0.2-0.9-0.9-2.3-0.8C719.7,542.6,718.9,543.5,719,543.6
		z"/>
	<path class="st2" d="M716.7,547.7c0.1,0.2,1-0.1,2.1,0.2c1.1,0.3,1.8,0.9,1.9,0.7c0.1-0.1-0.4-1.2-1.8-1.4S716.6,547.6,716.7,547.7
		z"/>
	<path class="st2" d="M717.9,553.4c0.2-0.1-0.2-1-1.3-1.6c-1.1-0.6-2.1-0.3-2.1-0.1c0,0.2,0.9,0.3,1.8,0.8
		C717.2,552.8,717.8,553.5,717.9,553.4z"/>
	<path class="st2" d="M716.3,539.5c0.2,0.1,0.7-0.7,1.7-1.3s1.9-0.9,1.9-1.2c0-0.3-1.2-0.3-2.3,0.5S716.1,539.5,716.3,539.5z"/>
	<g class="st7">
		<polygon points="712.2,534.9 714.7,537.8 730.7,525.2 728.6,522.4 		"/>
	</g>
	<path class="st2" d="M713.6,536.2c0,0.1,0.8-0.3,1.6-1.3c0.5-0.6,1-1.2,1.3-1.9c0.2-0.4,0.4-0.8,0.6-1.2c0.1-0.2,0.2-0.5,0.2-0.8
		c0-0.4-0.2-0.8-0.6-0.9c-0.3-0.1-0.7,0-1,0.2c-0.2,0.2-0.4,0.4-0.6,0.6c-0.3,0.4-0.5,0.7-0.7,1.2c-0.4,0.7-0.6,1.4-0.7,2.2
		c-0.2,0.7-0.2,1.4,0.1,2.1c0.1,0,0.1-0.8,0.4-2c0.2-0.7,0.5-1.3,0.8-2c0.2-0.4,0.5-0.7,0.7-1c0.3-0.4,0.6-0.6,0.8-0.5
		c0.2,0.1,0.1,0,0.1,0.2c0,0.2-0.1,0.4-0.1,0.6c-0.1,0.4-0.3,0.8-0.5,1.2c-0.3,0.6-0.7,1.3-1.2,1.8
		C714.1,535.6,713.5,536.1,713.6,536.2z"/>
	<path class="st2" d="M714,536.2c-0.1-0.7-0.3-1.4-0.8-1.9c-0.4-0.6-1-1.2-1.6-1.6c-0.4-0.3-0.7-0.5-1.2-0.7c-0.5-0.3-1.2-0.3-1.7,0
		c-0.3,0.2-0.4,0.6-0.3,1c0.1,0.3,0.2,0.5,0.3,0.7c0.2,0.4,0.5,0.8,0.9,1.2c0.6,0.5,1.3,0.9,2,1.2c0.7,0.3,1.4,0.3,2.1,0
		c-0.7-0.1-1.3-0.3-1.9-0.4c-0.7-0.3-1.2-0.6-1.7-1.2c-0.3-0.3-0.5-0.6-0.7-1c-0.2-0.4-0.3-0.8-0.1-0.8c0.2-0.1,0.6-0.1,1,0.1
		c0.4,0.2,0.7,0.4,1.1,0.6c0.6,0.4,1.1,0.9,1.6,1.4C713.6,535.5,713.9,536.3,714,536.2z"/>
	<path class="st2" d="M676.4,366.5c0.6,1.8,8.3,94,8.3,94l51.4,68.1l-21.8,15.2l-58.1-59.6c-2.8-2.8-4.7-6.4-5.5-10.3l-21.5-102.1
		L676.4,366.5z"/>
	<polygon class="st4" points="554.9,269.9 600.2,270.9 603.3,271.4 590.7,299.1 544.5,292.4 499.2,258.9 511.3,241.9 	"/>
	<path class="st4" d="M627.2,268.7l17.4,4.5c4.4,1.3,8,4.6,9.5,9l4.9,17.6l10.2,39.3l10,35.6c-17.8,8.1-31.8,19.2-54.1,19.9
		c-3.1,0.1-6.2-0.5-9.1-1.7l-14.6-6.2l4.8-22.4L588.8,298l13.3-26.4l4.5-0.6L627.2,268.7z"/>
	<path class="st2" d="M562.2,247.1c-0.1-0.7,0-1.4,0.4-2c0.9-1.3,2.3-2.2,3.8-2.7c0.2-2.1,0.1-4.2-0.4-6.3c-0.7,0.3-1.5,0.4-2.2,0.2
		c-0.1,0-0.2,0-0.4,0c-1.7-0.1-2.6-2.2-2.2-3.8c0.6-1.6,1.6-3,2.9-4c-1,0.5-1.7,1.5-2.6,2.3c-0.9,0.8-2.5,0.9-3-0.1
		c-0.1-0.3-0.2-0.7-0.2-1c0-0.7-0.1-1.4-0.1-2.1c-0.1-0.6,0-1.2,0.3-1.6c0.3-0.3,0.6-0.5,1-0.7c1.1-0.8,1.2-2.5,2.2-3.3
		c0.9-0.4,1.8-0.7,2.8-0.6c1-0.1,2.1-0.8,2-1.7c-1.4-0.1-2.8-0.6-4-1.4c-1.2-0.8-1.7-2.4-1.2-3.8c0.7-0.9,1.7-1.5,2.8-1.8
		c1.2-0.4,2.7-0.7,3.5,0.3c1.5-1,3.5-0.7,4.5,0.8c0,0,0.1,0.1,0.1,0.2l2.9-1.5c-1.2-0.6-2.6-0.7-3.7-1.4c-1.1-0.7-1.7-2.6-0.6-3.3
		c0.4-0.3,0.9-0.3,1.3-0.6c0.4-0.3,0.4-0.6,0.7-0.7c0.2-0.1,0.5-0.1,0.7,0l7.9,1.7l-3.3-3.3c-1-1-2.1-2.5-1.3-3.7
		c0.8-1.2,2.7-0.7,3.5,0.5c1-0.7,2.4-0.4,3.1,0.6c0.1,0.1,0.1,0.2,0.2,0.3c0.9-0.9,2.3-0.8,3.2,0.1c0.6,0.6,0.8,1.5,0.5,2.2
		c1.1-0.4,2.2-0.5,3.4-0.3c-0.3-1,0.3-2.1,1.3-2.4c0.4-0.1,0.7-0.1,1.1,0c-0.3-0.6-0.4-1.3-0.2-2c0.2-0.6,1-1.2,1.6-0.8
		c-0.7-1.1-0.4-2.5,0.7-3.2c0.6-0.4,1.3-0.5,2-0.3l0.6-1.7c1.1-0.5,2.3-0.4,3.2,0.4c0.7,0.7,0.7,1.8,0,2.5c-0.1,0.1-0.3,0.3-0.5,0.4
		c0.7-0.3,1,1,0.8,1.7c-0.3,1.1-0.6,2.2-0.9,3.3c0.5-1.1,1.7-1.6,2.8-1.4c0.4-1,1.6-1.4,2.6-1c0,0,0,0,0.1,0
		c0.2-0.9,1.1-1.4,1.9-1.2c0.4,0.1,0.7,0.3,0.9,0.6c0-0.6,0.7-0.9,1.2-1c0.8-0.3,1.6-0.3,2.4-0.1c0.7,0.3,1.2,1.4,0.6,2
		c0.5-0.6,1.6-0.2,1.9,0.5c0.2,0.8,0.1,1.6-0.3,2.3c-0.4,0.7-0.7,1.4-0.9,2.2c0.5-0.6,1.2-1.1,1.9-1.3c1.3-0.6,2.7-0.8,4.1-0.7
		c0-0.6,0.7-0.9,1.3-1c1.9-0.3,3.8-0.1,5.5,0.7c0.8,0.4,1.7,1.1,1.6,1.9c-0.1,0.4-0.3,0.8-0.6,1.1c-1,1.4-2.1,2.7-3.1,4.1
		c2.5-0.2,5,0.5,7.1,1.8c1,0,2,0,3,0.1c1,0.3,1.5,1.9,0.6,2.2c0.8,0.3,1.3,1,1.3,1.8c0,0.3-0.2,0.7-0.4,0.9c0,0.2-0.1,0.5-0.3,0.7
		c-0.2,0.4-0.5,0.7-0.9,1c-0.2,0.7-0.8,1.3-1.5,1.5c1,0.4,2,0.9,2.8,1.5c1.1,0.9,1.7,2.3,1.4,3.7c0,0.1-0.1,0.1-0.1,0.2
		c0.1,0.5,0,1-0.3,1.4c0.3,0.3,0.5,0.6,0.5,0.9c2.4,0,4.3,1.9,4.3,4.2c0,0.8-0.2,1.7-0.7,2.4c-0.7,1-2.5,1.6-3,0.5
		c-0.1,1.1-0.7,2.1-1.7,2.6c1.3,1.2,1.4,3.2,0.2,4.5c-0.1,0.1-0.1,0.1-0.2,0.2c1.7,0.8,2.5,2.8,1.7,4.6c-0.2,0.4-0.4,0.7-0.7,1
		c0.9,1.1,0.8,2.8-0.3,3.7c-1.1,0.9-2.8,0.8-3.7-0.3c0,1.1-0.4,2.1-0.9,3c-0.6,0.9-1.8,1-2.7,0.4c0,0-0.1,0-0.1-0.1
		c0,2-1.7,3.6-3.7,3.5c-0.2,0-0.4,0-0.6-0.1c0.6,1.1,0.1,2.5-1.1,3.1s-2.5,0.1-3.1-1.1l-5.6,2.1c-1.2,0.5-2.5,0.9-3.8,1.2
		c-1.7,0.3-3.4,0.2-5-0.3c-0.5-0.2-1-0.3-1.6-0.3c-0.6,0.2-1.2,0.5-1.6,0.9c-2.7,2-6.3,2.5-9.4,1.3c-0.5-0.2-1-0.4-1.5-0.5
		c-0.6,0-1.2,0.2-1.7,0.4c-1.4,0.5-2.8,0.8-4.3,1c-1.3,0.2-2.6,0-3.6-0.8c-0.9-0.8-0.9-2.7,0.2-3.1c-0.2-0.8-0.7-1.5-1.4-1.9
		c-0.8-0.3-1.7,0-2.1,0.7c-0.3,0.7,0.4,1.8,1.2,1.6c-0.9,1.4-3.4,0.9-4-0.6c-0.5-1.6,0.3-3.4,1.9-4c-0.7-1-1.2-2.1-1.4-3.4
		c-0.5,1.3-1.9,2.1-3.2,1.7c-0.2,1.3-0.9,2.4-2,3.1c-1.1,0.7-2.6,0.5-3.5-0.4c-0.7-0.9-0.5-2.1,0.4-2.8c0.1-0.1,0.3-0.2,0.5-0.3
		c-1-0.9-1-2.4-0.2-3.4c0.2-0.3,0.6-0.5,0.9-0.6c-0.8-1.5-0.5-3.3,0.7-4.5c-0.7,0.8-1.9,0.9-2.7,0.2c-0.1-0.1-0.1-0.1-0.2-0.2
		c-0.3,1.4-2.1,1.8-3.5,1.6C563.4,249.1,562.4,248.2,562.2,247.1z"/>
	<path class="st3" d="M562.2,247.1c0,0.2,0.1,0.3,0.1,0.5c0.2,0.5,0.5,0.9,0.9,1.2c0.7,0.4,1.5,0.6,2.4,0.6c0.5,0,1.1-0.1,1.5-0.3
		c0.6-0.2,1-0.7,1.2-1.3h-0.1c0.7,0.9,2,1,2.9,0.2c0.1-0.1,0.2-0.1,0.2-0.2l-0.1-0.1c-1.3,1.2-1.6,3.1-0.7,4.6l0.1-0.1
		c-0.8,0.3-1.4,1-1.5,1.8c-0.2,0.9,0.1,1.8,0.7,2.4v-0.2c-0.9,0.3-1.4,1.2-1.3,2.1c0.1,1,0.9,1.8,1.8,2c1,0.2,2-0.1,2.8-0.8
		c0.8-0.7,1.3-1.7,1.5-2.7l-0.2,0.1c1.4,0.4,3-0.4,3.5-1.8h-0.3c0.2,1.3,0.7,2.4,1.4,3.5l0.1-0.2c-0.8,0.3-1.4,0.9-1.8,1.6
		c-0.4,0.7-0.6,1.6-0.3,2.4c0.3,0.8,1,1.5,1.9,1.7c0.9,0.3,1.9-0.1,2.5-0.8l0.3-0.4l-0.4,0.1c-0.4,0.1-0.9-0.3-1-0.8
		c-0.1-0.5,0.3-1,0.8-1.2c0.5-0.2,1.1-0.1,1.6,0.3c0.5,0.4,0.8,0.9,0.9,1.5l0.1-0.2c-0.4,0.2-0.8,0.5-0.9,0.9
		c-0.2,0.4-0.2,0.9-0.1,1.3c0.1,0.4,0.3,0.8,0.6,1.2c0.3,0.3,0.7,0.5,1.2,0.7c0.8,0.2,1.7,0.3,2.6,0.2c0.9-0.1,1.7-0.2,2.5-0.4
		c1.7-0.3,3.3-1.6,4.9-0.6c1.7,0.7,3.6,0.9,5.4,0.6c0.9-0.2,1.8-0.5,2.7-0.9c0.8-0.4,1.6-1,2.4-1.6c0.3-0.2,0.7-0.3,1.2-0.3
		c0.5,0.1,0.9,0.2,1.3,0.4c0.9,0.3,1.9,0.4,2.9,0.4c2-0.1,3.9-0.5,5.8-1.3l5.7-2.1l-0.3-0.1c0.6,1.3,2.2,1.8,3.5,1.2
		c1.3-0.6,1.8-2.2,1.2-3.5l-0.3,0.3c2.1,0.4,4.1-0.9,4.5-3c0.1-0.3,0.1-0.5,0.1-0.8l-0.4,0.2c0.4,0.4,1,0.6,1.6,0.5
		c0.6-0.1,1.1-0.4,1.5-0.8c0.7-0.9,1-2,1.1-3.2l-0.4,0.1c1,1.2,2.8,1.4,4,0.3c1.2-1,1.4-2.8,0.3-4l0,0v0.3c0.9-0.8,1.3-2,1.1-3.2
		c-0.1-1.3-1-2.4-2.2-2.8l0.1,0.4c1.4-1.3,1.5-3.5,0.2-4.9c-0.1-0.1-0.1-0.2-0.2-0.2v0.4c1-0.6,1.7-1.6,1.8-2.8l-0.5,0.1
		c0.1,0.3,0.4,0.5,0.7,0.6c0.3,0.1,0.6,0.1,0.9,0.1c0.6-0.1,1.1-0.3,1.5-0.7c0.8-0.8,1.2-2,1.2-3.1c0-1.2-0.5-2.3-1.4-3.1
		c-0.8-0.8-2-1.3-3.2-1.3l0.3,0.2c-0.1-0.4-0.3-0.8-0.6-1.1v0.3c0.3-0.5,0.5-1,0.4-1.6v0.1c0.4-1.3,0-2.7-0.9-3.7
		c-0.9-1-2.1-1.7-3.4-2.1v0.5c0.8-0.3,1.4-0.9,1.7-1.7l-0.1,0.1c0.6-0.5,1-1.1,1.2-1.8v0.1c0.4-0.5,0.5-1.2,0.3-1.8
		c-0.2-0.6-0.7-1.1-1.3-1.3v0.5c0.3-0.1,0.5-0.4,0.6-0.7c0.1-0.3,0-0.6-0.1-0.9c-0.2-0.5-0.6-1-1.2-1.2c-1-0.1-2-0.2-3-0.1h0.1
		c-2.2-1.3-4.7-2-7.2-1.8l0.2,0.4c0.4-0.6,0.9-1.2,1.4-1.9l1.1-1.4c0.4-0.5,0.7-1,1-1.5c0.2-0.3,0.2-0.7,0.1-1
		c-0.1-0.3-0.3-0.6-0.6-0.9c-0.5-0.4-1-0.8-1.6-1c-1.1-0.5-2.3-0.7-3.5-0.7c-0.6,0-1.2,0-1.8,0.1c-0.3,0.1-0.6,0.2-0.9,0.3
		c-0.3,0.2-0.6,0.5-0.6,0.9l0.3-0.2c-1.1-0.1-2.3,0-3.4,0.4c-0.5,0.2-1,0.3-1.6,0.6c-0.6,0.2-1.1,0.6-1.4,1.2l0.5,0.1
		c0.1-1.1,1-2,1.3-3.2c0.2-0.7,0-1.4-0.5-1.9c-0.3-0.2-0.6-0.4-0.9-0.4c-0.4,0-0.8,0.1-1,0.4l0.4,0.3c0.3-0.2,0.4-0.6,0.4-0.9
		c0-0.3-0.1-0.6-0.3-0.9c-0.2-0.3-0.4-0.5-0.7-0.6c-0.3-0.1-0.6-0.2-0.9-0.2c-0.6,0-1.1,0.1-1.7,0.3c-0.3,0.1-0.6,0.2-0.8,0.4
		c-0.3,0.2-0.5,0.5-0.5,0.9l0.5-0.1c-0.6-0.8-1.7-1-2.5-0.5c-0.4,0.3-0.7,0.7-0.8,1.1l0.4-0.2c-1.1-0.5-2.4-0.1-2.9,1
		c0,0,0,0.1-0.1,0.1l0.3-0.2c-1.3-0.3-2.5,0.3-3.1,1.5l0.5,0.2l0.7-2.8c0.2-0.5,0.2-1,0.2-1.5c0-0.3-0.1-0.5-0.3-0.8
		c-0.1-0.1-0.2-0.2-0.4-0.3c-0.2-0.1-0.3-0.1-0.5,0l0.2,0.5c0.7-0.2,1.1-0.8,1.2-1.5c0.1-0.7-0.1-1.3-0.6-1.8
		c-1-0.8-2.3-0.9-3.5-0.4h-0.1v0.1l-0.6,1.7l0.3-0.2c-1.3-0.5-2.7,0.2-3.2,1.5c-0.3,0.7-0.2,1.6,0.3,2.2l0.3-0.3
		c-0.4-0.2-0.9-0.2-1.2,0.1c-0.3,0.2-0.6,0.5-0.7,0.9c-0.1,0.7,0,1.4,0.2,2.1l0.3-0.3c-1.1-0.4-2.4,0.2-2.8,1.4
		c-0.1,0.4-0.1,0.9,0,1.3l0.3-0.3c-1.2-0.2-2.4-0.1-3.5,0.3l0.3,0.3c0.4-1.3-0.4-2.7-1.7-3c-0.8-0.2-1.7,0-2.4,0.6l0.4,0.1
		c-0.5-1.2-2-1.8-3.2-1.2c-0.1,0.1-0.3,0.1-0.4,0.2h0.3c-0.3-0.5-0.8-0.9-1.4-1.2c-0.6-0.2-1.2-0.2-1.8,0c-0.6,0.3-0.9,0.9-1,1.5
		c-0.1,0.6,0.1,1.3,0.4,1.8c0.6,0.9,1.3,1.7,2.1,2.5l2.2,2.3l0.2-0.4l-4.9-1l-2.4-0.5c-0.4-0.1-0.8-0.2-1.3-0.2
		c-0.3,0-0.5,0.2-0.6,0.4c-0.1,0.2-0.2,0.3-0.4,0.5c-0.3,0.2-0.6,0.4-1,0.5c-0.4,0.2-0.8,0.5-0.9,1c-0.2,0.9,0.1,1.7,0.7,2.4
		c0.6,0.6,1.3,1,2.1,1.2c0.7,0.2,1.4,0.4,2.1,0.7v-0.4l-2.9,1.5l0.3,0.1c-1-1.6-3.1-2.1-4.8-1.1c-0.1,0-0.1,0.1-0.2,0.1h0.3
		c-0.5-0.6-1.3-0.9-2-0.7c-0.7,0.1-1.4,0.2-2,0.5c-0.7,0.2-1.3,0.5-1.8,0.9c-0.6,0.4-0.9,1.1-0.9,1.8c0,1.4,0.8,2.6,2,3.3
		c1.1,0.6,2.3,0.9,3.6,1.1l-0.1-0.2c0,0.5-0.3,0.9-0.7,1.2c-0.4,0.3-0.9,0.4-1.5,0.4c-0.5,0-1.1,0.1-1.6,0.2c-0.5,0.1-1,0.4-1.4,0.9
		c-0.7,0.9-0.8,1.9-1.5,2.6c-0.3,0.4-0.8,0.5-1.2,0.8c-0.3,0.4-0.5,0.9-0.5,1.4c0,0.9,0.1,1.9,0.2,2.8c0,0.5,0.2,1,0.6,1.3
		c0.4,0.3,0.9,0.4,1.3,0.3c0.4-0.1,0.9-0.2,1.2-0.5c0.3-0.3,0.7-0.5,1-0.9c0.5-0.6,1.1-1.1,1.8-1.5l-0.1-0.2c-0.7,0.6-1.4,1.4-2,2.1
		c-0.6,0.7-0.9,1.6-1,2.5c-0.1,0.9,0.2,1.7,0.7,2.4c0.5,0.7,1.3,1,2.1,0.9l0,0c0.8,0.2,1.6,0.1,2.3-0.2l-0.1-0.1
		c0.5,2,0.6,4.1,0.5,6.2v-0.1c-1,0.4-1.9,0.8-2.7,1.4c-0.6,0.4-1,1-1.3,1.6c-0.2,0.4-0.2,0.8-0.2,1.2c0,0.1,0,0.3,0.1,0.4
		c-0.1-0.5,0-1.1,0.2-1.6c0.3-0.6,0.7-1.2,1.3-1.6c0.8-0.6,1.7-1,2.7-1.4l0,0l0,0c0.2-2.1,0.1-4.2-0.4-6.3v-0.1H566
		c-0.7,0.3-1.4,0.3-2.2,0.2l0,0c-0.7,0.1-1.5-0.2-1.9-0.8c-0.5-0.6-0.7-1.4-0.7-2.2c0.1-0.9,0.4-1.7,1-2.4c0.6-0.8,1.3-1.5,2-2.1
		l0.6-0.5l-0.7,0.3c-0.7,0.4-1.4,0.9-1.9,1.6c-0.3,0.3-0.6,0.6-0.9,0.8c-0.3,0.2-0.7,0.4-1.2,0.4c-0.4,0.1-0.8,0-1.2-0.2
		c-0.3-0.3-0.5-0.7-0.5-1.1c0-0.9-0.1-1.8-0.2-2.8c0-0.4,0.1-0.9,0.4-1.2c0.3-0.3,0.8-0.4,1.2-0.8c0.7-0.8,0.9-1.8,1.5-2.6
		s1.7-0.9,2.8-0.9c0.6,0,1.1-0.2,1.6-0.5c0.6-0.3,0.9-0.8,0.9-1.5v-0.1h-0.1c-1.2-0.1-2.4-0.5-3.5-1c-1.1-0.6-1.8-1.7-1.8-3
		c0-0.6,0.3-1.2,0.8-1.6c0.5-0.4,1.1-0.7,1.7-0.9c0.6-0.2,1.3-0.4,1.9-0.5c0.6-0.1,1.3,0.1,1.7,0.6l0.1,0.2l0.1-0.1
		c1.4-1,3.3-0.6,4.3,0.8c0,0,0.1,0.1,0.1,0.1l0.1,0.2l0.2-0.1l2.9-1.5l0.4-0.2l-0.4-0.2c-0.7-0.3-1.4-0.5-2.2-0.7
		c-0.7-0.2-1.4-0.5-1.9-1c-0.5-0.5-0.7-1.3-0.6-2c0.1-0.3,0.4-0.6,0.7-0.7c0.4-0.1,0.8-0.3,1.2-0.6c0.3-0.3,0.5-0.7,0.8-0.7
		c0.4,0,0.8,0.1,1.2,0.2l2.4,0.5l4.9,1l0.7,0.1l-0.5-0.5l-2.2-2.3c-0.8-0.7-1.5-1.5-2.1-2.4c-0.3-0.4-0.4-0.9-0.4-1.4
		c0-0.5,0.3-0.9,0.7-1.2c1-0.4,2.1,0,2.6,0.9l0.1,0.2l0.2-0.1c0.9-0.6,2.1-0.4,2.7,0.6c0.1,0.1,0.1,0.2,0.2,0.3l0.1,0.3l0.3-0.2
		c0.8-0.8,2.1-0.7,2.8,0.1c0.5,0.5,0.6,1.2,0.5,1.9l-0.1,0.4l0.4-0.2c1-0.4,2.2-0.5,3.2-0.3l0.4,0.1l-0.2-0.4
		c-0.2-0.9,0.3-1.9,1.2-2.1c0.3-0.1,0.6-0.1,0.9,0l0.5,0.2l-0.2-0.5c-0.2-0.6-0.3-1.2-0.2-1.8c0.1-0.5,0.8-1,1.2-0.7l1,0.6l-0.6-0.9
		c-0.6-0.9-0.3-2.2,0.6-2.8c0.5-0.3,1.1-0.4,1.7-0.2l0.2,0.1l0.1-0.2c0.2-0.6,0.4-1.1,0.6-1.7l-0.1,0.1c0.9-0.5,2.1-0.4,2.9,0.3
		c0.7,0.6,0.6,2.2-0.3,2.4l0.2,0.5c0.1-0.1,0.3,0,0.3,0.1c0.1,0.2,0.2,0.3,0.2,0.5c0.1,0.4,0,0.9-0.2,1.3l-0.7,2.8l0.5,0.2
		c0.5-0.9,1.5-1.4,2.5-1.2l0.2,0.1l0.1-0.2c0.4-0.9,1.4-1.3,2.2-0.9c0,0,0,0,0.1,0l0.4,0.2v-0.4c0.2-0.7,1-1.1,1.7-0.9
		c0.2,0.1,0.5,0.2,0.6,0.4l0.6,1.2l-0.1-1.3c0-0.3,0.5-0.6,0.9-0.7c0.5-0.2,1-0.2,1.5-0.3c0.5,0,0.9,0.2,1.2,0.5
		c0.3,0.3,0.3,0.8,0,1.2l0.4,0.4c0.2-0.3,0.9-0.2,1.2,0.1c0.4,0.4,0.5,0.9,0.3,1.4c-0.2,1.1-1.2,2-1.3,3.3l-0.2,1.3l0.6-1.2
		c0.5-0.8,1.7-1.1,2.7-1.4c1-0.4,2.1-0.5,3.1-0.4h0.3v-0.3c0-0.4,0.6-0.7,1.1-0.8c1.7-0.3,3.4-0.1,5,0.5c0.5,0.2,1,0.5,1.4,0.9
		c0.4,0.3,0.5,0.9,0.3,1.3c-0.3,0.5-0.6,1-1,1.4l-1.1,1.4l-1.4,1.9l-0.3,0.4h0.6c2.4-0.1,4.9,0.5,6.9,1.8l0,0l0,0c1,0,2,0,3,0.1
		c0.4,0.2,0.7,0.5,0.8,0.9c0.1,0.4,0.1,0.8-0.3,0.9l-0.8,0.3l0.8,0.2c0.5,0.2,0.9,0.5,1,1c0.2,0.5,0.1,1-0.2,1.3l0,0v0.1
		c-0.1,0.6-0.5,1.2-1,1.5h-0.1v0.1c-0.2,0.6-0.7,1.2-1.3,1.4l-0.7,0.2l0.7,0.3c1.2,0.4,2.3,1.1,3.2,2c0.8,0.8,1.1,2.1,0.8,3.2v0.1
		v0.1c0.1,0.4,0,0.9-0.3,1.2l-0.1,0.2l0.2,0.2c0.2,0.2,0.4,0.5,0.4,0.8v0.2h0.2c1,0,2.1,0.4,2.8,1.2c0.8,0.7,1.2,1.7,1.2,2.7
		c0.1,1-0.3,2-0.9,2.7c-0.3,0.3-0.8,0.5-1.2,0.6c-0.4,0.1-0.8-0.1-1-0.4l-0.4-0.9l-0.1,1c-0.1,1-0.7,1.9-1.6,2.4l-0.3,0.2l0.3,0.2
		c1.2,1.1,1.3,3,0.2,4.2c-0.1,0.1-0.1,0.1-0.2,0.2l-0.3,0.3l0.4,0.1c1,0.4,1.7,1.3,1.9,2.4c0.2,1-0.1,2.1-0.9,2.8l-0.2,0.2l0.2,0.2
		c0.9,1,0.7,2.5-0.3,3.4s-2.5,0.7-3.4-0.3l0,0l-0.4-0.4l-0.1,0.6c0,1-0.3,2.1-0.9,2.9c-0.6,0.7-1.6,0.9-2.3,0.3c0,0,0,0,0,0
		l-0.5-0.6v0.7c0,1-0.5,2-1.3,2.6c-0.8,0.6-1.8,0.9-2.7,0.6l-0.4-0.1l0.2,0.4c0.4,1.1-0.1,2.3-1.1,2.7c-1,0.4-2.1,0-2.6-0.9
		l-0.1-0.2l-0.2,0.1l-5.7,2.1c-1.8,0.8-3.7,1.2-5.6,1.3c-0.9,0-1.9-0.1-2.8-0.4c-0.5-0.2-0.9-0.3-1.4-0.4c-0.5-0.1-1.1,0.1-1.5,0.4
		c-0.7,0.6-1.5,1.1-2.3,1.5c-0.8,0.4-1.7,0.7-2.6,0.8c-1.7,0.3-3.5,0.1-5.2-0.5c-0.4-0.2-0.9-0.3-1.3-0.4c-0.5,0-0.9,0-1.4,0.2
		c-0.8,0.3-1.6,0.6-2.5,0.8c-0.8,0.2-1.7,0.3-2.5,0.4c-0.8,0.1-1.6,0-2.4-0.2c-0.7-0.2-1.3-0.8-1.5-1.5c-0.2-0.7,0.1-1.5,0.7-1.8
		h0.1v-0.2c-0.2-0.7-0.5-1.3-1-1.7c-0.5-0.4-1.3-0.6-1.9-0.3c-0.7,0.2-1.1,0.9-1,1.6c0.1,0.7,0.8,1.2,1.5,1.1l-0.2-0.3
		c-0.5,0.6-1.3,0.9-2.1,0.7c-0.8-0.1-1.4-0.7-1.7-1.4c-0.4-1.5,0.5-3.1,1.9-3.6l0.2-0.1l-0.1-0.2c-0.7-1-1.2-2.1-1.4-3.3l-0.1-0.7
		l-0.2,0.6c-0.4,1.3-1.8,2-3.1,1.6h-0.1v0.2c-0.2,1-0.7,1.9-1.4,2.6c-0.7,0.6-1.6,0.9-2.6,0.7c-0.9-0.1-1.6-0.8-1.6-1.7
		c-0.1-0.8,0.4-1.6,1.2-1.9l0.2-0.1l-0.2-0.1c-0.9-0.9-0.9-2.3,0-3.3c0.2-0.2,0.5-0.4,0.7-0.5h0.1l-0.1-0.1
		c-0.8-1.4-0.5-3.2,0.7-4.3l-0.1-0.1c-0.7,0.8-1.9,0.9-2.6,0.2c-0.1-0.1-0.1-0.1-0.2-0.2l-0.1-0.1v0.2c-0.1,0.6-0.5,1-1.1,1.3
		c-0.5,0.2-1,0.3-1.5,0.3c-0.8,0-1.6-0.1-2.3-0.5c-0.4-0.2-0.7-0.6-0.9-1.1C562.3,247.3,562.2,247.1,562.2,247.1z"/>
	<path class="st11" d="M627.6,269.9l-13.7-39.6c-3.3-10.8-12.3-17.9-22.9-14.3l-1,0.4c-9.7,3.9-14.9,14.6-11.8,24.6
		c2.9,9.3,6.2,19.6,8.2,24.4c4.1,10,14.8,7.5,14.8,7.5s0.9,2.3,1.9,5.4l0,0c0,0,1.7,10,9.6,7.6C620.5,283.6,627.6,269.9,627.6,269.9
		z"/>
	<path class="st12" d="M601.1,273c4.6-1.9,8.6-5,11.5-9.1c0,0,0,8.9-10.4,12L601.1,273z"/>
	<path class="st2" d="M583.8,248c0.3,0.8,1.2,1.2,2,0.9c0.8-0.2,1.2-1.1,1-1.9c0,0,0,0,0,0c-0.3-0.8-1.2-1.2-2-0.9
		C583.9,246.4,583.5,247.2,583.8,248C583.7,248,583.7,248,583.8,248z"/>
	<path class="st2" d="M582,244.4c0.3,0.1,1-1.2,2.6-1.7s3-0.3,3.1-0.5s-0.3-0.4-0.9-0.6c-0.9-0.2-1.7-0.1-2.6,0.2
		c-0.8,0.3-1.5,0.9-1.9,1.6C581.9,243.9,581.8,244.3,582,244.4z"/>
	<path class="st2" d="M598.1,243.4c0.3,0.8,1.2,1.2,2,0.9c0.8-0.2,1.2-1.1,1-1.9c0,0,0,0,0,0c-0.3-0.8-1.2-1.2-2-0.9
		C598.3,241.8,597.9,242.6,598.1,243.4C598.1,243.4,598.1,243.4,598.1,243.4z"/>
	<path class="st2" d="M597.3,239c0.3,0.1,1-1.2,2.6-1.7c1.5-0.6,3-0.3,3.1-0.5s-0.3-0.4-0.9-0.5c-0.9-0.2-1.7-0.1-2.5,0.2
		c-0.8,0.3-1.5,0.9-1.9,1.6C597.2,238.5,597.2,238.9,597.3,239z"/>
	<path class="st2" d="M596.5,253c-0.9,0.1-1.8,0.3-2.7,0.5c-0.4,0.1-0.8,0.2-1-0.1c-0.2-0.4-0.3-0.8-0.2-1.3c0-1.1,0-2.2,0-3.5
		c-0.1-4.9-0.3-8.9-0.5-8.9s-0.3,4-0.2,8.9c0,1.2,0.1,2.3,0.1,3.5c-0.1,0.6,0.1,1.1,0.4,1.6c0.2,0.2,0.6,0.3,0.9,0.3
		c0.2,0,0.5-0.1,0.7-0.2C594.9,253.8,595.7,253.4,596.5,253z"/>
	<path class="st2" d="M594.9,233.9c0.3,0.4,1.8-0.4,3.7-0.9c1.9-0.5,3.6-0.6,3.6-1.1c0-0.2-0.4-0.5-1.2-0.7c-2-0.4-4.1,0.2-5.6,1.5
		C594.9,233.2,594.7,233.7,594.9,233.9z"/>
	<path class="st2" d="M580.5,238.9c0.4,0.3,1.3-0.5,2.6-1c1.3-0.5,2.5-0.6,2.6-1.2c0-0.2-0.3-0.5-0.9-0.7c-0.8-0.2-1.6-0.1-2.3,0.2
		c-0.7,0.3-1.4,0.8-1.8,1.5C580.3,238.4,580.3,238.8,580.5,238.9z"/>
	<path class="st12" d="M596.6,257.6c0.4,0.5,0.9,1,1.4,1.4c0.5,0.4,1.2,0.5,1.9,0.4c0.7-0.2,1.2-0.8,1.4-1.5
		c0.2-0.7,0.1-1.4-0.2-2.1c-0.2-0.6-0.7-1.2-1.4-1.1c-0.3,0.1-0.5,0.2-0.7,0.4l-2.8,2.3"/>
	<path class="st2" d="M598.7,259.8c0.6-0.2,1.1-0.4,1.6-0.8c0.5-0.4,0.8-1,0.9-1.6c0.1-0.8-0.1-1.5-0.6-2.1
		c-0.1-0.1-0.3-0.3-0.4-0.4c-0.2-0.1-0.1-0.1-0.3,0c-0.1,0.1-0.3,0.3-0.4,0.4l-0.5,0.4c-0.6,0.5-1.2,0.9-1.6,1.3
		c-0.5,0.4-1,0.8-1.6,1.1c-0.1,0,0.4-0.6,1.3-1.4c0.4-0.4,0.9-0.9,1.5-1.4l0.4-0.4c0.2-0.1,0.3-0.3,0.5-0.4c0.1-0.1,0.3-0.2,0.5-0.1
		c0.2,0,0.3,0.1,0.4,0.2c0.2,0.1,0.4,0.3,0.6,0.5c0.6,0.7,0.9,1.7,0.7,2.6c-0.1,0.7-0.5,1.4-1.2,1.8c-0.4,0.3-0.9,0.5-1.4,0.5
		C598.9,259.9,598.7,259.8,598.7,259.8z"/>
	<path class="st2" d="M572.3,233.7c-0.2-0.5-0.3-1.1-0.4-1.6c0-0.8,0.2-1.7,0.6-2.4c1.2-2.6,2.5-5.4,4.6-6.9
		c1.3-0.9,2.9-1.4,4.3-2.3c0.8-0.6,1.6-1.3,2.3-2c3.2-2.6,7.1-4.4,11.2-5c2.3-0.5,4.6-0.7,6.9-0.4c2.6,0.5,5.1,1.5,7.4,2.9
		c3.7,1.9,7.1,4.4,9.9,7.5c2.3,2.5,3.9,5.6,4.5,9c0.5,3.4-0.7,7-3.2,8.5l-1.4-0.9l-2.2-1.3c0.5,0.7,0.3,0.7-0.2,1.3
		c-0.5,0.6-1.4,0.6-1.9,0.1c0,0-0.1-0.1-0.1-0.1c-0.3,0.8-1.6,0.5-1.8-0.5c-0.5,0.5-1.6-0.1-1.6-0.9c-0.6,0.5-1.4-0.5-2-1.2
		c-0.3-0.4-0.7-0.7-1.1-1c-1.2-1.1-2-2.4-2.4-4c-1.2-1-2.1-2.3-2.6-3.8c-0.4-0.9-0.8-1.8-1.2-2.8l-0.7-0.5c0.2,0.7,0,1.4-0.6,1.8
		c-0.5,0.3-1.1,0.5-1.7,0.5l-1.8,0.2l-1,0.6c0.5,0.9,0.7,1.9,0.5,2.9c0,0.7-0.1,1.3-0.5,1.8c-0.4,0.3-0.9,0.3-1.2-0.1
		c-0.1-0.1-0.2-0.3-0.2-0.4c-0.3,0.4-0.9,0.6-1.3,0.3c-0.1,0-0.1-0.1-0.1-0.1c-0.5-0.4-0.8-1-0.9-1.6c-0.4-1.5-0.3-3.1,0.1-4.5
		l-2.1,3.6c-0.1,0.3-0.3,0.5-0.6,0.7c0.2,0.4,0,0.9-0.4,1.1c-0.1,0-0.1,0.1-0.2,0.1c-0.5,0-0.9-0.1-1.3-0.4
		c-0.9-0.5-2.1-1.6-1.7-2.7c-0.4,0-0.7-0.5-0.6-0.9l-2.6,3.6c0.3-0.3,0.8,0.1,0.9,0.6c0,0.4-0.1,0.9-0.4,1.2
		c0.4,0.4,0.7,0.9,0.9,1.5c0.4-0.7,1.6,0,1.7,0.9c0,0.9-0.5,1.6-1.4,1.9c-0.7,0.3-1.5,0-1.8-0.6c-0.7,0.4-1.7-0.4-1.7-1.3
		c-0.4,0.5-1.2-0.3-1.4-1c-0.4-1.3-0.6-2.6-0.6-3.9c0,0.1-0.1,0.2-0.3,0.2c0,0-0.1-0.1-0.1-0.1c-0.2,1.6-0.3,3.2-0.5,4.8
		c-0.2,1.4-0.2,2.8,0.1,4.2c0.1,0.6,0.3,1.3-0.1,1.5c-0.1,0-0.3,0-0.4,0c-1.6-0.4-3.1-1.3-4.1-2.6c-0.4-0.4-0.7-0.9-0.9-1.5
		C572.6,236.1,572.4,234.9,572.3,233.7z"/>
	<path class="st3" d="M586.2,226.8c-0.3-0.2-0.5-0.4-0.7-0.7c-0.2-0.3-0.2-0.7,0-1c0.2-0.4,0.7-0.7,1.2-0.7h0.3l-0.2-0.2
		c-0.3-0.4-0.4-1-0.1-1.5c0.4-0.5,1-0.7,1.6-0.4l0.1-0.3c-0.1,0-0.1-0.1-0.1-0.1c-0.1-0.2-0.2-0.4-0.1-0.6c0.1-0.2,0.2-0.4,0.4-0.5
		c0.2-0.1,0.4-0.2,0.7-0.2c0.3,0,0.5,0,0.8,0c0.3-0.1,0.4-0.4,0.5-0.6c0.1-0.2,0.3-0.3,0.4-0.4c0.3-0.2,0.6-0.4,1-0.5
		c0.5-0.2,1.1-0.2,1.6-0.1c0.4,0.1,0.6,0.2,0.6,0.2c-0.2-0.1-0.3-0.2-0.6-0.3c-0.6-0.2-1.1-0.2-1.7,0c-0.4,0.1-0.7,0.3-1,0.5
		c-0.2,0.1-0.3,0.3-0.5,0.5c-0.1,0.2-0.2,0.4-0.4,0.5c-0.2,0-0.4,0-0.7,0c-0.3,0-0.5,0.1-0.8,0.2c-0.3,0.1-0.5,0.4-0.6,0.6
		c-0.1,0.3-0.1,0.6,0.1,0.9c0.1,0.1,0.1,0.2,0.2,0.2l0.1-0.3c-0.8-0.3-1.7,0-2,0.8c-0.2,0.5-0.2,1.1,0.2,1.5l0.1-0.2
		c-0.6,0-1.1,0.3-1.3,0.8c-0.3,0.6,0,1.4,0.6,1.8C586.1,226.8,586.2,226.8,586.2,226.8z"/>
	<path class="st3" d="M579.5,230.7c-0.3-0.1-0.6-0.4-0.8-0.6c-0.2-0.3-0.3-0.8-0.2-1.2c0.1-0.5,0.4-0.9,0.9-1.2l0.2-0.1l-0.2-0.1
		c-0.5-0.3-0.9-0.8-0.9-1.4c0-0.3,0.1-0.6,0.4-0.8c0.2-0.2,0.6-0.3,0.9-0.1l1.1,0.6l-0.9-0.9c-0.3-0.3-0.5-0.8-0.4-1.2
		c0-0.5,0.3-0.9,0.7-1.2c0.3-0.2,0.6-0.2,1-0.2l0.4,0.1l-0.2-0.3c-0.3-0.5-0.1-1.1,0.4-1.3c0,0,0.1,0,0.1,0c0.5-0.2,1.1-0.2,1.6,0
		l0.3,0.1l-0.2-0.3c-0.2-0.4-0.2-0.8,0-1.2c0.2-0.3,0.5-0.6,0.9-0.7c0.6-0.3,1.2-0.4,1.9-0.5c0.6,0,1.1,0,1.7,0.1
		c-0.1-0.1-0.3-0.1-0.4-0.1c-1.1-0.2-2.2-0.1-3.2,0.3c-0.4,0.2-0.7,0.4-1,0.8c-0.3,0.4-0.3,1-0.1,1.4l0.1-0.2
		c-0.6-0.2-1.2-0.2-1.8,0.1c-0.3,0.2-0.6,0.4-0.7,0.7c-0.2,0.3-0.1,0.8,0.1,1.1l0.1-0.2c-0.4-0.1-0.8,0-1.2,0.2
		c-0.5,0.3-0.9,0.8-0.9,1.4c0,0.5,0.2,1.1,0.5,1.5l0.2-0.2c-0.4-0.2-0.9-0.1-1.2,0.2c-0.3,0.3-0.5,0.6-0.5,1
		c0.1,0.7,0.5,1.3,1.1,1.6v-0.2c-0.5,0.3-0.9,0.8-1,1.3c-0.1,0.7,0.3,1.4,0.9,1.7C579.4,230.7,579.5,230.7,579.5,230.7z"/>
	<path class="st3" d="M564.5,236.5c-0.1-0.3,0-0.6,0.1-0.9c0.2-0.3,0.5-0.5,0.9-0.6c0.5-0.1,1-0.1,1.5-0.1h0.2l-0.1-0.2
		c-0.2-0.6,0.1-1.2,0.7-1.5c0.7-0.3,1.4-0.4,2.1-0.3l1,0.1l-0.9-0.3c-0.5-0.3-0.7-1-0.4-1.5c0,0,0,0,0,0c0.4-0.5,1-0.9,1.7-0.9h0.1
		l0.6-0.1l-0.6-0.2c-0.6-0.3-0.8-1-0.5-1.5c0-0.1,0.1-0.2,0.1-0.2c0.5-0.5,1.2-0.6,1.9-0.4l0.7,0.3l-0.6-0.5c-0.7-0.6-1-1.6-0.7-2.5
		c0.2-0.7,0.7-1.3,1.4-1.6c0.4-0.2,0.9-0.3,1.4-0.2c0.3,0,0.5,0.1,0.5,0.1l-0.1-0.1c-0.1-0.1-0.3-0.1-0.4-0.1c-0.5-0.1-1,0-1.5,0.1
		c-0.7,0.3-1.3,0.9-1.5,1.7c-0.3,1,0,2.1,0.8,2.8l0.1-0.2c-0.8-0.3-1.6-0.2-2.2,0.4c-0.3,0.3-0.4,0.8-0.3,1.2c0.1,0.5,0.4,0.9,0.8,1
		v-0.3h-0.1c-0.8,0.1-1.4,0.5-1.9,1.2c-0.2,0.3-0.2,0.7-0.2,1.1c0.1,0.4,0.3,0.7,0.7,0.8l0.1-0.3c-0.8-0.1-1.6,0-2.3,0.3
		c-0.7,0.3-1,1.1-0.7,1.8l0.1-0.1c-0.5,0-1,0-1.5,0.1c-0.4,0.1-0.7,0.4-0.9,0.7c-0.1,0.2-0.2,0.5-0.1,0.7
		C564.4,236.4,564.5,236.5,564.5,236.5z"/>
	<path class="st3" d="M568.3,219.4c0.1,0,0.3,0,0.4,0c0.4,0,0.8-0.1,1.2-0.3c0.5-0.2,1.1-0.3,1.7-0.2c0.3,0.1,0.6,0.2,0.8,0.5
		c0.2,0.3,0.2,0.7-0.1,0.9l0.2,0.1c0-0.4,0.3-0.7,0.7-1.2c0.3-0.4,0.7-0.7,1.2-1c0.4-0.3,0.9-0.3,1.4-0.2c0.4,0.1,0.8,0.5,0.9,0.9
		l0.1,0.4l0.2-0.3c0.4-0.6,1-1.1,1.7-1.3c0.5-0.2,1.1-0.3,1.7-0.2c0.5,0.1,1,0.2,1.5,0.4c0,0-0.1-0.1-0.3-0.3
		c-0.4-0.2-0.7-0.3-1.2-0.4c-0.6-0.1-1.2,0-1.8,0.2c-0.7,0.2-1.4,0.7-1.8,1.4l0.3,0.1c-0.1-0.6-0.5-1-1.1-1.2
		c-0.6-0.2-1.2-0.1-1.7,0.2c-0.5,0.3-0.9,0.6-1.3,1c-0.2,0.2-0.4,0.4-0.5,0.6c-0.2,0.2-0.3,0.5-0.2,0.8v0.3l0.2-0.2
		c0.3-0.3,0.3-0.9,0.1-1.3c-0.2-0.3-0.5-0.6-0.9-0.6c-0.6-0.1-1.2,0-1.8,0.3c-0.4,0.1-0.7,0.3-1.1,0.3
		C568.5,219.4,568.3,219.4,568.3,219.4z"/>
	<path class="st3" d="M581,209.7c0.3-0.1,0.5-0.1,0.8-0.1c0.3,0,0.6,0.1,0.9,0.3c0.3,0.2,0.6,0.5,0.7,0.8l0.1,0.1l0.1-0.1
		c0.4-0.2,0.9-0.1,1.2,0.3c0.3,0.5,0.5,1,0.5,1.6l0.1,0.6l0.2-0.6v-0.1c0.2-0.4,0.5-0.6,0.9-0.7c0.4-0.1,0.7,0,1.1,0.1
		c0.6,0.3,0.9,0.9,1.1,1.5c0.1,0.4,0.1,0.9,0,1.3c0,0.2,0,0.3,0,0.5c0,0,0.1-0.2,0.2-0.5c0.1-0.5,0.1-0.9,0.1-1.4
		c-0.1-0.7-0.5-1.4-1.2-1.7c-0.8-0.5-1.8-0.2-2.3,0.6c0,0,0,0,0,0.1v0.1h0.3c0-0.6-0.2-1.2-0.6-1.7c-0.4-0.5-1.1-0.6-1.6-0.3h0.2
		c-0.2-0.4-0.5-0.7-0.9-0.9c-0.3-0.2-0.6-0.2-0.9-0.2c-0.2,0-0.4,0.1-0.6,0.1C581.1,209.7,581,209.7,581,209.7z"/>
	<path class="st3" d="M596.2,214.8c0.1,0,0.2-0.1,0.3-0.2c0.3-0.2,0.5-0.5,0.7-0.9c0.3-0.5,0.3-1.1,0.2-1.6c-0.1-0.3-0.1-0.6,0-0.8
		c0.1-0.3,0.4-0.5,0.5-0.9c0.2-0.8-0.2-1.6-0.9-1.8l0.1,0.2c0.4-0.6,0.7-1.3,0.7-2.1c0.1-0.3,0.1-0.6,0-0.8c0,0,0,0.3-0.1,0.8
		c-0.1,0.7-0.4,1.4-0.8,1.9l-0.1,0.1l0.2,0.1c0.6,0.2,0.9,0.9,0.7,1.5c-0.1,0.3-0.4,0.5-0.5,0.9c-0.1,0.3-0.1,0.7,0,1
		c0.1,0.5,0,1-0.2,1.5C596.9,214.1,596.6,214.5,596.2,214.8z"/>
	<path class="st3" d="M600.7,216.3c0.1,0,0.2,0,0.3,0c0.2-0.1,0.5-0.2,0.7-0.3c0.8-0.4,1.4-1,1.8-1.8l-0.2,0.1
		c0.6,0.4,1.3,0.5,2,0.4c0.4-0.1,0.7-0.2,1-0.4c0.4-0.2,0.6-0.6,0.7-1c0-0.2,0-0.3,0-0.4c0-0.1,0-0.2,0.1-0.3
		c0.2-0.2,0.4-0.4,0.6-0.5c0.2-0.1,0.5-0.3,0.7-0.5c0.2-0.2,0.3-0.5,0.2-0.8l-0.1,0.2c0.6,0.1,1.3-0.1,1.8-0.5
		c0.4-0.3,0.7-0.6,0.9-1.1c0.1-0.3,0.2-0.6,0.3-0.9c0-0.1,0-0.2,0-0.3c-0.1,0.4-0.2,0.8-0.4,1.2c-0.2,0.4-0.6,0.7-0.9,1
		c-0.5,0.3-1,0.4-1.6,0.4h-0.2l0.1,0.2c0,0.2,0,0.4-0.2,0.6c-0.2,0.2-0.4,0.3-0.6,0.4c-0.3,0.1-0.5,0.3-0.7,0.6
		c-0.1,0.1-0.2,0.3-0.2,0.5c0,0.1,0,0.3,0,0.4c-0.1,0.3-0.3,0.6-0.6,0.8c-0.3,0.2-0.6,0.3-0.9,0.4c-0.6,0.1-1.2,0-1.8-0.3l-0.1-0.1
		l-0.1,0.1c-0.3,0.8-0.9,1.4-1.6,1.8C601,216.2,600.6,216.3,600.7,216.3z"/>
	<path class="st3" d="M626.1,218.6c0,0,0,0,0-0.1c0-0.1,0-0.2,0-0.3c-0.1-0.4-0.2-0.8-0.5-1.2c-0.4-0.5-0.8-1-1.2-1.4
		c-0.3-0.3-0.6-0.5-0.9-0.7c-0.2-0.1-0.4-0.2-0.6-0.2c-0.3-0.1-0.5,0-0.7,0.2l0.2,0.1c-0.2-1.1-1.3-1.8-2.3-1.6
		c-0.5,0.1-1,0.4-1.3,0.8l0.3,0.1c-0.1-0.4-0.4-0.8-0.9-0.9c-0.4-0.2-0.9-0.1-1.3,0.2c-0.2,0.2-0.4,0.4-0.4,0.6h0.3
		c-0.1-0.3-0.3-0.5-0.5-0.6c-0.2-0.1-0.5-0.1-0.7-0.1c-0.4,0.1-0.8,0.4-1.2,0.7h0.2c-0.4-0.4-1-0.5-1.5-0.5c-0.5,0-1,0.2-1.4,0.4
		c-0.7,0.5-1.3,1-1.9,1.7l0.2,0.1c0-0.2,0-0.4-0.2-0.5c-0.1-0.1-0.3-0.2-0.4-0.2c-0.3,0-0.6,0-0.8,0.1c-0.4,0.2-0.7,0.4-1,0.7
		c-0.2,0.2-0.4,0.4-0.5,0.6c-0.1,0.1-0.1,0.2-0.1,0.2c0.2-0.3,0.5-0.5,0.8-0.7c0.3-0.3,0.7-0.5,1-0.6c0.2-0.1,0.5-0.1,0.7-0.1
		c0.3,0,0.5,0.2,0.4,0.4l-0.1,0.4l0.3-0.3c0.5-0.6,1.1-1.2,1.8-1.6c0.4-0.2,0.8-0.3,1.3-0.4c0.5,0,0.9,0.1,1.3,0.4l0.1,0.1l0.1-0.1
		c0.3-0.3,0.6-0.5,1-0.6c0.4-0.1,0.7,0.1,0.9,0.4l0.1,0.5l0.2-0.5c0.2-0.5,0.8-0.8,1.3-0.6c0.3,0.1,0.6,0.4,0.7,0.7l0.1,0.3l0.2-0.3
		c0.5-0.8,1.6-1,2.4-0.5c0.4,0.3,0.6,0.7,0.7,1.1v0.2l0.2-0.2c0.3-0.3,0.7-0.1,1,0c0.3,0.2,0.6,0.4,0.9,0.7c0.5,0.4,0.9,0.8,1.3,1.3
		C625.8,217.5,626,218,626.1,218.6z"/>
	<path class="st3" d="M626.9,227.5c0,0,0-0.1,0.1-0.2c0.1-0.2,0.1-0.5,0.2-0.7c0.1-0.4,0-0.8-0.1-1.2c-0.1-0.2-0.2-0.4-0.4-0.6
		c-0.2-0.2-0.5-0.3-0.8-0.3l0.1,0.1c0.2-0.5,0-1.1-0.4-1.5c-0.5-0.4-1.1-0.5-1.7-0.2l0.2,0.2c0.2-0.5,0-1-0.4-1.3
		c-0.4-0.3-0.9-0.4-1.4-0.2c-0.2,0.1-0.4,0.1-0.6,0.2c-0.2,0-0.4-0.1-0.5-0.2c-0.2-0.2-0.4-0.4-0.6-0.5c-0.2-0.1-0.5-0.2-0.8-0.2
		c-0.5,0.1-1.1,0.2-1.6,0.4c-0.4,0.2-0.9,0.2-1.3,0c-0.2-0.1-0.4-0.3-0.6-0.4c-0.2-0.2-0.5-0.3-0.7-0.3c-0.5-0.1-1,0.1-1.3,0.5
		l0.2,0.1c0.1-0.5-0.1-1-0.5-1.3c-0.4-0.2-0.8-0.3-1.2-0.2c-0.6,0.2-1.3,0.4-1.8,0.8c-0.4,0.2-0.7,0.5-1,0.8
		c-0.2,0.2-0.3,0.3-0.3,0.3c0,0,0.5-0.4,1.4-1c0.5-0.3,1.1-0.6,1.8-0.7c0.4-0.1,0.8,0,1.1,0.2c0.3,0.2,0.5,0.6,0.4,1l-0.2,0.5
		l0.4-0.4c0.3-0.3,0.7-0.4,1.2-0.4c0.2,0,0.4,0.1,0.6,0.2c0.2,0.2,0.4,0.3,0.6,0.5c0.2,0.1,0.5,0.2,0.8,0.2c0.3,0,0.5-0.1,0.8-0.1
		c0.5-0.2,1-0.3,1.5-0.4c0.2,0,0.4,0,0.6,0.1c0.2,0.1,0.4,0.3,0.5,0.5c0.2,0.2,0.5,0.3,0.7,0.3c0.2,0,0.5-0.1,0.7-0.2
		c0.4-0.1,0.8-0.1,1.2,0.2c0.3,0.2,0.4,0.6,0.3,0.9l-0.1,0.4l0.3-0.2c0.4-0.3,1-0.2,1.4,0.1c0.3,0.3,0.4,0.7,0.3,1.2v0.1h0.1
		c0.5,0,0.9,0.3,1,0.7c0.1,0.3,0.2,0.7,0.1,1C627,227.2,626.9,227.5,626.9,227.5z"/>
	<path class="st3" d="M633.7,242.4c0.1,0,0.2-0.1,0.3-0.2c0.2-0.2,0.4-0.4,0.5-0.7c0.2-0.4,0.2-0.9,0.1-1.4
		c-0.1-0.6-0.5-1.1-1.1-1.4v0.1c0.2-0.5,0.3-1.1,0.3-1.7c0-0.3-0.1-0.6-0.3-0.9c-0.2-0.3-0.5-0.5-0.9-0.5l0.1,0.2
		c0.4-0.5,0.5-1.1,0.3-1.7c-0.1-0.3-0.3-0.6-0.6-0.9c-0.3-0.2-0.6-0.4-0.9-0.4c-0.3,0-0.5-0.1-0.6-0.4c-0.1-0.3-0.2-0.6-0.4-0.8
		c-0.4-0.4-0.9-0.7-1.4-0.8l-1.3-0.5c-0.6-0.2-1.3-0.3-2-0.3c-0.2,0-0.4,0-0.5,0.1c-0.1,0-0.2,0.1-0.2,0.1c0.2,0,0.5-0.1,0.7-0.1
		c0.7,0,1.3,0.1,1.9,0.4l1.3,0.5c0.5,0.1,0.9,0.4,1.3,0.8c0.2,0.2,0.3,0.5,0.4,0.7c0.1,0.2,0.2,0.3,0.3,0.4c0.1,0.1,0.3,0.2,0.5,0.2
		c0.9,0.1,1.4,0.9,1.3,1.8c0,0.3-0.1,0.5-0.3,0.7l-0.2,0.2h0.3c0.6,0.1,1,0.6,1,1.2c0,0.5-0.1,1.1-0.3,1.6v0.1h0.1
		c0.5,0.3,0.8,0.7,1,1.3c0.1,0.4,0.1,0.9-0.1,1.3C634.1,241.8,633.9,242.1,633.7,242.4z"/>
	<path class="st3" d="M600.6,226.8c0.3-0.1,0.6-0.4,0.8-0.6c0.3-0.3,0.5-0.6,0.6-0.9c0.2-0.4,0.1-0.9-0.1-1.3
		c-0.1-0.1-0.1-0.2-0.2-0.3v0.2c0.3-0.3,0.5-0.7,0.4-1.2c0-0.3-0.2-0.7-0.5-0.9c-0.4-0.4-0.8-0.3-0.8-0.3c0.3,0.1,0.5,0.2,0.7,0.4
		c0.5,0.4,0.5,1.2,0.1,1.6c0,0,0,0-0.1,0.1l-0.1,0.1l0.1,0.1c0.1,0.1,0.1,0.1,0.1,0.2c0.2,0.4,0.2,0.8,0.1,1.2
		c-0.1,0.3-0.3,0.6-0.5,0.8C600.8,226.4,600.6,226.7,600.6,226.8z"/>
	<path class="st3" d="M593,225.6c-0.3-0.3-0.4-0.6-0.5-1c-0.1-0.4,0.1-0.9,0.4-1.2c0.4-0.4,1-0.4,1.5-0.1l0.2,0.1v-0.3
		c0-0.3,0-0.6,0.1-0.9c0.1-0.3,0.3-0.6,0.6-0.7c0.4-0.2,1.1,0.1,1.1,0.5h0.3c-0.1-0.6,0-1.2,0.4-1.7c0.3-0.4,0.7-0.7,1.2-0.8
		c0.4-0.1,0.8-0.2,1.3-0.1c-0.1-0.1-0.2-0.1-0.3-0.1c-0.3,0-0.7,0-1,0.1c-0.5,0.1-0.9,0.4-1.2,0.9c-0.4,0.5-0.6,1.2-0.5,1.9h0.3
		c0-0.3-0.2-0.6-0.5-0.7c-0.3-0.1-0.6-0.1-0.9,0c-0.4,0.2-0.6,0.5-0.7,0.9c-0.1,0.3-0.1,0.7-0.1,1.1l0.2-0.1
		c-0.6-0.3-1.3-0.2-1.7,0.3c-0.4,0.3-0.5,0.8-0.4,1.3c0.1,0.3,0.2,0.6,0.4,0.8C592.9,225.5,593,225.6,593,225.6z"/>
	<path class="st11" d="M616,238.1c0.1-0.1,6.1-4.8,8.6,2.2c2.5,7-5,8.1-5.1,7.8C619.5,247.9,616,238.1,616,238.1z"/>
	<path class="st12" d="M620.7,244.7c0,0,0.1,0,0.4,0.1c0.3,0,0.7-0.1,0.9-0.3c0.7-0.9,0.9-2.1,0.4-3.2c-0.2-0.6-0.5-1.2-1-1.6
		c-0.3-0.4-0.8-0.6-1.3-0.6c-0.3,0-0.6,0.3-0.6,0.6c0,0.2,0.1,0.3,0,0.4c-0.1,0-0.2,0-0.2-0.4c0-0.2,0-0.4,0.1-0.5
		c0.1-0.2,0.4-0.4,0.6-0.4c0.6-0.1,1.2,0.1,1.7,0.6c0.5,0.5,0.9,1.1,1.2,1.8c0.5,1.2,0.3,2.7-0.7,3.6c-0.3,0.2-0.8,0.3-1.2,0.2
		C620.8,244.9,620.7,244.7,620.7,244.7z"/>
	<path class="st10" d="M600.9,344.4c0,0,13.8,1.6,23.1-4.4c9.2-6.1,20.8-29.8,20.8-29.8s-23.1,26.7-45,30.1L600.9,344.4z"/>
	<path class="st4" d="M627.2,287.5c-7.9,10.3-22.7,29.6-22.7,29.6l-54.9,8.1l2.9,18.2l54.6-3.1c8-0.7,15.5-4.5,20.9-10.5
		c6.7-7.5,15.8-17.8,21.4-25c4.8-6.1,3.8-14.9-2.3-19.7c-0.3-0.3-0.7-0.5-1.1-0.8l0,0C639.8,280.3,631.6,281.7,627.2,287.5z"/>
	<path class="st3" d="M650.7,473.8c-0.2,0-3.7-16.1-7.9-36.1c-4.2-20-7.5-36.2-7.3-36.2c0.2,0,3.7,16.1,7.9,36.1
		C647.5,457.6,650.8,473.8,650.7,473.8z"/>
	<path class="st3" d="M683.2,460.7c0.1,0.1-0.7,1.2-1.8,2.3c-1.1,1.2-2.1,2-2.3,1.9c0.5-0.9,1.1-1.7,1.8-2.3
		C682.1,461.4,683.2,460.6,683.2,460.7z"/>
	<path class="st2" d="M636,277.1c0,0-0.2,0.3-0.5,0.7l-1.6,2.1l-6.3,8.1l-22.9,29.2v0.1h-0.1l-54.9,8.1l0.3-0.3
		c0.5,3.3,1.2,6.9,1.7,10.5c0.4,2.7,0.9,5.3,1.3,8l-0.3-0.3l58.2-3.6l0,0c3.6-0.8,6.9-2.2,10-4.2c2.8-1.7,5.3-3.9,7.4-6.4l10.5-12.1
		l6.7-7.7l1.8-2c0.4-0.4,0.6-0.7,0.6-0.7s-0.2,0.3-0.6,0.7l-1.7,2.1l-6.6,7.8c-2.9,3.4-6.4,7.5-10.4,12.2
		c-4.6,5.4-10.8,9.2-17.7,10.8l0,0l-58.1,3.7h-0.3v-0.3c-0.4-2.6-0.9-5.3-1.3-8c-0.6-3.6-1.2-7.1-1.7-10.5v-0.3h0.3l54.9-8l-0.2,0.1
		l23.1-29l6.4-8.1l1.7-2.1C635.8,277.3,636,277.1,636,277.1z"/>
	<path class="st2" d="M642.8,339.1c-0.2,0.4-0.4,0.8-0.7,1.2c-0.5,0.8-1.2,1.8-2.2,3.1c-5.1,6.6-11.7,11.9-19.2,15.5
		c-1.1,0.5-2.3,1-3.5,1.5c-0.4,0.2-0.9,0.3-1.3,0.4c0-0.1,1.8-0.8,4.6-2.3c7.4-3.7,13.9-9,19.1-15.4
		C641.7,340.7,642.7,339,642.8,339.1z"/>
	<path class="st2" d="M647.8,347.3c0.1,0.1-4.8,3.1-10.9,6.5c-6.1,3.5-11.1,6.2-11.2,6c-0.1-0.1,4.8-3.1,10.9-6.6
		C642.7,349.8,647.7,347.1,647.8,347.3z"/>
	<path class="st2" d="M593,314.9c-0.2-0.4-0.3-0.8-0.4-1.2c-0.3-0.9-0.6-1.9-0.9-3.2c-0.8-2.8-1.8-6.5-3-10.6
		c-1.1-4.1-2.1-7.9-2.8-10.6l-0.8-3.2c-0.1-0.4-0.2-0.8-0.2-1.2c0.2,0.4,0.3,0.7,0.4,1.2c0.3,0.7,0.6,1.8,1,3.2
		c0.8,2.7,1.9,6.4,3,10.6c1.1,4.2,2.1,7.9,2.8,10.6C592.5,311.9,592.8,313.4,593,314.9z"/>
	<g class="st7">
		<path d="M621.3,364.3c5.4-0.6,10.9-0.7,16-2.7c5-2,9.7-5.6,11.8-10.6C640.3,356.2,631,360.7,621.3,364.3z"/>
	</g>
	<path class="st13" d="M525.7,348.9c-0.1,0.1-1.2,1.2-2.1,2c-1.1,1-1.9,2.4-2.3,3.8c-0.4,1.6-0.7,2.9-0.8,3l-2.2,7.1l8.3,6.1l1.3-6
		c1.9-0.8,3.7-1.8,5.3-3.1c1.8-1.8,2.7-2.6,3.1-4.1c0.2-0.6,0.1-1.2-0.2-1.7c0,0-0.1-3.3-1.3-3.4c0.3-0.8,0.4-1.7,0.2-2.6
		c-0.8-1.6-3.1-1.5-3.1-1.5c0.3-0.3,0.4-0.7,0.2-1.1c-0.1-0.1-0.1-0.2-0.2-0.2c-0.5-0.3-1.1-0.2-1.5,0.3l-4.6,4.1L525.7,348.9z"/>
	<path class="st4" d="M459.2,369.6c-3.4,5.4-2.4,12.4,2.4,16.6c10.9,9.5,40.6,26.2,45,25.4c6.4-1.1,23.2-38.5,23.2-38.5l-12.5-10.3
		l-15.6,25.4c0,0-12.9-12.2-23.1-20.2C472.5,363.1,463.3,363,459.2,369.6L459.2,369.6z"/>
	<path class="st2" d="M478.1,367.5c0.2,0.1,0.3,0.2,0.4,0.3l1.2,1l4.8,4.1l17.3,15l-0.3,0.1l15.6-25.4l0.2-0.3l0.3,0.2l12.5,10.3
		l0.2,0.1l-0.1,0.2c-1.3,2.9-2.8,6-4.3,9.1c-2.6,5.4-5.3,10.7-8.2,15.6c-1.4,2.5-2.9,4.9-4.4,7.2c-0.8,1.2-1.6,2.3-2.4,3.3
		c-0.8,1.1-1.8,2-2.9,2.8c-0.6,0.4-1.3,0.6-2,0.6c-0.7-0.1-1.3-0.2-1.9-0.4c-1.2-0.4-2.4-0.9-3.6-1.3c-2.3-1-4.5-2-6.5-3.1
		c-4.2-2.1-7.9-4.3-11.3-6.3c-6.8-4-12.1-7.6-15.7-10.2c-1.8-1.3-3.1-2.4-4-3.1c-0.4-0.4-0.8-0.7-1-0.9c-0.1-0.1-0.2-0.2-0.3-0.3
		c0.1,0.1,0.3,0.2,0.4,0.3l1,0.8c0.9,0.7,2.3,1.8,4.1,3c3.6,2.6,8.9,6.1,15.8,10.1c3.5,2,7.2,4.1,11.3,6.2c2.1,1,4.2,2.1,6.5,3.1
		c1.2,0.5,2.3,0.9,3.5,1.3c0.6,0.2,1.2,0.3,1.8,0.4c0.6,0,1.2-0.2,1.6-0.5c1-0.8,2-1.7,2.7-2.7c0.8-1,1.6-2.1,2.4-3.3
		c1.5-2.3,3-4.6,4.4-7.1c2.8-4.9,5.5-10.2,8.1-15.6c1.5-3.1,3-6.2,4.3-9.1l0.1,0.3L517.1,363l0.4-0.1l-15.7,25.4l-0.1,0.2l-0.2-0.2
		l-17.2-15.2l-4.7-4.2c-0.5-0.5-0.9-0.8-1.2-1.2C478.3,367.7,478.2,367.6,478.1,367.5z"/>
	<path class="st8" d="M463.6,164.4c-0.1,0.4-0.3,0.8-0.5,1.2c-1.4,2.4-1.3,5.3,0.2,7.7l2.6,4l0.3,6.2l13.4,3.2l-0.6-10.9
		c0,0,2.2-4.6,2.2-7.7c0-3.1-0.8-6.4-1.8-6.5l-1.3-0.2c-0.6-1-1.5-1.8-2.7-2.1c0,0-0.8-4-2.2-4.4c-1.4-0.3-2.6,1.1-2.6,1.1
		s-1.7-3.3-3.2-3.1c-1.7,0.2-3,1.7-3,3.5l-0.9,8.5L463.6,164.4z"/>
	<path class="st1" d="M432.3,37.4c-0.6-1.8-2.5-2.7-4.3-2.1c-1.7,0.6-2.7,2.4-2.2,4.2l161.6,514.8l7.1,0.3L432.3,37.4z"/>
	<path class="st4" d="M436.5,44.3c0,0-42.9,29.3-76.1,31.9s-70.9,5.2-90.6,27.4c0,0,73,11.5,77.1,21.2c0,0-43.6,34.7-50.2,54.6
		c0,0,31.4-11.1,37.9-13.8c21.5-9.1,63.4-5.1,79.3-10.8c17.6-6.4,34.4-24.3,48.9-27.1L436.5,44.3z"/>
	<path class="st2" d="M447.6,118.8c-0.1-0.2-0.2-0.4-0.3-0.6l-0.6-1.8c-0.5-1.7-1.3-4-2.2-6.8c-1.8-5.8-4.2-13.7-6.9-22.4
		s-4.9-16.7-6.6-22.5c-0.8-2.9-1.4-5.2-1.8-6.9c-0.2-0.8-0.3-1.5-0.4-1.9c0-0.2-0.1-0.3-0.1-0.5c0,0,0-0.1,0.1-0.1l0,0
		c-0.1-0.1,0,0.1,0.1,0.5l0.5,1.9l2,6.8c1.8,5.8,4.1,13.7,6.7,22.5l6.7,22.5c0.8,2.8,1.5,5.1,2,6.8c0.2,0.7,0.4,1.4,0.5,1.9
		C447.6,118.3,447.6,118.5,447.6,118.8z"/>
	<g class="st7">
		<path d="M432.6,66.7c0.5,10.6,1,21.2,3.3,31.5c2.4,10.3,6.7,20.3,14,28C443.3,106.6,437.6,86.8,432.6,66.7"/>
	</g>
	<path class="st11" d="M521,319.9c0.3,0,5.5,0,8.6,0c1.5,0,2.9,0.5,3.9,1.5l6.5,5.9l9.5-1.1l2.7,15.7l-13.1-0.5
		c-3,0.9-6.1,1.4-9.2,1.6c-3.5,0-7.2-1.1-7.3-2.2s-0.2-1.5-0.2-1.5c-1.1-0.7-2-1.8-2.3-3.1c0,0-4.5-1-4.9-2.6
		c-0.4-1.6,1.3-2.9,1.3-2.9s-3.6-2-3.4-3.7c0.2-1.1,0.9-2,1.9-2.5l7.1-1L521,319.9z"/>
	<path class="st2" d="M499.9,313.5c3.1,4.3,4,9.9,2.2,14.9c-0.9,2.4-2.3,5-1.2,7.3c1.2,2.3,4.2,3.1,5.2,5.4c1.2,2.7-1.2,5.6-1.3,8.6
		c0,2.9,2,5.3,4.9,5.8c-3.8,1.7-8.1,2.3-12.2,1.8l-2-4.8c0.6,1.8,0,3.8-1.6,4.9c-1.6,1-3.4,1.5-5.3,1.5c-9.1,0.3-17.7-3.6-23.5-10.7
		"/>
	<path class="st2" d="M448.1,322.7c1.3-1.6,2.5-3.3,3.6-5c2-3.9,1.3-9.1,4.3-12.3c2.1-2.3,5.5-2.7,8.7-2.8c3.1-0.1,6.4,0,9.1-1.6
		c2-1.2,3.5-3,5.5-4.1c2.8-1.6,6.3-1.5,9.5-0.8c3.3,0.6,6.4,2,9.1,4.1c2.6,2.2,4.1,5.5,3.9,8.9c-0.4,1.6-0.6,3.2-0.7,4.8
		c0.1,1.8,1,3.5,1.4,5.2c0.7,3.9-1.2,7.7-4.8,9.4l-30,22.6c-5.1,0.5-15.8-4.7-18.5-9.1C446.4,337.5,445.2,327,448.1,322.7z"/>
	<path class="st13" d="M498,324.7c0.9-6.7-2-15.8-8.8-16.3l-21.8,1.3c-2.1-0.2-3.9,1.3-4.3,3.3l-7.3,50.5h-0.1c0,0,2,15,16.5,13.4
		c2.9-0.3,3.8,0.9,5-2.1l0,0l0.1-0.4c0.9-3.7,2.5-11.5,2.5-11.5l0,0c0.8-4,1.2-5.7,1.2-5.7s8.8,0.2,12.7-10.6
		C495.6,341.3,497,332.2,498,324.7z"/>
	<path class="st2" d="M479.5,331.4c-0.2,0.8-0.9,1.3-1.6,1.2c-0.8-0.1-1.3-0.8-1.2-1.5c0,0,0,0,0,0c0.2-0.8,0.9-1.3,1.6-1.2
		C479,329.9,479.5,330.5,479.5,331.4C479.5,331.3,479.5,331.3,479.5,331.4z"/>
	<path class="st2" d="M494.1,333.5c-0.2,0.8-0.9,1.3-1.6,1.2c-0.8-0.1-1.3-0.8-1.2-1.5c0,0,0,0,0,0c0.2-0.8,0.9-1.3,1.6-1.2
		C493.6,332,494.1,332.7,494.1,333.5C494.1,333.5,494.1,333.5,494.1,333.5z"/>
	<path class="st2" d="M495.7,329.3c-0.2,0.2-1.3-1-3-1.2c-1.7-0.2-3,0.6-3.2,0.4c-0.2-0.3,0.2-0.5,0.8-0.9c1.6-1,3.7-0.8,5,0.7
		C495.6,328.7,495.8,329.2,495.7,329.3z"/>
	<path class="st2" d="M480.1,326.9c-0.3,0.2-1.3-1.1-3.1-1.5c-1.8-0.4-3.3,0.3-3.5,0c-0.2-0.3,0.2-0.5,0.9-0.8
		c0.9-0.4,1.9-0.5,2.8-0.3c0.9,0.2,1.8,0.7,2.4,1.5C480.1,326.4,480.2,326.9,480.1,326.9z"/>
	<path class="st2" d="M483.4,338.8c0.9-0.1,1.7-0.1,2.6,0c0.4,0,0.8,0,0.9-0.2c0.1-0.4,0.1-0.8,0-1.2c-0.2-1-0.4-2.1-0.6-3.2
		c-0.6-2.7-1-5.5-1.2-8.3c0.8,2.7,1.4,5.4,1.8,8.2c0.2,1.2,0.4,2.2,0.5,3.2c0.2,0.5,0.1,1.1-0.1,1.6c-0.2,0.3-0.4,0.4-0.7,0.4
		c-0.2,0-0.5,0-0.7,0C485,339.3,484.2,339.1,483.4,338.8z"/>
	<path class="st14" d="M481,357.2c-5.3-0.9-10.1-3.3-14.1-6.8c0,0,2.2,8.3,13.5,9.4L481,357.2z"/>
	<path class="st4" d="M482,342.4c-0.5-0.9-1.3-1.4-2.3-1.5c-0.7-0.1-1.4,0.2-1.9,0.6c-0.5,0.4-0.7,1.2-0.5,1.8
		c0.4,0.7,1.2,1,1.9,0.9c0.8-0.1,1.5-0.4,2.2-0.8c0.2-0.1,0.4-0.2,0.5-0.4C482.1,342.9,482.1,342.7,482,342.4"/>
	<path class="st2" d="M478.6,339.1c0.3,0,0,1.7,1.2,3.1c1.2,1.5,3,1.6,3,1.8c0,0.2-0.4,0.3-1.2,0.1c-1-0.2-1.9-0.7-2.5-1.4
		c-0.6-0.7-0.9-1.7-0.8-2.6C478.3,339.4,478.5,339,478.6,339.1z"/>
	<path class="st2" d="M481.4,321.8c-0.2,0.4-1.7-0.1-3.6-0.2c-1.8-0.1-3.4,0.1-3.6-0.3c-0.1-0.2,0.3-0.5,0.9-0.8
		c1.8-0.7,3.8-0.5,5.4,0.4C481.2,321.2,481.4,321.6,481.4,321.8z"/>
	<path class="st2" d="M495.4,324.4c-0.4,0.3-1.5-0.3-3-0.6c-1.5-0.3-2.7-0.3-2.9-0.7c-0.1-0.2,0.2-0.5,0.8-0.7
		c1.7-0.5,3.5-0.1,4.8,1C495.5,323.9,495.6,324.3,495.4,324.4z"/>
	<path class="st2" d="M462.6,310c1.6-1.1,3.4-1.8,5.4-1.8c8.2-0.9,16.5-0.7,24.7,0.4c0.5,1.9-1,3.9-2.8,4.6
		c-1.9,0.6-3.8,0.9-5.8,0.9c-1.9,0.2-4,0.7-5.3,2.3s-1.2,4-2.4,5.8c-2.1,2.9-6.9,2.8-8.9,5.8c-1.5,2.2-0.8,5.2-1.2,7.9
		c-0.7,5.3-5.5,9.1-10.9,8.4c-0.4-0.1-0.8-0.1-1.2-0.2c2-9.5,4-19,6-28.5C460.6,313.4,461.1,311.3,462.6,310z"/>
	<path class="st2" d="M437.3,328.5c1.8-0.9,4-1.6,5.1-3.3c1.6-2.5,0.3-6.4,2.4-8.5c1.9-1.9,5.8-0.8,7.6-2.8c1.4-1.6,0.8-3.5,1.6-5
		c1.1-1.6,3.2-2.2,5-1.7l7.8,22c-0.5,6.5-0.2,10.2-2.5,13.4c-1.4,1.7-2.6,3.6-3.6,5.5c-1,2-0.8,4.4,0.4,6.3
		c-7.8-1.5-13.8-7.4-19.5-13.1l-5.9-6c-0.7-0.6-1.2-1.3-1.5-2.1C433.6,331.3,435.5,329.4,437.3,328.5z"/>
	<path class="st3" d="M441.9,339.5c0.2,0.2,0.5,0.3,0.8,0.4c0.8,0.3,1.6,0.5,2.4,0.5c4.2,0.1,7.7-3.3,7.7-7.5c0-0.1,0-0.2,0-0.3
		c-0.1-1.1-0.3-2.2-0.6-3.2c-0.4-1.1-0.6-2.2-0.7-3.3c-0.1-1.2,0.4-2.3,1.3-3.1c0.9-0.7,2.3-0.6,3.6-0.8c1.5-0.1,2.8-1.2,3-2.6
		c0.2-1.4,0.3-2.8,0.2-4.2c0-0.7,0.2-1.3,0.5-1.9c0.3-0.6,0.9-1,1.5-1.3c1.4-0.4,2.8-0.4,4.1,0c1.4,0.3,2.9,0.3,4.3-0.1
		c1.3-0.4,2.5-1.2,3.5-2.2c0.8-1,1.5-2.2,2-3.4c0.4-1.1,1-2.2,1.7-3.2c0.7-0.9,1.5-1.7,2.5-2.2c3.4-1.9,7.6-1.3,10.4,1.3
		c0.9,0.9,1.7,1.9,2.3,3c0.5,1,0.9,2,1.2,3.1c0-0.1,0-0.1,0-0.2c0-0.1,0-0.4-0.1-0.6c-0.2-0.8-0.5-1.6-0.8-2.3
		c-0.6-1.2-1.4-2.2-2.3-3.1c-1.3-1.2-2.9-2.1-4.6-2.4c-2.1-0.4-4.3-0.1-6.2,0.9c-1,0.6-2,1.4-2.7,2.3c-0.7,1-1.3,2.1-1.7,3.3
		c-0.5,1.2-1.1,2.3-1.9,3.3c-0.9,1-2,1.7-3.3,2.1c-1.3,0.4-2.7,0.4-4,0.1c-1.4-0.4-2.9-0.4-4.4,0c-0.7,0.3-1.4,0.8-1.8,1.5
		c-0.4,0.7-0.6,1.4-0.6,2.2c0.1,1.4,0,2.8-0.2,4.1c-0.2,1.3-1.3,2.3-2.6,2.3c-0.6,0.1-1.3,0.1-2,0.2c-0.7,0.1-1.3,0.3-1.9,0.7
		c-1,0.9-1.5,2.1-1.4,3.5c0.1,1.2,0.3,2.3,0.7,3.5c0.4,1,0.6,2.1,0.7,3.1c0,1-0.1,2-0.5,2.9c-0.6,1.6-1.7,2.9-3.2,3.8
		c-1.1,0.6-2.4,0.9-3.7,0.9C444,340.1,442.9,339.9,441.9,339.5z"/>
	<path class="st2" d="M435.2,323.5c-0.2,0.2-0.3,0.3-0.4,0.6c-0.3,0.6-0.4,1.3-0.2,2c0.3,1.1,1.1,1.9,2.2,2.2
		c1.4,0.4,2.9-0.1,3.9-1.2c0.6-0.6,0.9-1.4,1.2-2.2c0.2-0.9,0.3-1.8,0.1-2.7c-0.1-1.8-0.8-3.7-0.3-5.7c0.2-1,0.8-1.8,1.6-2.4
		c1-0.4,2-0.5,3-0.1c1.1,0.4,2.2,0.6,3.4,0.6c0.6-0.1,1.2-0.3,1.7-0.8c0.4-0.4,0.8-1,1-1.5c0.4-1.1,0.6-2.3,0.6-3.5
		c0.1-1.1,0.5-2.2,1-3.1c1.1-1.8,2.8-3.1,4.8-3.7c1.9-0.4,3.8-0.3,5.6,0.2c1.6,0.4,3.3,0.6,5.1,0.6c1.4-0.1,2.8-0.6,4-1.2
		c0.9-0.5,1.8-1.1,2.5-1.9c0.6-0.6,1.2-1.4,1.6-2.2c-0.5,0.7-1.1,1.4-1.7,2.1c-0.7,0.7-1.6,1.3-2.5,1.8c-1.2,0.6-2.5,1-3.9,1.2
		c-1.7,0.1-3.3-0.1-4.9-0.6c-1.9-0.6-3.9-0.7-5.8-0.3c-2.1,0.6-4,2-5.1,3.9c-0.6,1-1,2.1-1.2,3.3c-0.1,1.1-0.3,2.3-0.6,3.4
		c-0.3,1.1-1.2,1.8-2.3,2c-1.1,0-2.2-0.2-3.2-0.5c-1.1-0.4-2.3-0.3-3.3,0.2c-0.9,0.6-1.6,1.6-1.8,2.7c-0.2,1-0.3,2-0.1,3
		c0.1,1,0.3,1.9,0.4,2.8c0.1,0.8,0.1,1.7-0.1,2.5c-0.2,0.8-0.6,1.5-1.1,2.1c-0.9,1-2.3,1.5-3.6,1.2c-0.5-0.1-1-0.4-1.4-0.8
		c-0.8-0.8-1-2-0.6-3.1C435,323.9,435.1,323.7,435.2,323.5z"/>
	<path class="st2" d="M514.6,350c0,0.7-0.2,1.4-0.6,2c-0.5,0.7-1.2,1.1-2,1.2c-1.1,0-2.1-0.6-2.6-1.5c-0.3-0.5-0.4-1.2-0.2-1.8
		c0.2-0.7,0.4-1.3,0.8-1.9c0.8-1.2,2-2.4,2.3-4.1c0.3-1.8-0.1-3.6-1.2-5.1c-0.6-0.8-1.2-1.4-2-1.9c-0.8-0.5-1.7-0.9-2.6-1.2
		c-0.9-0.3-1.7-0.6-2.6-1c-0.8-0.4-1.4-1-1.7-1.8c-0.3-0.8-0.3-1.6-0.1-2.5c0.2-0.8,0.5-1.6,0.8-2.3c0.8-1.3,1.4-2.8,1.9-4.3
		c0.3-1.4,0.2-2.8-0.4-4.1c-0.5-1-1.1-2-1.9-2.8c-0.6-0.6-1.1-1.2-1.6-1.9c-0.4-0.6-0.7-1.3-0.8-1.9c0,0,0,0,0,0.1
		c0,0.1,0,0.3,0,0.4c0.1,0.5,0.3,1,0.6,1.5c0.5,0.7,1,1.4,1.6,2c0.8,0.8,1.4,1.7,1.8,2.7c0.5,1.2,0.6,2.6,0.3,3.9
		c-0.5,1.5-1.1,2.9-1.9,4.2c-0.4,0.8-0.7,1.6-0.9,2.4c-0.2,0.9-0.2,1.8,0.1,2.7c0.4,0.9,1,1.6,1.9,2.1c0.8,0.4,1.7,0.8,2.6,1
		c0.9,0.2,1.7,0.6,2.5,1.1c0.8,0.5,1.4,1.1,1.9,1.8c1,1.3,1.4,3,1.1,4.7c-0.3,1.6-1.4,2.7-2.2,4c-0.4,0.6-0.7,1.3-0.8,2
		c-0.1,0.7,0,1.4,0.3,2c0.6,1.1,1.7,1.7,2.9,1.6c0.9-0.1,1.7-0.6,2.2-1.3c0.3-0.5,0.5-1,0.5-1.5C514.7,350.3,514.7,350.1,514.6,350z
		"/>
	<path class="st4" d="M364.7,520.2l22.4-4.8l3.7,18.5l-16.5,0.4l0.2,14.9c7.4,2.1,8.4,5.8,8.4,5.8l-15.5-0.4L354,527.2L364.7,520.2z
		"/>
	<g class="st5">
		<polygon class="st6" points="354,527.1 367.5,554.5 383,554.9 381.3,552.5 368.7,551.5 356.3,525.7 		"/>
	</g>
	<path class="st2" d="M374.6,542.2c-0.1,0.2-1-0.4-2.2-0.4c-1.2,0-2.1,0.5-2.2,0.3c-0.1-0.2,0.7-1,2.2-1
		C373.8,541.2,374.7,542.1,374.6,542.2z"/>
	<path class="st2" d="M374.4,538.5c-0.1,0.1-0.8-0.8-2.1-1.2c-1.2-0.3-2.2,0.3-2.3,0.1s0.1-0.3,0.6-0.6c0.6-0.3,1.3-0.4,1.9-0.2
		c0.6,0.1,1.2,0.5,1.6,1C374.4,538.1,374.5,538.5,374.4,538.5z"/>
	<path class="st2" d="M374.6,533.8c-0.2,0.1-0.7-0.8-1.7-1.2s-2.1-0.1-2.1-0.2s0.2-0.3,0.6-0.4c1.2-0.4,2.5,0.1,3.1,1.2
		C374.7,533.5,374.7,533.8,374.6,533.8z"/>
	<path class="st2" d="M375.7,533.8c-0.2,0-0.1-1-0.5-2.1c-0.5-1-1.2-1.6-1.2-1.8c0.1-0.2,1.2,0.3,1.8,1.6
		C376.4,532.8,375.9,533.9,375.7,533.8z"/>
	<path class="st2" d="M377.6,532.1c-0.2-0.7-0.4-1.4-0.4-2.1c-0.1-0.7-0.1-1.5-0.2-2.3c-0.1-0.5-0.1-1,0-1.5
		c0.1-0.3,0.3-0.6,0.6-0.8c0.3-0.2,0.7-0.2,1,0c0.4,0.4,0.7,0.8,0.9,1.4c0.2,0.5,0.2,0.9,0.3,1.4c0,0.8-0.1,1.6-0.4,2.3
		c-0.6,1.3-1.3,1.7-1.4,1.7c0.3-0.6,0.6-1.2,0.9-1.8c0.2-0.7,0.3-1.4,0.2-2.1c0-0.4-0.1-0.8-0.3-1.2c-0.1-0.4-0.3-0.8-0.6-1
		c-0.1-0.1-0.2-0.1-0.3,0c-0.1,0.1-0.2,0.2-0.3,0.4c-0.1,0.4-0.1,0.8,0,1.2c0,0.8,0,1.5,0,2.3C377.8,530.6,377.7,531.3,377.6,532.1z
		"/>
	<path class="st2" d="M377.8,532.7c-0.1,0,0.4-0.7,1.6-1.2c1.7-0.5,3.4,0.1,4.4,1.6c0.1,0.2,0,0.4-0.1,0.6c-0.1,0.2-0.2,0.3-0.4,0.3
		c-0.2,0.1-0.5,0.1-0.7,0.1c-1.1,0.1-2.3-0.1-3.3-0.5c-1.2-0.5-1.6-1-1.6-1.2c0.6,0.2,1.2,0.4,1.7,0.7c0.6,0.2,1.3,0.3,1.9,0.3
		c0.4,0,0.8,0,1.2,0c0.2,0,0.4,0,0.5-0.1c0.1-0.1,0.1-0.1,0.1-0.1s-0.2-0.2-0.3-0.4c-0.1-0.1-0.3-0.3-0.4-0.4
		c-0.3-0.2-0.6-0.4-1-0.5c-0.6-0.2-1.2-0.2-1.9-0.1C379,532.2,378.4,532.5,377.8,532.7z"/>
	<g class="st5">
		<path class="st6" d="M366.4,526.9c0,1-0.8,1.8-1.9,1.8s-1.8-0.8-1.8-1.9c0-1,0.8-1.8,1.9-1.8c0,0,0,0,0,0
			C365.6,525.1,366.4,525.9,366.4,526.9z"/>
	</g>
	<path class="st4" d="M535,522.2l-0.2,20.3c0,0,21.6,8.1,21.9,11.8h-40.4l-1-31.6L535,522.2z"/>
	<g class="st5">
		<path class="st6" d="M522.6,541.1c-0.8,0.3-1.2,1.1-1.1,1.9c0.2,0.8,1,1.3,1.8,1.1c0.8-0.3,1.3-1.1,1.2-2c-0.3-0.8-1.2-1.2-2-0.9"
			/>
	</g>
	<g class="st5">
		<path class="st6" d="M516.3,554.3v-3.2l37.7,0.2c0,0,2.8,1.7,2.7,3L516.3,554.3z"/>
	</g>
	<path class="st2" d="M535.4,542.2c0,0.2-1,0.3-1.9,0.9c-0.9,0.6-1.4,1.5-1.6,1.4s0.1-1.2,1.2-1.9S535.4,542.1,535.4,542.2z"/>
	<path class="st2" d="M539.6,543.8c0,0.2-0.8,0.5-1.4,1.4c-0.6,0.8-0.8,1.7-1,1.7s-0.3-1.1,0.5-2.1
		C538.4,543.8,539.6,543.7,539.6,543.8z"/>
	<path class="st2" d="M542,548.7c-0.2,0-0.5-0.9,0-2c0.5-1.1,1.3-1.5,1.4-1.3s-0.4,0.7-0.8,1.6C542.3,547.9,542.2,548.7,542,548.7z"
		/>
	<path class="st2" d="M534.9,537.6c-0.1,0.2-1-0.1-2.1,0c-1.1,0.1-1.9,0.5-2,0.3c-0.1-0.2,0.7-0.9,2-1
		C534.1,536.8,535,537.5,534.9,537.6z"/>
	<g class="st7">
		<polygon points="534.9,526.2 534.9,529.8 515.6,530.1 515.5,526.9 		"/>
	</g>
	<path class="st2" d="M534.9,533.5c-0.6,0.2-1.3,0.2-2,0c-0.7-0.1-1.4-0.3-2.1-0.6c-0.4-0.2-0.8-0.4-1.2-0.6
		c-0.2-0.1-0.4-0.3-0.6-0.4c-0.3-0.3-0.3-0.7-0.1-1c0.2-0.3,0.5-0.4,0.8-0.5c0.3,0,0.5,0,0.7,0.1c0.4,0.1,0.8,0.2,1.2,0.4
		c0.7,0.3,1.3,0.7,1.8,1.2c0.9,0.8,1.3,1.5,1.2,1.6c-0.1,0-0.5-0.5-1.5-1.2c-0.5-0.4-1.1-0.7-1.8-0.9c-0.4-0.1-0.8-0.2-1.2-0.3
		c-0.4-0.1-0.8-0.1-0.9,0.1c-0.1,0.2,0,0.1,0,0.2c0.1,0.1,0.3,0.2,0.4,0.3c0.4,0.2,0.7,0.4,1.1,0.6c0.6,0.3,1.3,0.5,1.9,0.7
		C533.6,533.2,534.2,533.3,534.9,533.5z"/>
	<path class="st2" d="M534.7,533.8c-0.4-0.6-0.6-1.2-0.6-1.9c-0.1-1.2,0.1-2.3,0.7-3.4c0.2-0.5,0.7-0.9,1.2-1c0.4,0,0.7,0.2,0.8,0.5
		c0.1,0.2,0.2,0.5,0.2,0.7c0.1,0.4,0.1,0.9,0,1.3c-0.1,0.7-0.4,1.4-0.8,2.1c-0.7,1-1.5,1.3-1.6,1.2c0-0.1,0.6-0.5,1.2-1.5
		c0.3-0.6,0.5-1.2,0.6-1.9c0-0.4,0-0.8-0.1-1.2c-0.1-0.4-0.2-0.7-0.4-0.7c-0.1,0.1-0.5,0.3-0.7,0.7c-0.2,0.4-0.3,0.7-0.5,1.1
		c-0.2,0.6-0.3,1.3-0.3,2C534.5,533.1,534.8,533.8,534.7,533.8z"/>
	<path class="st2" d="M427.9,479.3c1.4,0,8,27,8,27l-61.2,9.1l3.9,24.4c0,0,72.3-4.8,77.3-6c8.8-2,15.5-10.5,15.2-21.7
		c-0.3-12.9-7.9-43.2-7.9-43.2L427.9,479.3z"/>
	<path class="st10" d="M466.4,483.7l-35.5,2.6c0,0,3,6.1,13,6.9c10,0.7,24.6,0,24.6,0L466.4,483.7z"/>
	<path class="st2" d="M542.2,458.7c-1-11.1-10.3-19.6-21.4-19.5h-10.9l-58.8,3l-32-9.7c0,0-11.1,19.8-4.7,36.4
		c3.8,10.1,12.8,17.5,23.5,19.2c13.3,2.3,74.2-10.6,74.2-10.6v54.2l27.7-0.7l2.5-71.4C542.2,459.4,542.2,459,542.2,458.7z"/>
	<path class="st3" d="M512.1,477.6l-0.4,0.1l-1.1,0.2l-4.1,0.8l-15.2,2.7l-22.5,4l-13.3,2.3c-4.8,0.9-9.7,1.2-14.5,0.8
		c-2.5-0.2-4.9-0.6-7.3-1.2c-2.3-0.6-4.6-1.4-6.8-2.5c-4-2.2-7.4-5.4-9.8-9.4c-2.2-3.5-3.7-7.4-4.5-11.4c-0.7-3.5-0.8-7.1-0.4-10.7
		c0.7-5.1,2.1-10.1,4-14.9c0.7-1.7,1.3-3,1.7-3.8c0.2-0.4,0.4-0.7,0.5-1c0.1-0.2,0.2-0.3,0.2-0.3c0,0.1-0.1,0.2-0.1,0.3
		c-0.1,0.3-0.3,0.6-0.5,1c-0.4,0.9-1,2.2-1.6,3.9c-1.8,4.8-3.1,9.8-3.8,14.9c-0.4,3.5-0.2,7.1,0.4,10.5c0.8,4,2.3,7.8,4.5,11.2
		c2.3,3.8,5.6,7,9.6,9.2c2.1,1.1,4.3,1.9,6.6,2.4c2.4,0.6,4.8,1,7.2,1.2c4.8,0.3,9.6,0.1,14.4-0.8l13.3-2.3l22.6-3.9l15.2-2.5
		l4.1-0.7l1.1-0.1C511.8,477.6,511.9,477.6,512.1,477.6z"/>
	<path class="st3" d="M439.5,535.6h-0.3l-0.9,0.1l-3.5,0.3l-12.7,1l-43.6,3.1h-0.3v-0.3c-1-6.3-2.1-13-3.2-19.9l-0.7-4.5v-0.3h0.3
		l61.2-9l0,0l0,0c3.3,1.6,6.3,3.6,9.1,6c1,0.8,1.6,1.5,2.1,2l0.5,0.6c0.1,0.1,0.2,0.2,0.1,0.2c0,0-0.1,0-0.2-0.2l-0.5-0.5
		c-0.5-0.4-1.2-1.2-2.1-1.9c-2.8-2.3-5.9-4.2-9.1-5.8h0.1l-61.2,9.2l0.3-0.3l0.7,4.5c1.1,6.9,2.2,13.6,3.2,19.9l-0.3-0.3l43.6-2.9
		l12.7-0.8l3.5-0.2h0.9L439.5,535.6z"/>
	<path class="st3" d="M518.2,471c-1.4,0.7-2.6,1.7-3.7,2.7c-1,1.2-1.8,2.5-2.5,3.9c-0.1,0,0-0.6,0.2-1.4c0.8-2.2,2.5-4,4.6-4.9
		C517.6,471,518.2,470.9,518.2,471z"/>
	<path class="st3" d="M468.8,441.5c-0.5,0.1-1.1,0.2-1.6,0.2c-1.1,0.1-2.6,0.2-4.5,0.3c-3.8,0.2-9.1,0.3-14.9,0.4
		c-5.8,0.1-11.1,0.1-14.9,0.4c-1.9,0.1-3.5,0.2-4.5,0.3c-0.5,0.1-1.1,0.1-1.6,0.1c0.5-0.2,1.1-0.3,1.6-0.3c1.1-0.2,2.6-0.3,4.5-0.5
		c3.8-0.3,9.1-0.5,14.9-0.5c5.8-0.1,11.1-0.1,14.9-0.2l4.5-0.1C467.6,441.4,468.2,441.4,468.8,441.5z"/>
	<path class="st4" d="M457,355.7l-0.6,0.7c-8.2,1.7-14.7,7.9-17,15.9c-2.2,7.9-2.9,22.5-7.5,42.4c0,0-11.2,10.2-13.3,17.8l32.5,9.8
		l17.7-1l6.9-21.3c6.6,0,9.5-3.3,11.8-8.8c3.2-7.2-7.3-40.5-7.3-40.5l0.7,5.7L457,355.7z"/>
	<path class="st10" d="M484.8,383.7l7.9,16.1l-4.9,0.7C487.9,400.5,484.9,384.9,484.8,383.7z"/>
	<path class="st2" d="M478.8,420c0-0.1,0.6-0.2,1.5-0.6c1.3-0.6,2.6-1.5,3.6-2.6c1.5-1.6,2.6-3.5,3.3-5.6c0.8-2.6,1-5.3,0.7-8
		c-0.2-2.7-0.7-5.4-1.3-8.1c-0.5-2.4-1-4.7-1.3-6.6c-0.3-1.5-0.4-3-0.5-4.5c0-0.5,0-1.1,0.1-1.6c0.1,0.5,0.1,1.1,0.2,1.6
		c0.1,1.5,0.4,3,0.7,4.4c0.4,1.9,0.9,4.1,1.5,6.5c0.7,2.7,1.1,5.3,1.4,8.1c0.3,2.8,0,5.6-0.8,8.2c-0.7,2.2-1.9,4.1-3.5,5.8
		c-1.1,1.1-2.4,1.9-3.8,2.5c-0.4,0.1-0.8,0.3-1.2,0.3C478.9,420,478.8,420.1,478.8,420z"/>
	<path class="st10" d="M441.1,386.3c0,0,11,37.8,18.2,43.6c3.8,3.4,9.6,3.4,13.3-0.1l1.3-6.5L441.1,386.3z"/>
	<path class="st13" d="M544.8,383.3c-1.3-1.2-2-0.7-2-0.7s0.7-3.1-0.9-4.1c-0.5-0.3-0.8-0.5-0.9-0.6c-0.2-0.4-1.2-2.6-2.8-3
		c0,0-0.2-2.9-1.4-3.1c-2.3-0.5-3.3,1.9-3.3,1.9l-4.1,7.9l-2,8.1l-33.9,15.7l3.6,15.5l38.1-19.6l6.8-6.5
		C541.9,394.8,546,384.4,544.8,383.3z"/>
	<path class="st4" d="M443.6,374.9c0,1.2,19.1,51.1,28.2,54.6c3.4,1.3,55.7-18.3,55.7-18.3l-6.4-19.2c0,0-36.5,12.3-37.7,12.2
		c-1.2,0-12.6-31.6-12.6-31.6s-7.2-15-17.9-10.3C446,365.3,443.6,374.9,443.6,374.9z"/>
	<path class="st2" d="M483.4,404.3l0.7-0.3l2-0.7l7.6-2.5l27.4-9l0.2-0.1l0.1,0.2c1.9,5.8,4.1,12.3,6.4,19.2l0.1,0.3l-0.3,0.1
		c-8.2,3.1-17.2,6.5-26.5,9.9c-5.8,2-11.4,4-16.9,5.7c-2.8,0.8-5.5,1.7-8.2,2.3c-0.7,0.2-1.4,0.3-2,0.4l-1,0.1c-0.4,0-0.8,0-1.2-0.1
		c-1.3-0.5-2.4-1.4-3.3-2.4c-1.7-2-3.2-4.1-4.5-6.3c-1.3-2.2-2.5-4.3-3.5-6.4c-2.2-4.2-4-8.2-5.6-11.8c-3.3-7.3-5.6-13.3-7.3-17.5
		c-0.8-2.1-1.4-3.7-1.8-4.8c-0.2-0.5-0.3-0.9-0.4-1.3c-0.1-0.1-0.1-0.3-0.1-0.4c0.1,0.1,0.1,0.3,0.2,0.4l0.5,1.2l1.9,4.8
		c1.7,4.1,4.1,10.1,7.4,17.4c1.6,3.6,3.5,7.6,5.7,11.7c1.1,2.1,2.3,4.2,3.6,6.3c1.3,2.2,2.8,4.3,4.5,6.2c0.8,1,1.9,1.8,3.1,2.3
		c0.6,0.1,1.3,0.1,1.9-0.1c0.7-0.1,1.3-0.2,2-0.4c2.7-0.6,5.4-1.4,8.1-2.3c5.5-1.7,11.1-3.7,16.8-5.7c9.4-3.3,18.4-6.7,26.5-9.8
		l-0.2,0.3c-2.3-6.9-4.4-13.4-6.3-19.2l0.3,0.2l-27.5,8.8l-7.6,2.4l-2,0.6C483.7,404.2,483.4,404.3,483.4,404.3z"/>
	<path class="st2" d="M455.9,361.9c0.2-0.1,0.4-0.1,0.5-0.1c0.5,0,1,0,1.5,0c1.9,0.1,3.8,0.6,5.4,1.6c1.1,0.7,2.1,1.6,3,2.6
		c1,1.1,1.9,2.3,2.7,3.6c1.8,2.9,3.3,6,4.6,9.1c2.9,6.6,5,12.9,6.5,17.3c0.7,2.3,1.3,4.1,1.7,5.4c0.2,0.6,0.4,1.3,0.5,2
		c-0.3-0.6-0.5-1.3-0.7-1.9l-1.9-5.3c-1.6-4.5-3.7-10.6-6.6-17.3c-1.3-3.1-2.8-6.2-4.6-9c-0.8-1.2-1.7-2.4-2.6-3.5
		c-0.8-1-1.8-1.8-2.8-2.5c-1.6-1-3.4-1.5-5.2-1.7C456.6,361.9,455.9,362,455.9,361.9z"/>
	<path class="st14" d="M538.2,375c0.1,0.1-0.3,1.2-0.9,2.3c-0.7,1.2-1.3,2.1-1.5,2s0.3-1.2,0.9-2.3C537.4,375.8,538,374.9,538.2,375
		z"/>
	<path class="st14" d="M540.5,377.8c0.1,0.1-0.4,1-1,2.1s-1.2,2-1.3,1.9c-0.2-0.1,0.2-1.1,0.8-2.2
		C539.7,378.4,540.4,377.7,540.5,377.8z"/>
	<path class="st14" d="M542.8,382.6c0.1,0.1,0,0.8-0.4,1.6c-0.4,0.8-0.8,1.4-1,1.3c-0.1-0.1,0.1-0.8,0.4-1.6
		C542.2,383.1,542.7,382.5,542.8,382.6z"/>
	<path class="st2" d="M483.5,403.8c0.1,0.1-1,1.8-1.8,4.2c-0.8,2.4-1.1,4.4-1.3,4.4c-0.2-1.6,0.1-3.2,0.7-4.6
		C481.5,406.3,482.4,404.9,483.5,403.8z"/>
	<path class="st11" d="M494.1,229.8l-9.1-3.7c-0.9,1.5-0.5,3.4,0.9,4.5c1.6,1.4,3.4,2.6,5.4,3.5c0,0,1,4.6,3.4,6.9
		c2.3,2.3,7.6-1.4,7.6-1.4S502.2,232.9,494.1,229.8z"/>
	<path class="st8" d="M507.7,259.4c-1.1-1.5-2.2-0.6-2.2-0.6s1.3-3.2-0.3-4.7c-0.5-0.4-0.7-0.7-0.9-0.8c-0.1-0.5-0.8-3.1-2.5-3.8
		c0,0,0-3-1.3-3.5c-2-0.8-4.3,1.6-4.3,1.6l-5.3,7.7l-7.8,13l4.4,13.8l12.4-7.7l2.5-2.4C502.3,271.9,508.9,261.1,507.7,259.4z"/>
	<path class="st9" d="M501.9,249.3c0.1,0.1-0.2,1-0.9,2c-0.6,1-1.2,1.7-1.4,1.6s0.2-1,0.9-1.9C501.2,250,501.8,249.3,501.9,249.3z"
		/>
	<path class="st9" d="M504.3,252.9c0,1.1-0.4,2.2-1.2,3c-1,1.5-2.3,2.2-2.4,2.1c-0.1-0.1,1-1,1.9-2.5S504.2,252.9,504.3,252.9z"/>
	<path class="st9" d="M505.4,258.2c0.1,0.1-0.1,1-0.8,1.9c-0.7,0.9-1.5,1.4-1.6,1.2c-0.1-0.1,0.5-0.8,1.2-1.6
		C504.8,258.9,505.3,258.2,505.4,258.2z"/>
	<path class="st11" d="M481.7,241.9c1.5,1.8,3.4,3.2,5.5,4.1c0.8,0.4,1.8,0.6,2.7,0.5c1-0.2,1.6-1,1.6-2c-0.2-0.7-0.5-1.3-1.1-1.7
		l-4.1-4c0.4,0.7,1,1.4,1.6,2c0.7,0.6,1.5,0.9,2.4,0.7c0.9-0.2,1.5-1,1.5-1.8c-0.1-0.5-0.4-1-0.7-1.4l-5.4-6.8"/>
	<path class="st12" d="M491.5,244.9c0,0,0.1,0.2-0.1,0.5c-0.2,0.4-0.6,0.8-1,1c-0.6,0.4-1.3,0.6-2.1,0.6c-0.9,0-1.7-0.3-2.5-0.7
		c-1.9-1-3.4-2.6-4.4-4.6c1.4,1.6,3,2.9,4.7,4.1c0.7,0.4,1.4,0.7,2.2,0.7c0.6,0,1.3-0.1,1.8-0.4
		C490.8,245.8,491.3,245.4,491.5,244.9z"/>
	<path class="st12" d="M491.7,240.3c0,0,0,0.2-0.2,0.5c-0.3,0.4-0.7,0.7-1.2,0.8c-1.6,0.2-3.2-0.2-4.4-1.2c-1.2-1-2.1-2.2-2.7-3.6
		c-0.3-0.5-0.6-1.1-0.7-1.7c0.1,0,0.4,0.6,1,1.5c0.7,1.3,1.6,2.4,2.7,3.4c1.1,0.9,2.5,1.3,4,1.3C491.4,241,491.7,240.2,491.7,240.3z
		"/>
	<path class="st12" d="M490.2,246.4c0,0,0.2,0,0.5,0.3c0.4,0.4,0.7,0.9,0.7,1.5c0,0.9-0.4,1.7-1.1,2.1c-0.9,0.5-2,0.5-2.9,0.1
		c-1.6-0.6-3.1-1.6-4.2-2.9c-0.5-0.5-0.9-1.1-1.1-1.8c0.1,0,0.5,0.6,1.4,1.5c1.1,1.2,2.5,2.1,4.1,2.7c0.8,0.4,1.6,0.4,2.4,0
		c0.6-0.3,0.9-1,1-1.6c0-0.5-0.2-0.9-0.4-1.3C490.4,246.5,490.2,246.4,490.2,246.4z"/>
	<path class="st12" d="M496.4,241.8c-1.1-0.1-2.1-0.6-2.8-1.5c-0.8-0.8-1.4-1.9-1.7-3c-0.2-0.6-0.4-1.3-0.4-2c0-0.3-0.1-0.6-0.3-0.9
		c-0.2-0.2-0.4-0.4-0.7-0.5c-1.3-0.5-2.5-1.2-3.7-2c-0.9-0.7-1.6-1.7-2-2.8c-0.3-0.7-0.4-1.5-0.3-2.3c0-0.3,0.2-0.6,0.4-0.8
		c0,0-0.1,0.3-0.1,0.8c-0.1,0.7,0.1,1.5,0.4,2.1c0.4,1,1.1,1.9,2,2.5c1.1,0.8,2.3,1.4,3.6,1.9c0.4,0.1,0.7,0.4,1,0.7
		c0.2,0.4,0.3,0.7,0.3,1.2c0.1,0.6,0.2,1.3,0.4,1.9C493,239.4,494.4,241.1,496.4,241.8L496.4,241.8z"/>
	<path class="st13" d="M525.1,349.1l7.1-5.5c1.2,1.1,1.3,2.9,0.3,4.2c-1.1,1.7-2.4,3.2-3.9,4.5c0,0,0.2,4.3-1.2,6.9
		c-1.5,2.6-7,0.7-7,0.7S518.6,353.8,525.1,349.1z"/>
	<path class="st13" d="M536,356.2c-0.9,1.4-2,2.6-3.5,3.5c-0.7,0.3-1.5,0.3-2.2,0.2c-0.7-0.1-1.2-0.6-1.3-1.3
		c0.1-0.5,0.3-0.9,0.7-1.3l2.7-3.1c-0.3,0.6-0.6,1.1-1.1,1.5c-0.4,0.5-1.1,0.7-1.7,0.7c-0.6-0.1-1.1-0.6-1.2-1.2
		c0.1-0.4,0.2-0.7,0.4-1l3.5-5.2"/>
	<path class="st13" d="M536,358.7c-0.7,1.5-1.9,2.7-3.4,3.5c-0.6,0.3-1.2,0.5-1.9,0.3c-0.5-0.2-1-0.6-1.1-1.2
		c-0.1-0.6,0.1-1.1,0.6-1.5"/>
	<path class="st14" d="M530.2,359.7c0.1,0.1-0.5,0.5-0.4,1.3c0.1,0.5,0.3,0.9,0.8,1.1c0.5,0.2,1.2,0.1,1.7-0.2
		c1.1-0.5,2-1.2,2.8-2.1c0.6-0.7,0.9-1.2,1-1.2c0.1,0-0.1,0.6-0.6,1.4c-0.7,1-1.7,1.9-2.8,2.4c-0.7,0.4-1.5,0.4-2.2,0.1
		c-0.6-0.3-0.9-0.9-0.9-1.5c0-0.4,0.2-0.8,0.4-1.2C530,359.7,530.2,359.7,530.2,359.7z"/>
	<path class="st14" d="M529.2,358.7c0.3,0.3,0.6,0.6,1,0.7c0.4,0.2,0.9,0.2,1.3,0.1c0.5-0.1,1.1-0.3,1.5-0.6c1.2-1,2.2-2,3.2-3.1
		c-0.5,1.5-1.5,2.8-2.8,3.6c-0.5,0.4-1.1,0.6-1.8,0.7c-0.5,0-1.1-0.1-1.5-0.3c-0.3-0.1-0.6-0.4-0.8-0.7
		C529.1,358.9,529.1,358.7,529.2,358.7z"/>
	<path class="st14" d="M528.7,355.8c0.1-0.1,0.4,0.4,1.2,0.5c1-0.1,2-0.5,2.7-1.2c0.7-0.7,1.3-1.6,1.8-2.5c0.4-0.7,0.6-1.2,0.7-1.2
		s0,0.5-0.3,1.3c-0.4,1.1-1,2-1.8,2.8c-0.8,0.8-2,1.2-3.1,1.2c-0.4,0-0.7-0.2-0.9-0.5C528.7,355.9,528.7,355.8,528.7,355.8z"/>
	<path class="st14" d="M526,360.3c0.7-0.6,1.3-1.3,1.7-2.1c0.4-0.9,0.6-1.9,0.6-2.9c0-0.6,0-1.2-0.1-1.8c-0.1-0.4-0.1-0.7,0-1.1
		c0.1-0.4,0.4-0.7,0.7-0.9c1-0.8,1.9-1.6,2.6-2.6c0.6-0.8,1-1.7,1.2-2.7c0.1-0.7,0.1-1.3-0.2-2c-0.2-0.4-0.3-0.6-0.3-0.7
		s0.3,0.1,0.5,0.6c0.3,0.6,0.5,1.4,0.4,2.1c-0.1,1.1-0.5,2.1-1.1,3c-0.8,1-1.7,1.9-2.7,2.7c-0.2,0.1-0.4,0.4-0.5,0.6
		c-0.1,0.3-0.1,0.5,0,0.8c0.1,0.6,0.1,1.2,0.1,1.9c0,1.1-0.3,2.1-0.8,3.1C527.7,359.2,526.9,359.9,526,360.3z"/>
	<path class="st9" d="M474.8,160.1c0.3,1,0.4,2,0.4,3.1c0.1,1.1-0.1,2.3-0.4,3.4c-0.2,0.7-0.5,1.3-1,1.8c-0.3,0.3-0.6,0.5-1,0.6
		c-0.4,0.1-0.9,0-1.3-0.2c-0.6-0.5-1-1.2-1.2-2c-0.2-0.7-0.3-1.3-0.4-2c-0.2-1.1-0.3-2.2-0.2-3.4c-0.1-1,0.1-2.1,0.4-3.1
		c0.1,0,0,1.2,0.1,3.1c0.1,1.1,0.2,2.2,0.4,3.3c0.1,0.6,0.2,1.3,0.4,1.9c0.1,0.6,0.4,1.2,0.9,1.6c0.5,0.3,1.2,0.1,1.5-0.3
		c0.4-0.5,0.7-1,0.9-1.6c0.3-1,0.5-2.1,0.5-3.2C474.7,162.1,474.7,161.1,474.8,160.1z"/>
	<path class="st9" d="M478.9,163c0.2,0.5,0.2,1.1,0.1,1.7c0,1.4-0.3,2.8-1,4c-0.2,0.4-0.5,0.7-0.7,1c-0.3,0.3-0.7,0.5-1.2,0.5
		c-0.7-0.1-1.3-0.5-1.6-1.2c-0.2-0.5-0.3-1.2-0.1-1.7c0.1,0,0.1,0.7,0.5,1.5c0.2,0.5,0.6,0.8,1.2,0.8c0.5,0,1-0.6,1.4-1.2
		c0.6-1.2,0.9-2.4,1-3.7C478.7,164.1,478.8,163.5,478.9,163z"/>
	<path class="st8" d="M466.4,181.6c3.7-2.3,0.6-14.8-1.7-17.7c2.5-2.5,3.6-5.4,1.9-8.5c-2.3,2.3-6.2,5.2-6.9,11.5l0.7,4.9
		L466.4,181.6z"/>
	<path class="st9" d="M467.3,176.4c0.2-1.1,0.3-2.2,0.4-3.3c0-2.7-0.9-5.3-2.5-7.4c-0.4-0.5-0.8-0.9-1.2-1.3l-0.3-0.3l0.3-0.2
		c1.8-1.3,2.9-3.4,3-5.6c0-0.9-0.1-1.8-0.3-2.7c0.2,0.2,0.3,0.4,0.3,0.7c0.2,0.7,0.4,1.3,0.4,2c0,1.1-0.2,2.1-0.6,3.1
		c-0.5,1.2-1.4,2.3-2.5,3v-0.5c0.5,0.4,0.9,0.9,1.3,1.4c1.7,2.2,2.6,5,2.5,7.7c0,0.8-0.2,1.7-0.4,2.5
		C467.6,175.8,467.5,176.1,467.3,176.4z"/>
</g>
<g>
	<path class="st2" d="M426.4,104.2l-10.2,3.1c0.2-0.4,0.3-0.6,0.4-0.8c2.4-4.4,4.7-8.9,7.1-13.3c0.2-0.5,0.3-0.9,0.1-1.4
		c-0.7-2.2-1.3-4.3-2-6.5c-0.3-1.1-0.6-2.2-1-3.2c-0.2-0.5-0.5-0.7-0.9-0.8c-0.2,0-0.4,0.1-0.6,0.1c-3.2,1-6.5,2-9.7,2.9
		c-0.6,0.2-1,0.5-1.3,1.1c-2.2,4.2-4.4,8.3-6.7,12.4c-0.1,0.2-0.2,0.6-0.5,0.6c-0.7-2.1-1.3-4.2-1.9-6.4c-0.3-1.1-0.6-2.2-1-3.2
		c-0.2-0.5-0.5-0.7-0.9-0.8c-0.2,0-0.4,0.1-0.6,0.1c-3.2,1-6.5,2-9.7,2.9c-0.6,0.2-1,0.5-1.3,1.1c-2.2,4.2-4.4,8.3-6.7,12.4
		c-0.1,0.2-0.2,0.6-0.6,0.6c-0.4,0-0.4-0.4-0.5-0.7c-0.9-2.9-1.8-5.9-2.7-8.8c-0.2-0.5-0.7-0.8-1.3-0.7c-1.3,0.4-2.5,0.8-3.8,1.1
		c-0.5,0.2-1,0.4-1.5,0.6c-2.8,1.6-4.1,4.8-3.2,7.8c0.4,1.3,0.8,2.6,1.2,4c0.2,0.8,0.5,1,1.4,0.7c2.9-0.9,5.8-1.8,8.8-2.6
		c0.2,0,0.3-0.1,0.5-0.1c0.4-0.1,0.5,0.2,0.4,0.5c-0.1,0.2-0.2,0.3-0.2,0.5c-2.3,4.2-4.5,8.4-6.8,12.6c-0.3,0.5-0.3,0.9-0.2,1.4
		c1,3.3,2,6.6,3,10c0.2,0.8,0.6,1.1,1.4,0.8c3.2-1,6.4-2,9.7-2.9c0.6-0.2,0.7-0.1,0.5-0.9c-2.1-7-4.2-14.1-6.3-21.1
		c-0.2-0.8-0.1-1.1,0.7-1.4c3.1-0.9,6.2-1.9,9.4-2.8c0.1,0,0.2-0.1,0.2-0.1c0.5-0.1,0.8,0,1,0.5c0.1,0.2,0.1,0.3,0.1,0.5
		c1,3.4,2,6.8,3,10.2c0,0.1,0.1,0.2,0.1,0.4l2.2,7.4c0,0.1,0,0.1,0,0.2c0,0.1,0,0.1,0.1,0.2l0.6,1.9l0.4,1.2l0,0l0.1,0.3l10.3-3.1
		c0.7-0.2,1-0.9,0.8-1.6l-2.7-9.1c-0.2-0.7-0.9-1-1.6-0.8l-10.2,3c0.2-0.3,0.3-0.6,0.4-0.8c1.7-3.2,3.4-6.4,5.1-9.6
		c0.6-1.1,1.2-2.1,1.7-3.2c0.3-0.6,0.5-1,1.1-1.3c0.9-0.4,2-0.6,2.9-0.9c2.2-0.7,4.4-1.3,6.6-2c0,0,0.1,0,0.1,0
		c0.1,0,0.2-0.1,0.2-0.1c0.5-0.1,0.8,0,1,0.5c0.1,0.2,0.1,0.3,0.1,0.5c1,3.4,2,6.8,3.1,10.2l0.1,0.4l3.3,10.9l0.1,0.3l10.3-3.1
		c0.7-0.2,1-0.9,0.8-1.6l-2.7-9.1C427.7,104.4,427,104,426.4,104.2z"/>
	<path class="st4" d="M372.9,99.5c-0.7-0.4-1.6-0.5-2.3-0.3c0,0,0,0,0,0c-0.8,0.2-1.4,0.8-1.8,1.5c-0.4,0.7-0.5,1.5-0.3,2.3
		c0.2,0.8,0.8,1.5,1.5,1.9c0.7,0.4,1.5,0.5,2.4,0.2c0,0,0,0,0,0c0.8-0.2,1.5-0.8,1.8-1.5c0.4-0.7,0.5-1.5,0.2-2.3
		C374.2,100.6,373.7,99.9,372.9,99.5z M372.1,104.3C372.1,104.3,372.1,104.3,372.1,104.3c-1.1,0.3-2.3-0.3-2.7-1.4
		c-0.2-0.5-0.1-1.1,0.1-1.6c0.3-0.5,0.7-0.9,1.2-1l0,0c1.1-0.3,2.3,0.3,2.6,1.4C373.8,102.8,373.2,103.9,372.1,104.3z"/>
	<path class="st4" d="M417.1,85.6C417.1,85.6,417.1,85.6,417.1,85.6c-0.6,0.2-1.1,0.3-1.7,0.5c-0.1,0-0.1,0-0.1,0.1
		c-0.1,0.2-0.2,0.4-0.3,0.6c0,0-0.1,0.1-0.1,0.1c-1,0.3-2.1,0.6-3.1,0.9c-0.1,0-0.1,0-0.1-0.1c-0.2-0.6-0.3-1.1-0.5-1.7
		c0-0.1,0-0.1,0.1-0.1c2.3-0.7,4.5-1.4,6.8-2c0.1,0,0.1,0,0.1,0c0.5,0.3,1.1,0.6,1.6,0.9c0,0,0.1,0.1,0.1,0.1c0.7,2.3,1.4,4.5,2,6.8
		c0,0.1,0,0.1,0,0.1c-0.6,0.2-1.2,0.3-1.7,0.5c-0.1,0-0.1,0-0.1,0c-0.3-1-0.6-2.1-0.9-3.1c0,0,0-0.1,0-0.1c0.1-0.2,0.2-0.4,0.3-0.6
		c0,0,0-0.1,0-0.1c-0.2-0.6-0.3-1.1-0.5-1.7c0,0,0,0,0,0c-0.1,0.1-0.1,0.2-0.2,0.3c-1.2,2.3-2.5,4.6-3.7,6.9c0,0.1-0.1,0.1-0.1,0
		c-0.5-0.3-1.1-0.6-1.6-0.8c-0.1,0-0.1-0.1,0-0.1c1-1.9,2.1-3.9,3.1-5.8C416.7,86.5,416.9,86.1,417.1,85.6
		C417.1,85.6,417.2,85.6,417.1,85.6z"/>
</g>
</svg>
