<?xml version="1.0" encoding="utf-8"?>
<!-- Generator: Adobe Illustrator 26.5.0, SVG Export Plug-In . SVG Version: 6.00 Build 0)  -->
<svg version="1.1" id="Layer_1" xmlns="http://www.w3.org/2000/svg" xmlns:xlink="http://www.w3.org/1999/xlink" x="0px" y="0px"
	 viewBox="0 0 1027 600" style="enable-background:new 0 0 1027 600;" xml:space="preserve">
<style type="text/css">
	.st0{fill:#DBDBDB;}
	.st1{fill:#EBEBEB;}
	.st2{fill:#00C5CD;}
	.st3{fill:#263238;}
	.st4{fill:#455A64;}
	.st5{fill:#C7C7C7;}
	.st6{fill:#FFFFFF;}
	.st7{fill:#A6A6A6;}
	.st8{opacity:0.6;fill:#FFFFFF;enable-background:new    ;}
	.st9{opacity:0.1;enable-background:new    ;}
	.st10{fill:#C95F50;}
	.st11{fill:#37474F;}
	.st12{fill:none;stroke:#C7C7C7;stroke-miterlimit:10;}
</style>
<g id="freepik--background-complete--inject-25">
	<path class="st0" d="M785.7,158.3c1.6,0.1,2.5,2.7,3.7,3.5c0.5,0.4,1.3,0.4,1.7-0.2c0,0,0,0,0,0c1.2-1.6-0.3-3.8-1.8-5.1
		c1,0.7,2.1,1.2,3.2,1.6c0.6,0.2,1.2-0.1,1.5-0.6c0-0.1,0-0.1,0-0.2c0.6-2.3-2.2-3.4-4.2-3.6c1-0.6,3.8-2.4,2.5-3.3
		s-4.8,1.5-5.9,2.4c-1.6,1.2-3.5,3-3.7,5C782.4,160.1,784.5,158.7,785.7,158.3z"/>
	<path class="st1" d="M785.2,158.7c2.1-0.8,5.9,0.6,6.2-0.1c0.7-1.5-2.3-2.7-4-3c1.6-0.4,4.5-0.9,4.5-2.4c0-1.8-4.5-0.4-6.8,1.2
		c-2.9,2-3,4.1-2.5,4.6C783.2,159.3,784.9,158.8,785.2,158.7z"/>
</g>
<g id="freepik--Plant--inject-25">
	<path class="st2" d="M107.7,434c1.8,5.1,3.1,10.4,4,15.7c-0.1,0.3,0,1.2,0.1,1c0.1,0.9,1.4,0.6,1.4-0.2c0-0.6-0.1-1.1-0.2-1.7
		c2.8-4.1,7.1-6.9,10.6-10.5c2.8-2.9,4.6-6.4,5.5-10.3c2.2-10.6-1.4-21.5,1.5-32.1c2.4-9.2,7.5-17.4,11.7-25.9
		c4.4-9,7.4-18.2,7.1-28.3c-0.3-7.7-1.9-17.9-8.2-23.2c-6.7-5.7-14-0.5-18.4,5.3c-12.6,16.9-17.6,37.3-18.6,58
		c-0.6,11.4-1.2,22.9,0,34.4C104.6,422.2,105.8,428.2,107.7,434z"/>
	<path class="st3" d="M111.8,453.9c-1.6-10.6-2.2-21.4-2-32.1c0,0,0-0.1,0-0.1c-0.8-8.6-2.1-17.2-2.4-26c-0.3-9.4,0.3-18.8,1.8-28.1
		c0,0,0-0.1,0.1-0.1s0.1,0,0.1,0.1c-1,9.1-1.4,18.3-1,27.5c0.2,4.9,0.6,9.8,1.2,14.7c0.2,1.6,0.5,3.2,0.7,4.8l0,0
		c1.8-24.6,8.9-48.5,20.8-70.2c0.2-0.3,0.7,0,0.5,0.3c-8.4,16.4-14.2,34-17.3,52.2c5.7-12.8,15-23.6,21.6-36c0-0.1,0.1,0,0.1,0.1
		c-5.7,13.6-16,24.8-22,38.3c-0.8,5.4-1.4,10.8-1.8,16.2c-0.5,7.4-0.5,14.9,0,22.3c3.5-7.8,7.2-15.4,9.9-23.6
		c0.1-0.2,0.4-0.1,0.3,0.1c-2.2,8.5-5.3,17.7-10.1,25.2c0.4,5.2,0.9,10.5,1.6,15.7c1.9,14,5.3,27.6,7.3,41.5c0,0.2-0.1,0.3-0.3,0.4
		s-0.3-0.1-0.4-0.3C116.7,482.6,113.8,468.3,111.8,453.9z"/>
	<path class="st3" d="M118.8,344.7c0-0.1,0.2,0,0.2,0.1c-2,7.3-3,14.5-4.3,21.9c0,0.1-0.2,0.2-0.3,0.2c-0.1,0-0.2-0.1-0.2-0.2
		C114.3,359.3,116.4,351.7,118.8,344.7z"/>
	<path class="st2" d="M56,379.1c2,4,4.3,7.9,6.8,11.7c5.2,8,10.6,15.4,12.2,25c0.7,4.3,1.2,8.7,2.8,12.8c1.5,3.5,3.5,6.8,5.9,9.7
		c5.5,6.9,12.2,12.7,17.4,19.9c5.4,7.5,9.6,15.8,12.4,24.6c0.1,0.5,0.9,0.3,0.8-0.2v-0.1c0,0,0-0.1,0-0.1
		c-0.8-20.9-4-41.9-11.9-61.4c-3.5-8.6-7.5-17-12-25.1c-3.9-7-8.7-13.7-15.1-18.6c-4.1-3.2-13.1-9.2-18.4-5.3
		C54.3,374,54.7,376.6,56,379.1z"/>
	<path class="st3" d="M80.4,425c4.1,5.8,8.6,11.3,13.5,16.6c2.2,2.5,4.4,5,6.7,7.5c1.1,1.2,2.2,2.4,3.2,3.7
		c-0.7-2.1-1.4-4.3-2.1-6.5c-3.5-10.4-6.8-20.8-11.6-30.7c-4.8-9.5-10.4-18.7-16.6-27.4c-0.2-0.2,0.2-0.4,0.4-0.2
		c4.9,6.9,10,13.9,14.2,21.2c2.4,4.1,4.5,8.4,6.3,12.8c-2.4-9.4-5.5-18.6-9.2-27.6c0-0.1,0.1-0.2,0.1-0.1c4.7,9,7.9,18.7,9.5,28.7
		l0,0c1.1,2.6,2.1,5.3,3.1,8c4.1,11.5,7.9,23.1,11.4,34.8c-0.5-7.8-1.7-15.5-3.7-23.1c0-0.1,0-0.1,0.1-0.2c0.1,0,0.1,0,0.2,0.1
		c2.6,7.8,3.9,16.1,3.8,24.3c1.4,4.4,2.7,8.9,3.9,13.3c2.8,9.5,6,19.1,7.9,28.8c0,0.1-0.1,0.2-0.2,0.2c-0.1,0-0.2,0-0.2-0.1
		c-1.8-5.2-3.1-10.6-4.6-15.8c-1.6-5.2-3.2-10.5-4.8-15.8c-2.4-7.6-4.8-15.2-7.3-22.9c-1.5-2.8-4.2-5.1-6.2-7.3
		c-2.2-2.5-4.5-4.9-6.7-7.4c-4.1-4.6-7.9-9.6-11.2-14.8C80.2,425,80.4,424.9,80.4,425z"/>
	<path class="st3" d="M78.9,416.1c5,5.5,9.5,11.6,13.3,18c0,0.1-0.1,0.2-0.1,0.1c-4.5-6-8.9-12-13.3-18
		C78.6,416.1,78.8,416,78.9,416.1z"/>
	<path class="st2" d="M166.5,391c-2.4,4.9-5,10.7-3.5,16.2c1,3.5,3.8,6.2,4.5,9.8c1.6,7.9-5.9,13.8-11.4,18
		c-13.7,10.5-32.7,20.3-33.9,39.7c0,0.7-1.2,0.6-1.2-0.1c0,0,0-0.1,0-0.1c0,0-0.1,0-0.1-0.1c-2.6-9.6-3.2-19.5-1.9-29.4
		c1.4-10.1,5.1-19.3,9.5-28.4c7.6-15.4,15.6-31.1,27.8-43.3c3.4-3.4,10.4-9.5,13.8-2.7S169.4,385,166.5,391z"/>
	<path class="st3" d="M155.6,423.2c-8.8,11-23.5,17.9-30.8,30c3.6-18,10.4-34.5,21.8-49.2c0.1-0.2,0.1-0.4-0.1-0.5
		c-0.1-0.1-0.3-0.1-0.4,0c-8.1,9.1-14.4,19.8-18.4,31.4c1.7-8,4.1-15.8,7.2-23.4c0.1-0.3-0.3-0.5-0.4-0.2
		c-3.9,8.3-6.5,17.1-7.7,26.2c-8.9,26.9-7.6,57.6-3.4,85c0,0.4,0.7,0.4,0.6,0c-2.2-21.6-3.5-43.8,0.2-65.3c0.1-0.5,0.2-0.9,0.2-1.4
		c8-13.1,22.6-19.9,31.4-32.4C155.9,423.2,155.7,423,155.6,423.2z"/>
	<path class="st3" d="M157.2,414.1c-4.6,4.9-9.2,10-13.9,14.9c0,0,0,0.1,0.1,0.1c5.4-4.2,10.1-9.2,14.1-14.8
		c0.1-0.1,0.1-0.2,0.1-0.3s-0.2-0.1-0.3-0.1C157.2,414,157.2,414.1,157.2,414.1z"/>
	<path class="st3" d="M156.5,394.2c-3.9,7.6-8.4,14.8-13.5,21.6c0,0.1,0,0.2,0.1,0.1c5.8-6.4,10.4-13.7,13.6-21.6
		c0-0.1,0-0.2-0.1-0.2C156.6,394.2,156.5,394.2,156.5,394.2z"/>
	<polygon class="st4" points="143.1,548.9 95.7,548.9 102.1,485.2 135.8,485.2 	"/>
	<polygon class="st3" points="136.9,495.6 101,495.6 102.1,485.2 135.8,485.2 	"/>
	<rect x="97.2" y="478.1" class="st4" width="44.4" height="10.2"/>
</g>
<path class="st5" d="M206.9,87.7V87h0.7l620.7,0.3h0.4v0.4 M827.8,87.7l0.4,0.4l-620.7,0.2l0.7-0.7"/>
<rect x="207.5" y="87.7" class="st4" width="717.2" height="18.1"/>
<path class="st5" d="M247.2,113.3c0,1.6-1.3,2.9-2.9,2.9c-1.6,0-2.9-1.3-2.9-2.9c0-1.6,1.3-2.9,2.9-2.9h0
	C245.9,110.4,247.2,111.7,247.2,113.3C247.2,113.2,247.2,113.2,247.2,113.3z"/>
<path class="st6" d="M259,113.3c0,1.6-1.3,2.9-2.9,2.9c-1.6,0-2.9-1.3-2.9-2.9c0-1.6,1.3-2.9,2.9-2.9h0
	C257.7,110.4,259,111.7,259,113.3z"/>
<circle class="st2" cx="267.8" cy="113.3" r="2.9"/>
<path class="st7" d="M789.3,262.8L789.3,262.8c-1.7,0-3.1-1.4-3.1-3.1l0,0V126.9c0-1.7,1.4-3.1,3.1-3.1l0,0l0,0
	c1.7,0,3.1,1.4,3.1,3.1v132.8C792.4,261.4,791,262.8,789.3,262.8L789.3,262.8z"/>
<path class="st8" d="M641,152.2h-69c0,0,6.8-18.7,17.4-18.7c10.5,0,13.8,12.9,13.8,12.9s7.1-7,13-7s10.9,9.3,10.9,9.3
	S635.3,143.6,641,152.2z"/>
<path class="st8" d="M422.6,147.2h-35.8c0,0,8-11.6,14.3-11.6c6.3,0,8.1,7.7,8.1,7.7s4.4-3.6,8.6-3
	C421.9,141,422.6,147.2,422.6,147.2z"/>
<path class="st6" d="M539.3,154c5.7,0,7.3,7,7.3,7s4-3.2,7.7-2.7"/>
<path class="st2" d="M235.1,228.1"/>
<line class="st9" x1="249.1" y1="395.9" x2="249.1" y2="378.4"/>
<rect x="249.1" y="378.4" class="st6" width="2.6" height="17.5"/>
<path class="st1" d="M769.9,312.3"/>
<g id="freepik--Floor--inject-25">
	<polygon class="st3" points="38.4,549 137.6,548.7 236.8,548.6 435.2,548.3 633.6,548.6 732.8,548.7 832,549 732.8,549.3 
		633.6,549.4 435.2,549.6 236.8,549.4 137.6,549.3 	"/>
</g>
<g id="freepik--character-2--inject-25">
	<path class="st10" d="M762.8,526"/>
	<path class="st6" d="M762.8,526"/>
	<path class="st2" d="M762.8,526"/>
	<path class="st3" d="M793.9,298"/>
	<path class="st11" d="M787.5,437.2"/>
	<path class="st11" d="M621.6,547c0.1,0.2-0.2,0.3-0.2,0.2"/>
</g>
<image style="overflow:visible;" width="1920" height="1080" xlink:href="C:\Users\syamr\OneDrive\Pictures\Screenshots\Screenshot 2025-03-01 190216.png"  transform="matrix(0.3734 0 0 0.3734 207.5327 105.7806)">
</image>
<line class="st12" x1="102.3" y1="101.8" x2="102.3" y2="0"/>
<polygon class="st1" points="136,134.2 133.2,140.2 71.4,140.2 68.7,134.2 95,116 109.6,116 "/>
<polygon class="st0" points="111.4,98.4 109.6,116 95,116 93.2,98.4 "/>
<polygon class="st0" points="135.9,134.2 133.2,140.2 71.4,140.2 68.7,134.2 "/>
<g>
	<line class="st12" x1="979.3" y1="57.6" x2="979.3" y2="0"/>
	<polygon class="st1" points="1012.9,90 1010.2,95.9 948.3,95.9 945.7,90 972,71.8 986.6,71.8 	"/>
	<polygon class="st0" points="988.4,54.2 986.6,71.8 972,71.8 970.2,54.2 	"/>
	<polygon class="st0" points="1012.9,90 1010.2,95.9 948.3,95.9 945.6,90 	"/>
</g>
</svg>
