<?xml version="1.0" encoding="utf-8"?>
<!-- Generator: Adobe Illustrator 26.5.0, SVG Export Plug-In . SVG Version: 6.00 Build 0)  -->
<svg version="1.1" id="Layer_1" xmlns="http://www.w3.org/2000/svg" xmlns:xlink="http://www.w3.org/1999/xlink" x="0px" y="0px"
	 viewBox="0 0 1027 600" style="enable-background:new 0 0 1027 600;" xml:space="preserve">
<style type="text/css">
	.st0{fill:#0B0A0A;}
	.st1{fill:#C9F401;}
	.st2{fill:#263238;}
	.st3{fill:#455A64;}
	.st4{fill:#C7C7C7;}
	.st5{fill:#FFFFFF;}
	.st6{fill:#00C5CD;}
	.st7{fill:none;stroke:#C7C7C7;stroke-miterlimit:10;}
	.st8{fill:#DBDBDB;}
</style>
<rect x="172.2" y="95.2" class="st0" width="735.7" height="413.9"/>
<g id="freepik--Plant--inject-25">
	<path class="st1" d="M77.7,434c1.8,5.1,3.1,10.4,4,15.7c-0.1,0.3,0,1.2,0.1,1c0.1,0.9,1.4,0.6,1.4-0.2c0-0.6-0.1-1.1-0.2-1.7
		c2.8-4.1,7.1-6.9,10.6-10.5c2.8-2.9,4.6-6.4,5.5-10.3c2.2-10.6-1.4-21.5,1.5-32.1c2.4-9.2,7.5-17.4,11.7-25.9
		c4.4-9,7.4-18.2,7.1-28.3c-0.3-7.7-1.9-17.9-8.2-23.2c-6.7-5.7-14-0.5-18.4,5.3C80,340.6,75,361.1,74,381.7
		c-0.6,11.4-1.2,22.9,0,34.4C74.6,422.2,75.8,428.2,77.7,434z"/>
	<path class="st2" d="M81.8,453.9c-1.6-10.6-2.2-21.4-2-32.1v-0.1c-0.8-8.6-2.1-17.2-2.4-26c-0.3-9.4,0.3-18.8,1.8-28.1
		c0,0,0-0.1,0.1-0.1s0.1,0,0.1,0.1c-1,9.1-1.4,18.3-1,27.5c0.2,4.9,0.6,9.8,1.2,14.7c0.2,1.6,0.5,3.2,0.7,4.8l0,0
		c1.8-24.6,8.9-48.5,20.8-70.2c0.2-0.3,0.7,0,0.5,0.3c-8.4,16.4-14.2,34-17.3,52.2c5.7-12.8,15-23.6,21.6-36c0-0.1,0.1,0,0.1,0.1
		c-5.7,13.6-16,24.8-22,38.3c-0.8,5.4-1.4,10.8-1.8,16.2c-0.5,7.4-0.5,14.9,0,22.3c3.5-7.8,7.2-15.4,9.9-23.6
		c0.1-0.2,0.4-0.1,0.3,0.1c-2.2,8.5-5.3,17.7-10.1,25.2c0.4,5.2,0.9,10.5,1.6,15.7c1.9,14,5.3,27.6,7.3,41.5c0,0.2-0.1,0.3-0.3,0.4
		s-0.3-0.1-0.4-0.3C86.7,482.6,83.8,468.3,81.8,453.9z"/>
	<path class="st2" d="M88.8,344.7c0-0.1,0.2,0,0.2,0.1c-2,7.3-3,14.5-4.3,21.9c0,0.1-0.2,0.2-0.3,0.2c-0.1,0-0.2-0.1-0.2-0.2
		C84.3,359.3,86.4,351.7,88.8,344.7z"/>
	<path class="st1" d="M26,379.1c2,4,4.3,7.9,6.8,11.7c5.2,8,10.6,15.4,12.2,25c0.7,4.3,1.2,8.7,2.8,12.8c1.5,3.5,3.5,6.8,5.9,9.7
		c5.5,6.9,12.2,12.7,17.4,19.9c5.4,7.5,9.6,15.8,12.4,24.6c0.1,0.5,0.9,0.3,0.8-0.2v-0.1v-0.1c-0.8-20.9-4-41.9-11.9-61.4
		c-3.5-8.6-7.5-17-12-25.1c-3.9-7-8.7-13.7-15.1-18.6c-4.1-3.2-13.1-9.2-18.4-5.3C24.3,374,24.7,376.6,26,379.1z"/>
	<path class="st2" d="M50.4,425c4.1,5.8,8.6,11.3,13.5,16.6c2.2,2.5,4.4,5,6.7,7.5c1.1,1.2,2.2,2.4,3.2,3.7
		c-0.7-2.1-1.4-4.3-2.1-6.5c-3.5-10.4-6.8-20.8-11.6-30.7c-4.8-9.5-10.4-18.7-16.6-27.4c-0.2-0.2,0.2-0.4,0.4-0.2
		c4.9,6.9,10,13.9,14.2,21.2c2.4,4.1,4.5,8.4,6.3,12.8c-2.4-9.4-5.5-18.6-9.2-27.6c0-0.1,0.1-0.2,0.1-0.1c4.7,9,7.9,18.7,9.5,28.7
		l0,0c1.1,2.6,2.1,5.3,3.1,8c4.1,11.5,7.9,23.1,11.4,34.8c-0.5-7.8-1.7-15.5-3.7-23.1c0-0.1,0-0.1,0.1-0.2c0.1,0,0.1,0,0.2,0.1
		c2.6,7.8,3.9,16.1,3.8,24.3c1.4,4.4,2.7,8.9,3.9,13.3c2.8,9.5,6,19.1,7.9,28.8c0,0.1-0.1,0.2-0.2,0.2s-0.2,0-0.2-0.1
		c-1.8-5.2-3.1-10.6-4.6-15.8c-1.6-5.2-3.2-10.5-4.8-15.8c-2.4-7.6-4.8-15.2-7.3-22.9c-1.5-2.8-4.2-5.1-6.2-7.3
		c-2.2-2.5-4.5-4.9-6.7-7.4c-4.1-4.6-7.9-9.6-11.2-14.8C50.2,425,50.4,424.9,50.4,425z"/>
	<path class="st2" d="M48.9,416.1c5,5.5,9.5,11.6,13.3,18c0,0.1-0.1,0.2-0.1,0.1c-4.5-6-8.9-12-13.3-18
		C48.6,416.1,48.8,416,48.9,416.1z"/>
	<path class="st1" d="M136.5,391c-2.4,4.9-5,10.7-3.5,16.2c1,3.5,3.8,6.2,4.5,9.8c1.6,7.9-5.9,13.8-11.4,18
		c-13.7,10.5-32.7,20.3-33.9,39.7c0,0.7-1.2,0.6-1.2-0.1v-0.1c0,0-0.1,0-0.1-0.1c-2.6-9.6-3.2-19.5-1.9-29.4
		c1.4-10.1,5.1-19.3,9.5-28.4c7.6-15.4,15.6-31.1,27.8-43.3c3.4-3.4,10.4-9.5,13.8-2.7S139.4,385,136.5,391z"/>
	<path class="st2" d="M125.6,423.2c-8.8,11-23.5,17.9-30.8,30c3.6-18,10.4-34.5,21.8-49.2c0.1-0.2,0.1-0.4-0.1-0.5
		c-0.1-0.1-0.3-0.1-0.4,0c-8.1,9.1-14.4,19.8-18.4,31.4c1.7-8,4.1-15.8,7.2-23.4c0.1-0.3-0.3-0.5-0.4-0.2
		c-3.9,8.3-6.5,17.1-7.7,26.2c-8.9,26.9-7.6,57.6-3.4,85c0,0.4,0.7,0.4,0.6,0c-2.2-21.6-3.5-43.8,0.2-65.3c0.1-0.5,0.2-0.9,0.2-1.4
		c8-13.1,22.6-19.9,31.4-32.4C125.9,423.2,125.7,423,125.6,423.2z"/>
	<path class="st2" d="M127.2,414.1c-4.6,4.9-9.2,10-13.9,14.9c0,0,0,0.1,0.1,0.1c5.4-4.2,10.1-9.2,14.1-14.8
		c0.1-0.1,0.1-0.2,0.1-0.3s-0.2-0.1-0.3-0.1C127.2,414,127.2,414.1,127.2,414.1z"/>
	<path class="st2" d="M126.5,394.2c-3.9,7.6-8.4,14.8-13.5,21.6c0,0.1,0,0.2,0.1,0.1c5.8-6.4,10.4-13.7,13.6-21.6
		c0-0.1,0-0.2-0.1-0.2C126.6,394.2,126.5,394.2,126.5,394.2z"/>
	<polygon class="st3" points="113.1,548.9 65.7,548.9 72.1,485.2 105.8,485.2 	"/>
	<polygon class="st2" points="106.9,495.6 71,495.6 72.1,485.2 105.8,485.2 	"/>
	<rect x="67.2" y="478.1" class="st3" width="44.4" height="10.2"/>
</g>
<rect x="172.2" y="76.7" class="st3" width="736" height="18.6"/>
<path class="st4" d="M190.2,87.3c0,1.6-1.3,2.9-2.9,2.9c-1.6,0-2.9-1.3-2.9-2.9s1.3-2.9,2.9-2.9l0,0
	C188.9,84.4,190.2,85.7,190.2,87.3C190.2,87.2,190.2,87.2,190.2,87.3z"/>
<path class="st5" d="M202,87.3c0,1.6-1.3,2.9-2.9,2.9c-1.6,0-2.9-1.3-2.9-2.9s1.3-2.9,2.9-2.9l0,0C200.7,84.4,202,85.7,202,87.3z"/>
<circle class="st6" cx="210.8" cy="87.3" r="2.9"/>
<g id="freepik--Floor--inject-25">
	<polygon class="st2" points="38.4,549 137.6,548.7 236.8,548.6 435.2,548.3 633.6,548.6 732.8,548.7 832,549 732.8,549.3 
		633.6,549.4 435.2,549.6 236.8,549.4 137.6,549.3 	"/>
</g>
<g>
	<line class="st7" x1="969.3" y1="57.6" x2="969.3" y2="0"/>
	<polygon class="st1" points="1002.9,90 1000.2,95.9 938.3,95.9 935.7,90 962,71.8 976.6,71.8 	"/>
	<polygon class="st8" points="978.4,54.2 976.6,71.8 962,71.8 960.2,54.2 	"/>
	<polygon class="st8" points="1002.9,90 1000.2,95.9 938.3,95.9 935.6,90 	"/>
</g>
<image style="overflow:visible;" width="1920" height="1080" xlink:href="C:\Users\syamr\OneDrive\Pictures\Screenshots\Screenshot 2025-11-02 151725.png"  transform="matrix(0.3826 0 0 0.3826 172.9111 95.9)">
</image>
<g>
	<line class="st7" x1="85.7" y1="57.6" x2="85.7" y2="0"/>
	<polygon class="st1" points="119.4,90 116.7,95.9 54.7,95.9 52.2,90 78.4,71.8 93,71.8 	"/>
	<polygon class="st8" points="94.9,54.2 93,71.8 78.4,71.8 76.7,54.2 	"/>
	<polygon class="st8" points="119.4,90 116.7,95.9 54.7,95.9 52,90 	"/>
</g>
</svg>
