<?xml version="1.0" encoding="utf-8"?>
<!-- Generator: Adobe Illustrator 21.0.0, SVG Export Plug-In . SVG Version: 6.00 Build 0)  -->
<svg version="1.1" id="Layer_1" xmlns="http://www.w3.org/2000/svg" xmlns:xlink="http://www.w3.org/1999/xlink" x="0px" y="0px"
	 viewBox="0 0 24 24" style="enable-background:new 0 0 24 24;" xml:space="preserve">
<style type="text/css">
	.st0{fill:#2bc5b4;}
	.st1{fill:none;}
</style>
<path class="st0" d="M12,4V1L8,5l4,4V6c3.3,0,6,2.7,6,6c0,1-0.3,2-0.7,2.8l1.5,1.5C19.5,15,20,13.6,20,12C20,7.6,16.4,4,12,4z
	 M12,18c-3.3,0-6-2.7-6-6c0-1,0.3-2,0.7-2.8L5.2,7.7C4.5,9,4,10.4,4,12c0,4.4,3.6,8,8,8v3l4-4l-4-4V18z"/>
<path class="st1" d="M0,0h24v24H0V0z"/>
<path class="st0" d="M12.9,14.6V9.4H12l-1.7,0.9v0.9h1.3v3.5L12.9,14.6L12.9,14.6z"/>
</svg>
