<?xml version="1.0" encoding="utf-8"?>
<!-- Generator: Adobe Illustrator 26.5.0, SVG Export Plug-In . SVG Version: 6.00 Build 0)  -->
<svg version="1.1" id="Layer_1" xmlns="http://www.w3.org/2000/svg" xmlns:xlink="http://www.w3.org/1999/xlink" x="0px" y="0px"
	 viewBox="0 0 1080 1080" style="enable-background:new 0 0 1080 1080;" xml:space="preserve">
<style type="text/css">
	.st0{fill:none;stroke:url(#SVGID_1_);stroke-width:90;stroke-miterlimit:10;}
	.st1{fill:#5865F2;}
	.st2{fill:#1D98EE;}
	.st3{fill:#02CEDC;}
</style>
<linearGradient id="SVGID_1_" gradientUnits="userSpaceOnUse" x1="263.7096" y1="540" x2="1100.5157" y2="540">
	<stop  offset="0" style="stop-color:#1F92F1"/>
	<stop  offset="0.6438" style="stop-color:#09BDE3"/>
	<stop  offset="1" style="stop-color:#00CFDD"/>
</linearGradient>
<path class="st0" d="M1017.03,473.33L424.18,131.05c-51.32-29.63-115.47,7.41-115.47,66.67v684.56c0,59.26,64.15,96.29,115.47,66.67
	l592.85-342.28C1068.35,577.04,1068.35,502.96,1017.03,473.33z"/>
<circle class="st1" cx="882.02" cy="890.7" r="53.81"/>
<path class="st2" d="M151.98,641.65L151.98,641.65c5.4,0,9.77-4.37,9.77-9.77V450.4c0-5.4-4.37-9.77-9.77-9.77h0
	c-5.4,0-9.77,4.37-9.77,9.77v181.48C142.21,637.27,146.58,641.65,151.98,641.65z"/>
<path class="st3" d="M90.43,573.51L90.43,573.51c5.4,0,9.77-4.38,9.77-9.77v-45.2c0-5.4-4.38-9.77-9.77-9.77h0
	c-5.4,0-9.77,4.38-9.77,9.77v45.2C80.66,569.13,85.03,573.51,90.43,573.51z"/>
<path class="st3" d="M590.95,573.51L590.95,573.51c5.4,0,9.77-4.38,9.77-9.77v-45.2c0-5.4-4.38-9.77-9.77-9.77l0,0
	c-5.4,0-9.77,4.38-9.77,9.77v45.2C581.17,569.13,585.55,573.51,590.95,573.51z"/>
<path class="st2" d="M645,551.93h3.72c4.37,0,7.91-3.54,7.91-7.91v-5.75c0-4.37-3.54-7.91-7.91-7.91H645
	c-4.37,0-7.91,3.54-7.91,7.91v5.75C637.08,548.39,640.63,551.93,645,551.93z"/>
<path class="st2" d="M32.05,551.93h4.42c4.18,0,7.57-3.39,7.57-7.57v-6.45c0-4.18-3.39-7.57-7.57-7.57h-4.42
	c-4.18,0-7.57,3.39-7.57,7.57v6.45C24.48,548.54,27.87,551.93,32.05,551.93z"/>
<path class="st3" d="M213.25,614.47L213.25,614.47c5.4,0,9.77-4.37,9.77-9.77V477.58c0-5.4-4.37-9.77-9.77-9.77h0
	c-5.4,0-9.77,4.37-9.77,9.77V604.7C203.48,610.1,207.85,614.47,213.25,614.47z"/>
<path class="st2" d="M399.92,641.65L399.92,641.65c5.4,0,9.77-4.37,9.77-9.77V450.4c0-5.4-4.37-9.77-9.77-9.77h0
	c-5.4,0-9.77,4.37-9.77,9.77v181.48C390.15,637.27,394.53,641.65,399.92,641.65z"/>
<path class="st3" d="M463.96,723.17L463.96,723.17c5.4,0,9.77-4.38,9.77-9.77V368.88c0-5.4-4.38-9.77-9.77-9.77h0
	c-5.4,0-9.77,4.38-9.77,9.77V713.4C454.18,718.8,458.56,723.17,463.96,723.17z"/>
<path class="st2" d="M522.88,450.4v181.48c0,5.4,4.37,9.77,9.77,9.77l0,0c5.4,0,9.77-4.37,9.77-9.77V450.4
	c0-5.4-4.37-9.77-9.77-9.77l0,0C527.25,440.63,522.88,445,522.88,450.4z"/>
</svg>
