<?xml version="1.0" encoding="utf-8"?>
<!-- Generator: Adobe Illustrator 26.5.0, SVG Export Plug-In . SVG Version: 6.00 Build 0)  -->
<svg version="1.1" id="Layer_1" xmlns="http://www.w3.org/2000/svg" xmlns:xlink="http://www.w3.org/1999/xlink" x="0px" y="0px"
	 viewBox="0 0 1049.1 870.3" style="enable-background:new 0 0 1049.1 870.3;" xml:space="preserve">
<style type="text/css">
	.st0{fill:#03CDDC;}
	.st1{fill:url(#SVGID_1_);}
	.st2{fill:none;stroke:#FFFFFF;stroke-width:55;stroke-linecap:round;stroke-miterlimit:10;}
	.st3{fill:#00CCBC;}
</style>
<circle class="st0" cx="850.7" cy="755.9" r="49.6"/>
<linearGradient id="SVGID_1_" gradientUnits="userSpaceOnUse" x1="264.37" y1="436.8557" x2="1049.0825" y2="436.8557" gradientTransform="matrix(1 0 0 -1 0 872)">
	<stop  offset="0" style="stop-color:#03CDDC"/>
	<stop  offset="0.5" style="stop-color:#6666BF"/>
	<stop  offset="1" style="stop-color:#FB2962"/>
</linearGradient>
<path class="st1" d="M990.6,333.9l-550.9-318c-78-45-175.4,11.2-175.4,101.3v636.1c0,90,97.4,146.3,175.4,101.3l550.9-318
	C1068.6,491.4,1068.6,378.9,990.6,333.9L990.6,333.9z"/>
<path class="st2" d="M121.9,471.1c39.6,8.1,41.3,29.3,50.9,63.1c7.2,25.5,10,61.2,34.7,76c9.9,6,26.5,5,30.2,1.8
	c14.6-12.6,14.9-33.2,18.6-49.7c15.6-69.7,29.3-139.8,43-210c6.2-31.8,16.8-60.3,54.2-60.4c37.6-0.1,48,27.9,53.4,60.3
	c17,102,35,203.9,52.4,305.8c0,0.2,0.1,0.4,0.1,0.6c3.9,23.2,36.1,17.6,40-0.1c1.1-5.2,2.6-10.4,3.6-15.5
	c23.9-117.9,46.4-236.1,69.6-354.2c6.7-34,13.2-69.2,58.3-69.2c42.6,0,48.5,38.1,54.3,72.2c16.9,98.2,35.2,196.2,51.2,294.6"/>
<circle class="st3" cx="30.8" cy="472.3" r="30.8"/>
</svg>
