<?xml version="1.0" encoding="UTF-8"?>
<svg id="Layer_1" data-name="Layer 1" xmlns="http://www.w3.org/2000/svg" xmlns:xlink="http://www.w3.org/1999/xlink" viewBox="0 0 1918.98 744.64">
  <defs>
    <linearGradient id="linear-gradient" x1="462.07" y1="688.33" x2="462.07" y2="660.13" gradientUnits="userSpaceOnUse">
      <stop offset="0" stop-color="#05a9bc"/>
      <stop offset="1" stop-color="#0cc"/>
    </linearGradient>
    <linearGradient id="linear-gradient-2" x1="800.29" y1="266.27" x2="1280.46" y2="266.27" gradientUnits="userSpaceOnUse">
      <stop offset="0" stop-color="#0cc"/>
      <stop offset="1" stop-color="#05a9bc"/>
    </linearGradient>
    <filter id="drop-shadow-1" filterUnits="userSpaceOnUse">
      <feOffset dx="7" dy="7"/>
      <feGaussianBlur result="blur" stdDeviation="5"/>
      <feFlood flood-color="#000" flood-opacity=".15"/>
      <feComposite in2="blur" operator="in"/>
      <feComposite in="SourceGraphic"/>
    </filter>
  </defs>
  <g>
    <path d="M148.33,741.54h-24.57v-87.38h-.78l-38.87,87.38h-20.37l-39.49-88.63h-.78v88.63H0v-111.02H39.49l34.21,78.68h.62l33.9-78.68h40.11v111.02Z" style="fill: #fff;"/>
    <path d="M172.12,741.54v-111.02h24.57v111.02h-24.57Z" style="fill: #fff;"/>
    <path d="M347.66,741.54h-32.65l-36.23-41.36-36.07,41.36h-32.5l52.71-58.62-47.73-52.4h31.72l32.19,36.54,32.65-36.54h31.1l-47.73,52.4,52.55,58.62Z" style="fill: #fff;"/>
    <path d="M462.21,713.7h.78l42.49-83.18h28.14l-58.04,111.02h-26.43l-58.04-111.02h28.45l42.65,83.18Z" style="fill: #fff;"/>
    <path d="M553.83,741.54v-111.02h24.57v111.02h-24.57Z" style="fill: #fff;"/>
    <path d="M720.75,690.92c3.06,4.2,4.59,10.44,4.59,18.74,0,10.78-3.06,18.79-9.17,24.02-6.12,5.24-15.76,7.85-28.92,7.85h-84.9v-111.02h83.18c23.94,0,35.92,9.54,35.92,28.61,0,5.91-1.14,10.73-3.42,14.46-2.28,3.73-5.55,6.32-9.8,7.77v.78c5.29,1.66,9.46,4.59,12.52,8.79Zm-29.7-18.66c2.43-2.12,3.65-5.42,3.65-9.87s-1.22-7.88-3.65-9.95c-2.44-2.07-6.25-3.11-11.43-3.11h-52.71v26.12h52.71c5.18,0,8.99-1.06,11.43-3.19Zm3.27,46.88c2.75-2.38,4.12-6.17,4.12-11.35s-1.38-8.99-4.12-11.43c-2.75-2.43-7.13-3.65-13.14-3.65h-54.26v30.01h54.26c6.01,0,10.39-1.19,13.14-3.58Z" style="fill: #fff;"/>
    <path d="M769.49,674.68h81.32v18.66h-81.32v28.61h86.14v19.59h-110.71v-111.02h108.68v19.59h-84.12v24.57Z" style="fill: #fff;"/>
    <path d="M1057.29,741.54h-28.61l-25.5-42.29h-48.51v42.29h-24.57v-111.02h84.74c13.99,0,24.18,2.72,30.55,8.16,6.38,5.44,9.56,14.07,9.56,25.89,0,9.54-2.33,16.71-7,21.53-4.67,4.82-10.88,7.96-18.66,9.41v.93l27.99,45.09Zm-33.51-65.38c2.64-2.33,3.96-5.93,3.96-10.81s-1.32-8.47-3.96-10.81c-2.64-2.33-6.82-3.5-12.52-3.5h-56.6v28.61h56.6c5.7,0,9.87-1.17,12.52-3.5Z" style="fill: #e5e5e5;"/>
    <path d="M1099.27,674.68h81.32v18.66h-81.32v28.61h86.14v19.59h-110.71v-111.02h108.68v19.59h-84.12v24.57Z" style="fill: #e5e5e5;"/>
    <path d="M1295.18,654.77c-6.22-4.56-15.03-6.84-26.43-6.84-12.96,0-23.12,3.24-30.48,9.72-7.36,6.48-11.04,15.94-11.04,28.38s3.68,21.9,11.04,28.38c7.36,6.48,17.52,9.72,30.48,9.72,11.71,0,20.65-2.38,26.82-7.15,6.17-4.77,9.51-11.09,10.03-18.97h29.23c-.21,9.64-2.98,17.96-8.32,24.96-5.34,7-12.91,12.36-22.7,16.09-9.79,3.73-21.48,5.6-35.06,5.6s-25.68-2.18-36-6.53c-10.32-4.35-18.32-10.91-24.02-19.67-5.7-8.76-8.55-19.56-8.55-32.42s2.85-23.66,8.55-32.42c5.7-8.76,13.71-15.32,24.02-19.67,10.31-4.35,22.31-6.53,36-6.53s25.06,1.81,34.75,5.44c9.69,3.63,17.15,8.78,22.39,15.47,5.23,6.69,8.11,14.49,8.63,23.4h-28.92c-.73-6.74-4.2-12.39-10.42-16.95Z" style="fill: #e5e5e5;"/>
    <path d="M1471.5,642.26c12.54,9.9,18.81,24.49,18.81,43.77s-6.27,33.87-18.81,43.77c-12.54,9.9-29.7,14.85-51.47,14.85s-38.92-4.95-51.46-14.85c-12.54-9.9-18.81-24.49-18.81-43.77s6.27-33.87,18.81-43.77c12.54-9.9,29.7-14.85,51.46-14.85s38.92,4.95,51.47,14.85Zm-19.59,72.22c7.56-6.43,11.35-15.91,11.35-28.45s-3.79-22.03-11.35-28.45c-7.57-6.43-18.19-9.64-31.88-9.64s-24.31,3.21-31.87,9.64c-7.57,6.43-11.35,15.91-11.35,28.45s3.78,22.03,11.35,28.45c7.57,6.43,18.19,9.64,31.87,9.64s24.31-3.21,31.88-9.64Z" style="fill: #e5e5e5;"/>
    <path d="M1636.93,741.54h-28.61l-25.5-42.29h-48.51v42.29h-24.57v-111.02h84.74c13.99,0,24.18,2.72,30.55,8.16,6.38,5.44,9.56,14.07,9.56,25.89,0,9.54-2.33,16.71-7,21.53-4.67,4.82-10.88,7.96-18.66,9.41v.93l27.99,45.09Zm-33.51-65.38c2.64-2.33,3.96-5.93,3.96-10.81s-1.32-8.47-3.96-10.81c-2.64-2.33-6.82-3.5-12.52-3.5h-56.6v28.61h56.6c5.7,0,9.87-1.17,12.52-3.5Z" style="fill: #e5e5e5;"/>
    <path d="M1765.67,643.89c10.16,8.92,15.24,22.96,15.24,42.14s-5.08,33.22-15.24,42.14c-10.16,8.92-24.93,13.37-44.31,13.37h-67.01v-111.02h67.01c19.38,0,34.15,4.46,44.31,13.37Zm-86.76,6.53v71.21h37.16c25.19,0,37.78-11.87,37.78-35.61s-12.59-35.61-37.78-35.61h-37.16Z" style="fill: #e5e5e5;"/>
    <path d="M1878.32,649.95c-5.75-2.69-13.92-4.04-24.49-4.04-19.8,0-29.7,4.77-29.7,14.3,0,3.84,1.35,6.58,4.04,8.24,2.69,1.66,7.05,2.8,13.06,3.42l41.98,3.73c11.61,1.04,20.47,4.07,26.59,9.1,6.12,5.03,9.17,12.88,9.17,23.56,0,13.27-5.34,22.65-16.01,28.14-10.68,5.49-26.43,8.24-47.27,8.24s-35.66-2.98-46.33-8.94c-10.68-5.96-16.22-16.45-16.64-31.49h27.52c.62,8.29,3.96,13.97,10.03,17.03,6.06,3.06,14.85,4.59,26.35,4.59,22.7,0,34.05-5.29,34.05-15.86,0-4.56-1.43-7.83-4.28-9.8-2.85-1.97-7.02-3.21-12.52-3.73l-41.83-4.2c-11.71-1.14-20.6-4.04-26.67-8.71-6.06-4.66-9.1-11.92-9.1-21.77,0-22.91,19.38-34.36,58.15-34.36,18.86,0,33.61,2.8,44.24,8.4,10.62,5.6,16.14,15.03,16.56,28.3h-27.52c-.52-6.74-3.65-11.45-9.41-14.15Z" style="fill: #e5e5e5;"/>
    <path d="M462.76,687.93l15.36-26.61c.31-.53-.08-1.2-.69-1.2h-30.72c-.61,0-1,.66-.69,1.2l15.36,26.61c.31,.53,1.07,.53,1.38,0Z" style="fill: url(#linear-gradient);"/>
  </g>
  <g>
    <circle cx="1159.06" cy="462.53" r="30.33" style="fill: #05a9bc;"/>
    <path d="M1244.69,204.31L907.61,9.69c-47.7-27.54-107.32,6.88-107.32,61.96V460.88c0,55.07,59.62,89.5,107.32,61.96l337.08-194.62c47.7-27.54,47.7-96.38,0-123.92Z" style="fill: url(#linear-gradient-2);"/>
    <path d="M713.09,288.25c24.23,4.94,25.3,17.9,31.17,38.6,4.41,15.58,6.13,37.42,21.25,46.52,6.08,3.66,16.2,3.05,18.48,1.08,8.91-7.68,9.11-20.33,11.36-30.41,9.52-42.66,17.94-85.57,26.29-128.48,3.79-19.45,10.26-36.92,33.16-36.99,23.01-.06,29.38,17.09,32.68,36.92,10.37,62.43,21.38,124.74,32.07,187.12,.02,.12,.04,.24,.06,.36,2.4,14.23,22.09,10.77,24.45-.09,.69-3.16,1.61-6.36,2.24-9.45,14.61-72.16,28.39-144.48,42.59-216.73,4.09-20.79,8.08-42.32,35.68-42.32,26.05,0,29.65,23.29,33.24,44.17,10.34,60.1,21.57,120.05,31.36,180.25" style="fill: none; filter: url(#drop-shadow-1); stroke: #fff; stroke-linecap: round; stroke-miterlimit: 10; stroke-width: 33px;"/>
    <circle cx="657.38" cy="289.02" r="18.86" style="fill: #0cc;"/>
  </g>
</svg>