<?xml version="1.0" encoding="utf-8"?>
<!-- Generator: Adobe Illustrator 26.5.0, SVG Export Plug-In . SVG Version: 6.00 Build 0)  -->
<svg version="1.1" id="Layer_1" xmlns="http://www.w3.org/2000/svg" xmlns:xlink="http://www.w3.org/1999/xlink" x="0px" y="0px"
	 viewBox="0 0 1919 744.6" style="enable-background:new 0 0 1919 744.6;" xml:space="preserve">
<style type="text/css">
	.st0{fill:#80807E;}
	.st1{fill:url(#SVGID_1_);}
	.st2{fill:#05A9BC;}
	.st3{fill:url(#SVGID_00000064336336531264756950000013747621698305102729_);}
	.st4{fill:none;stroke:#FFFFFF;stroke-width:33;stroke-linecap:round;stroke-miterlimit:10;}
	.st5{fill:#00CCCC;}
</style>
<g>
	<path class="st0" d="M148.3,741.5h-24.6v-87.4H123l-38.9,87.4H63.7l-39.5-88.6h-0.8v88.6H0v-111h39.5l34.2,78.7h0.6l33.9-78.7h40.1
		V741.5z"/>
	<path class="st0" d="M172.1,741.5v-111h24.6v111H172.1z"/>
	<path class="st0" d="M347.7,741.5H315l-36.2-41.4l-36.1,41.4h-32.5l52.7-58.6l-47.7-52.4h31.7l32.2,36.5l32.6-36.5h31.1l-47.7,52.4
		L347.7,741.5L347.7,741.5z"/>
	<path class="st0" d="M462.2,713.7h0.8l42.5-83.2h28.1l-58,111h-26.4l-58-111h28.5L462.2,713.7z"/>
	<path class="st0" d="M553.8,741.5v-111h24.6v111H553.8z"/>
	<path class="st0" d="M720.8,690.9c3.1,4.2,4.6,10.4,4.6,18.7c0,10.8-3.1,18.8-9.2,24c-6.1,5.2-15.8,7.8-28.9,7.8h-84.9v-111h83.2
		c23.9,0,35.9,9.5,35.9,28.6c0,5.9-1.1,10.7-3.4,14.5c-2.3,3.7-5.5,6.3-9.8,7.8v0.8C713.5,683.8,717.7,686.7,720.8,690.9
		L720.8,690.9z M691,672.3c2.4-2.1,3.7-5.4,3.7-9.9s-1.2-7.9-3.7-10c-2.4-2.1-6.2-3.1-11.4-3.1h-52.7v26.1h52.7
		C684.8,675.5,688.6,674.4,691,672.3z M694.3,719.1c2.8-2.4,4.1-6.2,4.1-11.3s-1.4-9-4.1-11.4c-2.8-2.4-7.1-3.7-13.1-3.7h-54.3v30
		h54.3C687.2,722.7,691.6,721.5,694.3,719.1z"/>
	<path class="st0" d="M769.5,674.7h81.3v18.7h-81.3v28.6h86.1v19.6H744.9v-111h108.7v19.6h-84.1L769.5,674.7L769.5,674.7z"/>
	<path class="st0" d="M1057.3,741.5h-28.6l-25.5-42.3h-48.5v42.3h-24.6v-111h84.7c14,0,24.2,2.7,30.5,8.2c6.4,5.4,9.6,14.1,9.6,25.9
		c0,9.5-2.3,16.7-7,21.5s-10.9,8-18.7,9.4v0.9L1057.3,741.5L1057.3,741.5z M1023.8,676.2c2.6-2.3,4-5.9,4-10.8s-1.3-8.5-4-10.8
		c-2.6-2.3-6.8-3.5-12.5-3.5h-56.6v28.6h56.6C1017,679.6,1021.1,678.5,1023.8,676.2L1023.8,676.2z"/>
	<path class="st0" d="M1099.3,674.7h81.3v18.7h-81.3v28.6h86.1v19.6h-110.7v-111h108.7v19.6h-84.1L1099.3,674.7L1099.3,674.7z"/>
	<path class="st0" d="M1295.2,654.8c-6.2-4.6-15-6.8-26.4-6.8c-13,0-23.1,3.2-30.5,9.7s-11,15.9-11,28.4s3.7,21.9,11,28.4
		s17.5,9.7,30.5,9.7c11.7,0,20.7-2.4,26.8-7.2c6.2-4.8,9.5-11.1,10-19h29.2c-0.2,9.6-3,18-8.3,25s-12.9,12.4-22.7,16.1
		c-9.8,3.7-21.5,5.6-35.1,5.6s-25.7-2.2-36-6.5c-10.3-4.3-18.3-10.9-24-19.7c-5.7-8.8-8.6-19.6-8.6-32.4s2.8-23.7,8.6-32.4
		c5.7-8.8,13.7-15.3,24-19.7s22.3-6.5,36-6.5s25.1,1.8,34.8,5.4s17.2,8.8,22.4,15.5c5.2,6.7,8.1,14.5,8.6,23.4h-28.9
		C1304.9,665,1301.4,659.3,1295.2,654.8L1295.2,654.8z"/>
	<path class="st0" d="M1471.5,642.3c12.5,9.9,18.8,24.5,18.8,43.8s-6.3,33.9-18.8,43.8s-29.7,14.8-51.5,14.8s-38.9-5-51.5-14.8
		c-12.5-9.9-18.8-24.5-18.8-43.8s6.3-33.9,18.8-43.8s29.7-14.8,51.5-14.8S1459,632.4,1471.5,642.3z M1451.9,714.5
		c7.6-6.4,11.3-15.9,11.3-28.5s-3.8-22-11.3-28.5c-7.6-6.4-18.2-9.6-31.9-9.6s-24.3,3.2-31.9,9.6c-7.6,6.4-11.3,15.9-11.3,28.5
		s3.8,22,11.3,28.5c7.6,6.4,18.2,9.6,31.9,9.6S1444.3,720.9,1451.9,714.5z"/>
	<path class="st0" d="M1636.9,741.5h-28.6l-25.5-42.3h-48.5v42.3h-24.6v-111h84.7c14,0,24.2,2.7,30.6,8.2c6.4,5.4,9.6,14.1,9.6,25.9
		c0,9.5-2.3,16.7-7,21.5s-10.9,8-18.7,9.4v0.9L1636.9,741.5L1636.9,741.5z M1603.4,676.2c2.6-2.3,4-5.9,4-10.8s-1.3-8.5-4-10.8
		c-2.6-2.3-6.8-3.5-12.5-3.5h-56.6v28.6h56.6C1596.6,679.6,1600.8,678.5,1603.4,676.2L1603.4,676.2z"/>
	<path class="st0" d="M1765.7,643.9c10.2,8.9,15.2,23,15.2,42.1s-5.1,33.2-15.2,42.1c-10.2,8.9-24.9,13.4-44.3,13.4h-67v-111h67
		C1740.7,630.5,1755.5,635,1765.7,643.9z M1678.9,650.4v71.2h37.2c25.2,0,37.8-11.9,37.8-35.6s-12.6-35.6-37.8-35.6L1678.9,650.4
		L1678.9,650.4z"/>
	<path class="st0" d="M1878.3,650c-5.8-2.7-13.9-4-24.5-4c-19.8,0-29.7,4.8-29.7,14.3c0,3.8,1.3,6.6,4,8.2c2.7,1.7,7.1,2.8,13.1,3.4
		l42,3.7c11.6,1,20.5,4.1,26.6,9.1c6.1,5,9.2,12.9,9.2,23.6c0,13.3-5.3,22.7-16,28.1c-10.7,5.5-26.4,8.2-47.3,8.2s-35.7-3-46.3-8.9
		c-10.7-6-16.2-16.5-16.6-31.5h27.5c0.6,8.3,4,14,10,17c6.1,3.1,14.8,4.6,26.3,4.6c22.7,0,34.1-5.3,34.1-15.9c0-4.6-1.4-7.8-4.3-9.8
		s-7-3.2-12.5-3.7l-41.8-4.2c-11.7-1.1-20.6-4-26.7-8.7c-6.1-4.7-9.1-11.9-9.1-21.8c0-22.9,19.4-34.4,58.2-34.4
		c18.9,0,33.6,2.8,44.2,8.4c10.6,5.6,16.1,15,16.6,28.3h-27.5C1887.2,657.4,1884.1,652.7,1878.3,650L1878.3,650z"/>
	
		<linearGradient id="SVGID_1_" gradientUnits="userSpaceOnUse" x1="462.07" y1="57.6725" x2="462.07" y2="85.88" gradientTransform="matrix(1 0 0 -1 0 746)">
		<stop  offset="0" style="stop-color:#05A9BC"/>
		<stop  offset="1" style="stop-color:#00CCCC"/>
	</linearGradient>
	<path class="st1" d="M462.8,687.9l15.4-26.6c0.3-0.5-0.1-1.2-0.7-1.2h-30.7c-0.6,0-1,0.7-0.7,1.2l15.4,26.6
		C461.7,688.5,462.4,688.5,462.8,687.9L462.8,687.9z"/>
</g>
<g>
	<circle class="st2" cx="1159.1" cy="462.5" r="30.3"/>
	
		<linearGradient id="SVGID_00000068679553821139070330000017134701266979014784_" gradientUnits="userSpaceOnUse" x1="800.29" y1="479.7357" x2="1280.4648" y2="479.7357" gradientTransform="matrix(1 0 0 -1 0 746)">
		<stop  offset="0" style="stop-color:#00CCCC"/>
		<stop  offset="1" style="stop-color:#05A9BC"/>
	</linearGradient>
	<path style="fill:url(#SVGID_00000068679553821139070330000017134701266979014784_);" d="M1244.7,204.3L907.6,9.7
		c-47.7-27.5-107.3,6.9-107.3,62v389.2c0,55.1,59.6,89.5,107.3,62l337.1-194.6C1292.4,300.7,1292.4,231.8,1244.7,204.3L1244.7,204.3
		z"/>
	<path class="st4" d="M713.1,288.2c24.2,4.9,25.3,17.9,31.2,38.6c4.4,15.6,6.1,37.4,21.2,46.5c6.1,3.7,16.2,3,18.5,1.1
		c8.9-7.7,9.1-20.3,11.4-30.4c9.5-42.7,17.9-85.6,26.3-128.5c3.8-19.4,10.3-36.9,33.2-37c23-0.1,29.4,17.1,32.7,36.9
		c10.4,62.4,21.4,124.7,32.1,187.1c0,0.1,0,0.2,0.1,0.4c2.4,14.2,22.1,10.8,24.5-0.1c0.7-3.2,1.6-6.4,2.2-9.5
		c14.6-72.2,28.4-144.5,42.6-216.7c4.1-20.8,8.1-42.3,35.7-42.3c26.1,0,29.7,23.3,33.2,44.2c10.3,60.1,21.6,120.1,31.4,180.3"/>
	<circle class="st5" cx="657.4" cy="289" r="18.9"/>
</g>
</svg>
