<?xml version="1.0" encoding="UTF-8"?>
<svg id="Layer_1" data-name="Layer 1" xmlns="http://www.w3.org/2000/svg" xmlns:xlink="http://www.w3.org/1999/xlink" viewBox="0 0 1226.76 263.56">
  <defs>
    <style>
      .cls-1 {
        fill: url(#linear-gradient-2);
      }

      .cls-2 {
        fill: #fff;
      }

      .cls-3 {
        filter: url(#drop-shadow-1);
      }

      .cls-4 {
        fill: #e5e5e5;
      }

      .cls-5 {
        fill: url(#linear-gradient-3);
      }

      .cls-6 {
        fill: url(#linear-gradient);
      }

      .cls-7 {
        fill: url(#linear-gradient-4);
      }
    </style>
    <linearGradient id="linear-gradient" x1="238.42" y1="228.91" x2="268.44" y2="228.91" gradientUnits="userSpaceOnUse">
      <stop offset="0" stop-color="#1f92f1"/>
      <stop offset=".64" stop-color="#09bce3"/>
      <stop offset="1" stop-color="#00cfdd"/>
    </linearGradient>
    <linearGradient id="linear-gradient-2" x1="75.87" y1="131.78" x2="313.51" y2="131.78" gradientUnits="userSpaceOnUse">
      <stop offset="0" stop-color="#1f92f1"/>
      <stop offset=".47" stop-color="#0fb2e6"/>
      <stop offset=".65" stop-color="#09bce2"/>
      <stop offset="1" stop-color="#00cfdd"/>
    </linearGradient>
    <filter id="drop-shadow-1" filterUnits="userSpaceOnUse">
      <feOffset dx="7" dy="7"/>
      <feGaussianBlur result="blur" stdDeviation="5"/>
      <feFlood flood-color="#000" flood-opacity=".1"/>
      <feComposite in2="blur" operator="in"/>
      <feComposite in="SourceGraphic"/>
    </filter>
    <linearGradient id="linear-gradient-3" x1="0" y1="131.5" x2="18.84" y2="131.5" xlink:href="#linear-gradient"/>
    <linearGradient id="linear-gradient-4" x1="817.15" y1="80.19" x2="833.31" y2="52.2" xlink:href="#linear-gradient"/>
  </defs>
  <path class="cls-4" d="M1207.62,181.06c-2.71-1.27-6.55-1.9-11.53-1.9-9.32,0-13.99,2.25-13.99,6.74,0,1.81,.63,3.1,1.9,3.88,1.27,.78,3.32,1.32,6.15,1.61l19.77,1.76c5.47,.49,9.64,1.92,12.52,4.28,2.88,2.37,4.32,6.07,4.32,11.09,0,6.25-2.51,10.67-7.54,13.25-5.03,2.59-12.45,3.88-22.26,3.88s-16.79-1.4-21.82-4.21c-5.03-2.81-7.64-7.75-7.83-14.83h12.96c.29,3.91,1.87,6.58,4.72,8.02,2.86,1.44,6.99,2.16,12.41,2.16,10.69,0,16.04-2.49,16.04-7.47,0-2.15-.67-3.69-2.01-4.61-1.34-.93-3.31-1.51-5.89-1.76l-19.7-1.98c-5.52-.54-9.7-1.9-12.56-4.1-2.86-2.2-4.28-5.61-4.28-10.25,0-10.79,9.13-16.18,27.39-16.18,8.88,0,15.83,1.32,20.83,3.95,5,2.64,7.6,7.08,7.8,13.33h-12.96c-.24-3.17-1.72-5.39-4.43-6.66Z"/>
  <g>
    <g>
      <circle class="cls-6" cx="253.43" cy="228.91" r="15.01"/>
      <path class="cls-1" d="M295.81,101.11L128.98,4.8c-23.61-13.63-53.11,3.41-53.11,30.66V228.1c0,27.26,29.51,44.29,53.11,30.66l166.83-96.32c23.61-13.63,23.61-47.7,0-61.33Z"/>
      <g class="cls-3">
        <path class="cls-2" d="M186.13,85.81c-6.46,31.74-12.93,72.57-19.37,104.31-.57,2.79-.77,5.66-1.47,8.42-2.79,11.09-9.07,18.78-21.34,18.12-11.17-.59-17.27-7.54-19.16-18.45-4.39-25.26-8.85-50.5-13.34-75.74-.77-4.3-1.6-8.59-2.96-12.91-.88-2.8-4.92-2.62-5.54,.26-3.79,17.44-7.7,34.87-11.04,52.4-2.51,13.18-7.92,22.96-22.83,22.8-15.07-.16-19.87-10.73-22.4-23.51-1.81-9.17-1.4-19.58-12.7-24.2-3.06-1.25-4.49-5.18-2.85-8.89,1.84-4.17,5.37-5.88,9.72-5.4,11.2,1.24,16.54,8.44,19.48,18.68,2.21,7.71,1.26,16.63,6.8,23.44,.93,1.14,2.61,1.38,3.81,.54,5.31-3.73,4.57-10.06,5.69-15.05,4.77-21.11,8.99-42.35,13.18-63.59,1.9-9.63,5.15-18.27,16.62-18.31,11.54-.03,14.73,8.46,16.38,18.27,5.2,30.9,10.72,61.74,16.08,92.61,.81,4.68,1.14,9.51,3.46,14.36,1,2.09,3.98,2.18,5.08,.14,3.4-6.25,3.61-12.91,4.87-19.04,7.32-35.71,14.24-71.51,21.35-107.26,2.05-10.29,4.05-21.28,17.89-20.95,13.93,.34,14.87,11.53,16.67,21.86,5.18,29.75,10.81,59.42,15.72,89.21,1.1,6.65,5.18,16.69-5.34,18.61-10.4,1.89-10.17-8.28-11.45-15.35-3.99-22.05-7.93-53.2-11.87-75.26-3.08-8.96-8.23-4.42-9.15-.11Z"/>
        <path class="cls-5" d="M18.84,131.64c-.88,5.77-4.1,9.12-10.07,8.89-5.15-.2-8.47-3.34-8.75-8.36-.32-5.87,3.06-9.5,9.03-9.71,6.05-.22,9.05,3.39,9.79,9.18Z"/>
      </g>
    </g>
    <path class="cls-4" d="M424.96,224.19h-13.47l-12.01-19.92h-22.85v19.92h-11.57v-52.28h39.91c6.59,0,11.39,1.28,14.39,3.84,3,2.56,4.5,6.63,4.5,12.19,0,4.49-1.1,7.87-3.29,10.14-2.2,2.27-5.13,3.75-8.79,4.43v.44l13.18,21.24Zm-15.78-30.79c1.24-1.1,1.87-2.79,1.87-5.09s-.62-3.99-1.87-5.09c-1.24-1.1-3.21-1.65-5.89-1.65h-26.65v13.47h26.65c2.68,0,4.65-.55,5.89-1.65Z"/>
    <path class="cls-4" d="M500.73,192.71h38.3v8.79h-38.3v13.47h40.57v9.23h-52.14v-52.28h51.18v9.23h-39.61v11.57Z"/>
    <path class="cls-4" d="M662.99,183.33c-2.93-2.15-7.08-3.22-12.45-3.22-6.1,0-10.89,1.53-14.35,4.58-3.47,3.05-5.2,7.51-5.2,13.36s1.73,10.31,5.2,13.36c3.47,3.05,8.25,4.58,14.35,4.58,5.52,0,9.73-1.12,12.63-3.37,2.9-2.24,4.48-5.22,4.72-8.93h13.77c-.1,4.54-1.4,8.46-3.92,11.75-2.51,3.29-6.08,5.82-10.69,7.58-4.61,1.76-10.12,2.64-16.51,2.64s-12.09-1.03-16.95-3.08c-4.86-2.05-8.63-5.14-11.31-9.26-2.68-4.12-4.03-9.21-4.03-15.27s1.34-11.14,4.03-15.27c2.68-4.12,6.46-7.21,11.31-9.26,4.86-2.05,10.51-3.08,16.95-3.08s11.8,.85,16.37,2.56c4.56,1.71,8.08,4.14,10.54,7.29,2.46,3.15,3.82,6.82,4.06,11.02h-13.62c-.34-3.17-1.98-5.83-4.91-7.98Z"/>
    <path class="cls-4" d="M816.03,177.44c5.91,4.66,8.86,11.53,8.86,20.61s-2.95,15.95-8.86,20.61c-5.91,4.66-13.99,6.99-24.24,6.99s-18.33-2.33-24.24-6.99c-5.91-4.66-8.86-11.53-8.86-20.61s2.95-15.95,8.86-20.61c5.91-4.66,13.99-6.99,24.24-6.99s18.33,2.33,24.24,6.99Zm-9.23,34.01c3.56-3.03,5.34-7.49,5.34-13.4s-1.78-10.37-5.34-13.4c-3.56-3.03-8.57-4.54-15.01-4.54s-11.45,1.51-15.01,4.54c-3.56,3.03-5.35,7.49-5.35,13.4s1.78,10.37,5.35,13.4c3.56,3.03,8.57,4.54,15.01,4.54s11.45-1.51,15.01-4.54Z"/>
    <path class="cls-4" d="M963.94,224.19h-13.47l-12.01-19.92h-22.85v19.92h-11.57v-52.28h39.91c6.59,0,11.39,1.28,14.39,3.84,3,2.56,4.5,6.63,4.5,12.19,0,4.49-1.1,7.87-3.29,10.14-2.2,2.27-5.13,3.75-8.79,4.43v.44l13.18,21.24Zm-15.78-30.79c1.24-1.1,1.87-2.79,1.87-5.09s-.62-3.99-1.87-5.09c-1.24-1.1-3.21-1.65-5.89-1.65h-26.65v13.47h26.65c2.68,0,4.65-.55,5.89-1.65Z"/>
    <path class="cls-4" d="M1084.57,178.21c4.78,4.2,7.18,10.81,7.18,19.84s-2.39,15.65-7.18,19.84c-4.78,4.2-11.74,6.3-20.87,6.3h-31.56v-52.28h31.56c9.13,0,16.08,2.1,20.87,6.3Zm-40.86,3.08v33.54h17.5c11.86,0,17.79-5.59,17.79-16.77s-5.93-16.77-17.79-16.77h-17.5Z"/>
    <g>
      <path class="cls-2" d="M515.33,140.16h-24.57V52.77h-.78l-38.87,87.38h-20.37l-39.49-88.63h-.78v88.63h-23.48V29.14h39.49l34.21,78.68h.62l33.9-78.68h40.11v111.02Z"/>
      <path class="cls-2" d="M539.12,140.16V29.14h24.57v111.02h-24.57Z"/>
      <path class="cls-2" d="M714.67,140.16h-32.65l-36.23-41.36-36.07,41.36h-32.5l52.71-58.62-47.73-52.4h31.72l32.19,36.54,32.65-36.54h31.1l-47.73,52.4,52.55,58.62Z"/>
      <path class="cls-2" d="M829.21,112.32h.78l42.49-83.18h28.14l-58.04,111.02h-26.43l-58.04-111.02h28.45l42.65,83.18Z"/>
      <path class="cls-2" d="M920.84,140.16V29.14h24.57v111.02h-24.57Z"/>
      <path class="cls-2" d="M1087.75,89.55c3.06,4.2,4.59,10.44,4.59,18.74,0,10.78-3.06,18.79-9.17,24.02-6.12,5.24-15.76,7.85-28.92,7.85h-84.9V29.14h83.18c23.94,0,35.92,9.54,35.92,28.61,0,5.91-1.14,10.73-3.42,14.46-2.28,3.73-5.55,6.32-9.8,7.77v.78c5.29,1.66,9.46,4.59,12.52,8.79Zm-29.7-18.66c2.43-2.12,3.65-5.42,3.65-9.87s-1.22-7.88-3.65-9.95c-2.44-2.07-6.25-3.11-11.43-3.11h-52.71v26.12h52.71c5.18,0,8.99-1.06,11.43-3.19Zm3.27,46.88c2.75-2.38,4.12-6.17,4.12-11.35s-1.38-8.99-4.12-11.43c-2.75-2.43-7.13-3.65-13.14-3.65h-54.26v30.01h54.26c6.01,0,10.39-1.19,13.14-3.58Z"/>
      <path class="cls-2" d="M1136.49,73.3h81.32v18.66h-81.32v28.61h86.14v19.59h-110.71V29.14h108.68v19.59h-84.12v24.57Z"/>
      <path class="cls-7" d="M829.76,86.55l15.36-26.61c.31-.53-.08-1.2-.69-1.2h-30.72c-.61,0-1,.66-.69,1.2l15.36,26.61c.31,.53,1.07,.53,1.38,0Z"/>
    </g>
  </g>
</svg>