<?xml version="1.0" encoding="utf-8"?>
<!-- Generator: Adobe Illustrator 26.5.0, SVG Export Plug-In . SVG Version: 6.00 Build 0)  -->
<svg version="1.1" id="Layer_1" xmlns="http://www.w3.org/2000/svg" xmlns:xlink="http://www.w3.org/1999/xlink" x="0px" y="0px"
	 viewBox="0 0 1263.3 272.6" style="enable-background:new 0 0 1263.3 272.6;" xml:space="preserve">
<style type="text/css">
	.st0{fill:#CED6DB;}
	.st1{fill:#FFFFFF;}
	.st2{fill:url(#SVGID_1_);}
	.st3{fill:#03CDDC;}
	.st4{fill:url(#SVGID_00000011718820301537488140000017873376487549694357_);}
	.st5{fill:none;stroke:#FFFFFF;stroke-width:17.23;stroke-linecap:round;stroke-miterlimit:10;}
	.st6{fill:#00CCBC;}
	.st7{fill:url(#SVGID_00000060017501750469131550000014170644639348265125_);}
	.st8{fill:url(#SVGID_00000134223301150153630080000005093776645207485361_);}
	.st9{fill:url(#SVGID_00000111170704055045838300000011737291325784282284_);}
	.st10{fill:url(#SVGID_00000090295305112959301810000002690941087802134960_);}
	.st11{fill:url(#SVGID_00000145760173796287616120000009521810288158245537_);}
	.st12{fill:url(#SVGID_00000112590866909797201160000007639107654374354563_);}
	.st13{fill:#FB0062;}
	.st14{fill:url(#SVGID_00000065054410716059194070000010162162240685296291_);}
	.st15{fill:url(#SVGID_00000167385217593201631430000017160507631200851384_);}
	.st16{fill:url(#SVGID_00000163781160566160661450000009938908803928466869_);}
	.st17{fill:url(#SVGID_00000004513325543700664120000005223913324493715117_);}
	.st18{fill:url(#SVGID_00000135693215290241195990000017907657960565645492_);}
	.st19{fill:url(#SVGID_00000061439415968700974700000015856929109098066844_);}
	.st20{fill:url(#SVGID_00000176757600617895424850000005512023484813945245_);}
</style>
<path class="st0" d="M858.2,199.9c-2.7-1.3-6.6-1.9-11.5-1.9c-9.3,0-14,2.2-14,6.7c0,1.8,0.6,3.1,1.9,3.9s3.3,1.3,6.2,1.6l19.8,1.8
	c5.5,0.5,9.6,1.9,12.5,4.3c2.9,2.4,4.3,6.1,4.3,11.1c0,6.2-2.5,10.7-7.5,13.2c-5,2.6-12.4,3.9-22.3,3.9s-16.8-1.4-21.8-4.2
	s-7.6-7.8-7.8-14.8h13c0.3,3.9,1.9,6.6,4.7,8c2.9,1.4,7,2.2,12.4,2.2c10.7,0,16-2.5,16-7.5c0-2.1-0.7-3.7-2-4.6s-3.3-1.5-5.9-1.8
	l-19.7-2c-5.5-0.5-9.7-1.9-12.6-4.1c-2.9-2.2-4.3-5.6-4.3-10.2c0-10.8,9.1-16.2,27.4-16.2c8.9,0,15.8,1.3,20.8,3.9
	c5,2.6,7.6,7.1,7.8,13.3h-13C862.4,203.4,860.9,201.2,858.2,199.9L858.2,199.9L858.2,199.9z"/>
<path class="st0" d="M465.5,243.1H452l-12-19.9h-22.9v19.9h-11.6v-52.3h39.9c6.6,0,11.4,1.3,14.4,3.8s4.5,6.6,4.5,12.2
	c0,4.5-1.1,7.9-3.3,10.1c-2.2,2.3-5.1,3.8-8.8,4.4v0.4L465.5,243.1L465.5,243.1L465.5,243.1z M449.8,212.3c1.2-1.1,1.9-2.8,1.9-5.1
	s-0.6-4-1.9-5.1c-1.2-1.1-3.2-1.6-5.9-1.6h-26.6V214h26.6C446.5,213.9,448.5,213.4,449.8,212.3L449.8,212.3L449.8,212.3z"/>
<path class="st0" d="M490.3,211.6h38.3v8.8h-38.3v13.5h40.6v9.2h-52.1v-52.3H530v9.2h-39.6L490.3,211.6L490.3,211.6L490.3,211.6z"/>
<path class="st0" d="M583.6,202.2c-2.9-2.1-7.1-3.2-12.5-3.2c-6.1,0-10.9,1.5-14.3,4.6c-3.5,3.1-5.2,7.5-5.2,13.4s1.7,10.3,5.2,13.4
	s8.2,4.6,14.3,4.6c5.5,0,9.7-1.1,12.6-3.4c2.9-2.2,4.5-5.2,4.7-8.9h13.8c-0.1,4.5-1.4,8.5-3.9,11.8s-6.1,5.8-10.7,7.6
	c-4.6,1.8-10.1,2.6-16.5,2.6s-12.1-1-17-3.1s-8.6-5.1-11.3-9.3s-4-9.2-4-15.3s1.3-11.1,4-15.3c2.7-4.1,6.5-7.2,11.3-9.3
	c4.9-2.1,10.5-3.1,17-3.1s11.8,0.9,16.4,2.6c4.6,1.7,8.1,4.1,10.5,7.3c2.5,3.1,3.8,6.8,4.1,11h-13.6
	C588.1,207,586.5,204.4,583.6,202.2L583.6,202.2L583.6,202.2z"/>
<path class="st0" d="M666.6,196.3c5.9,4.7,8.9,11.5,8.9,20.6s-3,15.9-8.9,20.6s-14,7-24.2,7s-18.3-2.3-24.2-7s-8.9-11.5-8.9-20.6
	s3-15.9,8.9-20.6s14-7,24.2-7S660.7,191.6,666.6,196.3z M657.4,230.3c3.6-3,5.3-7.5,5.3-13.4s-1.8-10.4-5.3-13.4s-8.6-4.5-15-4.5
	s-11.5,1.5-15,4.5s-5.3,7.5-5.3,13.4s1.8,10.4,5.3,13.4c3.6,3,8.6,4.5,15,4.5S653.8,233.3,657.4,230.3z"/>
<path class="st0" d="M744.5,243.1H731l-12-19.9h-22.8v19.9h-11.6v-52.3h39.9c6.6,0,11.4,1.3,14.4,3.8s4.5,6.6,4.5,12.2
	c0,4.5-1.1,7.9-3.3,10.1c-2.2,2.3-5.1,3.8-8.8,4.4v0.4L744.5,243.1L744.5,243.1L744.5,243.1z M728.7,212.3c1.2-1.1,1.9-2.8,1.9-5.1
	s-0.6-4-1.9-5.1c-1.2-1.1-3.2-1.6-5.9-1.6h-26.7V214h26.7C725.5,213.9,727.5,213.4,728.7,212.3L728.7,212.3L728.7,212.3z"/>
<path class="st0" d="M805.2,197.1c4.8,4.2,7.2,10.8,7.2,19.8s-2.4,15.6-7.2,19.8s-11.7,6.3-20.9,6.3h-31.6v-52.3h31.6
	C793.4,190.8,800.4,192.9,805.2,197.1z M764.3,200.2v33.5h17.5c11.9,0,17.8-5.6,17.8-16.8s-5.9-16.8-17.8-16.8L764.3,200.2
	L764.3,200.2z"/>
<path class="st1" d="M556.9,139h-24.6V51.6h-0.8L492.6,139h-20.4l-39.5-88.6H432V139h-23.5V28H448l34.2,78.7h0.6L516.7,28h40.1
	L556.9,139L556.9,139z"/>
<path class="st1" d="M580.7,139V28h24.6v111H580.7z"/>
<path class="st1" d="M756.2,139h-32.7l-36.2-41.4L651.2,139h-32.5l52.7-58.6L623.7,28h31.7l32.2,36.5L720.3,28h31.1l-47.7,52.4
	L756.2,139L756.2,139z"/>
<path class="st1" d="M870.8,111.2h0.8L914.1,28h28.1l-58,111h-26.4l-58-111h28.5L870.8,111.2L870.8,111.2L870.8,111.2z"/>
<path class="st1" d="M962.4,139V28H987v111H962.4z"/>
<path class="st1" d="M1129.3,88.4c3.1,4.2,4.6,10.4,4.6,18.7c0,10.8-3.1,18.8-9.2,24s-15.8,7.9-28.9,7.9h-84.9V28h83.2
	c23.9,0,35.9,9.5,35.9,28.6c0,5.9-1.1,10.7-3.4,14.5s-5.6,6.3-9.8,7.8v0.8C1122.1,81.3,1126.3,84.2,1129.3,88.4L1129.3,88.4
	L1129.3,88.4z M1099.6,69.8c2.4-2.1,3.7-5.4,3.7-9.9s-1.2-7.9-3.7-10c-2.4-2.1-6.2-3.1-11.4-3.1h-52.7v26.1h52.7
	C1093.4,73,1097.2,71.9,1099.6,69.8z M1102.9,116.6c2.8-2.4,4.1-6.2,4.1-11.3s-1.4-9-4.1-11.4c-2.8-2.4-7.1-3.7-13.1-3.7h-54.3v30
	h54.3C1095.8,120.2,1100.2,119,1102.9,116.6z"/>
<path class="st1" d="M1177.1,72.2h81.3v18.7h-81.3v28.6h86.1v19.6h-110.7v-111h108.7v19.6h-84.1V72.2L1177.1,72.2z"/>
<linearGradient id="SVGID_1_" gradientUnits="userSpaceOnUse" x1="869.65" y1="2023.89" x2="869.65" y2="1995.64" gradientTransform="matrix(1 0 0 1 0 -1938.0701)">
	<stop  offset="5.327789e-09" style="stop-color:#00CCBC"/>
	<stop  offset="1" style="stop-color:#00CFDD"/>
</linearGradient>
<path class="st2" d="M870.3,85.4l15.4-26.6c0.3-0.5-0.1-1.2-0.7-1.2h-30.7c-0.6,0-1,0.7-0.7,1.2L869,85.4
	C869.3,86,870,86,870.3,85.4z"/>
<g>
	<circle class="st3" cx="266.5" cy="236.8" r="15.5"/>
	
		<linearGradient id="SVGID_00000068671389423770104280000015578903650487366027_" gradientUnits="userSpaceOnUse" x1="82.8" y1="942.39" x2="328.675" y2="942.39" gradientTransform="matrix(1 0 0 1 0 -806.07)">
		<stop  offset="0" style="stop-color:#03CDDC"/>
		<stop  offset="0.5" style="stop-color:#6666BF"/>
		<stop  offset="1" style="stop-color:#FB2962"/>
	</linearGradient>
	<path style="fill:url(#SVGID_00000068671389423770104280000015578903650487366027_);" d="M310.3,104.6L137.8,5
		c-24.5-14.1-55,3.5-55,31.7V236c0,28.2,30.5,45.8,54.9,31.7l172.6-99.6C334.8,154,334.8,118.7,310.3,104.6L310.3,104.6z"/>
	<path class="st5" d="M38.2,147.6c12.4,2.5,13,9.2,16,19.8c2.3,8,3.1,19.2,10.9,23.8c3.1,1.9,8.3,1.6,9.5,0.6
		c4.6-3.9,4.7-10.4,5.8-15.6c4.9-21.8,9.2-43.8,13.5-65.8c1.9-10,5.3-18.9,17-18.9s15,8.8,16.7,18.9c5.3,32,10.9,63.9,16.4,95.8v0.2
		c1.2,7.3,11.3,5.5,12.5,0c0.4-1.6,0.8-3.3,1.1-4.8c7.5-36.9,14.5-74,21.8-111c2.1-10.6,4.1-21.7,18.3-21.7
		c13.3,0,15.2,11.9,17,22.6c5.3,30.8,11,61.5,16.1,92.3"/>
	<circle class="st6" cx="9.7" cy="148" r="9.7"/>
</g>
<g>
	<g>
		
			<linearGradient id="SVGID_00000045604251574689787590000012340192264439420060_" gradientUnits="userSpaceOnUse" x1="912.82" y1="57.035" x2="971.1" y2="57.035" gradientTransform="matrix(1 0 0 -1 0 274)">
			<stop  offset="0" style="stop-color:#07C8F9"/>
			<stop  offset="1" style="stop-color:#00CCBC"/>
		</linearGradient>
		<path style="fill:url(#SVGID_00000045604251574689787590000012340192264439420060_);" d="M932,190.5l-19.1,53h11.6l4.1-11.6h26.9
			l4,11.6h11.7l-18.6-53H932L932,190.5z M931.6,222.6l10.6-30.1l10.2,30.1H931.6z"/>
		
			<linearGradient id="SVGID_00000024003223639380080850000012147916287985175429_" gradientUnits="userSpaceOnUse" x1="976.6899" y1="57.035" x2="1027.49" y2="57.035" gradientTransform="matrix(1 0 0 -1 0 274)">
			<stop  offset="0" style="stop-color:#07C8F9"/>
			<stop  offset="1" style="stop-color:#00CCBC"/>
		</linearGradient>
		<path style="fill:url(#SVGID_00000024003223639380080850000012147916287985175429_);" d="M1023.9,211.8c1.1-0.9,1.9-2,2.6-3.2
			c0.7-1.3,1-2.7,1-4.1c0-2.1-0.4-4-1.3-5.6c-0.8-1.6-1.9-3-3.3-4c-1.3-1-2.9-1.9-4.7-2.5c-1.8-0.7-3.6-1.1-5.4-1.4
			c-1.8-0.2-3.7-0.4-5.6-0.4h-30.6v53h10.8v-18.9h28.5v18.9h11.4V215h-9.5c0.8-0.3,1.6-0.6,2.3-0.9
			C1021.6,213.4,1022.8,212.6,1023.9,211.8L1023.9,211.8z M987.5,200.2h19.8c1.2,0,2.3,0.1,3.3,0.4c1,0.2,2,0.6,3,1.1
			c0.9,0.5,1.6,1.2,2.1,2.1s0.8,2,0.8,3.3c0,2.4-0.8,4.2-2.6,5.7c-1.8,1.4-4,2.1-6.7,2.1h-19.7V200.2L987.5,200.2z"/>
		
			<linearGradient id="SVGID_00000099649717224256769080000010554269687955124149_" gradientUnits="userSpaceOnUse" x1="1032.13" y1="57.035" x2="1081.77" y2="57.035" gradientTransform="matrix(1 0 0 -1 0 274)">
			<stop  offset="0" style="stop-color:#07C8F9"/>
			<stop  offset="1" style="stop-color:#00CCBC"/>
		</linearGradient>
		<polygon style="fill:url(#SVGID_00000099649717224256769080000010554269687955124149_);" points="1032.1,200.6 1051.5,200.6 
			1051.5,243.4 1062.3,243.4 1062.3,200.6 1081.8,200.6 1081.8,190.5 1032.1,190.5 		"/>
		
			<linearGradient id="SVGID_00000079482291263351631490000000936560259769998221_" gradientUnits="userSpaceOnUse" x1="1088.5" y1="57.035" x2="1099.3199" y2="57.035" gradientTransform="matrix(1 0 0 -1 0 274)">
			<stop  offset="0" style="stop-color:#07C8F9"/>
			<stop  offset="1" style="stop-color:#00CCBC"/>
		</linearGradient>
		
			<rect x="1088.5" y="190.5" style="fill:url(#SVGID_00000079482291263351631490000000936560259769998221_);" width="10.8" height="53"/>
		
			<linearGradient id="SVGID_00000080927663165256329740000015897687399600235417_" gradientUnits="userSpaceOnUse" x1="1106.0802" y1="57.05" x2="1154.6003" y2="57.05" gradientTransform="matrix(1 0 0 -1 0 274)">
			<stop  offset="0" style="stop-color:#07C8F9"/>
			<stop  offset="1" style="stop-color:#00CCBC"/>
		</linearGradient>
		<path style="fill:url(#SVGID_00000080927663165256329740000015897687399600235417_);" d="M1140.8,213.2l-17.5-1.6
			c-2-0.2-3.4-0.8-4.4-1.8c-1-1-1.5-2.2-1.5-3.8c0-0.8,0.2-1.6,0.4-2.2c0.3-0.6,0.7-1.2,1.1-1.6c0.4-0.4,1-0.8,1.8-1.1
			c0.8-0.3,1.5-0.6,2.2-0.7c0.7-0.1,1.5-0.3,2.5-0.4c1-0.1,1.9-0.1,2.4-0.1c0.6,0,1.4,0,2.4,0h2c0.4,0,1.1,0,2,0.1s1.6,0.1,2.1,0.2
			c0.5,0.1,1.1,0.2,1.9,0.3c0.7,0.1,1.3,0.3,1.7,0.5c0.4,0.2,0.9,0.5,1.5,0.8c0.5,0.3,0.8,0.7,1.1,1.1c0.3,0.4,0.5,0.9,0.7,1.5
			c0.2,0.6,0.3,1.2,0.3,1.9v0.5h10.4v-0.5c0-1.9-0.2-3.7-0.7-5.3c-0.5-1.6-1.1-2.9-1.9-4c-0.8-1.1-1.8-2.1-3.1-2.9
			c-1.2-0.8-2.5-1.4-3.8-1.9s-2.8-0.9-4.4-1.1c-1.6-0.3-3.2-0.5-4.7-0.6c-1.4-0.1-3.1-0.1-4.8-0.1c-1.6,0-3.2,0.1-4.7,0.2
			c-1.5,0.1-3,0.3-4.6,0.7s-3.1,0.7-4.4,1.2c-1.3,0.5-2.6,1.2-3.8,2c-1.2,0.8-2.3,1.8-3.1,2.9c-0.8,1.1-1.5,2.4-2,3.9
			s-0.8,3.2-0.8,5.1c0,4.2,1.3,7.6,3.8,10.3c2.5,2.7,6,4.2,10.4,4.7l17.6,1.6c1.9,0.3,3.4,0.8,4.3,1.6c0.9,0.7,1.3,1.8,1.3,3.4
			c0,0.7-0.1,1.4-0.4,2c-0.2,0.6-0.6,1-1.1,1.4c-0.5,0.4-1.1,0.8-1.6,1.1c-0.5,0.3-1.2,0.5-2.1,0.7c-0.9,0.2-1.7,0.4-2.3,0.5
			c-0.6,0.1-1.4,0.2-2.5,0.2c-1.1,0-1.9,0.1-2.4,0.1c-0.5,0-1.3,0-2.2,0s-1.8,0-2.5,0c-0.7,0-1.5-0.1-2.5-0.2
			c-1-0.1-1.8-0.2-2.5-0.4c-0.7-0.2-1.4-0.4-2.2-0.8c-0.7-0.3-1.3-0.7-1.8-1.1c-0.4-0.4-0.8-1-1.1-1.7c-0.3-0.7-0.4-1.4-0.4-2.3V227
			h-10.4v0.5c0,1.9,0.2,3.6,0.7,5.2c0.5,1.6,1.2,2.9,2,4s1.9,2.1,3.1,2.9c1.2,0.8,2.5,1.5,3.8,2c1.3,0.5,2.8,0.9,4.4,1.2
			c1.6,0.3,3.2,0.5,4.6,0.6c1.5,0.1,3.1,0.2,4.8,0.2c1.8,0,3.5,0,5-0.1c1.5-0.1,3.2-0.3,4.9-0.6c1.8-0.3,3.3-0.7,4.7-1.1
			c1.4-0.5,2.8-1.1,4.1-1.9c1.3-0.8,2.5-1.8,3.4-2.9c0.9-1.1,1.6-2.5,2.2-4.1c0.5-1.6,0.8-3.4,0.8-5.4c0-4.1-1.3-7.4-3.7-9.8
			C1148.4,214.9,1145,213.5,1140.8,213.2L1140.8,213.2z"/>
		
			<linearGradient id="SVGID_00000152947082754859223690000009553838931720779908_" gradientUnits="userSpaceOnUse" x1="1161.02" y1="57.035" x2="1210.66" y2="57.035" gradientTransform="matrix(1 0 0 -1 0 274)">
			<stop  offset="0" style="stop-color:#07C8F9"/>
			<stop  offset="1" style="stop-color:#00CCBC"/>
		</linearGradient>
		<polygon style="fill:url(#SVGID_00000152947082754859223690000009553838931720779908_);" points="1161,200.6 1180.4,200.6 
			1180.4,243.4 1191.2,243.4 1191.2,200.6 1210.7,200.6 1210.7,190.5 1161,190.5 		"/>
		<path class="st13" d="M1259.6,217.4c-2.5-2.4-5.9-3.9-10.1-4.2l-17.5-1.6c-2-0.2-3.4-0.8-4.4-1.8c-1-1-1.5-2.2-1.5-3.8
			c0-0.8,0.2-1.6,0.4-2.2c0.3-0.6,0.7-1.2,1.1-1.6c0.4-0.4,1-0.8,1.8-1.1c0.8-0.3,1.5-0.6,2.2-0.7c0.7-0.1,1.5-0.3,2.5-0.4
			c1-0.1,1.9-0.1,2.4-0.1c0.6,0,1.4,0,2.4,0h2c0.4,0,1.1,0,2,0.1s1.6,0.1,2.1,0.2c0.5,0.1,1.1,0.2,1.9,0.3c0.7,0.1,1.3,0.3,1.7,0.5
			c0.4,0.2,0.9,0.5,1.5,0.8c0.5,0.3,0.8,0.7,1.1,1.1c0.3,0.4,0.5,0.9,0.7,1.5c0.2,0.6,0.3,1.2,0.3,1.9v0.5h10.4v-0.5
			c0-1.9-0.2-3.7-0.7-5.3c-0.5-1.6-1.1-2.9-1.9-4c-0.8-1.1-1.8-2.1-3.1-2.9c-1.2-0.8-2.5-1.4-3.8-1.9s-2.8-0.9-4.4-1.1
			c-1.6-0.3-3.2-0.5-4.7-0.6c-1.4-0.1-3.1-0.1-4.8-0.1c-1.6,0-3.2,0.1-4.7,0.2c-1.5,0.1-3,0.3-4.6,0.7s-3.1,0.7-4.4,1.2
			c-1.3,0.5-2.6,1.2-3.8,2c-1.2,0.8-2.3,1.8-3.1,2.9c-0.8,1.1-1.5,2.4-2,3.9s-0.8,3.2-0.8,5.1c0,4.2,1.3,7.6,3.8,10.3
			c2.5,2.7,6,4.2,10.4,4.7l17.6,1.6c1.9,0.3,3.4,0.8,4.3,1.6c0.9,0.7,1.3,1.8,1.3,3.4c0,0.7-0.1,1.4-0.4,2c-0.2,0.6-0.6,1-1.1,1.4
			c-0.5,0.4-1.1,0.8-1.6,1.1c-0.5,0.3-1.2,0.5-2.1,0.7c-0.9,0.2-1.7,0.4-2.3,0.5c-0.6,0.1-1.4,0.2-2.5,0.2c-1.1,0-1.9,0.1-2.4,0.1
			c-0.5,0-1.3,0-2.2,0s-1.8,0-2.5,0c-0.7,0-1.5-0.1-2.5-0.2c-1-0.1-1.8-0.2-2.5-0.4c-0.7-0.2-1.4-0.4-2.2-0.8
			c-0.7-0.3-1.3-0.7-1.8-1.1c-0.4-0.4-0.8-1-1.1-1.7c-0.3-0.7-0.4-1.4-0.4-2.3V227h-10.4v0.5c0,1.9,0.2,3.6,0.7,5.2
			c0.5,1.6,1.2,2.9,2,4s1.9,2.1,3.1,2.9c1.2,0.8,2.5,1.5,3.8,2c1.3,0.5,2.8,0.9,4.4,1.2c1.6,0.3,3.2,0.5,4.6,0.6
			c1.5,0.1,3.1,0.2,4.8,0.2c1.8,0,3.5,0,5-0.1c1.5-0.1,3.2-0.3,4.9-0.6c1.8-0.3,3.3-0.7,4.7-1.1c1.4-0.5,2.8-1.1,4.1-1.9
			c1.3-0.8,2.5-1.8,3.4-2.9c0.9-1.1,1.6-2.5,2.2-4.1c0.5-1.6,0.8-3.4,0.8-5.4C1263.3,223.1,1262.1,219.8,1259.6,217.4L1259.6,217.4z
			"/>
	</g>
	<g>
		
			<linearGradient id="SVGID_00000117650214728418368730000011198906627128292264_" gradientUnits="userSpaceOnUse" x1="912.82" y1="57.035" x2="1263.3199" y2="57.035" gradientTransform="matrix(1 0 0 -1 0 274)">
			<stop  offset="0" style="stop-color:#03CDDC"/>
			<stop  offset="0.53" style="stop-color:#6666BF"/>
			<stop  offset="1" style="stop-color:#FB2962"/>
		</linearGradient>
		<path style="fill:url(#SVGID_00000117650214728418368730000011198906627128292264_);" d="M932,190.5l-19.1,53h11.6l4.1-11.6h26.9
			l4,11.6h11.7l-18.6-53H932L932,190.5z M931.6,222.6l10.6-30.1l10.2,30.1H931.6z"/>
		
			<linearGradient id="SVGID_00000052803883113243790880000008192446140268481169_" gradientUnits="userSpaceOnUse" x1="912.83" y1="57.035" x2="1263.33" y2="57.035" gradientTransform="matrix(1 0 0 -1 0 274)">
			<stop  offset="0" style="stop-color:#03CDDC"/>
			<stop  offset="0.53" style="stop-color:#6666BF"/>
			<stop  offset="1" style="stop-color:#FB2962"/>
		</linearGradient>
		<path style="fill:url(#SVGID_00000052803883113243790880000008192446140268481169_);" d="M1023.9,211.8c1.1-0.9,1.9-2,2.6-3.2
			c0.7-1.3,1-2.7,1-4.1c0-2.1-0.4-4-1.3-5.6c-0.8-1.6-1.9-3-3.3-4c-1.3-1-2.9-1.9-4.7-2.5c-1.8-0.7-3.6-1.1-5.4-1.4
			c-1.8-0.2-3.7-0.4-5.6-0.4h-30.6v53h10.8v-18.9h28.5v18.9h11.4V215h-9.5c0.8-0.3,1.6-0.6,2.3-0.9
			C1021.6,213.4,1022.8,212.6,1023.9,211.8L1023.9,211.8z M987.5,200.2h19.8c1.2,0,2.3,0.1,3.3,0.4c1,0.2,2,0.6,3,1.1
			c0.9,0.5,1.6,1.2,2.1,2.1s0.8,2,0.8,3.3c0,2.4-0.8,4.2-2.6,5.7c-1.8,1.4-4,2.1-6.7,2.1h-19.7V200.2L987.5,200.2z"/>
		
			<linearGradient id="SVGID_00000003101362742751697750000002371705906014989739_" gradientUnits="userSpaceOnUse" x1="912.83" y1="57.035" x2="1263.33" y2="57.035" gradientTransform="matrix(1 0 0 -1 0 274)">
			<stop  offset="0" style="stop-color:#03CDDC"/>
			<stop  offset="0.53" style="stop-color:#6666BF"/>
			<stop  offset="1" style="stop-color:#FB2962"/>
		</linearGradient>
		<polygon style="fill:url(#SVGID_00000003101362742751697750000002371705906014989739_);" points="1032.1,200.6 1051.5,200.6 
			1051.5,243.4 1062.3,243.4 1062.3,200.6 1081.8,200.6 1081.8,190.5 1032.1,190.5 		"/>
		
			<linearGradient id="SVGID_00000094598846065088197860000009806414245447669894_" gradientUnits="userSpaceOnUse" x1="912.83" y1="57.035" x2="1263.33" y2="57.035" gradientTransform="matrix(1 0 0 -1 0 274)">
			<stop  offset="0" style="stop-color:#03CDDC"/>
			<stop  offset="0.53" style="stop-color:#6666BF"/>
			<stop  offset="1" style="stop-color:#FB2962"/>
		</linearGradient>
		
			<rect x="1088.5" y="190.5" style="fill:url(#SVGID_00000094598846065088197860000009806414245447669894_);" width="10.8" height="53"/>
		
			<linearGradient id="SVGID_00000084501529276964329840000012810913404824179875_" gradientUnits="userSpaceOnUse" x1="912.83" y1="57.05" x2="1263.33" y2="57.05" gradientTransform="matrix(1 0 0 -1 0 274)">
			<stop  offset="0" style="stop-color:#03CDDC"/>
			<stop  offset="0.53" style="stop-color:#6666BF"/>
			<stop  offset="1" style="stop-color:#FB2962"/>
		</linearGradient>
		<path style="fill:url(#SVGID_00000084501529276964329840000012810913404824179875_);" d="M1140.8,213.2l-17.5-1.6
			c-2-0.2-3.4-0.8-4.4-1.8c-1-1-1.5-2.2-1.5-3.8c0-0.8,0.2-1.6,0.4-2.2c0.3-0.6,0.7-1.2,1.1-1.6c0.4-0.4,1-0.8,1.8-1.1
			c0.8-0.3,1.5-0.6,2.2-0.7c0.7-0.1,1.5-0.3,2.5-0.4c1-0.1,1.9-0.1,2.4-0.1c0.6,0,1.4,0,2.4,0h2c0.4,0,1.1,0,2,0.1s1.6,0.1,2.1,0.2
			c0.5,0.1,1.1,0.2,1.9,0.3c0.7,0.1,1.3,0.3,1.7,0.5c0.4,0.2,0.9,0.5,1.5,0.8c0.5,0.3,0.8,0.7,1.1,1.1c0.3,0.4,0.5,0.9,0.7,1.5
			c0.2,0.6,0.3,1.2,0.3,1.9v0.5h10.4v-0.5c0-1.9-0.2-3.7-0.7-5.3c-0.5-1.6-1.1-2.9-1.9-4c-0.8-1.1-1.8-2.1-3.1-2.9
			c-1.2-0.8-2.5-1.4-3.8-1.9s-2.8-0.9-4.4-1.1c-1.6-0.3-3.2-0.5-4.7-0.6c-1.4-0.1-3.1-0.1-4.8-0.1c-1.6,0-3.2,0.1-4.7,0.2
			c-1.5,0.1-3,0.3-4.6,0.7s-3.1,0.7-4.4,1.2c-1.3,0.5-2.6,1.2-3.8,2c-1.2,0.8-2.3,1.8-3.1,2.9c-0.8,1.1-1.5,2.4-2,3.9
			s-0.8,3.2-0.8,5.1c0,4.2,1.3,7.6,3.8,10.3c2.5,2.7,6,4.2,10.4,4.7l17.6,1.6c1.9,0.3,3.4,0.8,4.3,1.6c0.9,0.7,1.3,1.8,1.3,3.4
			c0,0.7-0.1,1.4-0.4,2c-0.2,0.6-0.6,1-1.1,1.4c-0.5,0.4-1.1,0.8-1.6,1.1c-0.5,0.3-1.2,0.5-2.1,0.7c-0.9,0.2-1.7,0.4-2.3,0.5
			c-0.6,0.1-1.4,0.2-2.5,0.2c-1.1,0-1.9,0.1-2.4,0.1c-0.5,0-1.3,0-2.2,0s-1.8,0-2.5,0c-0.7,0-1.5-0.1-2.5-0.2
			c-1-0.1-1.8-0.2-2.5-0.4c-0.7-0.2-1.4-0.4-2.2-0.8c-0.7-0.3-1.3-0.7-1.8-1.1c-0.4-0.4-0.8-1-1.1-1.7c-0.3-0.7-0.4-1.4-0.4-2.3V227
			h-10.4v0.5c0,1.9,0.2,3.6,0.7,5.2c0.5,1.6,1.2,2.9,2,4s1.9,2.1,3.1,2.9c1.2,0.8,2.5,1.5,3.8,2c1.3,0.5,2.8,0.9,4.4,1.2
			c1.6,0.3,3.2,0.5,4.6,0.6c1.5,0.1,3.1,0.2,4.8,0.2c1.8,0,3.5,0,5-0.1c1.5-0.1,3.2-0.3,4.9-0.6c1.8-0.3,3.3-0.7,4.7-1.1
			c1.4-0.5,2.8-1.1,4.1-1.9c1.3-0.8,2.5-1.8,3.4-2.9c0.9-1.1,1.6-2.5,2.2-4.1c0.5-1.6,0.8-3.4,0.8-5.4c0-4.1-1.3-7.4-3.7-9.8
			C1148.4,214.9,1145,213.5,1140.8,213.2L1140.8,213.2z"/>
		
			<linearGradient id="SVGID_00000115476019284816718380000006284671175202441115_" gradientUnits="userSpaceOnUse" x1="912.8199" y1="57.035" x2="1263.3198" y2="57.035" gradientTransform="matrix(1 0 0 -1 0 274)">
			<stop  offset="0" style="stop-color:#03CDDC"/>
			<stop  offset="0.53" style="stop-color:#6666BF"/>
			<stop  offset="1" style="stop-color:#FB2962"/>
		</linearGradient>
		<polygon style="fill:url(#SVGID_00000115476019284816718380000006284671175202441115_);" points="1161,200.6 1180.4,200.6 
			1180.4,243.4 1191.2,243.4 1191.2,200.6 1210.7,200.6 1210.7,190.5 1161,190.5 		"/>
		
			<linearGradient id="SVGID_00000083057389553394250930000010639573519758565275_" gradientUnits="userSpaceOnUse" x1="912.83" y1="57.05" x2="1263.33" y2="57.05" gradientTransform="matrix(1 0 0 -1 0 274)">
			<stop  offset="0" style="stop-color:#03CDDC"/>
			<stop  offset="0.53" style="stop-color:#6666BF"/>
			<stop  offset="1" style="stop-color:#FB2962"/>
		</linearGradient>
		<path style="fill:url(#SVGID_00000083057389553394250930000010639573519758565275_);" d="M1259.6,217.4c-2.5-2.4-5.9-3.9-10.1-4.2
			l-17.5-1.6c-2-0.2-3.4-0.8-4.4-1.8c-1-1-1.5-2.2-1.5-3.8c0-0.8,0.2-1.6,0.4-2.2c0.3-0.6,0.7-1.2,1.1-1.6c0.4-0.4,1-0.8,1.8-1.1
			c0.8-0.3,1.5-0.6,2.2-0.7c0.7-0.1,1.5-0.3,2.5-0.4c1-0.1,1.9-0.1,2.4-0.1c0.6,0,1.4,0,2.4,0h2c0.4,0,1.1,0,2,0.1s1.6,0.1,2.1,0.2
			c0.5,0.1,1.1,0.2,1.9,0.3c0.7,0.1,1.3,0.3,1.7,0.5c0.4,0.2,0.9,0.5,1.5,0.8c0.5,0.3,0.8,0.7,1.1,1.1c0.3,0.4,0.5,0.9,0.7,1.5
			c0.2,0.6,0.3,1.2,0.3,1.9v0.5h10.4v-0.5c0-1.9-0.2-3.7-0.7-5.3c-0.5-1.6-1.1-2.9-1.9-4c-0.8-1.1-1.8-2.1-3.1-2.9
			c-1.2-0.8-2.5-1.4-3.8-1.9s-2.8-0.9-4.4-1.1c-1.6-0.3-3.2-0.5-4.7-0.6c-1.4-0.1-3.1-0.1-4.8-0.1c-1.6,0-3.2,0.1-4.7,0.2
			c-1.5,0.1-3,0.3-4.6,0.7s-3.1,0.7-4.4,1.2c-1.3,0.5-2.6,1.2-3.8,2c-1.2,0.8-2.3,1.8-3.1,2.9c-0.8,1.1-1.5,2.4-2,3.9
			s-0.8,3.2-0.8,5.1c0,4.2,1.3,7.6,3.8,10.3c2.5,2.7,6,4.2,10.4,4.7l17.6,1.6c1.9,0.3,3.4,0.8,4.3,1.6c0.9,0.7,1.3,1.8,1.3,3.4
			c0,0.7-0.1,1.4-0.4,2c-0.2,0.6-0.6,1-1.1,1.4c-0.5,0.4-1.1,0.8-1.6,1.1c-0.5,0.3-1.2,0.5-2.1,0.7c-0.9,0.2-1.7,0.4-2.3,0.5
			c-0.6,0.1-1.4,0.2-2.5,0.2c-1.1,0-1.9,0.1-2.4,0.1c-0.5,0-1.3,0-2.2,0s-1.8,0-2.5,0c-0.7,0-1.5-0.1-2.5-0.2
			c-1-0.1-1.8-0.2-2.5-0.4c-0.7-0.2-1.4-0.4-2.2-0.8c-0.7-0.3-1.3-0.7-1.8-1.1c-0.4-0.4-0.8-1-1.1-1.7c-0.3-0.7-0.4-1.4-0.4-2.3V227
			h-10.4v0.5c0,1.9,0.2,3.6,0.7,5.2c0.5,1.6,1.2,2.9,2,4s1.9,2.1,3.1,2.9c1.2,0.8,2.5,1.5,3.8,2c1.3,0.5,2.8,0.9,4.4,1.2
			c1.6,0.3,3.2,0.5,4.6,0.6c1.5,0.1,3.1,0.2,4.8,0.2c1.8,0,3.5,0,5-0.1c1.5-0.1,3.2-0.3,4.9-0.6c1.8-0.3,3.3-0.7,4.7-1.1
			c1.4-0.5,2.8-1.1,4.1-1.9c1.3-0.8,2.5-1.8,3.4-2.9c0.9-1.1,1.6-2.5,2.2-4.1c0.5-1.6,0.8-3.4,0.8-5.4
			C1263.3,223.1,1262.1,219.8,1259.6,217.4L1259.6,217.4z"/>
	</g>
</g>
</svg>
