<?xml version="1.0" encoding="UTF-8"?>
<svg xmlns="http://www.w3.org/2000/svg" xmlns:xlink="http://www.w3.org/1999/xlink" viewBox="0 0 1267.6 281.13">
  <defs>
    <linearGradient id="linear-gradient" x1="869.9" y1="93.63" x2="869.9" y2="65.43" gradientUnits="userSpaceOnUse">
      <stop offset="0" stop-color="#00ccbc"/>
      <stop offset="1" stop-color="#00cfdd"/>
    </linearGradient>
    <clipPath id="clippath">
      <path d="M310.33,106.74L137.76,7.11c-24.42-14.1-54.94,3.52-54.94,31.72V238.09c0,28.2,30.52,45.82,54.94,31.72l172.57-99.63c24.42-14.1,24.42-49.34,0-63.44Z" style="fill: none;"/>
    </clipPath>
    <linearGradient id="linear-gradient-2" x1="82.56" y1="138.41" x2="328.78" y2="138.41" gradientUnits="userSpaceOnUse">
      <stop offset="0" stop-color="#03cddc"/>
      <stop offset=".5" stop-color="#6666bf"/>
      <stop offset="1" stop-color="#fb4762"/>
    </linearGradient>
    <filter id="drop-shadow-1" filterUnits="userSpaceOnUse">
      <feOffset dx="2.19" dy="2.19"/>
      <feGaussianBlur result="blur" stdDeviation="1.57"/>
      <feFlood flood-color="#000" flood-opacity=".05"/>
      <feComposite in2="blur" operator="in"/>
      <feComposite in="SourceGraphic"/>
    </filter>
  </defs>
  <g style="isolation: isolate;">
    <g id="Layer_1" data-name="Layer 1">
      <path d="M1248.45,187.75c-2.71-1.27-6.55-1.9-11.53-1.9-9.32,0-13.99,2.25-13.99,6.74,0,1.81,.63,3.1,1.9,3.88,1.27,.78,3.32,1.32,6.15,1.61l19.77,1.76c5.47,.49,9.64,1.92,12.52,4.28,2.88,2.37,4.32,6.07,4.32,11.09,0,6.25-2.51,10.67-7.54,13.25-5.03,2.59-12.45,3.88-22.26,3.88s-16.79-1.4-21.82-4.21c-5.03-2.81-7.64-7.75-7.83-14.83h12.96c.29,3.91,1.87,6.58,4.72,8.02,2.86,1.44,6.99,2.16,12.41,2.16,10.69,0,16.04-2.49,16.04-7.47,0-2.15-.67-3.69-2.01-4.61-1.34-.93-3.31-1.51-5.89-1.76l-19.7-1.98c-5.52-.54-9.7-1.9-12.56-4.1-2.86-2.2-4.28-5.61-4.28-10.25,0-10.79,9.13-16.18,27.39-16.18,8.88,0,15.83,1.32,20.83,3.95,5,2.64,7.6,7.08,7.8,13.33h-12.96c-.24-3.17-1.72-5.39-4.43-6.66Z" style="fill: #5c656d;"/>
      <path d="M465.79,230.88h-13.47l-12.01-19.92h-22.85v19.92h-11.57v-52.28h39.91c6.59,0,11.39,1.28,14.39,3.84,3,2.56,4.5,6.63,4.5,12.19,0,4.49-1.1,7.87-3.29,10.14-2.2,2.27-5.13,3.75-8.79,4.43v.44l13.18,21.24Zm-15.78-30.79c1.24-1.1,1.87-2.79,1.87-5.09s-.62-3.99-1.87-5.09c-1.24-1.1-3.21-1.65-5.89-1.65h-26.65v13.47h26.65c2.68,0,4.65-.55,5.89-1.65Z" style="fill: #5c656d;"/>
      <path d="M541.56,199.39h38.3v8.79h-38.3v13.47h40.57v9.23h-52.14v-52.28h51.18v9.23h-39.61v11.57Z" style="fill: #5c656d;"/>
      <path d="M703.82,190.02c-2.93-2.15-7.08-3.22-12.45-3.22-6.1,0-10.89,1.53-14.35,4.58-3.47,3.05-5.2,7.51-5.2,13.36s1.73,10.31,5.2,13.36c3.47,3.05,8.25,4.58,14.35,4.58,5.52,0,9.73-1.12,12.63-3.37,2.9-2.24,4.48-5.22,4.72-8.93h13.77c-.1,4.54-1.4,8.46-3.92,11.75-2.51,3.29-6.08,5.82-10.69,7.58-4.61,1.76-10.12,2.64-16.51,2.64s-12.09-1.03-16.95-3.08c-4.86-2.05-8.63-5.14-11.31-9.26-2.68-4.12-4.03-9.21-4.03-15.27s1.34-11.14,4.03-15.27c2.68-4.12,6.46-7.21,11.31-9.26,4.86-2.05,10.51-3.08,16.95-3.08s11.8,.85,16.37,2.56c4.56,1.71,8.08,4.14,10.54,7.29,2.46,3.15,3.82,6.82,4.06,11.02h-13.62c-.34-3.17-1.98-5.83-4.91-7.98Z" style="fill: #5c656d;"/>
      <path d="M856.86,184.12c5.91,4.66,8.86,11.53,8.86,20.61s-2.95,15.95-8.86,20.61c-5.91,4.66-13.99,6.99-24.24,6.99s-18.33-2.33-24.24-6.99c-5.91-4.66-8.86-11.53-8.86-20.61s2.95-15.95,8.86-20.61c5.91-4.66,13.99-6.99,24.24-6.99s18.33,2.33,24.24,6.99Zm-9.23,34.01c3.56-3.03,5.34-7.49,5.34-13.4s-1.78-10.37-5.34-13.4c-3.56-3.03-8.57-4.54-15.01-4.54s-11.45,1.51-15.01,4.54c-3.56,3.03-5.35,7.49-5.35,13.4s1.78,10.37,5.35,13.4c3.56,3.03,8.57,4.54,15.01,4.54s11.45-1.51,15.01-4.54Z" style="fill: #5c656d;"/>
      <path d="M1004.77,230.88h-13.47l-12.01-19.92h-22.85v19.92h-11.57v-52.28h39.91c6.59,0,11.39,1.28,14.39,3.84,3,2.56,4.5,6.63,4.5,12.19,0,4.49-1.1,7.87-3.29,10.14-2.2,2.27-5.13,3.75-8.79,4.43v.44l13.18,21.24Zm-15.78-30.79c1.24-1.1,1.87-2.79,1.87-5.09s-.62-3.99-1.87-5.09c-1.24-1.1-3.21-1.65-5.89-1.65h-26.65v13.47h26.65c2.68,0,4.65-.55,5.89-1.65Z" style="fill: #5c656d;"/>
      <path d="M1125.4,184.89c4.78,4.2,7.18,10.81,7.18,19.84s-2.39,15.65-7.18,19.84c-4.78,4.2-11.74,6.3-20.87,6.3h-31.56v-52.28h31.56c9.13,0,16.08,2.1,20.87,6.3Zm-40.86,3.08v33.54h17.5c11.86,0,17.79-5.59,17.79-16.77s-5.93-16.77-17.79-16.77h-17.5Z" style="fill: #5c656d;"/>
      <g>
        <path d="M556.17,146.84h-24.57V59.46h-.78l-38.87,87.38h-20.37l-39.49-88.63h-.78v88.63h-23.48V35.82h39.49l34.21,78.68h.62l33.9-78.68h40.11v111.02Z" style="fill: #404549;"/>
        <path d="M579.96,146.84V35.82h24.57v111.02h-24.57Z" style="fill: #404549;"/>
        <path d="M755.5,146.84h-32.65l-36.23-41.36-36.07,41.36h-32.5l52.71-58.62-47.73-52.4h31.72l32.19,36.54,32.65-36.54h31.1l-47.73,52.4,52.55,58.62Z" style="fill: #404549;"/>
        <path d="M870.04,119.01h.78l42.49-83.18h28.14l-58.04,111.02h-26.43l-58.04-111.02h28.45l42.65,83.18Z" style="fill: #404549;"/>
        <path d="M961.67,146.84V35.82h24.57v111.02h-24.57Z" style="fill: #404549;"/>
        <path d="M1128.58,96.23c3.06,4.2,4.59,10.44,4.59,18.74,0,10.78-3.06,18.79-9.17,24.02-6.12,5.24-15.76,7.85-28.92,7.85h-84.9V35.82h83.18c23.94,0,35.92,9.54,35.92,28.61,0,5.91-1.14,10.73-3.42,14.46-2.28,3.73-5.55,6.32-9.8,7.77v.78c5.29,1.66,9.46,4.59,12.52,8.79Zm-29.7-18.66c2.43-2.12,3.65-5.42,3.65-9.87s-1.22-7.88-3.65-9.95c-2.44-2.07-6.25-3.11-11.43-3.11h-52.71v26.12h52.71c5.18,0,8.99-1.06,11.43-3.19Zm3.27,46.88c2.75-2.38,4.12-6.17,4.12-11.35s-1.38-8.99-4.12-11.43c-2.75-2.43-7.13-3.65-13.14-3.65h-54.26v30.01h54.26c6.01,0,10.39-1.19,13.14-3.58Z" style="fill: #404549;"/>
        <path d="M1177.32,79.98h81.32v18.66h-81.32v28.61h86.14v19.59h-110.71V35.82h108.68v19.59h-84.12v24.57Z" style="fill: #404549;"/>
        <path d="M870.59,93.24l15.36-26.61c.31-.53-.08-1.2-.69-1.2h-30.72c-.61,0-1,.66-.69,1.2l15.36,26.61c.31,.53,1.07,.53,1.38,0Z" style="fill: url(#linear-gradient);"/>
      </g>
      <g>
        <circle cx="266.49" cy="238.94" r="15.53" style="fill: #03cddc;"/>
        <g style="clip-path: url(#clippath);">
          <image width="2848" height="1696" transform="translate(82.87) scale(.09 .17)" xlink:href="Ptn01.png"/>
          <path d="M310.44,106.64L137.59,6.84c-24.46-14.12-55.03,3.53-55.03,31.77V238.21c0,28.24,30.57,45.89,55.03,31.77l172.85-99.8c24.46-14.12,24.46-49.42,0-63.54Z" style="fill: url(#linear-gradient-2); mix-blend-mode: difference;"/>
        </g>
        <path d="M38.18,149.71c12.4,2.53,12.95,9.17,15.96,19.76,2.26,7.98,3.14,19.16,10.88,23.82,3.11,1.87,8.29,1.56,9.46,.55,4.56-3.93,4.66-10.41,5.81-15.57,4.87-21.84,9.18-43.81,13.46-65.78,1.94-9.96,5.25-18.9,16.98-18.93,11.78-.03,15.04,8.75,16.73,18.9,5.31,31.96,10.95,63.86,16.42,95.79,.01,.06,.02,.12,.03,.19,1.23,7.28,11.31,5.51,12.52-.04,.35-1.62,.82-3.26,1.14-4.84,7.48-36.94,14.54-73.97,21.81-110.95,2.09-10.64,4.14-21.67,18.27-21.67,13.34,0,15.18,11.92,17.02,22.61,5.29,30.77,11.04,61.46,16.05,92.28" style="fill: none; filter: url(#drop-shadow-1); stroke: #fff; stroke-linecap: round; stroke-miterlimit: 10; stroke-width: 17.23px;"/>
        <circle cx="9.65" cy="150.11" r="9.65" style="fill: #00ccbc;"/>
      </g>
    </g>
  </g>
</svg>