<?xml version="1.0" encoding="utf-8"?>
<!-- Generator: Adobe Illustrator 26.5.0, SVG Export Plug-In . SVG Version: 6.00 Build 0)  -->
<svg version="1.1" id="Layer_1" xmlns="http://www.w3.org/2000/svg" xmlns:xlink="http://www.w3.org/1999/xlink" x="0px" y="0px"
	 viewBox="0 0 1267.3 272.7" style="enable-background:new 0 0 1267.3 272.7;" xml:space="preserve">
<style type="text/css">
	.st0{fill:#818E9B;}
	.st1{fill:#5C656D;}
	.st2{fill:url(#SVGID_1_);}
	.st3{fill:#05A9BC;}
	.st4{fill:url(#SVGID_00000181080876283446275770000009351646811632523172_);}
	.st5{fill:none;stroke:#FFFFFF;stroke-width:17;stroke-linecap:round;stroke-miterlimit:10;}
	.st6{fill:#00CCCC;}
</style>
<path class="st0" d="M1248.2,200.6c-2.7-1.3-6.6-1.9-11.5-1.9c-9.3,0-14,2.2-14,6.7c0,1.8,0.6,3.1,1.9,3.9s3.3,1.3,6.2,1.6l19.8,1.8
	c5.5,0.5,9.6,1.9,12.5,4.3c2.9,2.4,4.3,6.1,4.3,11.1c0,6.2-2.5,10.7-7.5,13.2c-5,2.6-12.4,3.9-22.3,3.9s-16.8-1.4-21.8-4.2
	s-7.6-7.8-7.8-14.8h13c0.3,3.9,1.9,6.6,4.7,8c2.9,1.4,7,2.2,12.4,2.2c10.7,0,16-2.5,16-7.5c0-2.1-0.7-3.7-2-4.6
	c-1.3-0.9-3.3-1.5-5.9-1.8l-19.7-2c-5.5-0.5-9.7-1.9-12.6-4.1c-2.9-2.2-4.3-5.6-4.3-10.2c0-10.8,9.1-16.2,27.4-16.2
	c8.9,0,15.8,1.3,20.8,3.9c5,2.6,7.6,7.1,7.8,13.3h-13C1252.4,204.1,1250.9,201.9,1248.2,200.6L1248.2,200.6z"/>
<path class="st0" d="M465.5,243.8H452l-12-19.9h-22.9v19.9h-11.6v-52.3h39.9c6.6,0,11.4,1.3,14.4,3.8s4.5,6.6,4.5,12.2
	c0,4.5-1.1,7.9-3.3,10.1c-2.2,2.3-5.1,3.8-8.8,4.4v0.4L465.5,243.8L465.5,243.8z M449.8,213c1.2-1.1,1.9-2.8,1.9-5.1s-0.6-4-1.9-5.1
	c-1.2-1.1-3.2-1.6-5.9-1.6h-26.6v13.5h26.6C446.5,214.6,448.5,214.1,449.8,213L449.8,213z"/>
<path class="st0" d="M541.3,212.3h38.3v8.8h-38.3v13.5h40.6v9.2h-52.1v-52.3H581v9.2h-39.6v11.6H541.3z"/>
<path class="st0" d="M703.6,202.9c-2.9-2.1-7.1-3.2-12.5-3.2c-6.1,0-10.9,1.5-14.3,4.6c-3.5,3.1-5.2,7.5-5.2,13.4s1.7,10.3,5.2,13.4
	c3.5,3.1,8.2,4.6,14.3,4.6c5.5,0,9.7-1.1,12.6-3.4c2.9-2.2,4.5-5.2,4.7-8.9h13.8c-0.1,4.5-1.4,8.5-3.9,11.8s-6.1,5.8-10.7,7.6
	s-10.1,2.6-16.5,2.6s-12.1-1-17-3.1s-8.6-5.1-11.3-9.3s-4-9.2-4-15.3s1.3-11.1,4-15.3c2.7-4.1,6.5-7.2,11.3-9.3
	c4.9-2.1,10.5-3.1,17-3.1s11.8,0.9,16.4,2.6c4.6,1.7,8.1,4.1,10.5,7.3c2.5,3.1,3.8,6.8,4.1,11h-13.6
	C708.1,207.7,706.5,205.1,703.6,202.9L703.6,202.9z"/>
<path class="st0" d="M856.6,197c5.9,4.7,8.9,11.5,8.9,20.6s-3,15.9-8.9,20.6s-14,7-24.2,7s-18.3-2.3-24.2-7s-8.9-11.5-8.9-20.6
	s3-15.9,8.9-20.6s14-7,24.2-7S850.7,192.3,856.6,197z M847.4,231c3.6-3,5.3-7.5,5.3-13.4s-1.8-10.4-5.3-13.4s-8.6-4.5-15-4.5
	s-11.5,1.5-15,4.5s-5.3,7.5-5.3,13.4s1.8,10.4,5.3,13.4c3.6,3,8.6,4.5,15,4.5S843.8,234,847.4,231z"/>
<path class="st0" d="M1004.5,243.8H991l-12-19.9h-22.8v19.9h-11.6v-52.3h39.9c6.6,0,11.4,1.3,14.4,3.8s4.5,6.6,4.5,12.2
	c0,4.5-1.1,7.9-3.3,10.1c-2.2,2.3-5.1,3.8-8.8,4.4v0.4L1004.5,243.8L1004.5,243.8z M988.7,213c1.2-1.1,1.9-2.8,1.9-5.1
	s-0.6-4-1.9-5.1c-1.2-1.1-3.2-1.6-5.9-1.6h-26.7v13.5h26.7C985.5,214.6,987.5,214.1,988.7,213L988.7,213z"/>
<path class="st0" d="M1125.2,197.8c4.8,4.2,7.2,10.8,7.2,19.8s-2.4,15.6-7.2,19.8c-4.8,4.2-11.7,6.3-20.9,6.3h-31.6v-52.3h31.6
	C1113.4,191.5,1120.4,193.6,1125.2,197.8z M1084.3,200.9v33.5h17.5c11.9,0,17.8-5.6,17.8-16.8s-5.9-16.8-17.8-16.8L1084.3,200.9
	L1084.3,200.9z"/>
<path class="st1" d="M555.9,139.7h-24.6V52.3h-0.8l-38.9,87.4h-20.4l-39.5-88.6H431v88.6h-23.5v-111H447l34.2,78.7h0.6l33.9-78.7
	h40.1L555.9,139.7L555.9,139.7z"/>
<path class="st1" d="M579.7,139.7v-111h24.6v111H579.7L579.7,139.7z"/>
<path class="st1" d="M755.2,139.7h-32.7l-36.2-41.4l-36.1,41.4h-32.5l52.7-58.6l-47.7-52.4h31.7l32.2,36.5l32.7-36.5h31.1
	l-47.7,52.4L755.2,139.7L755.2,139.7z"/>
<path class="st1" d="M869.8,111.9h0.8l42.5-83.2h28.1l-58,111h-26.4l-58-111h28.5L869.8,111.9L869.8,111.9z"/>
<path class="st1" d="M961.4,139.7v-111H986v111H961.4L961.4,139.7z"/>
<path class="st1" d="M1128.3,89.1c3.1,4.2,4.6,10.4,4.6,18.7c0,10.8-3.1,18.8-9.2,24s-15.8,7.9-28.9,7.9h-84.9v-111h83.2
	c23.9,0,35.9,9.5,35.9,28.6c0,5.9-1.1,10.7-3.4,14.5s-5.6,6.3-9.8,7.8v0.8C1121.1,82,1125.3,84.9,1128.3,89.1L1128.3,89.1z
	 M1098.6,70.5c2.4-2.1,3.7-5.4,3.7-9.9s-1.2-7.9-3.7-10c-2.4-2.1-6.2-3.1-11.4-3.1h-52.7v26.1h52.7
	C1092.4,73.7,1096.2,72.6,1098.6,70.5z M1101.9,117.3c2.8-2.4,4.1-6.2,4.1-11.3s-1.4-9-4.1-11.4c-2.8-2.4-7.1-3.7-13.1-3.7h-54.3v30
	h54.3C1094.8,120.9,1099.2,119.7,1101.9,117.3z"/>
<path class="st1" d="M1177.1,72.9h81.3v18.7h-81.3v28.6h86.1v19.6h-110.7v-111h108.7v19.6h-84.1V72.9L1177.1,72.9z"/>
<linearGradient id="SVGID_1_" gradientUnits="userSpaceOnUse" x1="869.65" y1="-618.55" x2="869.65" y2="-590.3" gradientTransform="matrix(1 0 0 -1 0 -532)">
	<stop  offset="0" style="stop-color:#05A9BC"/>
	<stop  offset="1" style="stop-color:#00CCCC"/>
</linearGradient>
<path class="st2" d="M870.3,86.1l15.4-26.6c0.3-0.5-0.1-1.2-0.7-1.2h-30.7c-0.6,0-1,0.7-0.7,1.2L869,86.1
	C869.3,86.7,870,86.7,870.3,86.1z"/>
<g>
	<circle class="st3" cx="266.6" cy="236.9" r="15.5"/>
	
		<linearGradient id="SVGID_00000158715279760016885180000009501549658209708712_" gradientUnits="userSpaceOnUse" x1="82.8" y1="-668.35" x2="328.7" y2="-668.35" gradientTransform="matrix(1 0 0 -1 0 -532)">
		<stop  offset="0" style="stop-color:#00CCCC"/>
		<stop  offset="1" style="stop-color:#05A9BC"/>
	</linearGradient>
	<path style="fill:url(#SVGID_00000158715279760016885180000009501549658209708712_);" d="M310.4,104.6L137.8,5
		c-24.4-14.1-55,3.5-55,31.7V236c0,28.2,30.5,45.8,55,31.7L310.4,168C334.8,154,334.8,118.7,310.4,104.6L310.4,104.6z"/>
	<path class="st5" d="M38.2,147.6c12.4,2.5,13,9.2,16,19.8c2.3,8,3.1,19.2,10.9,23.8c3.1,1.9,8.3,1.6,9.5,0.6
		c4.6-3.9,4.7-10.4,5.8-15.6c4.9-21.8,9.2-43.8,13.5-65.8c1.9-10,5.3-18.9,17-18.9c11.8,0,15.1,8.8,16.7,18.9
		c5.3,32,11,63.9,16.4,95.8c0,0.1,0,0.1,0,0.2c1.2,7.3,11.3,5.5,12.5,0c0.4-1.6,0.8-3.3,1.1-4.8c7.5-36.9,14.5-74,21.8-111
		c2.1-10.7,4.1-21.7,18.3-21.7c13.3,0,15.2,11.9,17,22.6c5.3,30.8,11.1,61.5,16.1,92.3"/>
	<circle class="st6" cx="9.7" cy="148" r="9.7"/>
</g>
</svg>
