<?xml version="1.0" encoding="UTF-8"?>
<svg id="Layer_1" data-name="Layer 1" xmlns="http://www.w3.org/2000/svg" xmlns:xlink="http://www.w3.org/1999/xlink" viewBox="0 0 1263.2 272.63">
  <defs>
    <linearGradient id="linear-gradient" x1="869.65" y1="-943.88" x2="869.65" y2="-915.63" gradientTransform="translate(0 -858.07) scale(1 -1)" gradientUnits="userSpaceOnUse">
      <stop offset="0" stop-color="#1fafd7"/>
      <stop offset="1" stop-color="#00cfdd"/>
    </linearGradient>
    <linearGradient id="linear-gradient-2" x1="947.1" y1="1855.07" x2="947.1" y2="1802.77" gradientTransform="translate(0 -1612)" gradientUnits="userSpaceOnUse">
      <stop offset="0" stop-color="#05a9bc"/>
      <stop offset="1" stop-color="#00ccbc"/>
    </linearGradient>
    <linearGradient id="linear-gradient-3" x1="1006.9" y1="1855.07" x2="1006.9" y2="1802.77" gradientTransform="translate(0 -1612)" gradientUnits="userSpaceOnUse">
      <stop offset="0" stop-color="#05a9bc"/>
      <stop offset="1" stop-color="#00ccbc"/>
    </linearGradient>
    <linearGradient id="linear-gradient-4" x1="1059.45" y1="1855.07" x2="1059.45" y2="1802.77" gradientTransform="translate(0 -1612)" gradientUnits="userSpaceOnUse">
      <stop offset="0" stop-color="#05a9bc"/>
      <stop offset="1" stop-color="#00ccbc"/>
    </linearGradient>
    <linearGradient id="linear-gradient-5" x1="1098.45" y1="1855.07" x2="1098.45" y2="1802.77" gradientTransform="translate(0 -1612)" gradientUnits="userSpaceOnUse">
      <stop offset="0" stop-color="#05a9bc"/>
      <stop offset="1" stop-color="#00ccbc"/>
    </linearGradient>
    <linearGradient id="linear-gradient-6" x1="1136.7" y1="1855.97" x2="1136.7" y2="1801.87" gradientTransform="translate(0 -1612)" gradientUnits="userSpaceOnUse">
      <stop offset="0" stop-color="#05a9bc"/>
      <stop offset="1" stop-color="#00ccbc"/>
    </linearGradient>
    <linearGradient id="linear-gradient-7" x1="1189.55" y1="1855.07" x2="1189.55" y2="1802.77" gradientTransform="translate(0 -1612)" gradientUnits="userSpaceOnUse">
      <stop offset="0" stop-color="#05a9bc"/>
      <stop offset="1" stop-color="#00ccbc"/>
    </linearGradient>
    <linearGradient id="linear-gradient-8" x1="1241.2" y1="1855.97" x2="1241.2" y2="1801.87" gradientTransform="translate(0 -1612)" gradientUnits="userSpaceOnUse">
      <stop offset="0" stop-color="#05a9bc"/>
      <stop offset="1" stop-color="#00ccbc"/>
    </linearGradient>
    <linearGradient id="linear-gradient-9" x1="919.5" y1="57.02" x2="1263" y2="57.02" gradientTransform="translate(0 273.93) scale(1 -1)" gradientUnits="userSpaceOnUse">
      <stop offset="0" stop-color="#00e1c4"/>
      <stop offset="1" stop-color="#05c0e4"/>
    </linearGradient>
    <linearGradient id="linear-gradient-10" x1="919.5" y1="57.02" x2="1263" y2="57.02" gradientTransform="translate(0 273.93) scale(1 -1)" gradientUnits="userSpaceOnUse">
      <stop offset="0" stop-color="#00e1c4"/>
      <stop offset="1" stop-color="#05c0e4"/>
    </linearGradient>
    <linearGradient id="linear-gradient-11" x1="919.5" y1="57.02" x2="1263" y2="57.02" gradientTransform="translate(0 273.93) scale(1 -1)" gradientUnits="userSpaceOnUse">
      <stop offset="0" stop-color="#00e1c4"/>
      <stop offset="1" stop-color="#05c0e4"/>
    </linearGradient>
    <linearGradient id="linear-gradient-12" x1="919.5" y1="57.02" x2="1263" y2="57.02" gradientTransform="translate(0 273.93) scale(1 -1)" gradientUnits="userSpaceOnUse">
      <stop offset="0" stop-color="#00e1c4"/>
      <stop offset="1" stop-color="#05c0e4"/>
    </linearGradient>
    <linearGradient id="linear-gradient-13" x1="919.5" y1="57.02" x2="1263" y2="57.02" gradientTransform="translate(0 273.93) scale(1 -1)" gradientUnits="userSpaceOnUse">
      <stop offset="0" stop-color="#00e1c4"/>
      <stop offset="1" stop-color="#05c0e4"/>
    </linearGradient>
    <linearGradient id="linear-gradient-14" x1="919.5" y1="57.02" x2="1263" y2="57.02" gradientTransform="translate(0 273.93) scale(1 -1)" gradientUnits="userSpaceOnUse">
      <stop offset="0" stop-color="#00e1c4"/>
      <stop offset="1" stop-color="#05c0e4"/>
    </linearGradient>
    <linearGradient id="linear-gradient-15" x1="919.5" y1="57.02" x2="1263" y2="57.02" gradientTransform="translate(0 273.93) scale(1 -1)" gradientUnits="userSpaceOnUse">
      <stop offset="0" stop-color="#00e1c4"/>
      <stop offset="1" stop-color="#05c0e4"/>
    </linearGradient>
    <linearGradient id="linear-gradient-16" x1="82.8" y1="137.62" x2="328.67" y2="137.62" gradientTransform="translate(0 273.93) scale(1 -1)" gradientUnits="userSpaceOnUse">
      <stop offset="0" stop-color="#1fafd7"/>
      <stop offset="1" stop-color="#00cfdd"/>
    </linearGradient>
  </defs>
  <path d="M858.2,199.87c-2.7-1.3-6.6-1.9-11.5-1.9-9.3,0-14,2.2-14,6.7,0,1.8,.6,3.1,1.9,3.9s3.3,1.3,6.2,1.6l19.8,1.8c5.5,.5,9.6,1.9,12.5,4.3,2.9,2.4,4.3,6.1,4.3,11.1,0,6.2-2.5,10.7-7.5,13.2-5,2.6-12.4,3.9-22.3,3.9s-16.8-1.4-21.8-4.2-7.6-7.8-7.8-14.8h13c.3,3.9,1.9,6.6,4.7,8,2.9,1.4,7,2.2,12.4,2.2,10.7,0,16-2.5,16-7.5,0-2.1-.7-3.7-2-4.6s-3.3-1.5-5.9-1.8l-19.7-2c-5.5-.5-9.7-1.9-12.6-4.1-2.9-2.2-4.3-5.6-4.3-10.2,0-10.8,9.1-16.2,27.4-16.2,8.9,0,15.8,1.3,20.8,3.9,5,2.6,7.6,7.1,7.8,13.3h-13c-.2-3.1-1.7-5.3-4.4-6.6h0Z" style="fill: #d1d9e1;"/>
  <path d="M465.5,243.07h-13.5l-12-19.9h-22.9v19.9h-11.6v-52.3h39.9c6.6,0,11.4,1.3,14.4,3.8s4.5,6.6,4.5,12.2c0,4.5-1.1,7.9-3.3,10.1-2.2,2.3-5.1,3.8-8.8,4.4v.4l13.3,21.4h0Zm-15.7-30.8c1.2-1.1,1.9-2.8,1.9-5.1s-.6-4-1.9-5.1c-1.2-1.1-3.2-1.6-5.9-1.6h-26.6v13.5h26.6c2.6-.1,4.6-.6,5.9-1.7h0Z" style="fill: #d1d9e1;"/>
  <path d="M490.3,211.57h38.3v8.8h-38.3v13.5h40.6v9.2h-52.1v-52.3h51.2v9.2h-39.6l-.1,11.6h0Z" style="fill: #d1d9e1;"/>
  <path d="M583.6,202.17c-2.9-2.1-7.1-3.2-12.5-3.2-6.1,0-10.9,1.5-14.3,4.6-3.5,3.1-5.2,7.5-5.2,13.4s1.7,10.3,5.2,13.4,8.2,4.6,14.3,4.6c5.5,0,9.7-1.1,12.6-3.4,2.9-2.2,4.5-5.2,4.7-8.9h13.8c-.1,4.5-1.4,8.5-3.9,11.8s-6.1,5.8-10.7,7.6c-4.6,1.8-10.1,2.6-16.5,2.6s-12.1-1-17-3.1-8.6-5.1-11.3-9.3-4-9.2-4-15.3,1.3-11.1,4-15.3c2.7-4.1,6.5-7.2,11.3-9.3,4.9-2.1,10.5-3.1,17-3.1s11.8,.9,16.4,2.6c4.6,1.7,8.1,4.1,10.5,7.3,2.5,3.1,3.8,6.8,4.1,11h-13.6c-.4-3.2-2-5.8-4.9-8h0Z" style="fill: #d1d9e1;"/>
  <path d="M666.6,196.27c5.9,4.7,8.9,11.5,8.9,20.6s-3,15.9-8.9,20.6-14,7-24.2,7-18.3-2.3-24.2-7-8.9-11.5-8.9-20.6,3-15.9,8.9-20.6,14-7,24.2-7,18.3,2.3,24.2,7Zm-9.2,34c3.6-3,5.3-7.5,5.3-13.4s-1.8-10.4-5.3-13.4-8.6-4.5-15-4.5-11.5,1.5-15,4.5-5.3,7.5-5.3,13.4,1.8,10.4,5.3,13.4c3.6,3,8.6,4.5,15,4.5s11.4-1.5,15-4.5Z" style="fill: #d1d9e1;"/>
  <path d="M744.5,243.07h-13.5l-12-19.9h-22.8v19.9h-11.6v-52.3h39.9c6.6,0,11.4,1.3,14.4,3.8s4.5,6.6,4.5,12.2c0,4.5-1.1,7.9-3.3,10.1-2.2,2.3-5.1,3.8-8.8,4.4v.4l13.2,21.4h0Zm-15.8-30.8c1.2-1.1,1.9-2.8,1.9-5.1s-.6-4-1.9-5.1c-1.2-1.1-3.2-1.6-5.9-1.6h-26.7v13.5h26.7c2.7-.1,4.7-.6,5.9-1.7h0Z" style="fill: #d1d9e1;"/>
  <path d="M805.2,197.07c4.8,4.2,7.2,10.8,7.2,19.8s-2.4,15.6-7.2,19.8-11.7,6.3-20.9,6.3h-31.6v-52.3h31.6c9.1,.1,16.1,2.2,20.9,6.4Zm-40.9,3.1v33.5h17.5c11.9,0,17.8-5.6,17.8-16.8s-5.9-16.8-17.8-16.8l-17.5,.1h0Z" style="fill: #d1d9e1;"/>
  <path d="M555.9,138.97h-24.6V51.57h-.8l-38.9,87.4h-20.4l-39.5-88.6h-.7v88.6h-23.5V27.97h39.5l34.2,78.7h.6l33.9-78.7h40.1l.1,111h0Z" style="fill: #fff;"/>
  <path d="M579.7,138.97V27.97h24.6v111h-24.6Z" style="fill: #fff;"/>
  <path d="M755.2,138.97h-32.7l-36.2-41.4-36.1,41.4h-32.5l52.7-58.6-47.7-52.4h31.7l32.2,36.5,32.7-36.5h31.1l-47.7,52.4,52.5,58.6h0Z" style="fill: #fff;"/>
  <path d="M869.8,111.17h.8l42.5-83.2h28.1l-58,111h-26.4l-58-111h28.5l42.5,83.2h0Z" style="fill: #fff;"/>
  <path d="M961.4,138.97V27.97h24.6v111h-24.6Z" style="fill: #fff;"/>
  <path d="M1128.3,88.37c3.1,4.2,4.6,10.4,4.6,18.7,0,10.8-3.1,18.8-9.2,24s-15.8,7.9-28.9,7.9h-84.9V27.97h83.2c23.9,0,35.9,9.5,35.9,28.6,0,5.9-1.1,10.7-3.4,14.5s-5.6,6.3-9.8,7.8v.8c5.3,1.6,9.5,4.5,12.5,8.7h0Zm-29.7-18.6c2.4-2.1,3.7-5.4,3.7-9.9s-1.2-7.9-3.7-10c-2.4-2.1-6.2-3.1-11.4-3.1h-52.7v26.1h52.7c5.2,.1,9-1,11.4-3.1Zm3.3,46.8c2.8-2.4,4.1-6.2,4.1-11.3s-1.4-9-4.1-11.4c-2.8-2.4-7.1-3.7-13.1-3.7h-54.3v30h54.3c6,0,10.4-1.2,13.1-3.6Z" style="fill: #fff;"/>
  <path d="M1177.1,72.17h81.3v18.7h-81.3v28.6h86.1v19.6h-110.7V28.07h108.7v19.6h-84.1v24.5h0Z" style="fill: #fff;"/>
  <path d="M870.3,85.37l15.4-26.6c.3-.5-.1-1.2-.7-1.2h-30.7c-.6,0-1,.7-.7,1.2l15.4,26.6c.3,.6,1,.6,1.3,0Z" style="fill: url(#linear-gradient);"/>
  <g>
    <g>
      <path d="M962.2,243.07l-3.4-8.2h-23.3l-3.4,8.2h-12.6l21.3-52.3h12.6l21.3,52.3h-12.5Zm-22.8-17.8h15.5l-7.8-19.1-7.7,19.1Z" style="fill: url(#linear-gradient-2);"/>
      <path d="M1029,243.07h-12.8l-12-17h-8.2v17h-11.2v-52.3h23.5c5.7,0,10.4,1.7,14.1,4.9,3.7,3.3,5.6,7.5,5.6,12.7,0,3.9-1.1,7.2-3.2,10.1-2.2,2.9-5,5-8.6,6.2l12.8,18.4Zm-33-42.1v14.8h11.1c2.8,0,5.1-.7,6.8-2s2.6-3.1,2.6-5.4-.9-4-2.6-5.4c-1.7-1.3-4-2-6.8-2h-11.1Z" style="fill: url(#linear-gradient-3);"/>
      <path d="M1053.8,243.07v-42.2h-16.3v-10.1h43.9v10.1h-16.4v42.2h-11.2Z" style="fill: url(#linear-gradient-4);"/>
      <path d="M1092.8,243.07v-52.3h11.3v52.3h-11.3Z" style="fill: url(#linear-gradient-5);"/>
      <path d="M1138.1,243.97c-9.2,0-17-2.9-23.2-8.7l6.5-7.7c5.3,4.6,11,6.9,17.2,6.9,2.7,0,4.8-.5,6.3-1.6s2.2-2.5,2.2-4.2c0-1.8-.8-3.1-2.3-4s-4.5-1.8-8.7-2.7c-3.1-.7-5.7-1.4-7.7-2.1s-4-1.7-5.8-2.9-3.2-2.7-4.1-4.5-1.3-3.9-1.3-6.3c0-4.8,1.8-8.7,5.4-11.8,3.6-3,8.2-4.5,14-4.5,8,0,14.8,2.4,20.5,7.2l-5.9,8.1c-4.8-3.9-9.8-5.8-14.9-5.8-2.3,0-4.2,.5-5.6,1.6s-2.1,2.4-2.1,4c0,1.8,.8,3.2,2.4,4.1,1.6,.9,4.5,1.8,8.8,2.8,6.3,1.4,11,3.2,14.1,5.4s4.6,5.6,4.6,10.1c0,5-1.8,9-5.4,12.1-3.6,3-8.6,4.5-15,4.5Z" style="fill: url(#linear-gradient-6);"/>
      <path d="M1183.9,243.07v-42.2h-16.3v-10.1h43.9v10.1h-16.3v42.2h-11.3Z" style="fill: url(#linear-gradient-7);"/>
      <path d="M1242.6,243.97c-9.2,0-17-2.9-23.2-8.7l6.5-7.7c5.3,4.6,11,6.9,17.2,6.9,2.7,0,4.8-.5,6.3-1.6s2.2-2.5,2.2-4.2c0-1.8-.8-3.1-2.3-4s-4.5-1.8-8.7-2.7c-3.1-.7-5.7-1.4-7.7-2.1s-4-1.7-5.8-2.9-3.2-2.7-4.1-4.5-1.3-3.9-1.3-6.3c0-4.8,1.8-8.7,5.4-11.8,3.6-3,8.2-4.5,14-4.5,8,0,14.8,2.4,20.5,7.2l-5.9,8.1c-4.8-3.9-9.8-5.8-14.9-5.8-2.3,0-4.2,.5-5.6,1.6s-2.1,2.4-2.1,4c0,1.8,.8,3.2,2.4,4.1,1.6,.9,4.5,1.8,8.8,2.8,6.3,1.4,11,3.2,14.1,5.4s4.6,5.6,4.6,10.1c0,5-1.8,9-5.4,12.1-3.7,3-8.6,4.5-15,4.5Z" style="fill: url(#linear-gradient-8);"/>
    </g>
    <g>
      <path d="M962.2,243.07l-3.4-8.2h-23.3l-3.4,8.2h-12.6l21.3-52.3h12.6l21.3,52.3h-12.5Zm-22.8-17.8h15.5l-7.8-19.1-7.7,19.1Z" style="fill: url(#linear-gradient-9);"/>
      <path d="M1029,243.07h-12.8l-12-17h-8.2v17h-11.2v-52.3h23.5c5.7,0,10.4,1.7,14.1,4.9,3.7,3.3,5.6,7.5,5.6,12.7,0,3.9-1.1,7.2-3.2,10.1-2.2,2.9-5,5-8.6,6.2l12.8,18.4Zm-33-42.1v14.8h11.1c2.8,0,5.1-.7,6.8-2s2.6-3.1,2.6-5.4-.9-4-2.6-5.4c-1.7-1.3-4-2-6.8-2h-11.1Z" style="fill: url(#linear-gradient-10);"/>
      <path d="M1053.8,243.07v-42.2h-16.3v-10.1h43.9v10.1h-16.4v42.2h-11.2Z" style="fill: url(#linear-gradient-11);"/>
      <path d="M1092.8,243.07v-52.3h11.3v52.3h-11.3Z" style="fill: url(#linear-gradient-12);"/>
      <path d="M1138.1,243.97c-9.2,0-17-2.9-23.2-8.7l6.5-7.7c5.3,4.6,11,6.9,17.2,6.9,2.7,0,4.8-.5,6.3-1.6s2.2-2.5,2.2-4.2c0-1.8-.8-3.1-2.3-4s-4.5-1.8-8.7-2.7c-3.1-.7-5.7-1.4-7.7-2.1s-4-1.7-5.8-2.9-3.2-2.7-4.1-4.5-1.3-3.9-1.3-6.3c0-4.8,1.8-8.7,5.4-11.8,3.6-3,8.2-4.5,14-4.5,8,0,14.8,2.4,20.5,7.2l-5.9,8.1c-4.8-3.9-9.8-5.8-14.9-5.8-2.3,0-4.2,.5-5.6,1.6s-2.1,2.4-2.1,4c0,1.8,.8,3.2,2.4,4.1,1.6,.9,4.5,1.8,8.8,2.8,6.3,1.4,11,3.2,14.1,5.4s4.6,5.6,4.6,10.1c0,5-1.8,9-5.4,12.1-3.6,3-8.6,4.5-15,4.5Z" style="fill: url(#linear-gradient-13);"/>
      <path d="M1183.9,243.07v-42.2h-16.3v-10.1h43.9v10.1h-16.3v42.2h-11.3Z" style="fill: url(#linear-gradient-14);"/>
      <path d="M1242.6,243.97c-9.2,0-17-2.9-23.2-8.7l6.5-7.7c5.3,4.6,11,6.9,17.2,6.9,2.7,0,4.8-.5,6.3-1.6s2.2-2.5,2.2-4.2c0-1.8-.8-3.1-2.3-4s-4.5-1.8-8.7-2.7c-3.1-.7-5.7-1.4-7.7-2.1s-4-1.7-5.8-2.9-3.2-2.7-4.1-4.5-1.3-3.9-1.3-6.3c0-4.8,1.8-8.7,5.4-11.8,3.6-3,8.2-4.5,14-4.5,8,0,14.8,2.4,20.5,7.2l-5.9,8.1c-4.8-3.9-9.8-5.8-14.9-5.8-2.3,0-4.2,.5-5.6,1.6s-2.1,2.4-2.1,4c0,1.8,.8,3.2,2.4,4.1,1.6,.9,4.5,1.8,8.8,2.8,6.3,1.4,11,3.2,14.1,5.4s4.6,5.6,4.6,10.1c0,5-1.8,9-5.4,12.1-3.7,3-8.6,4.5-15,4.5Z" style="fill: url(#linear-gradient-15);"/>
    </g>
  </g>
  <g>
    <circle cx="266.5" cy="236.77" r="15.5" style="fill: #00cfdd;"/>
    <path d="M310.3,104.57L137.8,4.97c-24.5-14.1-55,3.5-55,31.7V235.97c0,28.2,30.5,45.8,54.9,31.7l172.6-99.6c24.5-14.1,24.5-49.4,0-63.5Z" style="fill: url(#linear-gradient-16);"/>
    <g>
      <image width="222" height="172" transform="translate(26.36 56.9)" xlink:href="FB8287D6.png" style="isolation: isolate; opacity: .15;"/>
      <path d="M38.2,147.57c12.4,2.5,13,9.2,16,19.8,2.3,8,3.1,19.2,10.9,23.8,3.1,1.9,8.3,1.6,9.5,.6,4.6-3.9,4.7-10.4,5.8-15.6,4.9-21.8,9.2-43.8,13.5-65.8,1.9-10,5.3-18.9,17-18.9s15,8.8,16.7,18.9c5.3,32,10.9,63.9,16.4,95.8v.2c1.2,7.3,11.3,5.5,12.5,0,.4-1.6,.8-3.3,1.1-4.8,7.5-36.9,14.5-74,21.8-111,2.1-10.6,4.1-21.7,18.3-21.7,13.3,0,15.2,11.9,17,22.6,5.3,30.8,11,61.5,16.1,92.3" style="fill: none; stroke: #fff; stroke-linecap: round; stroke-miterlimit: 10; stroke-width: 17.23px;"/>
    </g>
    <circle cx="9.7" cy="147.97" r="9.7" style="fill: #00ccbc;"/>
  </g>
</svg>