<?xml version="1.0" encoding="UTF-8"?>
<svg id="Layer_1" data-name="Layer 1" xmlns="http://www.w3.org/2000/svg" xmlns:xlink="http://www.w3.org/1999/xlink" viewBox="0 0 1267.34 272.71">
  <defs>
    <style>
      .cls-1 {
        fill: url(#linear-gradient-2);
      }

      .cls-2 {
        fill: #fff;
      }

      .cls-3 {
        fill: #80807E;
      }

      .cls-4 {
        fill: none;
        filter: url(#drop-shadow-1);
        stroke: #fff;
        stroke-linecap: round;
        stroke-miterlimit: 10;
        stroke-width: 17px;
      }

      .cls-5 {
        fill: url(#linear-gradient-3);
      }

      .cls-6 {
        fill: url(#linear-gradient);
      }

      .cls-7 {
        fill: url(#linear-gradient-4);
      }
    </style>
    <linearGradient id="linear-gradient" x1="857.73" y1="84.77" x2="873.89" y2="56.78" gradientUnits="userSpaceOnUse">
      <stop offset="0" stop-color="#1f92f1"/>
      <stop offset=".64" stop-color="#09bce3"/>
      <stop offset="1" stop-color="#00cfdd"/>
    </linearGradient>
    <linearGradient id="linear-gradient-2" x1="251.04" y1="236.86" x2="282.1" y2="236.86" xlink:href="#linear-gradient"/>
    <linearGradient id="linear-gradient-3" x1="82.84" y1="136.36" x2="328.74" y2="136.36" gradientUnits="userSpaceOnUse">
      <stop offset="0" stop-color="#1f92f1"/>
      <stop offset=".47" stop-color="#0fb2e6"/>
      <stop offset=".64" stop-color="#09bce2"/>
      <stop offset="1" stop-color="#00cfdd"/>
    </linearGradient>
    <filter id="drop-shadow-1" filterUnits="userSpaceOnUse">
      <feOffset dx="7" dy="7"/>
      <feGaussianBlur result="blur" stdDeviation="5"/>
      <feFlood flood-color="#000" flood-opacity=".15"/>
      <feComposite in2="blur" operator="in"/>
      <feComposite in="SourceGraphic"/>
    </filter>
    <linearGradient id="linear-gradient-4" x1="0" y1="148.01" x2="19.31" y2="148.01" xlink:href="#linear-gradient"/>
  </defs>
  <path class="cls-3" d="M1248.2,185.64c-2.71-1.27-6.55-1.9-11.53-1.9-9.32,0-13.99,2.25-13.99,6.74,0,1.81,.63,3.1,1.9,3.88,1.27,.78,3.32,1.32,6.15,1.61l19.77,1.76c5.47,.49,9.64,1.92,12.52,4.28,2.88,2.37,4.32,6.07,4.32,11.09,0,6.25-2.51,10.67-7.54,13.25-5.03,2.59-12.45,3.88-22.26,3.88s-16.79-1.4-21.82-4.21c-5.03-2.81-7.64-7.75-7.83-14.83h12.96c.29,3.91,1.87,6.58,4.72,8.02,2.86,1.44,6.99,2.16,12.41,2.16,10.69,0,16.04-2.49,16.04-7.47,0-2.15-.67-3.69-2.01-4.61-1.34-.93-3.31-1.51-5.89-1.76l-19.7-1.98c-5.52-.54-9.7-1.9-12.56-4.1-2.86-2.2-4.28-5.61-4.28-10.25,0-10.79,9.13-16.18,27.39-16.18,8.88,0,15.83,1.32,20.83,3.95,5,2.64,7.6,7.08,7.8,13.33h-12.96c-.24-3.17-1.72-5.39-4.43-6.66Z"/>
  <path class="cls-3" d="M465.54,228.77h-13.47l-12.01-19.92h-22.85v19.92h-11.57v-52.28h39.91c6.59,0,11.39,1.28,14.39,3.84,3,2.56,4.5,6.63,4.5,12.19,0,4.49-1.1,7.87-3.29,10.14-2.2,2.27-5.13,3.75-8.79,4.43v.44l13.18,21.24Zm-15.78-30.79c1.24-1.1,1.87-2.79,1.87-5.09s-.62-3.99-1.87-5.09c-1.24-1.1-3.21-1.65-5.89-1.65h-26.65v13.47h26.65c2.68,0,4.65-.55,5.89-1.65Z"/>
  <path class="cls-3" d="M541.31,197.28h38.3v8.79h-38.3v13.47h40.57v9.23h-52.14v-52.28h51.18v9.23h-39.61v11.57Z"/>
  <path class="cls-3" d="M703.57,187.91c-2.93-2.15-7.08-3.22-12.45-3.22-6.1,0-10.89,1.53-14.35,4.58-3.47,3.05-5.2,7.51-5.2,13.36s1.73,10.31,5.2,13.36c3.47,3.05,8.25,4.58,14.35,4.58,5.52,0,9.73-1.12,12.63-3.37,2.9-2.24,4.48-5.22,4.72-8.93h13.77c-.1,4.54-1.4,8.46-3.92,11.75-2.51,3.29-6.08,5.82-10.69,7.58-4.61,1.76-10.12,2.64-16.51,2.64s-12.09-1.03-16.95-3.08c-4.86-2.05-8.63-5.14-11.31-9.26-2.68-4.12-4.03-9.21-4.03-15.27s1.34-11.14,4.03-15.27c2.68-4.12,6.46-7.21,11.31-9.26,4.86-2.05,10.51-3.08,16.95-3.08s11.8,.85,16.37,2.56c4.56,1.71,8.08,4.14,10.54,7.29,2.46,3.15,3.82,6.82,4.06,11.02h-13.62c-.34-3.17-1.98-5.83-4.91-7.98Z"/>
  <path class="cls-3" d="M856.61,182.01c5.91,4.66,8.86,11.53,8.86,20.61s-2.95,15.95-8.86,20.61c-5.91,4.66-13.99,6.99-24.24,6.99s-18.33-2.33-24.24-6.99c-5.91-4.66-8.86-11.53-8.86-20.61s2.95-15.95,8.86-20.61c5.91-4.66,13.99-6.99,24.24-6.99s18.33,2.33,24.24,6.99Zm-9.23,34.01c3.56-3.03,5.34-7.49,5.34-13.4s-1.78-10.37-5.34-13.4c-3.56-3.03-8.57-4.54-15.01-4.54s-11.45,1.51-15.01,4.54c-3.56,3.03-5.35,7.49-5.35,13.4s1.78,10.37,5.35,13.4c3.56,3.03,8.57,4.54,15.01,4.54s11.45-1.51,15.01-4.54Z"/>
  <path class="cls-3" d="M1004.52,228.77h-13.47l-12.01-19.92h-22.85v19.92h-11.57v-52.28h39.91c6.59,0,11.39,1.28,14.39,3.84,3,2.56,4.5,6.63,4.5,12.19,0,4.49-1.1,7.87-3.29,10.14-2.2,2.27-5.13,3.75-8.79,4.43v.44l13.18,21.24Zm-15.78-30.79c1.24-1.1,1.87-2.79,1.87-5.09s-.62-3.99-1.87-5.09c-1.24-1.1-3.21-1.65-5.89-1.65h-26.65v13.47h26.65c2.68,0,4.65-.55,5.89-1.65Z"/>
  <path class="cls-3" d="M1125.15,182.78c4.78,4.2,7.18,10.81,7.18,19.84s-2.39,15.65-7.18,19.84c-4.78,4.2-11.74,6.3-20.87,6.3h-31.56v-52.28h31.56c9.13,0,16.08,2.1,20.87,6.3Zm-40.86,3.08v33.54h17.5c11.86,0,17.79-5.59,17.79-16.77s-5.93-16.77-17.79-16.77h-17.5Z"/>
  <g>
    <path class="cls-3" d="M555.91,144.73h-24.57V57.35h-.78l-38.87,87.38h-20.37l-39.49-88.63h-.78v88.63h-23.48V33.72h39.49l34.21,78.68h.62l33.9-78.68h40.11v111.02Z"/>
    <path class="cls-3" d="M579.7,144.73V33.72h24.57v111.02h-24.57Z"/>
    <path class="cls-3" d="M755.24,144.73h-32.65l-36.23-41.36-36.07,41.36h-32.5l52.71-58.62-47.73-52.4h31.72l32.19,36.54,32.65-36.54h31.1l-47.73,52.4,52.55,58.62Z"/>
    <path class="cls-3" d="M869.79,116.9h.78l42.49-83.18h28.14l-58.04,111.02h-26.43l-58.04-111.02h28.45l42.65,83.18Z"/>
    <path class="cls-3" d="M961.42,144.73V33.72h24.57v111.02h-24.57Z"/>
    <path class="cls-3" d="M1128.33,94.12c3.06,4.2,4.59,10.44,4.59,18.74,0,10.78-3.06,18.79-9.17,24.02-6.12,5.24-15.76,7.85-28.92,7.85h-84.9V33.72h83.18c23.94,0,35.92,9.54,35.92,28.61,0,5.91-1.14,10.73-3.42,14.46-2.28,3.73-5.55,6.32-9.8,7.77v.78c5.29,1.66,9.46,4.59,12.52,8.79Zm-29.7-18.66c2.43-2.12,3.65-5.42,3.65-9.87s-1.22-7.88-3.65-9.95c-2.44-2.07-6.25-3.11-11.43-3.11h-52.71v26.12h52.71c5.18,0,8.99-1.06,11.43-3.19Zm3.27,46.88c2.75-2.38,4.12-6.17,4.12-11.35s-1.38-8.99-4.12-11.43c-2.75-2.43-7.13-3.65-13.14-3.65h-54.26v30.01h54.26c6.01,0,10.39-1.19,13.14-3.58Z"/>
    <path class="cls-3" d="M1177.07,77.87h81.32v18.66h-81.32v28.61h86.14v19.59h-110.71V33.72h108.68v19.59h-84.12v24.57Z"/>
    <path class="cls-6" d="M870.34,91.13l15.36-26.61c.31-.53-.08-1.2-.69-1.2h-30.72c-.61,0-1,.66-.69,1.2l15.36,26.61c.31,.53,1.07,.53,1.38,0Z"/>
  </g>
  <g>
    <circle class="cls-1" cx="266.57" cy="236.86" r="15.53"/>
    <path class="cls-5" d="M310.42,104.63L137.8,4.96c-24.43-14.1-54.96,3.53-54.96,31.73V236.02c0,28.2,30.53,45.83,54.96,31.73l172.62-99.66c24.43-14.1,24.43-49.36,0-63.46Z"/>
    <path class="cls-4" d="M38.19,147.61c12.41,2.53,12.96,9.17,15.96,19.77,2.26,7.98,3.14,19.16,10.88,23.82,3.11,1.87,8.3,1.56,9.46,.55,4.56-3.93,4.66-10.41,5.82-15.57,4.87-21.84,9.19-43.82,13.46-65.8,1.94-9.96,5.26-18.91,16.98-18.94,11.78-.03,15.05,8.75,16.74,18.91,5.31,31.97,10.95,63.88,16.42,95.82,.01,.06,.02,.12,.03,.19,1.23,7.29,11.31,5.51,12.52-.04,.35-1.62,.82-3.26,1.14-4.84,7.48-36.95,14.54-73.99,21.81-110.99,2.09-10.65,4.14-21.67,18.27-21.67,13.34,0,15.19,11.93,17.02,22.62,5.29,30.78,11.05,61.48,16.06,92.3"/>
    <circle class="cls-7" cx="9.66" cy="148.01" r="9.66"/>
  </g>
</svg>