<?xml version="1.0" encoding="utf-8"?>
<!-- Generator: Adobe Illustrator 26.5.0, SVG Export Plug-In . SVG Version: 6.00 Build 0)  -->
<svg version="1.1" id="Layer_1" xmlns="http://www.w3.org/2000/svg" xmlns:xlink="http://www.w3.org/1999/xlink" x="0px" y="0px"
	 viewBox="0 0 1267.3 272.7" style="enable-background:new 0 0 1267.3 272.7;" xml:space="preserve">
<style type="text/css">
	.st0{fill:#80807E;}
	.st1{fill:url(#SVGID_1_);}
	.st2{fill:url(#SVGID_00000145774878274562859370000013931027036353084580_);}
	.st3{fill:url(#SVGID_00000090291776606564697400000016623994673102205594_);}
	.st4{fill:none;stroke:#FFFFFF;stroke-width:17;stroke-linecap:round;stroke-miterlimit:10;}
	.st5{fill:url(#SVGID_00000049202875149622477790000001375086834099086994_);}
	.st6{fill:url(#SVGID_00000080902787248301209440000014808810508479747729_);}
	.st7{fill:url(#SVGID_00000088106346864238300790000017003192204043366589_);}
	.st8{fill:url(#SVGID_00000062895271956925996780000002873813174559400327_);}
	.st9{fill:url(#SVGID_00000136401028376349166450000017620934826554204054_);}
	.st10{fill:url(#SVGID_00000003812662729476112090000000507930670042147722_);}
	.st11{fill:url(#SVGID_00000033336438307118927050000008730389514521889705_);}
	.st12{fill:url(#SVGID_00000080900003983544992710000004714341094190102687_);}
</style>
<path class="st0" d="M858.2,185.6c-2.7-1.3-6.6-1.9-11.5-1.9c-9.3,0-14,2.2-14,6.7c0,1.8,0.6,3.1,1.9,3.9s3.3,1.3,6.2,1.6l19.8,1.8
	c5.5,0.5,9.6,1.9,12.5,4.3c2.9,2.4,4.3,6.1,4.3,11.1c0,6.2-2.5,10.7-7.5,13.2c-5,2.6-12.4,3.9-22.3,3.9s-16.8-1.4-21.8-4.2
	c-5-2.8-7.6-7.8-7.8-14.8h13c0.3,3.9,1.9,6.6,4.7,8c2.9,1.4,7,2.2,12.4,2.2c10.7,0,16-2.5,16-7.5c0-2.1-0.7-3.7-2-4.6
	c-1.3-0.9-3.3-1.5-5.9-1.8l-19.7-2c-5.5-0.5-9.7-1.9-12.6-4.1c-2.9-2.2-4.3-5.6-4.3-10.2c0-10.8,9.1-16.2,27.4-16.2
	c8.9,0,15.8,1.3,20.8,3.9c5,2.6,7.6,7.1,7.8,13.3h-13C862.4,189.1,860.9,186.9,858.2,185.6L858.2,185.6z"/>
<path class="st0" d="M465.5,228.8h-13.5l-12-19.9h-22.9v19.9h-11.6v-52.3h39.9c6.6,0,11.4,1.3,14.4,3.8s4.5,6.6,4.5,12.2
	c0,4.5-1.1,7.9-3.3,10.1c-2.2,2.3-5.1,3.8-8.8,4.4v0.4L465.5,228.8L465.5,228.8z M449.8,198c1.2-1.1,1.9-2.8,1.9-5.1s-0.6-4-1.9-5.1
	c-1.2-1.1-3.2-1.6-5.9-1.6h-26.6v13.5h26.6C446.5,199.6,448.5,199.1,449.8,198L449.8,198z"/>
<path class="st0" d="M490.3,197.3h38.3v8.8h-38.3v13.5h40.6v9.2h-52.1v-52.3h51.2v9.2h-39.6V197.3L490.3,197.3z"/>
<path class="st0" d="M583.6,187.9c-2.9-2.1-7.1-3.2-12.5-3.2c-6.1,0-10.9,1.5-14.3,4.6c-3.5,3.1-5.2,7.5-5.2,13.4s1.7,10.3,5.2,13.4
	c3.5,3.1,8.2,4.6,14.3,4.6c5.5,0,9.7-1.1,12.6-3.4c2.9-2.2,4.5-5.2,4.7-8.9h13.8c-0.1,4.5-1.4,8.5-3.9,11.8
	c-2.5,3.3-6.1,5.8-10.7,7.6s-10.1,2.6-16.5,2.6s-12.1-1-17-3.1s-8.6-5.1-11.3-9.3s-4-9.2-4-15.3s1.3-11.1,4-15.3
	c2.7-4.1,6.5-7.2,11.3-9.3c4.9-2.1,10.5-3.1,17-3.1s11.8,0.9,16.4,2.6c4.6,1.7,8.1,4.1,10.5,7.3c2.5,3.1,3.8,6.8,4.1,11h-13.6
	C588.1,192.7,586.5,190.1,583.6,187.9L583.6,187.9z"/>
<path class="st0" d="M666.6,182c5.9,4.7,8.9,11.5,8.9,20.6s-3,15.9-8.9,20.6s-14,7-24.2,7s-18.3-2.3-24.2-7s-8.9-11.5-8.9-20.6
	s3-15.9,8.9-20.6s14-7,24.2-7S660.7,177.3,666.6,182z M657.4,216c3.6-3,5.3-7.5,5.3-13.4s-1.8-10.4-5.3-13.4s-8.6-4.5-15-4.5
	s-11.5,1.5-15,4.5s-5.3,7.5-5.3,13.4s1.8,10.4,5.3,13.4c3.6,3,8.6,4.5,15,4.5S653.8,219,657.4,216z"/>
<path class="st0" d="M744.5,228.8h-13.5l-12-19.9h-22.8v19.9h-11.6v-52.3h39.9c6.6,0,11.4,1.3,14.4,3.8s4.5,6.6,4.5,12.2
	c0,4.5-1.1,7.9-3.3,10.1c-2.2,2.3-5.1,3.8-8.8,4.4v0.4L744.5,228.8L744.5,228.8z M728.7,198c1.2-1.1,1.9-2.8,1.9-5.1s-0.6-4-1.9-5.1
	c-1.2-1.1-3.2-1.6-5.9-1.6h-26.7v13.5h26.7C725.5,199.6,727.5,199.1,728.7,198L728.7,198z"/>
<path class="st0" d="M805.2,182.8c4.8,4.2,7.2,10.8,7.2,19.8s-2.4,15.6-7.2,19.8c-4.8,4.2-11.7,6.3-20.9,6.3h-31.6v-52.3h31.6
	C793.4,176.5,800.4,178.6,805.2,182.8z M764.3,185.9v33.5h17.5c11.9,0,17.8-5.6,17.8-16.8s-5.9-16.8-17.8-16.8L764.3,185.9
	L764.3,185.9z"/>
<g>
	<path class="st0" d="M555.9,144.7h-24.6V57.3h-0.8l-38.9,87.4h-20.4l-39.5-88.6H431v88.6h-23.5v-111h39.5l34.2,78.7h0.6l33.9-78.7
		h40.1L555.9,144.7L555.9,144.7z"/>
	<path class="st0" d="M579.7,144.7v-111h24.6v111L579.7,144.7L579.7,144.7z"/>
	<path class="st0" d="M755.2,144.7h-32.7l-36.2-41.4l-36.1,41.4h-32.5l52.7-58.6l-47.7-52.4h31.7l32.2,36.5l32.7-36.5h31.1
		l-47.7,52.4L755.2,144.7L755.2,144.7z"/>
	<path class="st0" d="M869.8,116.9h0.8l42.5-83.2h28.1l-58,111h-26.4l-58-111h28.5L869.8,116.9L869.8,116.9z"/>
	<path class="st0" d="M961.4,144.7v-111H986v111L961.4,144.7L961.4,144.7z"/>
	<path class="st0" d="M1128.3,94.1c3.1,4.2,4.6,10.4,4.6,18.7c0,10.8-3.1,18.8-9.2,24c-6.1,5.2-15.8,7.9-28.9,7.9h-84.9v-111h83.2
		c23.9,0,35.9,9.5,35.9,28.6c0,5.9-1.1,10.7-3.4,14.5s-5.6,6.3-9.8,7.8v0.8C1121.1,87,1125.3,89.9,1128.3,94.1L1128.3,94.1z
		 M1098.6,75.5c2.4-2.1,3.7-5.4,3.7-9.9s-1.2-7.9-3.7-10c-2.4-2.1-6.2-3.1-11.4-3.1h-52.7v26.1h52.7
		C1092.4,78.7,1096.2,77.6,1098.6,75.5z M1101.9,122.3c2.8-2.4,4.1-6.2,4.1-11.3s-1.4-9-4.1-11.4c-2.8-2.4-7.1-3.7-13.1-3.7h-54.3
		v30h54.3C1094.8,125.9,1099.2,124.7,1101.9,122.3z"/>
	<path class="st0" d="M1177.1,77.9h81.3v18.7h-81.3v28.6h86.1v19.6h-110.7v-111h108.7v19.6h-84.1L1177.1,77.9L1177.1,77.9z"/>
	
		<linearGradient id="SVGID_1_" gradientUnits="userSpaceOnUse" x1="857.7291" y1="189.2307" x2="873.8905" y2="217.2231" gradientTransform="matrix(1 0 0 -1 0 274)">
		<stop  offset="0" style="stop-color:#1F92F1"/>
		<stop  offset="0.64" style="stop-color:#09BCE3"/>
		<stop  offset="1" style="stop-color:#00CFDD"/>
	</linearGradient>
	<path class="st1" d="M870.3,91.1l15.4-26.6c0.3-0.5-0.1-1.2-0.7-1.2h-30.7c-0.6,0-1,0.7-0.7,1.2L869,91.1
		C869.3,91.7,870,91.7,870.3,91.1z"/>
</g>
<g>
	
		<linearGradient id="SVGID_00000029739834590073275020000013983722439526770622_" gradientUnits="userSpaceOnUse" x1="251.04" y1="37.14" x2="282.1" y2="37.14" gradientTransform="matrix(1 0 0 -1 0 274)">
		<stop  offset="0" style="stop-color:#1F92F1"/>
		<stop  offset="0.64" style="stop-color:#09BCE3"/>
		<stop  offset="1" style="stop-color:#00CFDD"/>
	</linearGradient>
	<circle style="fill:url(#SVGID_00000029739834590073275020000013983722439526770622_);" cx="266.6" cy="236.9" r="15.5"/>
	
		<linearGradient id="SVGID_00000106867150607203103500000003273227539596930956_" gradientUnits="userSpaceOnUse" x1="82.84" y1="137.645" x2="328.7425" y2="137.645" gradientTransform="matrix(1 0 0 -1 0 274)">
		<stop  offset="0" style="stop-color:#1F92F1"/>
		<stop  offset="0.47" style="stop-color:#0FB2E6"/>
		<stop  offset="0.64" style="stop-color:#09BCE2"/>
		<stop  offset="1" style="stop-color:#00CFDD"/>
	</linearGradient>
	<path style="fill:url(#SVGID_00000106867150607203103500000003273227539596930956_);" d="M310.4,104.6L137.8,5
		c-24.4-14.1-55,3.5-55,31.7V236c0,28.2,30.5,45.8,55,31.7l172.6-99.7C334.8,154,334.8,118.7,310.4,104.6L310.4,104.6z"/>
	<path class="st4" d="M38.2,147.6c12.4,2.5,13,9.2,16,19.8c2.3,8,3.1,19.2,10.9,23.8c3.1,1.9,8.3,1.6,9.5,0.6
		c4.6-3.9,4.7-10.4,5.8-15.6c4.9-21.8,9.2-43.8,13.5-65.8c1.9-10,5.3-18.9,17-18.9c11.8,0,15.1,8.8,16.7,18.9
		c5.3,32,11,63.9,16.4,95.8c0,0.1,0,0.1,0,0.2c1.2,7.3,11.3,5.5,12.5,0c0.4-1.6,0.8-3.3,1.1-4.8c7.5-36.9,14.5-74,21.8-111
		c2.1-10.7,4.1-21.7,18.3-21.7c13.3,0,15.2,11.9,17,22.6c5.3,30.8,11.1,61.5,16.1,92.3"/>
	
		<linearGradient id="SVGID_00000165200747850516087430000006290269731355698066_" gradientUnits="userSpaceOnUse" x1="0" y1="125.99" x2="19.32" y2="125.99" gradientTransform="matrix(1 0 0 -1 0 274)">
		<stop  offset="0" style="stop-color:#1F92F1"/>
		<stop  offset="0.64" style="stop-color:#09BCE3"/>
		<stop  offset="1" style="stop-color:#00CFDD"/>
	</linearGradient>
	<circle style="fill:url(#SVGID_00000165200747850516087430000006290269731355698066_);" cx="9.7" cy="148" r="9.7"/>
</g>
<g>
	
		<linearGradient id="SVGID_00000152221762186226508970000017464441621633459084_" gradientUnits="userSpaceOnUse" x1="947.2207" y1="228.7598" x2="947.2207" y2="176.4502">
		<stop  offset="0" style="stop-color:#1F92F1"/>
		<stop  offset="0.47" style="stop-color:#0FB2E6"/>
		<stop  offset="0.64" style="stop-color:#09BCE2"/>
		<stop  offset="1" style="stop-color:#00CFDD"/>
	</linearGradient>
	<path style="fill:url(#SVGID_00000152221762186226508970000017464441621633459084_);" d="M962.2,228.8l-3.4-8.2h-23.3l-3.4,8.2
		h-12.6l21.3-52.3h12.6l21.3,52.3H962.2z M939.4,211h15.5l-7.8-19.1L939.4,211z"/>
	
		<linearGradient id="SVGID_00000097481808536338937480000002362825846691596694_" gradientUnits="userSpaceOnUse" x1="1006.915" y1="228.7598" x2="1006.915" y2="176.4502">
		<stop  offset="0" style="stop-color:#1F92F1"/>
		<stop  offset="0.47" style="stop-color:#0FB2E6"/>
		<stop  offset="0.64" style="stop-color:#09BCE2"/>
		<stop  offset="1" style="stop-color:#00CFDD"/>
	</linearGradient>
	<path style="fill:url(#SVGID_00000097481808536338937480000002362825846691596694_);" d="M1029,228.8h-12.8l-12-17H996v17h-11.2
		v-52.3h23.5c5.7,0,10.4,1.7,14.1,4.9c3.7,3.3,5.6,7.5,5.6,12.7c0,3.9-1.1,7.2-3.2,10.1c-2.2,2.9-5,5-8.6,6.2L1029,228.8z
		 M996,186.7v14.8h11.1c2.8,0,5.1-0.7,6.8-2c1.7-1.3,2.6-3.1,2.6-5.4c0-2.2-0.9-4-2.6-5.4c-1.7-1.3-4-2-6.8-2H996z"/>
	
		<linearGradient id="SVGID_00000026139669004158203420000003088450656793484933_" gradientUnits="userSpaceOnUse" x1="1059.4141" y1="228.7598" x2="1059.4141" y2="176.4502">
		<stop  offset="0" style="stop-color:#1F92F1"/>
		<stop  offset="0.47" style="stop-color:#0FB2E6"/>
		<stop  offset="0.64" style="stop-color:#09BCE2"/>
		<stop  offset="1" style="stop-color:#00CFDD"/>
	</linearGradient>
	<path style="fill:url(#SVGID_00000026139669004158203420000003088450656793484933_);" d="M1053.8,228.8v-42.2h-16.3v-10.1h43.9
		v10.1H1065v42.2H1053.8z"/>
	
		<linearGradient id="SVGID_00000112590309143761145940000006275080377097568905_" gradientUnits="userSpaceOnUse" x1="1098.4741" y1="228.7598" x2="1098.4741" y2="176.4502">
		<stop  offset="0" style="stop-color:#1F92F1"/>
		<stop  offset="0.47" style="stop-color:#0FB2E6"/>
		<stop  offset="0.64" style="stop-color:#09BCE2"/>
		<stop  offset="1" style="stop-color:#00CFDD"/>
	</linearGradient>
	<path style="fill:url(#SVGID_00000112590309143761145940000006275080377097568905_);" d="M1092.8,228.8v-52.3h11.3v52.3H1092.8z"/>
	
		<linearGradient id="SVGID_00000140725284753857938590000018041605306806037660_" gradientUnits="userSpaceOnUse" x1="1136.6963" y1="229.6738" x2="1136.6963" y2="175.5371">
		<stop  offset="0" style="stop-color:#1F92F1"/>
		<stop  offset="0.47" style="stop-color:#0FB2E6"/>
		<stop  offset="0.64" style="stop-color:#09BCE2"/>
		<stop  offset="1" style="stop-color:#00CFDD"/>
	</linearGradient>
	<path style="fill:url(#SVGID_00000140725284753857938590000018041605306806037660_);" d="M1138.1,229.7c-9.2,0-17-2.9-23.2-8.7
		l6.5-7.7c5.3,4.6,11,6.9,17.2,6.9c2.7,0,4.8-0.5,6.3-1.6c1.5-1.1,2.2-2.5,2.2-4.2c0-1.8-0.8-3.1-2.3-4c-1.5-0.9-4.5-1.8-8.7-2.7
		c-3.1-0.7-5.7-1.4-7.7-2.1c-2-0.7-4-1.7-5.8-2.9c-1.8-1.2-3.2-2.7-4.1-4.5c-0.9-1.8-1.3-3.9-1.3-6.3c0-4.8,1.8-8.7,5.4-11.8
		c3.6-3,8.2-4.5,14-4.5c8,0,14.8,2.4,20.5,7.2l-5.9,8.1c-4.8-3.9-9.8-5.8-14.9-5.8c-2.3,0-4.2,0.5-5.6,1.6c-1.4,1.1-2.1,2.4-2.1,4
		c0,1.8,0.8,3.2,2.4,4.1c1.6,0.9,4.5,1.8,8.8,2.8c6.3,1.4,11,3.2,14.1,5.4c3.1,2.2,4.6,5.6,4.6,10.1c0,5-1.8,9-5.4,12.1
		C1149.5,228.2,1144.5,229.7,1138.1,229.7z"/>
	
		<linearGradient id="SVGID_00000035499974641853270620000007117991389135591577_" gradientUnits="userSpaceOnUse" x1="1189.5381" y1="228.7598" x2="1189.5381" y2="176.4502">
		<stop  offset="0" style="stop-color:#1F92F1"/>
		<stop  offset="0.47" style="stop-color:#0FB2E6"/>
		<stop  offset="0.64" style="stop-color:#09BCE2"/>
		<stop  offset="1" style="stop-color:#00CFDD"/>
	</linearGradient>
	<path style="fill:url(#SVGID_00000035499974641853270620000007117991389135591577_);" d="M1183.9,228.8v-42.2h-16.3v-10.1h43.9
		v10.1h-16.3v42.2H1183.9z"/>
	
		<linearGradient id="SVGID_00000147219253537224505430000016247192287554888347_" gradientUnits="userSpaceOnUse" x1="1241.1621" y1="229.6738" x2="1241.1621" y2="175.5371">
		<stop  offset="0" style="stop-color:#1F92F1"/>
		<stop  offset="0.47" style="stop-color:#0FB2E6"/>
		<stop  offset="0.64" style="stop-color:#09BCE2"/>
		<stop  offset="1" style="stop-color:#00CFDD"/>
	</linearGradient>
	<path style="fill:url(#SVGID_00000147219253537224505430000016247192287554888347_);" d="M1242.6,229.7c-9.2,0-17-2.9-23.2-8.7
		l6.5-7.7c5.3,4.6,11,6.9,17.2,6.9c2.7,0,4.8-0.5,6.3-1.6c1.5-1.1,2.2-2.5,2.2-4.2c0-1.8-0.8-3.1-2.3-4c-1.5-0.9-4.5-1.8-8.7-2.7
		c-3.1-0.7-5.7-1.4-7.7-2.1c-2-0.7-4-1.7-5.8-2.9c-1.8-1.2-3.2-2.7-4.1-4.5c-0.9-1.8-1.3-3.9-1.3-6.3c0-4.8,1.8-8.7,5.4-11.8
		c3.6-3,8.2-4.5,14-4.5c8,0,14.8,2.4,20.5,7.2l-5.9,8.1c-4.8-3.9-9.8-5.8-14.9-5.8c-2.3,0-4.2,0.5-5.6,1.6c-1.4,1.1-2.1,2.4-2.1,4
		c0,1.8,0.8,3.2,2.4,4.1c1.6,0.9,4.5,1.8,8.8,2.8c6.3,1.4,11,3.2,14.1,5.4c3.1,2.2,4.6,5.6,4.6,10.1c0,5-1.8,9-5.4,12.1
		C1253.9,228.2,1249,229.7,1242.6,229.7z"/>
</g>
</svg>
