<?xml version="1.0" encoding="UTF-8"?>
<svg id="Layer_1" data-name="Layer 1" xmlns="http://www.w3.org/2000/svg" xmlns:xlink="http://www.w3.org/1999/xlink" viewBox="0 0 1918.98 743.76">
  <defs>
    <style>
      .cls-1 {
        fill: url(#linear-gradient-2);
      }

      .cls-2 {
        fill: #fff;
      }

      .cls-3 {
        filter: url(#drop-shadow-1);
      }

      .cls-4 {
        fill: #80807E;
      }

      .cls-5 {
        fill: url(#linear-gradient-3);
      }

      .cls-6 {
        fill: url(#linear-gradient);
      }

      .cls-7 {
        fill: url(#linear-gradient-4);
      }
    </style>
    <linearGradient id="linear-gradient" x1="450.15" y1="680.68" x2="466.31" y2="652.69" gradientUnits="userSpaceOnUse">
      <stop offset="0" stop-color="#1f92f1"/>
      <stop offset=".64" stop-color="#09bce3"/>
      <stop offset="1" stop-color="#00cfdd"/>
    </linearGradient>
    <linearGradient id="linear-gradient-2" x1="1124.29" y1="461.98" x2="1184.89" y2="461.98" xlink:href="#linear-gradient"/>
    <linearGradient id="linear-gradient-3" x1="796.25" y1="265.95" x2="1275.85" y2="265.95" gradientUnits="userSpaceOnUse">
      <stop offset="0" stop-color="#1f92f1"/>
      <stop offset=".47" stop-color="#0fb2e6"/>
      <stop offset=".65" stop-color="#09bce2"/>
      <stop offset="1" stop-color="#00cfdd"/>
    </linearGradient>
    <filter id="drop-shadow-1" filterUnits="userSpaceOnUse">
      <feOffset dx="7" dy="7"/>
      <feGaussianBlur result="blur" stdDeviation="5"/>
      <feFlood flood-color="#000" flood-opacity=".1"/>
      <feComposite in2="blur" operator="in"/>
      <feComposite in="SourceGraphic"/>
    </filter>
    <linearGradient id="linear-gradient-4" x1="643.13" y1="265.38" x2="681.16" y2="265.38" xlink:href="#linear-gradient"/>
  </defs>
  <g>
    <path class="cls-4" d="M148.33,740.65h-24.57v-87.38h-.78l-38.87,87.38h-20.37l-39.49-88.63h-.78v88.63H0v-111.02H39.49l34.21,78.68h.62l33.9-78.68h40.11v111.02Z"/>
    <path class="cls-4" d="M172.12,740.65v-111.02h24.57v111.02h-24.57Z"/>
    <path class="cls-4" d="M347.66,740.65h-32.65l-36.23-41.36-36.07,41.36h-32.5l52.71-58.62-47.73-52.4h31.72l32.19,36.54,32.65-36.54h31.1l-47.73,52.4,52.55,58.62Z"/>
    <path class="cls-4" d="M462.21,712.81h.78l42.49-83.18h28.14l-58.04,111.02h-26.43l-58.04-111.02h28.45l42.65,83.18Z"/>
    <path class="cls-4" d="M553.83,740.65v-111.02h24.57v111.02h-24.57Z"/>
    <path class="cls-4" d="M720.75,690.04c3.06,4.2,4.59,10.44,4.59,18.74,0,10.78-3.06,18.79-9.17,24.02-6.12,5.24-15.76,7.85-28.92,7.85h-84.9v-111.02h83.18c23.94,0,35.92,9.54,35.92,28.61,0,5.91-1.14,10.73-3.42,14.46-2.28,3.73-5.55,6.32-9.8,7.77v.78c5.29,1.66,9.46,4.59,12.52,8.79Zm-29.7-18.66c2.43-2.12,3.65-5.42,3.65-9.87s-1.22-7.88-3.65-9.95c-2.44-2.07-6.25-3.11-11.43-3.11h-52.71v26.12h52.71c5.18,0,8.99-1.06,11.43-3.19Zm3.27,46.88c2.75-2.38,4.12-6.17,4.12-11.35s-1.38-8.99-4.12-11.43c-2.75-2.43-7.13-3.65-13.14-3.65h-54.26v30.01h54.26c6.01,0,10.39-1.19,13.14-3.58Z"/>
    <path class="cls-4" d="M769.49,673.79h81.32v18.66h-81.32v28.61h86.14v19.59h-110.71v-111.02h108.68v19.59h-84.12v24.57Z"/>
    <path class="cls-4" d="M1057.29,740.65h-28.61l-25.5-42.29h-48.51v42.29h-24.57v-111.02h84.74c13.99,0,24.18,2.72,30.55,8.16,6.38,5.44,9.56,14.07,9.56,25.89,0,9.54-2.33,16.71-7,21.53-4.67,4.82-10.88,7.96-18.66,9.41v.93l27.99,45.09Zm-33.51-65.38c2.64-2.33,3.96-5.93,3.96-10.81s-1.32-8.47-3.96-10.81c-2.64-2.33-6.82-3.5-12.52-3.5h-56.6v28.61h56.6c5.7,0,9.87-1.17,12.52-3.5Z"/>
    <path class="cls-4" d="M1099.27,673.79h81.32v18.66h-81.32v28.61h86.14v19.59h-110.71v-111.02h108.68v19.59h-84.12v24.57Z"/>
    <path class="cls-4" d="M1295.18,653.89c-6.22-4.56-15.03-6.84-26.43-6.84-12.96,0-23.12,3.24-30.48,9.72-7.36,6.48-11.04,15.94-11.04,28.38s3.68,21.9,11.04,28.38c7.36,6.48,17.52,9.72,30.48,9.72,11.71,0,20.65-2.38,26.82-7.15,6.17-4.77,9.51-11.09,10.03-18.97h29.23c-.21,9.64-2.98,17.96-8.32,24.96-5.34,7-12.91,12.36-22.7,16.09-9.79,3.73-21.48,5.6-35.06,5.6s-25.68-2.18-36-6.53c-10.32-4.35-18.32-10.91-24.02-19.67-5.7-8.76-8.55-19.56-8.55-32.42s2.85-23.66,8.55-32.42c5.7-8.76,13.71-15.32,24.02-19.67,10.31-4.35,22.31-6.53,36-6.53s25.06,1.81,34.75,5.44c9.69,3.63,17.15,8.78,22.39,15.47,5.23,6.69,8.11,14.49,8.63,23.4h-28.92c-.73-6.74-4.2-12.39-10.42-16.95Z"/>
    <path class="cls-4" d="M1471.5,641.37c12.54,9.9,18.81,24.49,18.81,43.77s-6.27,33.87-18.81,43.77c-12.54,9.9-29.7,14.85-51.47,14.85s-38.92-4.95-51.46-14.85c-12.54-9.9-18.81-24.49-18.81-43.77s6.27-33.87,18.81-43.77c12.54-9.9,29.7-14.85,51.46-14.85s38.92,4.95,51.47,14.85Zm-19.59,72.22c7.56-6.43,11.35-15.91,11.35-28.45s-3.79-22.03-11.35-28.45c-7.57-6.43-18.19-9.64-31.88-9.64s-24.31,3.21-31.87,9.64c-7.57,6.43-11.35,15.91-11.35,28.45s3.78,22.03,11.35,28.45c7.57,6.43,18.19,9.64,31.87,9.64s24.31-3.21,31.88-9.64Z"/>
    <path class="cls-4" d="M1636.93,740.65h-28.61l-25.5-42.29h-48.51v42.29h-24.57v-111.02h84.74c13.99,0,24.18,2.72,30.55,8.16,6.38,5.44,9.56,14.07,9.56,25.89,0,9.54-2.33,16.71-7,21.53-4.67,4.82-10.88,7.96-18.66,9.41v.93l27.99,45.09Zm-33.51-65.38c2.64-2.33,3.96-5.93,3.96-10.81s-1.32-8.47-3.96-10.81c-2.64-2.33-6.82-3.5-12.52-3.5h-56.6v28.61h56.6c5.7,0,9.87-1.17,12.52-3.5Z"/>
    <path class="cls-4" d="M1765.67,643c10.16,8.92,15.24,22.96,15.24,42.14s-5.08,33.22-15.24,42.14c-10.16,8.92-24.93,13.37-44.31,13.37h-67.01v-111.02h67.01c19.38,0,34.15,4.46,44.31,13.37Zm-86.76,6.53v71.21h37.16c25.19,0,37.78-11.87,37.78-35.61s-12.59-35.61-37.78-35.61h-37.16Z"/>
    <path class="cls-4" d="M1878.32,649.07c-5.75-2.69-13.92-4.04-24.49-4.04-19.8,0-29.7,4.77-29.7,14.3,0,3.84,1.35,6.58,4.04,8.24,2.69,1.66,7.05,2.8,13.06,3.42l41.98,3.73c11.61,1.04,20.47,4.07,26.59,9.1,6.12,5.03,9.17,12.88,9.17,23.56,0,13.27-5.34,22.65-16.01,28.14-10.68,5.49-26.43,8.24-47.27,8.24s-35.66-2.98-46.33-8.94c-10.68-5.96-16.22-16.45-16.64-31.49h27.52c.62,8.29,3.96,13.97,10.03,17.03,6.06,3.06,14.85,4.59,26.35,4.59,22.7,0,34.05-5.29,34.05-15.86,0-4.56-1.43-7.83-4.28-9.8-2.85-1.97-7.02-3.21-12.52-3.73l-41.83-4.2c-11.71-1.14-20.6-4.04-26.67-8.71-6.06-4.66-9.1-11.92-9.1-21.77,0-22.91,19.38-34.36,58.15-34.36,18.86,0,33.61,2.8,44.24,8.4,10.62,5.6,16.14,15.03,16.56,28.3h-27.52c-.52-6.74-3.65-11.45-9.41-14.15Z"/>
    <path class="cls-6" d="M462.76,687.04l15.36-26.61c.31-.53-.08-1.2-.69-1.2h-30.72c-.61,0-1,.66-.69,1.2l15.36,26.61c.31,.53,1.07,.53,1.38,0Z"/>
  </g>
  <g>
    <circle class="cls-1" cx="1154.59" cy="461.98" r="30.3"/>
    <path class="cls-5" d="M1240.12,204.06L903.44,9.68c-47.64-27.5-107.19,6.88-107.19,61.89V460.33c0,55.01,59.55,89.39,107.19,61.89l336.68-194.38c47.64-27.5,47.64-96.27,0-123.77Z"/>
    <g class="cls-3">
      <path class="cls-2" d="M1018.76,173.19c-13.04,64.06-26.09,146.45-39.1,210.51-1.14,5.63-1.56,11.43-2.96,16.99-5.64,22.38-18.3,37.89-43.08,36.58-22.54-1.2-34.85-15.23-38.68-37.24-8.86-50.97-17.87-101.92-26.93-152.86-1.54-8.68-3.23-17.33-5.97-26.06-1.78-5.66-9.92-5.28-11.18,.52-7.65,35.21-15.54,70.37-22.28,105.75-5.06,26.59-15.99,46.34-46.08,46.02-30.41-.32-40.11-21.66-45.2-47.45-3.65-18.51-2.82-39.52-25.63-48.84-6.18-2.53-9.06-10.45-5.75-17.95,3.71-8.41,10.84-11.88,19.61-10.9,22.6,2.5,33.38,17.03,39.31,37.71,4.47,15.56,2.55,33.57,13.73,47.31,1.88,2.31,5.26,2.79,7.69,1.08,10.72-7.53,9.21-20.3,11.49-30.38,9.63-42.6,18.15-85.47,26.6-128.33,3.83-19.43,10.39-36.88,33.55-36.94,23.28-.06,29.73,17.07,33.06,36.88,10.5,62.35,21.64,124.6,32.45,186.89,1.64,9.45,2.3,19.19,6.98,28.97,2.02,4.21,8.03,4.39,10.26,.29,6.85-12.61,7.29-26.05,9.83-38.42,14.78-72.07,28.73-144.31,43.1-216.47,4.13-20.76,8.18-42.96,36.1-42.27,28.12,.69,30,23.26,33.64,44.11,10.46,60.03,21.83,119.91,31.73,180.03,2.21,13.42,10.46,33.69-10.78,37.56-20.99,3.82-20.52-16.71-23.1-30.99-8.05-44.5-16-107.36-23.96-151.88-6.22-18.08-16.61-8.91-18.46-.22Z"/>
      <path class="cls-7" d="M681.16,265.67c-1.79,11.64-8.28,18.4-20.33,17.94-10.4-.4-17.1-6.75-17.65-16.87-.64-11.85,6.17-19.17,18.22-19.6,12.2-.44,18.25,6.85,19.77,18.53Z"/>
    </g>
  </g>
</svg>