<?xml version="1.0" encoding="UTF-8"?><svg id="Layer_1" xmlns="http://www.w3.org/2000/svg" xmlns:xlink="http://www.w3.org/1999/xlink" viewBox="0 0 1061.23 881.42"><defs><style>.cls-1{fill:url(#linear-gradient-2);}.cls-2{fill:#fb2962;}.cls-3{fill:none;filter:url(#drop-shadow-1);stroke:#fff;stroke-linecap:round;stroke-miterlimit:10;stroke-width:55.61px;}.cls-4{fill:url(#linear-gradient);}</style><linearGradient id="linear-gradient" x1="810.04" y1="765.2" x2="910.29" y2="765.2" gradientUnits="userSpaceOnUse"><stop offset="0" stop-color="#6666bf"/><stop offset="1" stop-color="#03cddc"/></linearGradient><linearGradient id="linear-gradient-2" x1="266.48" y1="440.71" x2="1061.23" y2="440.71" gradientUnits="userSpaceOnUse"><stop offset="0" stop-color="#03cddc"/><stop offset=".5" stop-color="#6666bf"/><stop offset="1" stop-color="#fb4762"/></linearGradient><filter id="drop-shadow-1" filterUnits="userSpaceOnUse"><feOffset dx="7.08" dy="7.08"/><feGaussianBlur result="blur" stdDeviation="5.06"/><feFlood flood-color="#000" flood-opacity=".05"/><feComposite in2="blur" operator="in"/><feComposite in="SourceGraphic"/></filter></defs><circle class="cls-4" cx="860.16" cy="765.2" r="50.12"/><path class="cls-1" d="M1002.03,338.16L444.1,16.04c-78.94-45.58-177.62,11.39-177.62,102.55V762.83c0,91.16,98.68,148.13,177.62,102.55l557.92-322.12c78.94-45.58,78.94-159.52,0-205.1Z"/><path class="cls-3" d="M123.23,477.2c40.04,8.17,41.81,29.58,51.5,63.78,7.29,25.75,10.14,61.84,35.12,76.87,10.04,6.04,26.77,5.03,30.53,1.79,14.73-12.7,15.05-33.59,18.77-50.25,15.73-70.49,29.64-141.4,43.44-212.31,6.26-32.14,16.96-61.01,54.79-61.12,38.02-.1,48.55,28.25,54,61.01,17.14,103.16,35.34,206.13,53,309.2,.03,.2,.07,.4,.1,.6,3.97,23.51,36.51,17.79,40.41-.14,1.14-5.23,2.66-10.51,3.69-15.62,24.14-119.23,46.92-238.75,70.38-358.13,6.75-34.35,13.35-69.93,58.96-69.93,43.05,0,49,38.48,54.93,72.98,17.08,99.32,35.64,198.38,51.82,297.84"/><circle class="cls-2" cx="31.16" cy="478.48" r="31.16"/></svg>