<?xml version="1.0" encoding="utf-8"?>
<!-- Generator: Adobe Illustrator 26.5.0, SVG Export Plug-In . SVG Version: 6.00 Build 0)  -->
<svg version="1.1" id="Layer_1" xmlns="http://www.w3.org/2000/svg" xmlns:xlink="http://www.w3.org/1999/xlink" x="0px" y="0px"
	 viewBox="0 0 1267.3 272.7" style="enable-background:new 0 0 1267.3 272.7;" xml:space="preserve">
<style type="text/css">
	.st0{fill:#05A9BC;}
	.st1{fill:url(#SVGID_1_);}
	.st2{fill:none;stroke:#FFFFFF;stroke-width:17;stroke-linecap:round;stroke-miterlimit:10;}
	.st3{fill:#00CCCC;}
	.st4{fill:#D1D9E1;}
	.st5{fill:#FFFFFF;}
	.st6{fill:url(#SVGID_00000180333903519885475610000018383901978531100840_);}
	.st7{fill:url(#SVGID_00000023990884168427598490000002360781171359712697_);}
	.st8{fill:url(#SVGID_00000124154382414328337170000006332280894474083508_);}
	.st9{fill:url(#SVGID_00000093166466565635810190000003482997921680048516_);}
	.st10{fill:url(#SVGID_00000003808389335445578360000011016610034524996269_);}
	.st11{fill:url(#SVGID_00000145738192504531668710000013657701899939544497_);}
	.st12{fill:url(#SVGID_00000036957590248749243400000016055905837880551552_);}
	.st13{fill:url(#SVGID_00000062888958004258241050000017776596050948914578_);}
</style>
<g>
	<circle class="st0" cx="266.6" cy="236.9" r="15.5"/>
	
		<linearGradient id="SVGID_1_" gradientUnits="userSpaceOnUse" x1="82.8" y1="-188.35" x2="328.7" y2="-188.35" gradientTransform="matrix(1 0 0 -1 0 -52)">
		<stop  offset="0" style="stop-color:#00CCCC"/>
		<stop  offset="1" style="stop-color:#05A9BC"/>
	</linearGradient>
	<path class="st1" d="M310.4,104.6L137.8,5c-24.4-14.1-55,3.5-55,31.7V236c0,28.2,30.5,45.8,55,31.7L310.4,168
		C334.8,154,334.8,118.7,310.4,104.6L310.4,104.6z"/>
	<path class="st2" d="M38.2,147.6c12.4,2.5,13,9.2,16,19.8c2.3,8,3.1,19.2,10.9,23.8c3.1,1.9,8.3,1.6,9.5,0.6
		c4.6-3.9,4.7-10.4,5.8-15.6c4.9-21.8,9.2-43.8,13.5-65.8c1.9-10,5.3-18.9,17-18.9c11.8,0,15.1,8.8,16.7,18.9
		c5.3,32,11,63.9,16.4,95.8c0,0.1,0,0.1,0,0.2c1.2,7.3,11.3,5.5,12.5,0c0.4-1.6,0.8-3.3,1.1-4.8c7.5-36.9,14.5-74,21.8-111
		c2.1-10.7,4.1-21.7,18.3-21.7c13.3,0,15.2,11.9,17,22.6c5.3,30.8,11.1,61.5,16.1,92.3"/>
	<circle class="st3" cx="9.7" cy="148" r="9.7"/>
</g>
<path class="st4" d="M858.2,199.9c-2.7-1.3-6.6-1.9-11.5-1.9c-9.3,0-14,2.2-14,6.7c0,1.8,0.6,3.1,1.9,3.9s3.3,1.3,6.2,1.6l19.8,1.8
	c5.5,0.5,9.6,1.9,12.5,4.3c2.9,2.4,4.3,6.1,4.3,11.1c0,6.2-2.5,10.7-7.5,13.2c-5,2.6-12.4,3.9-22.3,3.9s-16.8-1.4-21.8-4.2
	s-7.6-7.8-7.8-14.8h13c0.3,3.9,1.9,6.6,4.7,8c2.9,1.4,7,2.2,12.4,2.2c10.7,0,16-2.5,16-7.5c0-2.1-0.7-3.7-2-4.6s-3.3-1.5-5.9-1.8
	l-19.7-2c-5.5-0.5-9.7-1.9-12.6-4.1c-2.9-2.2-4.3-5.6-4.3-10.2c0-10.8,9.1-16.2,27.4-16.2c8.9,0,15.8,1.3,20.8,3.9
	c5,2.6,7.6,7.1,7.8,13.3h-13C862.4,203.4,860.9,201.2,858.2,199.9L858.2,199.9z"/>
<path class="st4" d="M465.5,243.1H452l-12-19.9h-22.9v19.9h-11.6v-52.3h39.9c6.6,0,11.4,1.3,14.4,3.8s4.5,6.6,4.5,12.2
	c0,4.5-1.1,7.9-3.3,10.1c-2.2,2.3-5.1,3.8-8.8,4.4v0.4L465.5,243.1L465.5,243.1z M449.8,212.3c1.2-1.1,1.9-2.8,1.9-5.1
	s-0.6-4-1.9-5.1c-1.2-1.1-3.2-1.6-5.9-1.6h-26.6V214h26.6C446.5,213.9,448.5,213.4,449.8,212.3L449.8,212.3z"/>
<path class="st4" d="M490.3,211.6h38.3v8.8h-38.3v13.5h40.6v9.2h-52.1v-52.3H530v9.2h-39.6L490.3,211.6L490.3,211.6z"/>
<path class="st4" d="M583.6,202.2c-2.9-2.1-7.1-3.2-12.5-3.2c-6.1,0-10.9,1.5-14.3,4.6c-3.5,3.1-5.2,7.5-5.2,13.4s1.7,10.3,5.2,13.4
	s8.2,4.6,14.3,4.6c5.5,0,9.7-1.1,12.6-3.4c2.9-2.2,4.5-5.2,4.7-8.9h13.8c-0.1,4.5-1.4,8.5-3.9,11.8s-6.1,5.8-10.7,7.6
	c-4.6,1.8-10.1,2.6-16.5,2.6s-12.1-1-17-3.1s-8.6-5.1-11.3-9.3s-4-9.2-4-15.3s1.3-11.1,4-15.3c2.7-4.1,6.5-7.2,11.3-9.3
	c4.9-2.1,10.5-3.1,17-3.1s11.8,0.9,16.4,2.6c4.6,1.7,8.1,4.1,10.5,7.3c2.5,3.1,3.8,6.8,4.1,11h-13.6
	C588.1,207,586.5,204.4,583.6,202.2L583.6,202.2z"/>
<path class="st4" d="M666.6,196.3c5.9,4.7,8.9,11.5,8.9,20.6s-3,15.9-8.9,20.6s-14,7-24.2,7s-18.3-2.3-24.2-7s-8.9-11.5-8.9-20.6
	s3-15.9,8.9-20.6s14-7,24.2-7S660.7,191.6,666.6,196.3z M657.4,230.3c3.6-3,5.3-7.5,5.3-13.4s-1.8-10.4-5.3-13.4s-8.6-4.5-15-4.5
	s-11.5,1.5-15,4.5s-5.3,7.5-5.3,13.4s1.8,10.4,5.3,13.4c3.6,3,8.6,4.5,15,4.5S653.8,233.3,657.4,230.3z"/>
<path class="st4" d="M744.5,243.1H731l-12-19.9h-22.8v19.9h-11.6v-52.3h39.9c6.6,0,11.4,1.3,14.4,3.8s4.5,6.6,4.5,12.2
	c0,4.5-1.1,7.9-3.3,10.1c-2.2,2.3-5.1,3.8-8.8,4.4v0.4L744.5,243.1L744.5,243.1z M728.7,212.3c1.2-1.1,1.9-2.8,1.9-5.1
	s-0.6-4-1.9-5.1c-1.2-1.1-3.2-1.6-5.9-1.6h-26.7V214h26.7C725.5,213.9,727.5,213.4,728.7,212.3L728.7,212.3z"/>
<path class="st4" d="M805.2,197.1c4.8,4.2,7.2,10.8,7.2,19.8s-2.4,15.6-7.2,19.8s-11.7,6.3-20.9,6.3h-31.6v-52.3h31.6
	C793.4,190.8,800.4,192.9,805.2,197.1z M764.3,200.2v33.5h17.5c11.9,0,17.8-5.6,17.8-16.8s-5.9-16.8-17.8-16.8L764.3,200.2
	L764.3,200.2z"/>
<path class="st5" d="M555.9,139h-24.6V51.6h-0.8L491.6,139h-20.4l-39.5-88.6H431V139h-23.5V28H447l34.2,78.7h0.6L515.7,28h40.1
	L555.9,139L555.9,139z"/>
<path class="st5" d="M579.7,139V28h24.6v111H579.7L579.7,139z"/>
<path class="st5" d="M755.2,139h-32.7l-36.2-41.4L650.2,139h-32.5l52.7-58.6L622.7,28h31.7l32.2,36.5L719.3,28h31.1l-47.7,52.4
	L755.2,139L755.2,139z"/>
<path class="st5" d="M869.8,111.2h0.8L913.1,28h28.1l-58,111h-26.4l-58-111h28.5L869.8,111.2L869.8,111.2z"/>
<path class="st5" d="M961.4,139V28H986v111H961.4L961.4,139z"/>
<path class="st5" d="M1128.3,88.4c3.1,4.2,4.6,10.4,4.6,18.7c0,10.8-3.1,18.8-9.2,24s-15.8,7.9-28.9,7.9h-84.9V28h83.2
	c23.9,0,35.9,9.5,35.9,28.6c0,5.9-1.1,10.7-3.4,14.5s-5.6,6.3-9.8,7.8v0.8C1121.1,81.3,1125.3,84.2,1128.3,88.4L1128.3,88.4z
	 M1098.6,69.8c2.4-2.1,3.7-5.4,3.7-9.9s-1.2-7.9-3.7-10c-2.4-2.1-6.2-3.1-11.4-3.1h-52.7v26.1h52.7
	C1092.4,73,1096.2,71.9,1098.6,69.8z M1101.9,116.6c2.8-2.4,4.1-6.2,4.1-11.3s-1.4-9-4.1-11.4c-2.8-2.4-7.1-3.7-13.1-3.7h-54.3v30
	h54.3C1094.8,120.2,1099.2,119,1101.9,116.6z"/>
<path class="st5" d="M1177.1,72.2h81.3v18.7h-81.3v28.6h86.1v19.6h-110.7v-111h108.7v19.6h-84.1V72.2L1177.1,72.2z"/>
<linearGradient id="SVGID_00000085244539753385796510000014902858751628790674_" gradientUnits="userSpaceOnUse" x1="869.65" y1="-137.85" x2="869.65" y2="-109.6" gradientTransform="matrix(1 0 0 -1 0 -52)">
	<stop  offset="0" style="stop-color:#05A9BC"/>
	<stop  offset="1" style="stop-color:#00CCCC"/>
</linearGradient>
<path style="fill:url(#SVGID_00000085244539753385796510000014902858751628790674_);" d="M870.3,85.4l15.4-26.6
	c0.3-0.5-0.1-1.2-0.7-1.2h-30.7c-0.6,0-1,0.7-0.7,1.2L869,85.4C869.3,86,870,86,870.3,85.4z"/>
<g>
	
		<linearGradient id="SVGID_00000043427795853373158290000016258606598037683074_" gradientUnits="userSpaceOnUse" x1="947.1" y1="1049.1" x2="947.1" y2="996.8" gradientTransform="matrix(1 0 0 1 0 -806)">
		<stop  offset="0" style="stop-color:#05A9BC"/>
		<stop  offset="1" style="stop-color:#00CCCC"/>
	</linearGradient>
	<path style="fill:url(#SVGID_00000043427795853373158290000016258606598037683074_);" d="M962.2,243.1l-3.4-8.2h-23.3l-3.4,8.2
		h-12.6l21.3-52.3h12.6l21.3,52.3H962.2z M939.4,225.3h15.5l-7.8-19.1L939.4,225.3z"/>
	
		<linearGradient id="SVGID_00000095300771213833736830000004639393069898026368_" gradientUnits="userSpaceOnUse" x1="1006.9" y1="1049.1" x2="1006.9" y2="996.8" gradientTransform="matrix(1 0 0 1 0 -806)">
		<stop  offset="0" style="stop-color:#05A9BC"/>
		<stop  offset="1" style="stop-color:#00CCCC"/>
	</linearGradient>
	<path style="fill:url(#SVGID_00000095300771213833736830000004639393069898026368_);" d="M1029,243.1h-12.8l-12-17H996v17h-11.2
		v-52.3h23.5c5.7,0,10.4,1.7,14.1,4.9c3.7,3.3,5.6,7.5,5.6,12.7c0,3.9-1.1,7.2-3.2,10.1c-2.2,2.9-5,5-8.6,6.2L1029,243.1z M996,201
		v14.8h11.1c2.8,0,5.1-0.7,6.8-2s2.6-3.1,2.6-5.4c0-2.2-0.9-4-2.6-5.4c-1.7-1.3-4-2-6.8-2L996,201L996,201z"/>
	
		<linearGradient id="SVGID_00000181051209426447766110000009050540121462180765_" gradientUnits="userSpaceOnUse" x1="1059.45" y1="1049.1" x2="1059.45" y2="996.8" gradientTransform="matrix(1 0 0 1 0 -806)">
		<stop  offset="0" style="stop-color:#05A9BC"/>
		<stop  offset="1" style="stop-color:#00CCCC"/>
	</linearGradient>
	<path style="fill:url(#SVGID_00000181051209426447766110000009050540121462180765_);" d="M1053.8,243.1v-42.2h-16.3v-10.1h43.9
		v10.1H1065v42.2H1053.8z"/>
	
		<linearGradient id="SVGID_00000022531795172628042700000016792297129929682308_" gradientUnits="userSpaceOnUse" x1="1098.4501" y1="1049.1" x2="1098.4501" y2="996.8" gradientTransform="matrix(1 0 0 1 0 -806)">
		<stop  offset="0" style="stop-color:#05A9BC"/>
		<stop  offset="1" style="stop-color:#00CCCC"/>
	</linearGradient>
	<path style="fill:url(#SVGID_00000022531795172628042700000016792297129929682308_);" d="M1092.8,243.1v-52.3h11.3v52.3H1092.8z"/>
	
		<linearGradient id="SVGID_00000137111756758185096020000017638232633081279645_" gradientUnits="userSpaceOnUse" x1="1136.7" y1="1050" x2="1136.7" y2="995.9" gradientTransform="matrix(1 0 0 1 0 -806)">
		<stop  offset="0" style="stop-color:#05A9BC"/>
		<stop  offset="1" style="stop-color:#00CCCC"/>
	</linearGradient>
	<path style="fill:url(#SVGID_00000137111756758185096020000017638232633081279645_);" d="M1138.1,244c-9.2,0-17-2.9-23.2-8.7
		l6.5-7.7c5.3,4.6,11,6.9,17.2,6.9c2.7,0,4.8-0.5,6.3-1.6s2.2-2.5,2.2-4.2c0-1.8-0.8-3.1-2.3-4s-4.5-1.8-8.7-2.7
		c-3.1-0.7-5.7-1.4-7.7-2.1s-4-1.7-5.8-2.9s-3.2-2.7-4.1-4.5s-1.3-3.9-1.3-6.3c0-4.8,1.8-8.7,5.4-11.8c3.6-3,8.2-4.5,14-4.5
		c8,0,14.8,2.4,20.5,7.2l-5.9,8.1c-4.8-3.9-9.8-5.8-14.9-5.8c-2.3,0-4.2,0.5-5.6,1.6s-2.1,2.4-2.1,4c0,1.8,0.8,3.2,2.4,4.1
		c1.6,0.9,4.5,1.8,8.8,2.8c6.3,1.4,11,3.2,14.1,5.4s4.6,5.6,4.6,10.1c0,5-1.8,9-5.4,12.1C1149.5,242.5,1144.5,244,1138.1,244z"/>
	
		<linearGradient id="SVGID_00000018935418870195398900000012895461424580990131_" gradientUnits="userSpaceOnUse" x1="1189.55" y1="1049.1" x2="1189.55" y2="996.8" gradientTransform="matrix(1 0 0 1 0 -806)">
		<stop  offset="0" style="stop-color:#05A9BC"/>
		<stop  offset="1" style="stop-color:#00CCCC"/>
	</linearGradient>
	<path style="fill:url(#SVGID_00000018935418870195398900000012895461424580990131_);" d="M1183.9,243.1v-42.2h-16.3v-10.1h43.9
		v10.1h-16.3v42.2H1183.9z"/>
	
		<linearGradient id="SVGID_00000085225112555809082970000018397311598645592756_" gradientUnits="userSpaceOnUse" x1="1241.2" y1="1050" x2="1241.2" y2="995.9" gradientTransform="matrix(1 0 0 1 0 -806)">
		<stop  offset="0" style="stop-color:#05A9BC"/>
		<stop  offset="1" style="stop-color:#00CCCC"/>
	</linearGradient>
	<path style="fill:url(#SVGID_00000085225112555809082970000018397311598645592756_);" d="M1242.6,244c-9.2,0-17-2.9-23.2-8.7
		l6.5-7.7c5.3,4.6,11,6.9,17.2,6.9c2.7,0,4.8-0.5,6.3-1.6s2.2-2.5,2.2-4.2c0-1.8-0.8-3.1-2.3-4s-4.5-1.8-8.7-2.7
		c-3.1-0.7-5.7-1.4-7.7-2.1s-4-1.7-5.8-2.9s-3.2-2.7-4.1-4.5s-1.3-3.9-1.3-6.3c0-4.8,1.8-8.7,5.4-11.8c3.6-3,8.2-4.5,14-4.5
		c8,0,14.8,2.4,20.5,7.2l-5.9,8.1c-4.8-3.9-9.8-5.8-14.9-5.8c-2.3,0-4.2,0.5-5.6,1.6s-2.1,2.4-2.1,4c0,1.8,0.8,3.2,2.4,4.1
		c1.6,0.9,4.5,1.8,8.8,2.8c6.3,1.4,11,3.2,14.1,5.4s4.6,5.6,4.6,10.1c0,5-1.8,9-5.4,12.1C1253.9,242.5,1249,244,1242.6,244z"/>
</g>
</svg>
