<?xml version="1.0" encoding="UTF-8"?>
<svg id="Layer_1" data-name="Layer 1" xmlns="http://www.w3.org/2000/svg" xmlns:xlink="http://www.w3.org/1999/xlink" viewBox="0 0 1263.33 272.63">
  <defs>
    <linearGradient id="linear-gradient" x1="869.65" y1="-943.88" x2="869.65" y2="-915.63" gradientTransform="translate(0 -858.07) scale(1 -1)" gradientUnits="userSpaceOnUse">
      <stop offset="0" stop-color="#1fafd7"/>
      <stop offset="1" stop-color="#00cfdd"/>
    </linearGradient>
    <linearGradient id="linear-gradient-2" x1="82.8" y1="137.62" x2="328.67" y2="137.62" gradientTransform="translate(0 273.93) scale(1 -1)" gradientUnits="userSpaceOnUse">
      <stop offset="0" stop-color="#1fafd7"/>
      <stop offset="1" stop-color="#00cfdd"/>
    </linearGradient>
    <linearGradient id="linear-gradient-3" x1="912.83" y1="216.97" x2="971.11" y2="216.97" gradientUnits="userSpaceOnUse">
      <stop offset="0" stop-color="#07c8f9"/>
      <stop offset="1" stop-color="#00ccbc"/>
    </linearGradient>
    <linearGradient id="linear-gradient-4" x1="976.7" x2="1027.5" xlink:href="#linear-gradient-3"/>
    <linearGradient id="linear-gradient-5" x1="1032.13" x2="1081.77" xlink:href="#linear-gradient-3"/>
    <linearGradient id="linear-gradient-6" x1="1088.5" x2="1099.33" xlink:href="#linear-gradient-3"/>
    <linearGradient id="linear-gradient-7" x1="1106.1" x2="1154.61" xlink:href="#linear-gradient-3"/>
    <linearGradient id="linear-gradient-8" x1="1161.02" x2="1210.66" xlink:href="#linear-gradient-3"/>
    <linearGradient id="linear-gradient-9" x1="1214.82" x2="1263.33" xlink:href="#linear-gradient-3"/>
    <linearGradient id="linear-gradient-10" x1="912.83" y1="216.97" x2="1263.33" y2="216.97" gradientUnits="userSpaceOnUse">
      <stop offset="0" stop-color="#03cddc"/>
      <stop offset=".53" stop-color="#6666bf"/>
      <stop offset="1" stop-color="#fb2962"/>
    </linearGradient>
  </defs>
  <path d="M858.2,199.87c-2.7-1.3-6.6-1.9-11.5-1.9-9.3,0-14,2.2-14,6.7,0,1.8,.6,3.1,1.9,3.9s3.3,1.3,6.2,1.6l19.8,1.8c5.5,.5,9.6,1.9,12.5,4.3,2.9,2.4,4.3,6.1,4.3,11.1,0,6.2-2.5,10.7-7.5,13.2-5,2.6-12.4,3.9-22.3,3.9s-16.8-1.4-21.8-4.2-7.6-7.8-7.8-14.8h13c.3,3.9,1.9,6.6,4.7,8,2.9,1.4,7,2.2,12.4,2.2,10.7,0,16-2.5,16-7.5,0-2.1-.7-3.7-2-4.6s-3.3-1.5-5.9-1.8l-19.7-2c-5.5-.5-9.7-1.9-12.6-4.1-2.9-2.2-4.3-5.6-4.3-10.2,0-10.8,9.1-16.2,27.4-16.2,8.9,0,15.8,1.3,20.8,3.9,5,2.6,7.6,7.1,7.8,13.3h-13c-.2-3.1-1.7-5.3-4.4-6.6h0Z" style="fill: #ced6db;"/>
  <path d="M465.5,243.07h-13.5l-12-19.9h-22.9v19.9h-11.6v-52.3h39.9c6.6,0,11.4,1.3,14.4,3.8s4.5,6.6,4.5,12.2c0,4.5-1.1,7.9-3.3,10.1-2.2,2.3-5.1,3.8-8.8,4.4v.4l13.3,21.4h0Zm-15.7-30.8c1.2-1.1,1.9-2.8,1.9-5.1s-.6-4-1.9-5.1c-1.2-1.1-3.2-1.6-5.9-1.6h-26.6v13.5h26.6c2.6-.1,4.6-.6,5.9-1.7h0Z" style="fill: #ced6db;"/>
  <path d="M490.3,211.57h38.3v8.8h-38.3v13.5h40.6v9.2h-52.1v-52.3h51.2v9.2h-39.6l-.1,11.6h0Z" style="fill: #ced6db;"/>
  <path d="M583.6,202.17c-2.9-2.1-7.1-3.2-12.5-3.2-6.1,0-10.9,1.5-14.3,4.6-3.5,3.1-5.2,7.5-5.2,13.4s1.7,10.3,5.2,13.4,8.2,4.6,14.3,4.6c5.5,0,9.7-1.1,12.6-3.4,2.9-2.2,4.5-5.2,4.7-8.9h13.8c-.1,4.5-1.4,8.5-3.9,11.8s-6.1,5.8-10.7,7.6c-4.6,1.8-10.1,2.6-16.5,2.6s-12.1-1-17-3.1-8.6-5.1-11.3-9.3-4-9.2-4-15.3,1.3-11.1,4-15.3c2.7-4.1,6.5-7.2,11.3-9.3,4.9-2.1,10.5-3.1,17-3.1s11.8,.9,16.4,2.6c4.6,1.7,8.1,4.1,10.5,7.3,2.5,3.1,3.8,6.8,4.1,11h-13.6c-.4-3.2-2-5.8-4.9-8h0Z" style="fill: #ced6db;"/>
  <path d="M666.6,196.27c5.9,4.7,8.9,11.5,8.9,20.6s-3,15.9-8.9,20.6-14,7-24.2,7-18.3-2.3-24.2-7-8.9-11.5-8.9-20.6,3-15.9,8.9-20.6,14-7,24.2-7,18.3,2.3,24.2,7Zm-9.2,34c3.6-3,5.3-7.5,5.3-13.4s-1.8-10.4-5.3-13.4-8.6-4.5-15-4.5-11.5,1.5-15,4.5-5.3,7.5-5.3,13.4,1.8,10.4,5.3,13.4c3.6,3,8.6,4.5,15,4.5s11.4-1.5,15-4.5Z" style="fill: #ced6db;"/>
  <path d="M744.5,243.07h-13.5l-12-19.9h-22.8v19.9h-11.6v-52.3h39.9c6.6,0,11.4,1.3,14.4,3.8s4.5,6.6,4.5,12.2c0,4.5-1.1,7.9-3.3,10.1-2.2,2.3-5.1,3.8-8.8,4.4v.4l13.2,21.4h0Zm-15.8-30.8c1.2-1.1,1.9-2.8,1.9-5.1s-.6-4-1.9-5.1c-1.2-1.1-3.2-1.6-5.9-1.6h-26.7v13.5h26.7c2.7-.1,4.7-.6,5.9-1.7h0Z" style="fill: #ced6db;"/>
  <path d="M805.2,197.07c4.8,4.2,7.2,10.8,7.2,19.8s-2.4,15.6-7.2,19.8-11.7,6.3-20.9,6.3h-31.6v-52.3h31.6c9.1,.1,16.1,2.2,20.9,6.4Zm-40.9,3.1v33.5h17.5c11.9,0,17.8-5.6,17.8-16.8s-5.9-16.8-17.8-16.8l-17.5,.1h0Z" style="fill: #ced6db;"/>
  <path d="M556.9,138.97h-24.6V51.57h-.8l-38.9,87.4h-20.4l-39.5-88.6h-.7v88.6h-23.5V27.97h39.5l34.2,78.7h.6l33.9-78.7h40.1l.1,111h0Z" style="fill: #fff;"/>
  <path d="M580.7,138.97V27.97h24.6v111h-24.6Z" style="fill: #fff;"/>
  <path d="M756.2,138.97h-32.7l-36.2-41.4-36.1,41.4h-32.5l52.7-58.6-47.7-52.4h31.7l32.2,36.5,32.7-36.5h31.1l-47.7,52.4,52.5,58.6h0Z" style="fill: #fff;"/>
  <path d="M870.8,111.17h.8l42.5-83.2h28.1l-58,111h-26.4l-58-111h28.5l42.5,83.2h0Z" style="fill: #fff;"/>
  <path d="M962.4,138.97V27.97h24.6v111h-24.6Z" style="fill: #fff;"/>
  <path d="M1129.3,88.37c3.1,4.2,4.6,10.4,4.6,18.7,0,10.8-3.1,18.8-9.2,24s-15.8,7.9-28.9,7.9h-84.9V27.97h83.2c23.9,0,35.9,9.5,35.9,28.6,0,5.9-1.1,10.7-3.4,14.5-2.3,3.8-5.6,6.3-9.8,7.8v.8c5.3,1.6,9.5,4.5,12.5,8.7h0Zm-29.7-18.6c2.4-2.1,3.7-5.4,3.7-9.9s-1.2-7.9-3.7-10c-2.4-2.1-6.2-3.1-11.4-3.1h-52.7v26.1h52.7c5.2,.1,9-1,11.4-3.1Zm3.3,46.8c2.8-2.4,4.1-6.2,4.1-11.3s-1.4-9-4.1-11.4c-2.8-2.4-7.1-3.7-13.1-3.7h-54.3v30h54.3c6,0,10.4-1.2,13.1-3.6Z" style="fill: #fff;"/>
  <path d="M1177.1,72.17h81.3v18.7h-81.3v28.6h86.1v19.6h-110.7V28.07h108.7v19.6h-84.1v24.5h0Z" style="fill: #fff;"/>
  <path d="M870.3,85.37l15.4-26.6c.3-.5-.1-1.2-.7-1.2h-30.7c-.6,0-1,.7-.7,1.2l15.4,26.6c.3,.6,1,.6,1.3,0Z" style="fill: url(#linear-gradient);"/>
  <g>
    <circle cx="266.5" cy="236.77" r="15.5" style="fill: #00cfdd;"/>
    <path d="M310.3,104.57L137.8,4.97c-24.5-14.1-55,3.5-55,31.7V235.97c0,28.2,30.5,45.8,54.9,31.7l172.6-99.6c24.5-14.1,24.5-49.4,0-63.5Z" style="fill: url(#linear-gradient-2);"/>
    <path d="M38.2,147.57c12.4,2.5,13,9.2,16,19.8,2.3,8,3.1,19.2,10.9,23.8,3.1,1.9,8.3,1.6,9.5,.6,4.6-3.9,4.7-10.4,5.8-15.6,4.9-21.8,9.2-43.8,13.5-65.8,1.9-10,5.3-18.9,17-18.9s15,8.8,16.7,18.9c5.3,32,10.9,63.9,16.4,95.8v.2c1.2,7.3,11.3,5.5,12.5,0,.4-1.6,.8-3.3,1.1-4.8,7.5-36.9,14.5-74,21.8-111,2.1-10.6,4.1-21.7,18.3-21.7,13.3,0,15.2,11.9,17,22.6,5.3,30.8,11,61.5,16.1,92.3" style="fill: none; stroke: #fff; stroke-linecap: round; stroke-miterlimit: 10; stroke-width: 17.23px;"/>
    <circle cx="9.7" cy="147.97" r="9.7" style="fill: #00ccbc;"/>
  </g>
  <g>
    <g>
      <path d="M931.96,190.48l-19.14,52.97h11.61l4.13-11.56h26.91l3.95,11.56h11.68l-18.62-52.97h-20.53Zm-.36,32.08l10.63-30.05,10.22,30.05h-20.85Z" style="fill: url(#linear-gradient-3);"/>
      <path d="M1023.87,211.77c1.06-.88,1.94-1.97,2.6-3.23,.68-1.28,1.02-2.66,1.02-4.11,0-2.08-.43-3.96-1.27-5.61-.84-1.64-1.95-3-3.29-4.03-1.33-1.02-2.91-1.87-4.7-2.54-1.78-.66-3.59-1.13-5.4-1.39-1.79-.25-3.66-.38-5.56-.38h-30.58v52.97h10.82v-18.85h28.54v18.85h11.44v-28.47h-9.53c.78-.26,1.57-.58,2.34-.95,1.33-.63,2.53-1.39,3.57-2.26Zm-36.35-11.52h19.76c1.16,0,2.28,.12,3.33,.37,1.04,.24,2.04,.62,2.97,1.13,.89,.48,1.6,1.19,2.12,2.11,.52,.92,.79,2.04,.79,3.32,0,2.4-.85,4.25-2.6,5.66-1.76,1.42-4.01,2.14-6.68,2.14h-19.69v-14.73Z" style="fill: url(#linear-gradient-4);"/>
      <polygon points="1032.13 200.61 1051.52 200.61 1051.52 243.45 1062.31 243.45 1062.31 200.61 1081.77 200.61 1081.77 190.48 1032.13 190.48 1032.13 200.61" style="fill: url(#linear-gradient-5);"/>
      <rect x="1088.5" y="190.48" width="10.82" height="52.97" style="fill: url(#linear-gradient-6);"/>
      <path d="M1140.78,213.21l-17.5-1.56c-1.96-.21-3.45-.8-4.45-1.77-1-.96-1.48-2.21-1.48-3.83,0-.82,.15-1.56,.44-2.2,.3-.65,.67-1.19,1.1-1.6,.44-.41,1.04-.78,1.78-1.08,.78-.32,1.51-.55,2.15-.7,.65-.15,1.49-.27,2.5-.35,1.03-.08,1.86-.13,2.45-.14,.61-.01,1.41-.02,2.4-.02h1.98c.44,0,1.1,.02,1.98,.07,.88,.05,1.57,.11,2.06,.18,.5,.07,1.13,.18,1.89,.34,.73,.15,1.31,.33,1.72,.54,.44,.22,.93,.51,1.46,.84,.48,.31,.85,.67,1.1,1.06,.27,.42,.5,.93,.69,1.52,.19,.58,.28,1.22,.28,1.91v.5h10.42v-.5c0-1.95-.25-3.73-.73-5.31-.49-1.58-1.14-2.94-1.94-4.03-.81-1.09-1.84-2.06-3.08-2.88-1.22-.8-2.5-1.45-3.78-1.92-1.28-.47-2.76-.85-4.42-1.13-1.64-.28-3.21-.46-4.68-.55-1.45-.08-3.08-.13-4.85-.13-1.62,0-3.19,.06-4.66,.18-1.47,.12-3.02,.34-4.61,.66-1.59,.32-3.07,.73-4.39,1.24-1.33,.51-2.63,1.18-3.85,1.99-1.24,.83-2.29,1.79-3.14,2.88-.85,1.09-1.54,2.42-2.04,3.94-.5,1.52-.75,3.21-.75,5.05,0,4.17,1.29,7.65,3.83,10.33,2.54,2.68,6.02,4.25,10.36,4.67l17.55,1.63c1.93,.3,3.38,.82,4.3,1.55,.86,.68,1.3,1.84,1.3,3.43,0,.73-.12,1.39-.36,1.96-.23,.56-.59,1.04-1.07,1.41-.52,.42-1.06,.79-1.6,1.1-.52,.3-1.22,.54-2.08,.72-.92,.19-1.69,.35-2.33,.47-.61,.12-1.45,.19-2.5,.23-1.07,.04-1.87,.06-2.39,.07-.52,.01-1.27,.02-2.25,.02s-1.83-.01-2.52-.04c-.69-.02-1.54-.08-2.54-.18-.99-.09-1.83-.23-2.52-.4-.68-.17-1.42-.43-2.19-.75-.74-.31-1.33-.69-1.76-1.13-.44-.43-.81-1-1.11-1.68-.3-.67-.45-1.45-.45-2.32v-.5h-10.42v.5c0,1.88,.25,3.62,.73,5.17,.49,1.56,1.16,2.91,2,4,.84,1.09,1.88,2.06,3.11,2.88,1.21,.81,2.49,1.47,3.8,1.96,1.3,.48,2.78,.87,4.4,1.16,1.6,.29,3.17,.5,4.64,.6,1.47,.11,3.08,.16,4.77,.16,1.82,0,3.5-.04,4.99-.13,1.5-.08,3.16-.27,4.91-.55,1.76-.28,3.35-.66,4.72-1.13,1.38-.47,2.75-1.12,4.09-1.93,1.35-.83,2.49-1.81,3.39-2.92,.9-1.12,1.63-2.5,2.17-4.13,.53-1.61,.8-3.45,.8-5.45,0-4.06-1.26-7.36-3.74-9.82-2.47-2.44-5.86-3.86-10.09-4.2Z" style="fill: url(#linear-gradient-7);"/>
      <polygon points="1161.02 200.61 1180.41 200.61 1180.41 243.45 1191.19 243.45 1191.19 200.61 1210.66 200.61 1210.66 190.48 1161.02 190.48 1161.02 200.61" style="fill: url(#linear-gradient-8);"/>
      <path d="M1259.6,217.41c-2.47-2.44-5.86-3.86-10.09-4.2l-17.5-1.56c-1.96-.21-3.45-.8-4.45-1.77-1-.96-1.48-2.21-1.48-3.83,0-.82,.15-1.56,.44-2.2,.3-.65,.67-1.19,1.1-1.6,.44-.41,1.04-.78,1.78-1.08,.78-.32,1.51-.55,2.15-.7,.65-.15,1.49-.27,2.5-.35,1.03-.08,1.86-.13,2.45-.14,.61-.01,1.41-.02,2.4-.02h1.98c.44,0,1.1,.02,1.98,.07,.88,.05,1.57,.11,2.06,.18,.5,.07,1.13,.18,1.89,.34,.73,.15,1.31,.33,1.72,.54,.44,.22,.93,.51,1.46,.84,.48,.31,.85,.67,1.1,1.06,.27,.42,.5,.93,.69,1.52,.19,.58,.28,1.22,.28,1.91v.5h10.42v-.5c0-1.95-.25-3.73-.73-5.31-.49-1.58-1.14-2.94-1.94-4.03-.81-1.09-1.84-2.06-3.08-2.88-1.22-.8-2.5-1.45-3.78-1.92-1.28-.47-2.76-.85-4.42-1.13-1.64-.28-3.21-.46-4.68-.55-1.45-.08-3.08-.13-4.85-.13-1.62,0-3.19,.06-4.66,.18-1.47,.12-3.02,.34-4.61,.66-1.59,.32-3.07,.73-4.39,1.24-1.33,.51-2.63,1.18-3.85,1.99-1.24,.83-2.29,1.79-3.14,2.88-.85,1.09-1.54,2.42-2.04,3.94-.5,1.52-.75,3.21-.75,5.05,0,4.17,1.29,7.65,3.83,10.33,2.54,2.68,6.02,4.25,10.36,4.67l17.55,1.63c1.93,.3,3.38,.82,4.3,1.55,.86,.68,1.3,1.84,1.3,3.43,0,.73-.12,1.39-.36,1.96-.23,.56-.59,1.04-1.07,1.41-.52,.42-1.06,.79-1.6,1.1-.52,.3-1.22,.54-2.08,.72-.92,.19-1.69,.35-2.33,.47-.61,.12-1.45,.19-2.5,.23-1.07,.04-1.87,.06-2.39,.07-.52,.01-1.27,.02-2.25,.02s-1.83-.01-2.52-.04c-.69-.02-1.54-.08-2.54-.18-.99-.09-1.83-.23-2.52-.4-.68-.17-1.42-.43-2.19-.75-.74-.31-1.33-.69-1.76-1.13-.44-.43-.81-1-1.11-1.68-.3-.67-.45-1.45-.45-2.32v-.5h-10.42v.5c0,1.88,.25,3.62,.73,5.17,.49,1.56,1.16,2.91,2,4,.84,1.09,1.88,2.06,3.11,2.88,1.21,.81,2.49,1.47,3.8,1.96,1.3,.48,2.78,.87,4.4,1.16,1.6,.29,3.17,.5,4.64,.6,1.47,.11,3.08,.16,4.77,.16,1.82,0,3.5-.04,4.99-.13,1.5-.08,3.16-.27,4.91-.55,1.76-.28,3.35-.66,4.72-1.13,1.38-.47,2.75-1.12,4.09-1.93,1.35-.83,2.49-1.81,3.39-2.92,.9-1.12,1.63-2.5,2.17-4.13,.53-1.61,.8-3.45,.8-5.45,0-4.06-1.26-7.36-3.74-9.82Z" style="fill: url(#linear-gradient-9);"/>
    </g>
    <g>
      <path d="M931.96,190.48l-19.14,52.97h11.61l4.13-11.56h26.91l3.95,11.56h11.68l-18.62-52.97h-20.53Zm-.36,32.08l10.63-30.05,10.22,30.05h-20.85Z" style="fill: url(#linear-gradient-10);"/>
      <path d="M1023.87,211.77c1.06-.88,1.94-1.97,2.6-3.23,.68-1.28,1.02-2.66,1.02-4.11,0-2.08-.43-3.96-1.27-5.61-.84-1.64-1.95-3-3.29-4.03-1.33-1.02-2.91-1.87-4.7-2.54-1.78-.66-3.59-1.13-5.4-1.39-1.79-.25-3.66-.38-5.56-.38h-30.58v52.97h10.82v-18.85h28.54v18.85h11.44v-28.47h-9.53c.78-.26,1.57-.58,2.34-.95,1.33-.63,2.53-1.39,3.57-2.26Zm-36.35-11.52h19.76c1.16,0,2.28,.12,3.33,.37,1.04,.24,2.04,.62,2.97,1.13,.89,.48,1.6,1.19,2.12,2.11,.52,.92,.79,2.04,.79,3.32,0,2.4-.85,4.25-2.6,5.66-1.76,1.42-4.01,2.14-6.68,2.14h-19.69v-14.73Z" style="fill: url(#linear-gradient-10);"/>
      <polygon points="1032.13 200.61 1051.52 200.61 1051.52 243.45 1062.31 243.45 1062.31 200.61 1081.77 200.61 1081.77 190.48 1032.13 190.48 1032.13 200.61" style="fill: url(#linear-gradient-10);"/>
      <rect x="1088.5" y="190.48" width="10.82" height="52.97" style="fill: url(#linear-gradient-10);"/>
      <path d="M1140.78,213.21l-17.5-1.56c-1.96-.21-3.45-.8-4.45-1.77-1-.96-1.48-2.21-1.48-3.83,0-.82,.15-1.56,.44-2.2,.3-.65,.67-1.19,1.1-1.6,.44-.41,1.04-.78,1.78-1.08,.78-.32,1.51-.55,2.15-.7,.65-.15,1.49-.27,2.5-.35,1.03-.08,1.86-.13,2.45-.14,.61-.01,1.41-.02,2.4-.02h1.98c.44,0,1.1,.02,1.98,.07,.88,.05,1.57,.11,2.06,.18,.5,.07,1.13,.18,1.89,.34,.73,.15,1.31,.33,1.72,.54,.44,.22,.93,.51,1.46,.84,.48,.31,.85,.67,1.1,1.06,.27,.42,.5,.93,.69,1.52,.19,.58,.28,1.22,.28,1.91v.5h10.42v-.5c0-1.95-.25-3.73-.73-5.31-.49-1.58-1.14-2.94-1.94-4.03-.81-1.09-1.84-2.06-3.08-2.88-1.22-.8-2.5-1.45-3.78-1.92-1.28-.47-2.76-.85-4.42-1.13-1.64-.28-3.21-.46-4.68-.55-1.45-.08-3.08-.13-4.85-.13-1.62,0-3.19,.06-4.66,.18-1.47,.12-3.02,.34-4.61,.66-1.59,.32-3.07,.73-4.39,1.24-1.33,.51-2.63,1.18-3.85,1.99-1.24,.83-2.29,1.79-3.14,2.88-.85,1.09-1.54,2.42-2.04,3.94-.5,1.52-.75,3.21-.75,5.05,0,4.17,1.29,7.65,3.83,10.33,2.54,2.68,6.02,4.25,10.36,4.67l17.55,1.63c1.93,.3,3.38,.82,4.3,1.55,.86,.68,1.3,1.84,1.3,3.43,0,.73-.12,1.39-.36,1.96-.23,.56-.59,1.04-1.07,1.41-.52,.42-1.06,.79-1.6,1.1-.52,.3-1.22,.54-2.08,.72-.92,.19-1.69,.35-2.33,.47-.61,.12-1.45,.19-2.5,.23-1.07,.04-1.87,.06-2.39,.07-.52,.01-1.27,.02-2.25,.02s-1.83-.01-2.52-.04c-.69-.02-1.54-.08-2.54-.18-.99-.09-1.83-.23-2.52-.4-.68-.17-1.42-.43-2.19-.75-.74-.31-1.33-.69-1.76-1.13-.44-.43-.81-1-1.11-1.68-.3-.67-.45-1.45-.45-2.32v-.5h-10.42v.5c0,1.88,.25,3.62,.73,5.17,.49,1.56,1.16,2.91,2,4,.84,1.09,1.88,2.06,3.11,2.88,1.21,.81,2.49,1.47,3.8,1.96,1.3,.48,2.78,.87,4.4,1.16,1.6,.29,3.17,.5,4.64,.6,1.47,.11,3.08,.16,4.77,.16,1.82,0,3.5-.04,4.99-.13,1.5-.08,3.16-.27,4.91-.55,1.76-.28,3.35-.66,4.72-1.13,1.38-.47,2.75-1.12,4.09-1.93,1.35-.83,2.49-1.81,3.39-2.92,.9-1.12,1.63-2.5,2.17-4.13,.53-1.61,.8-3.45,.8-5.45,0-4.06-1.26-7.36-3.74-9.82-2.47-2.44-5.86-3.86-10.09-4.2Z" style="fill: url(#linear-gradient-10);"/>
      <polygon points="1161.02 200.61 1180.41 200.61 1180.41 243.45 1191.19 243.45 1191.19 200.61 1210.66 200.61 1210.66 190.48 1161.02 190.48 1161.02 200.61" style="fill: url(#linear-gradient-10);"/>
      <path d="M1259.6,217.41c-2.47-2.44-5.86-3.86-10.09-4.2l-17.5-1.56c-1.96-.21-3.45-.8-4.45-1.77-1-.96-1.48-2.21-1.48-3.83,0-.82,.15-1.56,.44-2.2,.3-.65,.67-1.19,1.1-1.6,.44-.41,1.04-.78,1.78-1.08,.78-.32,1.51-.55,2.15-.7,.65-.15,1.49-.27,2.5-.35,1.03-.08,1.86-.13,2.45-.14,.61-.01,1.41-.02,2.4-.02h1.98c.44,0,1.1,.02,1.98,.07,.88,.05,1.57,.11,2.06,.18,.5,.07,1.13,.18,1.89,.34,.73,.15,1.31,.33,1.72,.54,.44,.22,.93,.51,1.46,.84,.48,.31,.85,.67,1.1,1.06,.27,.42,.5,.93,.69,1.52,.19,.58,.28,1.22,.28,1.91v.5h10.42v-.5c0-1.95-.25-3.73-.73-5.31-.49-1.58-1.14-2.94-1.94-4.03-.81-1.09-1.84-2.06-3.08-2.88-1.22-.8-2.5-1.45-3.78-1.92-1.28-.47-2.76-.85-4.42-1.13-1.64-.28-3.21-.46-4.68-.55-1.45-.08-3.08-.13-4.85-.13-1.62,0-3.19,.06-4.66,.18-1.47,.12-3.02,.34-4.61,.66-1.59,.32-3.07,.73-4.39,1.24-1.33,.51-2.63,1.18-3.85,1.99-1.24,.83-2.29,1.79-3.14,2.88-.85,1.09-1.54,2.42-2.04,3.94-.5,1.52-.75,3.21-.75,5.05,0,4.17,1.29,7.65,3.83,10.33,2.54,2.68,6.02,4.25,10.36,4.67l17.55,1.63c1.93,.3,3.38,.82,4.3,1.55,.86,.68,1.3,1.84,1.3,3.43,0,.73-.12,1.39-.36,1.96-.23,.56-.59,1.04-1.07,1.41-.52,.42-1.06,.79-1.6,1.1-.52,.3-1.22,.54-2.08,.72-.92,.19-1.69,.35-2.33,.47-.61,.12-1.45,.19-2.5,.23-1.07,.04-1.87,.06-2.39,.07-.52,.01-1.27,.02-2.25,.02s-1.83-.01-2.52-.04c-.69-.02-1.54-.08-2.54-.18-.99-.09-1.83-.23-2.52-.4-.68-.17-1.42-.43-2.19-.75-.74-.31-1.33-.69-1.76-1.13-.44-.43-.81-1-1.11-1.68-.3-.67-.45-1.45-.45-2.32v-.5h-10.42v.5c0,1.88,.25,3.62,.73,5.17,.49,1.56,1.16,2.91,2,4,.84,1.09,1.88,2.06,3.11,2.88,1.21,.81,2.49,1.47,3.8,1.96,1.3,.48,2.78,.87,4.4,1.16,1.6,.29,3.17,.5,4.64,.6,1.47,.11,3.08,.16,4.77,.16,1.82,0,3.5-.04,4.99-.13,1.5-.08,3.16-.27,4.91-.55,1.76-.28,3.35-.66,4.72-1.13,1.38-.47,2.75-1.12,4.09-1.93,1.35-.83,2.49-1.81,3.39-2.92,.9-1.12,1.63-2.5,2.17-4.13,.53-1.61,.8-3.45,.8-5.45,0-4.06-1.26-7.36-3.74-9.82Z" style="fill: url(#linear-gradient-10);"/>
    </g>
  </g>
</svg>