<?xml version="1.0" encoding="UTF-8"?>
<svg id="Layer_1" data-name="Layer 1" xmlns="http://www.w3.org/2000/svg" xmlns:xlink="http://www.w3.org/1999/xlink" viewBox="0 0 1049.08 870.28">
  <defs>
    <linearGradient id="linear-gradient" x1="264.37" y1="435.14" x2="1049.08" y2="435.14" gradientUnits="userSpaceOnUse">
      <stop offset="0" stop-color="#03cddc"/>
      <stop offset=".5" stop-color="#6666bf"/>
      <stop offset="1" stop-color="#fb2962"/>
    </linearGradient>
    <filter id="drop-shadow-1" filterUnits="userSpaceOnUse">
      <feOffset dx="7" dy="7"/>
      <feGaussianBlur result="blur" stdDeviation="5"/>
      <feFlood flood-color="#000" flood-opacity=".05"/>
      <feComposite in2="blur" operator="in"/>
      <feComposite in="SourceGraphic"/>
    </filter>
  </defs>
  <circle cx="850.69" cy="755.88" r="49.57" style="fill: #03cddc;"/>
  <path d="M990.62,333.88L439.75,15.84c-77.95-45-175.38,11.25-175.38,101.26V753.19c0,90,97.43,146.26,175.38,101.26l550.87-318.05c77.95-45,77.95-157.51,0-202.51Z" style="fill: url(#linear-gradient);"/>
  <path d="M121.87,471.06c39.6,8.08,41.35,29.26,50.93,63.08,7.21,25.46,10.02,61.16,34.73,76.02,9.93,5.98,26.47,4.98,30.2,1.77,14.57-12.56,14.88-33.22,18.56-49.7,15.56-69.71,29.31-139.84,42.96-209.97,6.19-31.79,16.77-60.34,54.19-60.44,37.6-.1,48.02,27.94,53.41,60.34,16.95,102.02,34.95,203.86,52.41,305.79,.03,.2,.07,.4,.1,.59,3.92,23.25,36.1,17.6,39.96-.14,1.12-5.17,2.63-10.39,3.65-15.45,23.88-117.92,46.4-236.12,69.61-354.18,6.68-33.97,13.2-69.16,58.31-69.16,42.57,0,48.46,38.06,54.33,72.18,16.89,98.22,35.25,196.19,51.25,294.56" style="fill: none; filter: url(#drop-shadow-1); stroke: #fff; stroke-linecap: round; stroke-miterlimit: 10; stroke-width: 55px;"/>
  <circle cx="30.82" cy="472.32" r="30.82" style="fill: #00ccbc;"/>
</svg>