<?xml version="1.0" encoding="utf-8"?>
<!-- Generator: Adobe Illustrator 26.5.0, SVG Export Plug-In . SVG Version: 6.00 Build 0)  -->
<svg version="1.1" id="Layer_1" xmlns="http://www.w3.org/2000/svg" xmlns:xlink="http://www.w3.org/1999/xlink" x="0px" y="0px"
	 viewBox="0 0 1920.01 777.15" style="enable-background:new 0 0 1920.01 777.15;" xml:space="preserve">
<style type="text/css">
	.st0{fill:none;stroke:url(#SVGID_00000048471572167186542780000005647287872776862384_);stroke-width:25;stroke-miterlimit:10;}
	.st1{fill:#FFFFFF;}
	.st2{fill:#E5E5E5;}
	.st3{fill:url(#SVGID_00000003805990766312601660000009637763461803637919_);}
	.st4{fill:#5865F2;}
	.st5{fill:#1D98EE;}
	.st6{fill:#02CEDC;}
</style>
<g>
	<defs>
		<path id="SVGID_1_" d="M1263.73,298.24l-95.75-121.4L771.55,560.16h-177.1L198.01,176.84v383.32h-198v-559h283.83L683,395.65
			l399.16-394.5h203.39l105.32,147.42L1263.73,298.24L1263.73,298.24z M1429.33,564.16h-334.76L600.2,1.16h275.41l386.34,456.27
			L1646.3,3.16h275.41L1429.33,564.16L1429.33,564.16z"/>
	</defs>
	
		<linearGradient id="SVGID_00000018931629103120450680000005652783056678808505_" gradientUnits="userSpaceOnUse" x1="0.0115" y1="282.656" x2="1921.7091" y2="282.656">
		<stop  offset="1.065558e-08" style="stop-color:#1F92F1"/>
		<stop  offset="0.607" style="stop-color:#0BBAE4"/>
		<stop  offset="1" style="stop-color:#00CFDD"/>
	</linearGradient>
	<use xlink:href="#SVGID_1_"  style="overflow:visible;fill:url(#SVGID_00000018931629103120450680000005652783056678808505_);"/>
	<clipPath id="SVGID_00000129203322829183728770000015050351185706043268_">
		<use xlink:href="#SVGID_1_"  style="overflow:visible;"/>
	</clipPath>
</g>
<linearGradient id="SVGID_00000163766513230747683380000005950791817939063447_" gradientUnits="userSpaceOnUse" x1="1683.0006" y1="441.1187" x2="1909.3839" y2="441.1187">
	<stop  offset="0" style="stop-color:#1F92F1"/>
	<stop  offset="0.6438" style="stop-color:#09BDE3"/>
	<stop  offset="1" style="stop-color:#00CFDD"/>
</linearGradient>
<path style="fill:none;stroke:url(#SVGID_00000163766513230747683380000005950791817939063447_);stroke-width:25;stroke-miterlimit:10;" d="
	M1886.82,423.72l-161.62-93.31c-13.42-7.75-30.19,1.94-29.69,15.43v186.62c-0.5,17.49,16.27,27.18,29.69,19.43l161.62-93.31
	C1900.24,450.83,1900.24,431.46,1886.82,423.72z"/>
<g>
	<path class="st1" d="M343.05,479.33h-16.98v-60.4h-0.54l-26.87,60.4h-14.08l-27.3-61.26h-0.54v61.26h-16.23v-76.74h27.3
		l23.65,54.38h0.43l23.43-54.38h27.73V479.33z"/>
	<path class="st1" d="M359.49,479.33v-76.74h16.98v76.74H359.49z"/>
	<path class="st1" d="M480.84,479.33h-22.57l-25.04-28.59l-24.93,28.59h-22.46l36.44-40.52l-33-36.22h21.93l22.25,25.26l22.57-25.26
		h21.5l-33,36.22L480.84,479.33z"/>
	<path class="st1" d="M560.01,460.09h0.54l29.37-57.5h19.45l-40.12,76.74h-18.27l-40.12-76.74h19.67L560.01,460.09z"/>
	<path class="st1" d="M623.35,479.33v-76.74h16.98v76.74H623.35z"/>
	<path class="st1" d="M738.73,444.34c2.11,2.9,3.17,7.22,3.17,12.95c0,7.45-2.11,12.99-6.34,16.61c-4.23,3.62-10.89,5.43-19.99,5.43
		h-58.68v-76.74h57.5c16.55,0,24.83,6.59,24.83,19.78c0,4.08-0.79,7.42-2.36,10c-1.58,2.58-3.83,4.37-6.77,5.37v0.54
		C733.73,439.42,736.62,441.44,738.73,444.34z M718.2,431.44c1.68-1.47,2.53-3.74,2.53-6.82c0-3.15-0.84-5.44-2.53-6.88
		c-1.68-1.43-4.32-2.15-7.9-2.15h-36.44v18.06h36.44C713.89,433.65,716.52,432.91,718.2,431.44z M720.46,463.85
		c1.9-1.65,2.85-4.26,2.85-7.85c0-3.58-0.95-6.22-2.85-7.9c-1.9-1.68-4.93-2.53-9.08-2.53h-37.51v20.74h37.51
		C715.53,466.32,718.56,465.5,720.46,463.85z"/>
	<path class="st1" d="M772.43,433.11h56.21v12.9h-56.21v19.78h59.54v13.54h-76.53v-76.74h75.13v13.54h-58.15V433.11z"/>
	<path class="st2" d="M971.37,479.33h-19.78l-17.63-29.23h-33.53v29.23h-16.98v-76.74h58.58c9.67,0,16.71,1.88,21.12,5.64
		c4.41,3.76,6.61,9.73,6.61,17.9c0,6.59-1.61,11.55-4.84,14.89c-3.22,3.33-7.52,5.5-12.9,6.5v0.64L971.37,479.33z M948.21,434.13
		c1.83-1.61,2.74-4.1,2.74-7.47c0-3.37-0.91-5.86-2.74-7.47c-1.83-1.61-4.71-2.42-8.65-2.42h-39.12v19.78h39.12
		C943.49,436.55,946.38,435.74,948.21,434.13z"/>
	<path class="st2" d="M1000.39,433.11h56.21v12.9h-56.21v19.78h59.54v13.54H983.4v-76.74h75.13v13.54h-58.15V433.11z"/>
	<path class="st2" d="M1135.81,419.35c-4.3-3.15-10.39-4.73-18.27-4.73c-8.96,0-15.98,2.24-21.07,6.72
		c-5.09,4.48-7.63,11.02-7.63,19.61c0,8.6,2.54,15.14,7.63,19.61c5.09,4.48,12.11,6.72,21.07,6.72c8.1,0,14.28-1.65,18.54-4.94
		c4.26-3.29,6.57-7.67,6.93-13.11h20.21c-0.14,6.66-2.06,12.41-5.75,17.25c-3.69,4.84-8.92,8.54-15.69,11.12
		c-6.77,2.58-14.85,3.87-24.24,3.87c-9.46,0-17.75-1.5-24.88-4.51c-7.13-3.01-12.67-7.54-16.61-13.6
		c-3.94-6.05-5.91-13.52-5.91-22.41c0-8.88,1.97-16.35,5.91-22.41c3.94-6.05,9.47-10.59,16.61-13.6c7.13-3.01,15.42-4.51,24.88-4.51
		c9.31,0,17.32,1.25,24.02,3.76c6.7,2.51,11.86,6.07,15.48,10.69c3.62,4.62,5.61,10.01,5.96,16.18h-19.99
		C1142.51,426.41,1140.11,422.51,1135.81,419.35z"/>
	<path class="st2" d="M1257.69,410.7c8.67,6.84,13,16.93,13,30.26c0,13.33-4.34,23.41-13,30.26c-8.67,6.84-20.53,10.26-35.58,10.26
		c-15.05,0-26.91-3.42-35.58-10.26c-8.67-6.84-13.01-16.93-13.01-30.26c0-13.33,4.33-23.41,13.01-30.26
		c8.67-6.84,20.53-10.26,35.58-10.26C1237.16,400.44,1249.02,403.86,1257.69,410.7z M1244.15,460.63c5.23-4.44,7.85-11,7.85-19.67
		c0-8.67-2.62-15.23-7.85-19.67c-5.23-4.44-12.58-6.66-22.03-6.66c-9.46,0-16.8,2.22-22.03,6.66c-5.23,4.44-7.85,11-7.85,19.67
		c0,8.67,2.61,15.23,7.85,19.67c5.23,4.44,12.57,6.66,22.03,6.66C1231.57,467.29,1238.91,465.07,1244.15,460.63z"/>
	<path class="st2" d="M1372.05,479.33h-19.78l-17.63-29.23h-33.53v29.23h-16.98v-76.74h58.58c9.67,0,16.71,1.88,21.12,5.64
		c4.41,3.76,6.61,9.73,6.61,17.9c0,6.59-1.61,11.55-4.84,14.89c-3.22,3.33-7.52,5.5-12.9,6.5v0.64L1372.05,479.33z M1348.88,434.13
		c1.83-1.61,2.74-4.1,2.74-7.47c0-3.37-0.91-5.86-2.74-7.47c-1.83-1.61-4.71-2.42-8.65-2.42h-39.12v19.78h39.12
		C1344.17,436.55,1347.06,435.74,1348.88,434.13z"/>
	<path class="st2" d="M1461.04,411.83c7.02,6.16,10.53,15.87,10.53,29.13c0,13.26-3.51,22.97-10.53,29.13
		c-7.02,6.16-17.23,9.24-30.63,9.24h-46.32v-76.74h46.32C1443.8,402.59,1454.02,405.67,1461.04,411.83z M1401.06,416.34v49.23h25.69
		c17.41,0,26.12-8.2,26.12-24.61c0-16.41-8.71-24.61-26.12-24.61H1401.06z"/>
	<path class="st2" d="M1538.91,416.02c-3.98-1.86-9.62-2.79-16.93-2.79c-13.69,0-20.53,3.3-20.53,9.89c0,2.65,0.93,4.55,2.79,5.7
		c1.86,1.15,4.87,1.93,9.03,2.36l29.02,2.58c8.02,0.72,14.15,2.81,18.38,6.29c4.23,3.48,6.34,8.9,6.34,16.28
		c0,9.17-3.69,15.66-11.07,19.45c-7.38,3.8-18.27,5.7-32.67,5.7c-13.97,0-24.65-2.06-32.03-6.18c-7.38-4.12-11.21-11.37-11.5-21.76
		h19.02c0.43,5.73,2.74,9.66,6.93,11.77c4.19,2.11,10.26,3.17,18.22,3.17c15.69,0,23.54-3.65,23.54-10.96
		c0-3.15-0.99-5.41-2.96-6.77c-1.97-1.36-4.85-2.22-8.65-2.58l-28.91-2.9c-8.1-0.79-14.24-2.79-18.43-6.02
		c-4.19-3.22-6.29-8.24-6.29-15.05c0-15.83,13.4-23.75,40.2-23.75c13.04,0,23.23,1.93,30.58,5.8c7.34,3.87,11.16,10.39,11.45,19.56
		h-19.02C1545.05,421.15,1542.88,417.89,1538.91,416.02z"/>
	
		<linearGradient id="SVGID_00000154384247063485028320000000348722139188700845_" gradientUnits="userSpaceOnUse" x1="551.8763" y1="437.7834" x2="562.8672" y2="418.7468">
		<stop  offset="0" style="stop-color:#1F92F1"/>
		<stop  offset="0.6438" style="stop-color:#09BDE3"/>
		<stop  offset="1" style="stop-color:#00CFDD"/>
	</linearGradient>
	<path style="fill:url(#SVGID_00000154384247063485028320000000348722139188700845_);" d="M560.61,441.9l10.19-17.65
		c0.31-0.53-0.08-1.2-0.69-1.2h-20.38c-0.61,0-1,0.66-0.69,1.2l10.19,17.65C559.54,442.44,560.3,442.44,560.61,441.9z"/>
</g>
<circle class="st4" cx="1857.51" cy="532.66" r="14.5"/>
<path class="st5" d="M1652.77,465.54L1652.77,465.54c1.45,0,2.63-1.18,2.63-2.63V414c0-1.45-1.18-2.63-2.63-2.63l0,0
	c-1.45,0-2.63,1.18-2.63,2.63v48.91C1650.14,464.36,1651.32,465.54,1652.77,465.54z"/>
<path class="st6" d="M1636.19,447.18L1636.19,447.18c1.45,0,2.63-1.18,2.63-2.63v-12.18c0-1.45-1.18-2.63-2.63-2.63l0,0
	c-1.45,0-2.63,1.18-2.63,2.63v12.18C1633.55,446,1634.73,447.18,1636.19,447.18z"/>
<path class="st6" d="M1771.07,447.18L1771.07,447.18c1.45,0,2.63-1.18,2.63-2.63v-12.18c0-1.45-1.18-2.63-2.63-2.63h0
	c-1.45,0-2.63,1.18-2.63,2.63v12.18C1768.44,446,1769.62,447.18,1771.07,447.18z"/>
<path class="st5" d="M1785.64,441.36h1c1.18,0,2.13-0.95,2.13-2.13v-1.55c0-1.18-0.95-2.13-2.13-2.13h-1
	c-1.18,0-2.13,0.95-2.13,2.13v1.55C1783.5,440.41,1784.46,441.36,1785.64,441.36z"/>
<path class="st5" d="M1620.46,441.36h1.19c1.13,0,2.04-0.91,2.04-2.04v-1.74c0-1.13-0.91-2.04-2.04-2.04h-1.19
	c-1.13,0-2.04,0.91-2.04,2.04v1.74C1618.42,440.45,1619.33,441.36,1620.46,441.36z"/>
<path class="st6" d="M1669.29,458.22L1669.29,458.22c1.45,0,2.63-1.18,2.63-2.63v-34.26c0-1.45-1.18-2.63-2.63-2.63l0,0
	c-1.45,0-2.63,1.18-2.63,2.63v34.26C1666.65,457.04,1667.83,458.22,1669.29,458.22z"/>
<path class="st5" d="M1719.59,465.54L1719.59,465.54c1.45,0,2.63-1.18,2.63-2.63V414c0-1.45-1.18-2.63-2.63-2.63l0,0
	c-1.45,0-2.63,1.18-2.63,2.63v48.91C1716.96,464.36,1718.14,465.54,1719.59,465.54z"/>
<path class="st6" d="M1736.85,487.51L1736.85,487.51c1.45,0,2.63-1.18,2.63-2.63v-92.84c0-1.45-1.18-2.63-2.63-2.63l0,0
	c-1.45,0-2.63,1.18-2.63,2.63v92.84C1734.21,486.33,1735.39,487.51,1736.85,487.51z"/>
<path class="st5" d="M1752.73,414v48.91c0,1.45,1.18,2.63,2.63,2.63l0,0c1.45,0,2.63-1.18,2.63-2.63V414c0-1.45-1.18-2.63-2.63-2.63
	l0,0C1753.91,411.37,1752.73,412.55,1752.73,414z"/>
<g>
	<g>
		<path class="st1" d="M43.33,645.94v28.34h94.25v25.64H43.33v47.84H9.39V618.86h131.98v27.08H43.33z"/>
		<path class="st1" d="M323.81,632.22c14.86,11.44,22.3,28.47,22.3,51.1c0,22.63-7.43,39.66-22.3,51.09
			c-14.87,11.44-35.72,17.15-62.56,17.15c-26.84,0-47.7-5.72-62.56-17.15c-14.87-11.43-22.3-28.46-22.3-51.09
			c0-22.63,7.43-39.66,22.3-51.1c14.86-11.43,35.72-17.15,62.56-17.15C288.09,615.07,308.94,620.79,323.81,632.22z M296.55,713.56
			c8.12-6.92,12.19-17,12.19-30.24c0-13.24-4.06-23.32-12.19-30.24c-8.12-6.92-19.89-10.38-35.3-10.38
			c-15.41,0-27.17,3.46-35.3,10.38c-8.12,6.92-12.19,17-12.19,30.24c0,13.24,4.06,23.32,12.19,30.24
			c8.12,6.92,19.89,10.38,35.3,10.38C276.66,723.94,288.42,720.48,296.55,713.56z"/>
		<path class="st1" d="M540.37,747.77h-39.54l-27.44-45.68h-53.44v45.68h-33.94V618.86H489.1c16.97,0,29.25,3.31,36.83,9.93
			c7.58,6.62,11.37,16.91,11.37,30.87c0,11.08-2.56,19.38-7.67,24.92c-5.12,5.54-12.19,9.27-21.21,11.19v1.26L540.37,747.77z
			 M495.78,672.66c2.77-2.41,4.15-6.2,4.15-11.37c0-5.06-1.38-8.82-4.15-11.28c-2.77-2.47-7.16-3.7-13.18-3.7h-62.65v29.97h62.65
			C488.62,676.27,493.01,675.07,495.78,672.66z"/>
	</g>
	<g>
		<path class="st1" d="M875.01,724.3h-75.47l-11.37,23.47h-37.55l65.36-128.91h43.33l65,128.91h-37.73L875.01,724.3z M862.37,698.3
			l-24.55-50.19h-1.08l-24.37,50.19H862.37z"/>
		<path class="st1" d="M1112.25,747.77h-39.54l-27.44-45.68h-53.44v45.68h-33.94V618.86h103.09c16.97,0,29.25,3.31,36.83,9.93
			c7.58,6.62,11.37,16.91,11.37,30.87c0,11.08-2.56,19.38-7.67,24.92c-5.12,5.54-12.19,9.27-21.21,11.19v1.26L1112.25,747.77z
			 M1067.65,672.66c2.77-2.41,4.15-6.2,4.15-11.37c0-5.06-1.38-8.82-4.15-11.28c-2.77-2.47-7.16-3.7-13.18-3.7h-62.65v29.97h62.65
			C1060.49,676.27,1064.88,675.07,1067.65,672.66z"/>
		<path class="st1" d="M1291.17,646.84h-57.77v100.93h-33.94V646.84h-57.6v-27.98h149.31V646.84z"/>
		<path class="st1" d="M1329.08,747.77V618.86h33.94v128.91H1329.08z"/>
		<path class="st1" d="M1499.97,643.41c-6.08-2.77-14.84-4.15-26.27-4.15c-10.95,0-19.02,1.2-24.19,3.61
			c-5.18,2.41-7.76,6.02-7.76,10.83c0,3.85,1.44,6.59,4.33,8.22c2.89,1.62,7.64,2.8,14.26,3.52l49.83,4.33
			c14.2,1.33,24.94,5,32.23,11.01c7.28,6.02,10.92,15.29,10.92,27.8c0,10.95-2.98,19.59-8.94,25.91
			c-5.96,6.32-14.53,10.74-25.73,13.27s-25.4,3.79-42.61,3.79c-16.61,0-30.39-1.35-41.35-4.06c-10.95-2.71-19.47-7.49-25.55-14.35
			c-6.08-6.86-9.3-16.37-9.66-28.53h38.64c0.96,8.55,4.66,14.42,11.1,17.6c6.44,3.19,15.86,4.78,28.26,4.78
			c12.28,0,21.36-1.32,27.26-3.97c5.9-2.65,8.85-6.68,8.85-12.1c0-4.57-1.54-7.85-4.6-9.84c-3.07-1.99-7.55-3.28-13.45-3.88
			l-48.93-4.87c-14.32-1.44-25.16-4.93-32.5-10.47c-7.34-5.54-11.01-14.26-11.01-26.18c0-14.56,6.2-24.97,18.6-31.24
			c12.4-6.26,30.15-9.39,53.26-9.39c23.23,0,41.22,3.19,53.98,9.57c12.76,6.38,19.38,17.45,19.86,33.22h-38.64
			C1509.45,651,1506.05,646.18,1499.97,643.41z"/>
		<path class="st1" d="M1728.99,646.84h-57.77v100.93h-33.94V646.84h-57.6v-27.98h149.31V646.84z"/>
		<path class="st1" d="M1857.27,643.41c-6.08-2.77-14.84-4.15-26.27-4.15c-10.95,0-19.02,1.2-24.19,3.61
			c-5.18,2.41-7.76,6.02-7.76,10.83c0,3.85,1.44,6.59,4.33,8.22c2.89,1.62,7.64,2.8,14.26,3.52l49.83,4.33
			c14.2,1.33,24.94,5,32.23,11.01c7.28,6.02,10.92,15.29,10.92,27.8c0,10.95-2.98,19.59-8.94,25.91
			c-5.96,6.32-14.53,10.74-25.73,13.27c-11.19,2.53-25.4,3.79-42.61,3.79c-16.61,0-30.39-1.35-41.35-4.06
			c-10.95-2.71-19.47-7.49-25.55-14.35c-6.08-6.86-9.3-16.37-9.66-28.53h38.64c0.96,8.55,4.66,14.42,11.1,17.6
			c6.44,3.19,15.86,4.78,28.26,4.78c12.28,0,21.36-1.32,27.26-3.97c5.9-2.65,8.85-6.68,8.85-12.1c0-4.57-1.54-7.85-4.6-9.84
			c-3.07-1.99-7.56-3.28-13.45-3.88l-48.93-4.87c-14.32-1.44-25.16-4.93-32.5-10.47c-7.34-5.54-11.01-14.26-11.01-26.18
			c0-14.56,6.2-24.97,18.6-31.24c12.4-6.26,30.15-9.39,53.26-9.39c23.23,0,41.22,3.19,53.98,9.57
			c12.76,6.38,19.38,17.45,19.86,33.22h-38.64C1866.75,651,1863.35,646.18,1857.27,643.41z"/>
	</g>
</g>
</svg>
