<?xml version="1.0" encoding="UTF-8"?><svg id="Layer_2" xmlns="http://www.w3.org/2000/svg" viewBox="0 0 1922.06 320.17"><defs><style>.cls-1{fill:#fff;}.cls-2{fill:#e5e5e5;}.cls-3{fill:#c9f401;}.cls-4{fill:#1e1e1e;}</style></defs><g><g><path class="cls-2" d="M1038.66,319.76c-14.29,0-25.77-6.44-34.14-19.13-3.74-6.15-5.66-12.59-5.66-19.12v-2.25c0-10.88,4.94-20.86,14.67-29.65,7.3-5.69,15.71-8.6,24.97-8.6h30.54c13.46,0,24.19,5.64,32.79,17.23,1.3,1.79,2.39,3.71,3.33,5.79h-19.32c-4.81-4.48-10.23-6.76-16.11-6.76h-32.36c-7.91,0-14.41,3.94-19.33,11.71-1.92,3.39-2.91,7.07-2.91,10.69v1.41c0,9.35,5.14,16.5,15.25,21.26,2.9,.78,5.17,1.13,7.28,1.13h32.36c5.84,0,11.07-2.3,15.97-7.04h19.3c-4,8.75-10.7,15.47-19.93,19.96-5.11,2.22-10.81,3.36-16.91,3.36h-29.8Z"/><path class="cls-2" d="M678.66,298.2l24.16,21.95h-24.27l-20.83-19.96h-36.81v19.96h-16.51v-79.15h56.65c14.18,0,37.8,2.22,37.8,29.59,0,17.4-9.54,24.61-20.17,27.59l-.02,.02Zm-57.75-13.41h46.33c11.19,0,13.97-7.99,13.97-14.18s-2.77-14.07-13.97-14.07h-46.33v28.25Z"/><path class="cls-2" d="M892.7,241v15.19h-69.61v17.63h69.61v14.07h-69.61v17.08h69.61v15.19h-86.13v-79.15h86.13v-.02Z"/><path class="cls-2" d="M1495.11,298.2l24.16,21.95h-24.27l-20.83-19.96h-36.79v19.96h-16.51v-79.15h56.65c14.18,0,37.8,2.22,37.8,29.59,0,17.4-9.54,24.61-20.17,27.59l-.03,.02Zm-57.75-13.41h46.33c11.19,0,13.97-7.99,13.97-14.18s-2.77-14.07-13.97-14.07h-46.33v28.25Z"/><path class="cls-2" d="M1725.43,280.57c0,36.47-27.59,39.57-41.79,39.57h-59.08v-79.15h59.08c14.18,0,41.79,3.22,41.79,39.57v.02Zm-17.74,0c0-14.52-7.1-24.05-21.51-24.05h-45.01v48.21h45.01c14.41,0,21.51-9.64,21.51-24.16Z"/><path class="cls-2" d="M1922.06,296.98c0,8.98-3.43,23.16-37.36,23.16h-14.18c-33.93,0-37.36-18.63-37.36-27.59h16.51c0,2.33,1.55,12.19,16.51,12.19h28.04c8.54,0,11.3-2.88,11.3-6.65,0-17.74-72.6-.55-72.6-33.8,0-9.09,3.43-23.27,37.47-23.27h14.07c34.03,0,37.47,18.63,37.47,27.72h-16.63c0-2.44-1.44-12.19-16.4-12.19h-28.16c-8.54,0-11.19,2.77-11.19,6.65,0,17.4,72.5-.21,72.5,33.8l.03-.02Z"/><path class="cls-2" d="M1239.89,319.39c-16.08,0-28.33-7.73-36.42-22.98-2.41-5.92-3.6-11.24-3.6-16.2,0-12.48,5.69-23.32,16.91-32.24,7.1-4.6,14.56-6.94,22.14-6.94h43.28c13.26,0,24.42,6.29,33.17,18.66,3.94,7.08,5.87,13.74,5.87,20.25,0,12.29-5.18,22.81-15.41,31.29-6.88,5.43-15.16,8.19-24.64,8.19h-41.32l.02-.02Zm-1.53-62.2c-7.67,0-14.04,3.77-18.96,11.21-2.22,4-3.34,7.96-3.34,11.79,0,9.11,4.61,16.2,13.71,21.13,2.96,1.26,6.01,1.87,9.15,1.87h43.28c8.89,0,15.81-4.37,20.56-13,1.53-3.2,2.3-6.56,2.3-10,0-9.35-4.77-16.53-14.17-21.29-3.08-1.15-5.79-1.72-8.14-1.72h-44.4l.02,.02Z"/></g><g><path class="cls-1" d="M834.64,78.27h-51.93c-1.25,0-2.85,.21-4.8,.63-11.54,4.03-17.31,11.19-17.31,21.48v92.8c0,.69-.35,1.04-1.04,1.04h-27.53c-.7,0-1.04-.35-1.04-1.04V100.38c0-10.29-5.77-17.45-17.31-21.48-1.81-.42-3.41-.63-4.8-.63h-51.72c-12.1,0-19.6,6.53-22.52,19.6v95.31c0,.69-.35,1.04-1.04,1.04h-28.15c-.69,0-1.04-.35-1.04-1.04V48.24h30.24v5.21c6.81-3.48,13.63-5.21,20.44-5.21h54.85c12.65,0,24.61,5.63,35.87,16.89,11.26-11.26,23.22-16.89,35.87-16.89h55.06c20.99,0,36.98,12.51,47.97,37.54,1.67,7.23,2.5,12.86,2.5,16.89v90.51c0,.69-.28,1.04-.83,1.04h-27.53c-.83,0-1.25-.35-1.25-1.04V103.09c0-13.22-7.92-24.82-22.94-24.82Z"/><path class="cls-1" d="M947.9,29c0,.7-.42,1.04-1.25,1.04h-27.32c-.69,0-1.04-.35-1.04-1.04V1.06c.14-.7,.49-1.04,1.04-1.04h27.32c.83,.14,1.25,.48,1.25,1.04V29Z"/><path class="cls-1" d="M947.9,49.28V193.18c0,.69-.42,1.04-1.25,1.04h-27.32c-.69,0-1.04-.35-1.04-1.04V49.28c.28-.69,.63-1.04,1.04-1.04h27.32c.83,0,1.25,.35,1.25,1.04Z"/><path class="cls-1" d="M1323.08,171.08l-61.94-122.21,1.04-.63h30.66c1.11,.42,14.46,26.28,40.04,77.58,10.57,21.13,16.27,31.91,17.1,32.33,.42,0,.63,.21,.63,.63,1.95,0,6.6-8.34,13.97-25.02,1.67-2.22,16.2-30.73,43.59-85.5h32.32c-6.53,14.18-29.47,59.92-68.82,137.22-5.84,5.84-12.3,8.76-19.39,8.76h-2.29c-12.65,0-21.62-7.72-26.9-23.15Z"/><path class="cls-1" d="M1501.19,29c0,.7-.42,1.04-1.25,1.04h-27.32c-.69,0-1.04-.35-1.04-1.04V1.06c.14-.7,.49-1.04,1.04-1.04h27.32c.83,.14,1.25,.48,1.25,1.04V29Z"/><path class="cls-1" d="M1501.19,49.28V193.18c0,.69-.42,1.04-1.25,1.04h-27.32c-.69,0-1.04-.35-1.04-1.04V49.28c.28-.69,.63-1.04,1.04-1.04h27.32c.83,0,1.25,.35,1.25,1.04Z"/><path class="cls-1" d="M1684.51,55.75c17.93,12.51,26.9,28.78,26.9,48.8v33.16c0,6.95-1.46,14.32-4.38,22.11-10.98,22.94-26.56,34.41-46.71,34.41h-77.16c-4.03,0-9.8-1.11-17.31-3.34-22.52-12.37-33.78-30.1-33.78-53.18V0l30.03,19.6V53.67c7.51-3.62,16.13-5.42,25.86-5.42h67.57c12.23,0,21.9,2.5,28.99,7.51Zm-105.73,23.56c-11.12,3.76-16.68,10.57-16.68,20.44v43.38c0,1.39,.21,2.85,.63,4.38,4.03,11.12,11.54,16.68,22.52,16.68h72.99c13.07,0,20.78-7.02,23.15-21.06v-45.05c0-2.22-1.11-5.21-3.34-8.97-3.75-7.23-12.16-10.84-25.23-10.84h-62.15c-5.42,0-9.38,.35-11.89,1.04Z"/><path class="cls-1" d="M1772.94,97.87v46.71c0,8.34,5.91,14.81,17.73,19.39h80.92c10.01,0,16.96-6.05,20.86-18.14,.28-.83,.69-1.25,1.25-1.25h27.32c.69,.14,1.04,.56,1.04,1.25-1.81,11.54-6.12,21.2-12.93,28.99-10.84,12.93-22.52,19.39-35.04,19.39h-83c-15.29,0-28.92-9.18-40.87-27.53-5.01-9.59-7.51-19.12-7.51-28.57v-33.37c0-20.99,9.31-37.68,27.94-50.05,7.37-4.31,14.95-6.46,22.73-6.46h78.62c20.02,0,35.66,11.82,46.92,35.45,2.09,7.23,3.13,12.44,3.13,15.64v27.53c0,.7-.35,1.04-1.04,1.04h-93.22l-36.91-30.03h101.56c-3.2-13.07-10.71-19.6-22.52-19.6h-74.45c-12.1,0-19.6,6.53-22.52,19.6Z"/><path class="cls-1" d="M1095.8,159.01l30.3,35.21h40.47l-50.89-56.07c-5.48-6.04-14.4-5.79-19.75,.39-.06,.07-.13,.15-.19,.22-4.97,5.59-4.8,14.56,.09,20.25h-.03Z"/><path class="cls-1" d="M1049.62,103.69c5-5.63,4.85-14.64-.08-20.36l-30.12-34.88-.19-.22h-40.47l50.86,56.05c5.49,6.05,14.44,5.82,19.79-.36,.06-.07,.13-.15,.2-.22h0Z"/><path class="cls-1" d="M1115.66,104.32l50.89-56.07h-40.47l-30.3,35.21c-4.89,5.69-5.06,14.64-.09,20.25,.06,.07,.13,.15,.19,.22,5.35,6.18,14.27,6.43,19.75,.39h.03Z"/><path class="cls-1" d="M1029.63,138.19l-50.86,56.05h40.47l30.31-35.09c4.93-5.72,5.08-14.73,.08-20.36-.06-.07-.13-.15-.2-.22-5.36-6.18-14.3-6.41-19.79-.36h0Z"/></g></g><g><path class="cls-3" d="M493.34,218.34h-90.06c2.33-2.43,3.84-4.04,5.37-5.59,30.1-30.32,60.16-60.68,90.36-90.91,3.16-3.16,4.61-6.39,4.57-10.88-.19-19.21-.08-38.41-.08-57.62,0-9.51,.04-19.03-.03-28.54-.03-4.37-1.94-7.13-5.42-8.39-1.75-.63-3.55-.39-5.33-.39-28.57-.02-57.13,.11-85.7-.12-4.96-.04-9.71,1.91-13.2,5.43-28.05,28.31-56.28,56.44-84.53,84.55-1.48,1.48-2.75,4.11-5.19,3.84-.17-18.79-.07-37.58-.07-56.37,0-9.51,.04-19.03-.03-28.54-.03-4.37-1.94-7.13-5.42-8.39-1.75-.63-3.55-.39-5.33-.39-28.57-.02-57.13,.11-85.7-.12-4.96-.04-9.71,1.91-13.2,5.43-28.05,28.31-56.28,56.44-84.53,84.55-1.65,1.64-3.02,4.71-6.03,3.66-3.4-1.19-2.25-4.51-2.26-7.04-.06-26.03-.02-52.06-.05-78.09,0-4.74-3.85-8.6-8.59-8.62-11.27-.03-22.53,0-33.8,0-4.58,0-9.16,.41-13.61,1.48C19.22,23.57,.79,46.22,.16,73.05c-.27,11.66-.11,23.33-.1,35,.01,7.26,1.93,9.11,9.33,9.11,25.85,0,51.71,0,77.56,0,1.44,0,2.89-.12,4.3,.08,3.04,.41,3.96,2.53,2.14,4.94-.86,1.14-1.98,2.07-3,3.09-28.56,28.56-57.09,57.16-85.75,85.62C1.5,214.02,.02,217.16,.05,221.7c.19,29.44,.22,58.88,0,88.32-.05,7.18,2.1,9.98,9.68,9.91,28.55-.25,57.09-.12,85.64-.12,5.05,0,6.1,1.06,6.1-6.37,.03-62.29,.01-124.58,.02-186.87,0-7.34,1.9-9.24,9.19-9.24,27.65-.01,55.3,0,82.95,0,.72,0,1.44-.03,2.15,0,4.36,.26,6.59,2.38,6.87,6.63,.09,1.43,.02,2.87,.02,4.31,0,30.22,0,60.16-.03,89.87v68.73c0,.48,0,.96,0,1.43,0,.53,0,1.07,0,1.6v30.07h91.18c5.88,0,10.65-4.77,10.65-10.65v-80.54c0-5.88-4.77-10.65-10.65-10.65h-89.84c2.22-2.31,3.69-3.88,5.18-5.38,21.91-21.5,43.05-43.77,64.9-65.32,7.26-7.17,14.61-14.34,21.51-21.86,3.71-3.85,6.24-7.1,11.94-7.77,8.71-1.02,17.4-.44,26.14-.44,19.5,0,39.01-.05,58.51-.05h.93c.72,0,1.44-.03,2.15,0,4.36,.26,6.59,2.38,6.87,6.63,.09,1.43,.02,2.87,.02,4.31,0,30.02,0,60.05,0,90.07v101.83h91.18c5.88,0,10.65-4.77,10.65-10.65v-80.54c0-5.88-4.77-10.65-10.65-10.65Z"/><path class="cls-4" d="M70.98,50.07c-4.93-5.03-11.41-7.86-18.27-7.96-.12,0-.24,0-.36,0-6.81,0-13.28,2.7-18.21,7.6-4.95,4.91-7.7,11.37-7.77,18.21-.07,7.37,2.53,14.1,7.32,18.94,4.76,4.81,11.4,7.47,18.69,7.48h.04c7.05,0,13.65-2.67,18.58-7.52,4.92-4.84,7.62-11.3,7.62-18.21,0-6.92-2.72-13.51-7.65-18.55Zm-18.36,36.32c-.09,0-.17,0-.26,0-9.72,0-17.75-7.92-17.89-17.65-.07-4.82,1.73-9.36,5.09-12.79,3.33-3.41,7.78-5.31,12.54-5.35h.17c9.98,0,17.84,7.74,17.88,17.61,.05,10.22-7.49,18.03-17.52,18.18Z"/><path class="cls-4" d="M463.74,44.59c-.22,0-.44,0-.66,0-4.71,0-9.41,0-14.12,0-.51,0-.87,.13-1.23,.5-1.32,1.36-2.69,2.68-4.01,4.04-.3,.31-.59,.43-1.01,.43-9.15-.01-18.3-.01-27.45,0-.58,0-.75-.13-.74-.73,.03-5.07,.02-10.14,0-15.21,0-.53,.12-.7,.68-.7,19.94,.02,39.88,.01,59.82,0,.45,0,.78,.13,1.1,.45,3.59,3.61,7.19,7.22,10.81,10.81,.32,.32,.46,.64,.46,1.09,0,19.97,0,39.94,0,59.91,0,.48-.12,.6-.6,.6-5.12-.02-10.24-.02-15.36,0-.49,0-.66-.09-.66-.63,.02-9.2,.02-18.41,0-27.61,0-.44,.16-.72,.45-1.01,1.37-1.35,2.73-2.71,4.09-4.07,.22-.22,.41-.41,.41-.79-.02-4.99-.01-9.98-.01-14.98,0-.04-.05-.08-.14-.22-.68,.7-1.34,1.38-2.01,2.05-15.58,15.58-31.16,31.16-46.73,46.76-.45,.45-.66,.41-1.08-.02-3.57-3.6-7.15-7.18-10.75-10.75-.38-.38-.4-.56,0-.96,13.16-13.15,26.32-26.32,39.47-39.48,2.99-3,5.99-5.99,8.98-8.99,.12-.12,.32-.19,.3-.5Z"/></g></svg>