<?xml version="1.0" encoding="UTF-8"?>
<svg id="Layer_1" data-name="Layer 1" xmlns="http://www.w3.org/2000/svg" xmlns:xlink="http://www.w3.org/1999/xlink" viewBox="0 0 1035.24 870.28">
  <defs>
    <style>
      .cls-1 {
        fill: url(#linear-gradient-2);
      }

      .cls-2 {
        fill: #fff;
      }

      .cls-3 {
        filter: url(#drop-shadow-1);
      }

      .cls-4 {
        fill: url(#linear-gradient-3);
      }

      .cls-5 {
        fill: url(#linear-gradient);
      }
    </style>
    <linearGradient id="linear-gradient" x1="787.27" y1="755.88" x2="886.41" y2="755.88" gradientUnits="userSpaceOnUse">
      <stop offset="0" stop-color="#1f92f1"/>
      <stop offset=".64" stop-color="#09bce3"/>
      <stop offset="1" stop-color="#00cfdd"/>
    </linearGradient>
    <linearGradient id="linear-gradient-2" x1="250.52" y1="435.14" x2="1035.24" y2="435.14" gradientUnits="userSpaceOnUse">
      <stop offset="0" stop-color="#1f92f1"/>
      <stop offset=".47" stop-color="#0fb2e6"/>
      <stop offset=".65" stop-color="#09bce2"/>
      <stop offset="1" stop-color="#00cfdd"/>
    </linearGradient>
    <filter id="drop-shadow-1" filterUnits="userSpaceOnUse">
      <feOffset dx="7" dy="7"/>
      <feGaussianBlur result="blur" stdDeviation="5"/>
      <feFlood flood-color="#000" flood-opacity=".1"/>
      <feComposite in2="blur" operator="in"/>
      <feComposite in="SourceGraphic"/>
    </filter>
    <linearGradient id="linear-gradient-3" x1="0" y1="434.21" x2="62.22" y2="434.21" xlink:href="#linear-gradient"/>
  </defs>
  <circle class="cls-5" cx="836.84" cy="755.88" r="49.57"/>
  <path class="cls-1" d="M976.78,333.88L425.9,15.84c-77.95-45-175.38,11.25-175.38,101.26V753.19c0,90,97.43,146.26,175.38,101.26l550.87-318.05c77.95-45,77.95-157.51,0-202.51Z"/>
  <g class="cls-3">
    <path class="cls-2" d="M614.6,283.36c-21.34,104.81-42.69,239.62-63.97,344.44-1.87,9.21-2.55,18.7-4.84,27.79-9.22,36.63-29.94,62-70.48,59.85-36.87-1.96-57.02-24.91-63.28-60.92-14.5-83.4-29.23-166.76-44.06-250.1-2.53-14.2-5.29-28.36-9.77-42.64-2.91-9.26-16.23-8.64-18.29,.85-12.51,57.6-25.43,115.13-36.45,173.02-8.28,43.51-26.16,75.81-75.39,75.3-49.75-.52-65.62-35.44-73.95-77.64-5.98-30.28-4.62-64.66-41.94-79.9-10.12-4.13-14.82-17.1-9.42-29.36,6.06-13.76,17.73-19.43,32.08-17.84,36.97,4.1,54.61,27.87,64.32,61.69,7.31,25.46,4.18,54.92,22.46,77.41,3.07,3.78,8.61,4.56,12.59,1.77,17.55-12.33,15.08-33.22,18.8-49.7,15.76-69.71,29.69-139.84,43.52-209.97,6.27-31.79,16.99-60.34,54.89-60.44,38.09-.1,48.64,27.94,54.1,60.34,17.17,102.02,35.4,203.86,53.1,305.79,2.68,15.45,3.76,31.4,11.41,47.4,3.3,6.9,13.13,7.19,16.78,.47,11.21-20.64,11.94-42.62,16.09-62.87,24.19-117.92,47.01-236.12,70.51-354.18,6.76-33.97,13.39-70.28,59.07-69.16,46.01,1.13,49.09,38.06,55.03,72.18,17.11,98.22,35.71,196.19,51.91,294.56,3.62,21.96,17.11,55.13-17.64,61.45-34.35,6.25-33.57-27.34-37.8-50.7-13.18-72.81-26.18-175.66-39.2-248.5-10.18-29.58-27.18-14.58-30.2-.36Z"/>
    <path class="cls-4" d="M62.22,434.69c-2.92,19.04-13.54,30.11-33.26,29.35-17.01-.65-27.98-11.04-28.88-27.6-1.05-19.38,10.09-31.36,29.81-32.07,19.97-.71,29.87,11.21,32.34,30.32Z"/>
  </g>
</svg>