<?xml version="1.0" encoding="utf-8"?>
<!-- Generator: Adobe Illustrator 26.5.0, SVG Export Plug-In . SVG Version: 6.00 Build 0)  -->
<svg version="1.1" id="Layer_1" xmlns="http://www.w3.org/2000/svg" xmlns:xlink="http://www.w3.org/1999/xlink" x="0px" y="0px"
	 viewBox="0 0 959.7 263.7" style="enable-background:new 0 0 959.7 263.7;" xml:space="preserve">
<style type="text/css">
	.st0{fill:#E91E63;}
	.st1{fill:#FFFFFF;}
	.st2{fill:#FEFEFE;}
	.st3{fill:#F4408A;}
</style>
<g>
	<path class="st0" d="M0,89.4V50.6C2.2,23.1,25.5,1.3,53.1,1.1c27.5-0.3,55-0.4,82.5-0.7C147,0.3,158.5,0.1,169.9,0h43.5
		c27.1,2.4,48.6,25.4,49,52.6c0.4,25.2,0.5,50.4,0.7,75.6c0.2,26.1,0.4,52.1,0.8,78.2c0.5,31.3-23.7,56-54.9,56.1
		c-27.3,0.1-54.5,0.4-81.8,0.6c-21.1,0.2-42.2,0.3-63.2,0.6c-8.2,0.1-16.3,0.2-24.3-2.2c-22.4-6.8-38.2-27.5-38.5-51
		c-0.3-28.8-0.5-57.6-0.7-86.4C0.3,112.5,0.1,100.9,0,89.4z"/>
	<path class="st1" d="M130.9,182.4H62.8c-15.5,0-27.5-9.7-30.8-24.8c-0.5-2.3-0.7-4.8-0.7-7.2c0-27.3-0.1-54.5,0-81.8
		c0-16.3,10.4-28.8,26.5-31.7c1.7-0.3,3.4-0.2,5.1-0.2c45.4,0,90.9,0.1,136.3-0.1c14.5-0.1,28.1,10,31,25c0.4,2.3,0.7,4.8,0.7,7.2
		c0.1,27.2,0.1,54.4,0,81.6c0,16.3-10.1,28.5-26.1,31.7c-2.1,0.4-4.1,0.3-6.2,0.3H130.9z"/>
	<path class="st2" d="M90.7,211.7H45.6c-5.5,0-9.2-2.6-9.3-6.4c-0.1-3.9,3.7-6.6,9.4-6.6h90.8c5.5,0,9.2,2.6,9.3,6.4
		c0.1,3.9-3.7,6.6-9.4,6.6H90.7L90.7,211.7z"/>
	<path class="st2" d="M76.2,220.6h32.5c4.4,0,7.3,2.4,7.3,6.2s-2.8,6.2-7.3,6.2h-65c-4.4,0-7.3-2.5-7.3-6.2s2.9-6.2,7.3-6.2H76.2z"
		/>
	<path class="st0" d="M130.8,172.1c-22.9,0-45.8,0.1-68.6,0c-9.7,0-17.5-6.2-19.9-15.6c-0.5-1.9-0.7-3.9-0.7-5.9V68.5
		c0-13.4,10.7-21.7,21.6-21.7c45.4,0.2,90.8,0.2,136.2,0c10,0,21.1,7.6,21.1,21.1c0.1,27.7,0.1,55.4,0,83.1c0,12.1-9,21-21.1,21
		C176.5,172.1,153.6,172.1,130.8,172.1L130.8,172.1L130.8,172.1z"/>
	<path class="st2" d="M79,98.7c-5.7-0.1-10.3-4.8-10.2-10.4c0.1-5.7,4.8-10.3,10.4-10.2c5.7,0.1,10.3,4.8,10.2,10.4
		C89.4,94.2,84.7,98.8,79,98.7z"/>
	<path class="st3" d="M84.2,88.5c-0.1,2.7-2.4,5-5.1,5.1c-2.8,0-5.2-2.4-5.2-5.3c0.1-2.7,2.4-5,5.1-5.1
		C81.9,83.2,84.3,85.6,84.2,88.5z"/>
	<polygon class="st2" points="68,151.3 98.4,107.9 115.1,131.8 152.6,78.1 204.5,152.3 	"/>
</g>
<g>
	<path class="st1" d="M413.4,52.7c4.3,3.8,6.4,9.7,6.4,17.7s-2.1,14.1-6.4,17.8s-11.2,5.6-20.8,5.6h-36.8v25.7h-19.1V47.1h55.9
		C402.2,47.1,409.2,49,413.4,52.7z M396.4,77.8c1.7-1.5,2.5-3.8,2.5-6.8s-0.8-5.4-2.5-6.9s-4.3-2.2-8-2.2h-32.6V80h32.6
		C392.1,80,394.8,79.3,396.4,77.8L396.4,77.8z"/>
	<path class="st1" d="M551.3,119.6h-22.2l-15.4-25.7h-30.1v25.7h-19.1V47.1h58c9.5,0,16.5,1.9,20.7,5.6c4.3,3.7,6.4,9.5,6.4,17.4
		c0,6.2-1.4,10.9-4.3,14c-2.9,3.1-6.9,5.2-11.9,6.3v0.7L551.3,119.6L551.3,119.6z M526.2,77.4c1.6-1.3,2.3-3.5,2.3-6.4
		s-0.8-5-2.3-6.3s-4-2.1-7.4-2.1h-35.3v16.9h35.3C522.2,79.4,524.7,78.7,526.2,77.4L526.2,77.4z"/>
	<path class="st1" d="M673.5,54.6c8.4,6.4,12.5,16,12.5,28.7s-4.2,22.3-12.5,28.8c-8.4,6.4-20.1,9.7-35.2,9.7s-26.8-3.2-35.2-9.7
		c-8.4-6.4-12.5-16-12.5-28.8s4.2-22.3,12.5-28.8c8.4-6.4,20.1-9.7,35.2-9.7S665.2,48.2,673.5,54.6z M658.2,100.4
		c4.6-3.9,6.9-9.6,6.9-17s-2.3-13.1-6.9-17c-4.6-3.9-11.2-5.8-19.9-5.8s-15.3,2-19.9,5.8c-4.6,3.9-6.9,9.6-6.9,17s2.3,13.1,6.9,17
		s11.2,5.8,19.9,5.8S653.6,104.3,658.2,100.4z"/>
	<path class="st1" d="M832.2,119.6h-19.1V65.1h-0.5l-23.8,54.6h-15.4l-24.1-55.3h-0.6v55.3h-18.2V47.1h30.4l20,47.8h0.6l19.7-47.8
		h31L832.2,119.6L832.2,119.6L832.2,119.6z"/>
	<path class="st1" d="M947.1,54.6c8.4,6.4,12.5,16,12.5,28.7s-4.2,22.3-12.5,28.8c-8.4,6.4-20.1,9.7-35.2,9.7s-26.8-3.2-35.2-9.7
		s-12.5-16-12.5-28.8s4.2-22.3,12.5-28.8s20.1-9.7,35.2-9.7S938.8,48.2,947.1,54.6z M931.8,100.4c4.6-3.9,6.9-9.6,6.9-17
		s-2.3-13.1-6.9-17c-4.6-3.9-11.2-5.8-19.9-5.8s-15.3,2-19.9,5.8c-4.6,3.9-6.9,9.6-6.9,17s2.3,13.1,6.9,17s11.2,5.8,19.9,5.8
		S927.2,104.3,931.8,100.4z"/>
	<g>
		<path class="st1" d="M391.3,174.2c-1.4-1.8-3.5-3.2-6.2-4.3s-6-1.7-9.9-1.7c-6.8,0-12,1.6-15.7,4.9s-5.5,7.9-5.5,14
			s1.8,10.8,5.5,14s8.9,4.9,15.7,4.9c5.9,0,10.4-1.2,13.5-3.6c3.1-2.4,4.8-5.5,5.1-9.4h19c-0.2,8.2-3.6,14.6-10.1,19.1
			s-15.6,6.7-27.5,6.7s-21.5-2.7-28.4-8c-6.8-5.3-10.2-13.2-10.2-23.8s3.4-18.4,10.2-23.8c6.8-5.3,16.2-8,28.4-8
			c7.8,0,14.4,1,20,2.9c5.5,2,9.7,4.8,12.7,8.4s4.5,8.1,4.8,13.1h-18.8C393.6,177.9,392.8,176,391.3,174.2L391.3,174.2z"/>
		<path class="st0" d="M520.3,163.4c6.9,5.3,10.4,13.2,10.4,23.8s-3.5,18.4-10.4,23.8c-6.9,5.3-16.6,8-29.1,8s-22.2-2.7-29.1-8
			c-6.9-5.3-10.4-13.2-10.4-23.8s3.5-18.4,10.4-23.8c6.9-5.3,16.6-8,29.1-8S513.4,158.1,520.3,163.4z M507.6,201.2
			c3.8-3.2,5.7-7.9,5.7-14.1s-1.9-10.9-5.7-14.1s-9.2-4.8-16.4-4.8s-12.6,1.6-16.4,4.8s-5.7,7.9-5.7,14.1s1.9,10.9,5.7,14.1
			s9.2,4.8,16.4,4.8S503.8,204.4,507.6,201.2L507.6,201.2z"/>
		<path class="st1" d="M600.3,199.7h0.4l19.8-42.5h18.4l-29.6,60h-17.7l-29.6-60h18.5L600.3,199.7z"/>
		<path class="st1" d="M692.6,180.6h43.8v11.3h-43.8V205H739v12.1h-62.2v-60H738v12.1h-45.4V180.6L692.6,180.6z"/>
		<path class="st1" d="M852.8,217.1h-18.4l-12.8-21.2h-24.9v21.2H781v-60h48c7.9,0,13.6,1.5,17.1,4.6s5.3,7.9,5.3,14.4
			c0,5.1-1.2,9-3.6,11.6c-2.4,2.6-5.7,4.3-9.9,5.2v0.6L852.8,217.1z M832,182.2c1.3-1.1,1.9-2.9,1.9-5.3s-0.6-4.1-1.9-5.2
			s-3.3-1.7-6.1-1.7h-29.2v13.9h29.2C828.7,183.9,830.7,183.3,832,182.2L832,182.2z"/>
		<path class="st1" d="M934.9,168.6c-2.8-1.3-6.9-1.9-12.2-1.9s-8.8,0.6-11.3,1.7c-2.4,1.1-3.6,2.8-3.6,5c0,1.8,0.7,3.1,2,3.8
			c1.3,0.8,3.5,1.3,6.6,1.6l23.2,2c6.6,0.6,11.6,2.3,15,5.1c3.4,2.8,5.1,7.1,5.1,12.9c0,5.1-1.4,9.1-4.2,12.1c-2.8,2.9-6.8,5-12,6.2
			c-5.2,1.2-11.8,1.8-19.8,1.8s-14.1-0.6-19.2-1.9s-9.1-3.5-11.9-6.7c-2.8-3.2-4.3-7.6-4.5-13.3h18c0.5,4,2.2,6.7,5.2,8.2
			s7.4,2.2,13.2,2.2s9.9-0.6,12.7-1.9c2.7-1.2,4.1-3.1,4.1-5.6c0-2.1-0.7-3.6-2.1-4.6s-3.5-1.5-6.3-1.8l-22.8-2.3
			c-6.7-0.7-11.7-2.3-15.1-4.9c-3.4-2.6-5.1-6.6-5.1-12.2c0-6.8,2.9-11.6,8.7-14.5s14-4.4,24.8-4.4s19.2,1.5,25.1,4.4
			c5.9,3,9,8.1,9.2,15.5h-18C939.3,172.1,937.7,169.9,934.9,168.6L934.9,168.6z"/>
	</g>
</g>
</svg>
