<?xml version="1.0" encoding="UTF-8"?><svg id="Layer_1" xmlns="http://www.w3.org/2000/svg" viewBox="0 0 1613.24 974.3"><defs><style>.cls-1{fill:#c9f401;}.cls-2{fill:#1e1e1e;}</style></defs><path class="cls-1" d="M1579.16,648.34h-288.27c7.47-7.79,12.28-12.93,17.19-17.88,96.34-97.07,192.58-194.23,289.23-290.99,10.11-10.12,14.77-20.44,14.63-34.84-.61-61.48-.26-122.96-.26-184.44,0-30.45,.14-60.91-.08-91.36-.1-13.99-6.21-22.83-17.34-26.86-5.6-2.02-11.37-1.25-17.08-1.25-91.44-.05-182.88,.36-274.32-.39-15.87-.13-31.09,6.13-42.26,17.39-89.8,90.61-180.16,180.68-270.59,270.66-4.75,4.73-8.79,13.15-16.6,12.3-.56-60.14-.23-120.3-.24-180.45,0-30.45,.14-60.91-.08-91.36-.1-13.99-6.21-22.83-17.34-26.86-5.6-2.02-11.38-1.25-17.08-1.25-91.44-.05-182.88,.36-274.31-.39-15.87-.13-31.09,6.13-42.26,17.4-89.8,90.61-180.16,180.68-270.59,270.66-5.27,5.25-9.65,15.08-19.3,11.7-10.9-3.81-7.22-14.44-7.23-22.53-.19-83.32-.07-166.63-.15-249.95-.01-15.18-12.31-27.54-27.49-27.58-36.07-.11-72.13-.02-108.2-.02-14.65,0-29.32,1.32-43.57,4.73C61.53,24.9,2.52,97.39,.51,183.25c-.87,37.33-.37,74.69-.31,112.04,.03,23.23,6.19,29.15,29.87,29.16,82.76,.03,165.52,.01,248.28,.02,4.6,0,9.26-.37,13.78,.24,9.73,1.33,12.68,8.11,6.86,15.8-2.75,3.63-6.35,6.63-9.6,9.88C197.95,441.82,106.64,533.36,14.9,624.47c-10.1,10.03-14.83,20.1-14.74,34.63,.59,94.23,.71,188.47,.01,282.7-.17,23,6.73,31.93,30.98,31.72,91.37-.8,182.76-.38,274.14-.38,16.15,0,19.52,3.4,19.53-20.37,.1-199.39,.04-398.77,.07-598.16,0-23.49,6.09-29.57,29.43-29.58,88.51-.04,177.01-.02,265.52-.01,2.3,0,4.6-.11,6.9,.03,13.96,.82,21.08,7.62,21.98,21.22,.3,4.58,.07,9.19,.07,13.79,0,96.73,0,192.56-.09,287.68v220.01c0,1.53,0,3.06,0,4.59,0,1.71,0,3.41,0,5.12v96.24h291.88c18.82,0,34.08-15.26,34.08-34.08v-257.8c0-18.82-15.26-34.08-34.08-34.08h-287.57c7.1-7.4,11.81-12.43,16.58-17.24,70.14-68.81,137.8-140.1,207.73-209.1,23.25-22.94,46.77-45.91,68.85-69.98,11.89-12.32,19.97-22.73,38.22-24.88,27.87-3.27,55.71-1.41,83.68-1.41,62.44,0,124.87-.16,187.3-.16h2.97c2.3,0,4.6-.11,6.9,.03,13.96,.82,21.08,7.62,21.98,21.22,.3,4.58,.07,9.19,.07,13.79,0,96.11,0,192.22,0,288.32v325.96h291.88c18.82,0,34.08-15.26,34.08-34.08v-257.8c0-18.82-15.26-34.08-34.08-34.08Z"/><path class="cls-2" d="M227.21,109.71c-15.77-16.12-36.54-25.16-58.47-25.47-.38,0-.76,0-1.14,0-21.79,0-42.49,8.64-58.3,24.32-15.83,15.7-24.66,36.41-24.87,58.3-.22,23.6,8.1,45.14,23.44,60.64,15.24,15.41,36.48,23.91,59.82,23.94h.13c22.57,0,43.7-8.55,59.48-24.07,15.74-15.48,24.41-36.18,24.4-58.29,0-22.16-8.7-43.24-24.49-59.38Zm-58.77,116.26c-.28,0-.56,0-.83,0-31.11,0-56.81-25.35-57.28-56.51-.23-15.41,5.55-29.95,16.28-40.95,10.66-10.91,24.91-16.99,40.13-17.12h.53c31.96,0,57.1,24.77,57.24,56.38,.15,32.7-23.96,57.72-56.08,58.18Z"/><path class="cls-2" d="M1484.43,92.18c-.69,0-1.4,0-2.11,0-15.06,0-30.13,.03-45.19-.03-1.62,0-2.79,.43-3.92,1.6-4.23,4.35-8.6,8.57-12.83,12.92-.95,.98-1.89,1.38-3.25,1.38-29.29-.03-58.59-.04-87.88,.01-1.85,0-2.39-.43-2.38-2.34,.08-16.23,.08-32.46,.02-48.69,0-1.71,.39-2.25,2.19-2.25,63.83,.05,127.66,.05,191.49,.02,1.44,0,2.48,.41,3.51,1.44,11.5,11.57,23.03,23.11,34.59,34.61,1.02,1.02,1.47,2.04,1.47,3.49-.03,63.92-.03,127.84,.01,191.76,0,1.54-.38,1.91-1.91,1.91-16.39-.06-32.79-.06-49.18,0-1.55,0-2.11-.29-2.11-2.01,.06-29.46,.05-58.93,0-88.39,0-1.4,.5-2.31,1.45-3.23,4.39-4.31,8.73-8.68,13.09-13.03,.7-.7,1.32-1.32,1.32-2.52-.05-15.98-.03-31.96-.04-47.94,0-.12-.15-.25-.45-.71-2.18,2.23-4.28,4.42-6.43,6.57-49.87,49.88-99.76,99.75-149.59,149.67-1.44,1.44-2.1,1.3-3.44-.06-11.42-11.52-22.9-22.98-34.42-34.39-1.22-1.2-1.28-1.81-.03-3.06,42.14-42.1,84.23-84.23,126.34-126.37,9.58-9.59,19.17-19.18,28.75-28.78,.38-.38,1.02-.6,.95-1.59Z"/></svg>