<?xml version="1.0" encoding="UTF-8"?><svg id="Layer_1" xmlns="http://www.w3.org/2000/svg" viewBox="0 0 1643.28 841.35"><defs><style>.cls-1{fill:#1e2123;}.cls-2{fill:none;}.cls-3{fill:#c9f401;}.cls-4{fill:#1e1e1e;}</style></defs><path class="cls-3" d="M489.95,138.49c35.33,.01,70.65,0,105.98,0,1.96,0,3.95-.16,5.88,.1,4.15,.57,5.41,3.46,2.93,6.74-1.17,1.55-2.71,2.83-4.1,4.22-39.03,39.02-78.01,78.1-117.17,116.99-4.31,4.28-6.33,8.58-6.29,14.78,.25,40.22,.3,80.45,0,120.67-.07,9.82,2.87,13.63,13.23,13.54,39-.34,78.01-.16,117.02-.16,6.89,0,8.33,1.45,8.34-8.7,.04-85.11,.02-170.22,.03-255.33,0-10.03,2.6-12.62,12.56-12.63,37.78-.02,75.56,0,113.34,0,.98,0,1.97-.05,2.94,.01,5.96,.35,9,3.25,9.38,9.06,.13,1.95,.03,3.92,.03,5.89,0,41.29,0,82.2-.04,122.8v93.91c0,.65,0,1.31,0,1.96,0,.73,0,1.46,0,2.19v41.08h124.59c8.03,0,14.55-6.51,14.55-14.55v-110.04c0-8.03-6.51-14.55-14.55-14.55h-122.75c3.03-3.16,5.04-5.31,7.08-7.36,29.94-29.37,58.82-59.8,88.67-89.26,9.92-9.79,19.97-19.6,29.39-29.87,5.07-5.26,8.53-9.7,16.31-10.62,11.9-1.4,23.78-.6,35.72-.6,26.65,0,53.3-.07,79.95-.07h1.27c.98,0,1.97-.05,2.94,.01,5.96,.35,9,3.25,9.38,9.06,.13,1.95,.03,3.92,.03,5.89,0,41.02,0,82.05,0,123.07v139.14h124.59c8.03,0,14.55-6.51,14.55-14.55v-110.04c0-8.03-6.51-14.55-14.55-14.55h-123.05c3.19-3.32,5.24-5.52,7.34-7.63,41.12-41.43,82.2-82.91,123.46-124.21,4.31-4.32,6.3-8.73,6.24-14.87-.26-26.24-.11-52.49-.11-78.73,0-13,.06-26-.03-39-.04-5.97-2.65-9.75-7.4-11.47-2.39-.86-4.86-.53-7.29-.54-39.03-.02-78.06,.15-117.09-.17-6.77-.06-13.27,2.61-18.04,7.43-38.33,38.68-76.9,77.12-115.5,115.53-2.03,2.02-3.75,5.61-7.09,5.25-.24-25.67-.1-51.35-.1-77.03,0-13,.06-26-.03-39-.04-5.97-2.65-9.75-7.4-11.47-2.39-.86-4.86-.53-7.29-.54-39.03-.02-78.06,.15-117.09-.17-6.77-.06-13.27,2.61-18.04,7.43-38.33,38.68-76.9,77.12-115.5,115.53-2.25,2.24-4.12,6.44-8.24,5-4.65-1.63-3.08-6.16-3.09-9.62-.08-35.56-.03-71.13-.06-106.69,0-6.48-5.25-11.75-11.73-11.77-15.4-.05-30.79,0-46.19-.01-6.25,0-12.52,.56-18.6,2.02-35.88,8.6-61.07,39.54-61.93,76.19-.37,15.93-.16,31.88-.13,47.83,.01,9.91,2.64,12.44,12.75,12.45ZM1043.51,24.35c0-.73,.17-.96,.93-.96,27.25,.02,54.49,.02,81.74,0,.62,0,1.06,.17,1.5,.61,4.91,4.94,9.83,9.86,14.77,14.77,.44,.43,.63,.87,.63,1.49-.01,27.28-.01,54.57,0,81.85,0,.66-.16,.82-.82,.81-7-.03-14-.02-20.99,0-.66,0-.9-.12-.9-.86,.03-12.58,.02-25.15,0-37.73,0-.6,.21-.98,.62-1.38,1.87-1.84,3.73-3.71,5.59-5.56,.3-.3,.56-.57,.56-1.07-.02-6.82-.01-13.64-.02-20.46,0-.05-.07-.11-.19-.3-.93,.95-1.83,1.89-2.74,2.81-21.29,21.29-42.58,42.58-63.85,63.89-.61,.61-.9,.55-1.47-.03-4.87-4.92-9.78-9.81-14.69-14.68-.52-.51-.55-.77-.01-1.31,17.99-17.97,35.96-35.96,53.93-53.94,4.09-4.09,8.18-8.19,12.27-12.29,.16-.16,.44-.26,.4-.68h-.9c-6.43,0-12.86,.01-19.29-.01-.69,0-1.19,.18-1.68,.68-1.81,1.86-3.67,3.66-5.48,5.52-.41,.42-.81,.59-1.39,.59-12.5-.01-25.01-.02-37.51,0-.79,0-1.02-.18-1.02-1,.03-6.93,.03-13.86,0-20.78Zm-519.74,21.98c6.75-6.69,15.59-10.38,24.89-10.38,.16,0,.32,0,.49,0,9.36,.13,18.23,3.99,24.96,10.87,6.74,6.89,10.45,15.89,10.46,25.35,0,9.44-3.7,18.27-10.42,24.88-6.74,6.63-15.75,10.27-25.39,10.27h-.06c-9.96-.01-19.03-3.64-25.53-10.22-6.55-6.62-10.1-15.81-10.01-25.89,.09-9.35,3.86-18.18,10.61-24.89Z"/><path class="cls-3" d="M548.66,96.46c.12,0,.24,0,.35,0,13.71-.2,24-10.88,23.94-24.84-.06-13.5-10.79-24.07-24.43-24.07h-.23c-6.5,.06-12.58,2.65-17.13,7.31-4.58,4.69-7.05,10.9-6.95,17.48,.2,13.3,11.17,24.12,24.45,24.12Z"/><path class="cls-4" d="M548.69,107.33h.06c9.64,0,18.65-3.65,25.39-10.27,6.72-6.61,10.42-15.44,10.42-24.88,0-9.46-3.71-18.46-10.46-25.35-6.73-6.88-15.6-10.74-24.96-10.87-.16,0-.32,0-.49,0-9.3,0-18.14,3.69-24.89,10.38-6.76,6.7-10.53,15.54-10.61,24.89-.09,10.07,3.46,19.27,10.01,25.89,6.51,6.58,15.57,10.21,25.53,10.22Zm-17.54-52.47c4.55-4.66,10.63-7.25,17.13-7.31h.23c13.64,0,24.37,10.57,24.43,24.07,.06,13.96-10.23,24.64-23.94,24.84-.12,0-.24,0-.35,0-13.28,0-24.25-10.82-24.45-24.12-.1-6.58,2.37-12.79,6.95-17.48Z"/><path class="cls-4" d="M1044.52,46.13c12.5-.02,25.01-.02,37.51,0,.58,0,.98-.17,1.39-.59,1.81-1.86,3.67-3.66,5.48-5.52,.49-.5,.98-.69,1.68-.68,6.43,.02,12.86,.01,19.29,.01h.9c.03,.42-.24,.52-.4,.68-4.09,4.1-8.18,8.19-12.27,12.29-17.97,17.98-35.94,35.97-53.93,53.94-.54,.54-.51,.79,.01,1.31,4.92,4.87,9.82,9.76,14.69,14.68,.57,.58,.86,.64,1.47,.03,21.27-21.31,42.56-42.6,63.85-63.89,.92-.92,1.82-1.85,2.74-2.81,.13,.19,.19,.25,.19,.3,0,6.82,0,13.64,.02,20.46,0,.51-.26,.78-.56,1.07-1.86,1.86-3.71,3.72-5.59,5.56-.4,.4-.62,.78-.62,1.38,.02,12.58,.02,25.15,0,37.73,0,.73,.24,.86,.9,.86,7-.02,14-.02,20.99,0,.66,0,.82-.16,.82-.81-.02-27.28-.02-54.57,0-81.85,0-.62-.19-1.05-.63-1.49-4.94-4.91-9.86-9.84-14.77-14.77-.44-.44-.88-.61-1.5-.61-27.25,.01-54.49,.01-81.74,0-.77,0-.94,.23-.93,.96,.03,6.93,.03,13.86,0,20.78,0,.81,.23,1,1.02,1Z"/><g><path class="cls-2" d="M78.35,762.01H20.59v35.23h57.76c13.95,0,17.41-9.96,17.41-17.68s-3.46-17.55-17.41-17.55Z"/><path class="cls-2" d="M1292.65,822.11h56.12c17.97,0,26.82-12.02,26.82-30.12s-8.85-29.99-26.82-29.99h-56.12v60.11Z"/><path class="cls-2" d="M855.9,764.96c-3.84-1.43-7.23-2.14-10.15-2.14h-55.35l.02,.02c-9.56,0-17.51,4.7-23.64,13.97-2.77,4.99-4.17,9.92-4.17,14.7,0,11.35,5.75,20.2,17.09,26.34,3.69,1.57,7.49,2.33,11.41,2.33h53.96c11.09,0,19.71-5.45,25.63-16.21,1.91-3.99,2.87-8.18,2.87-12.46,0-11.66-5.94-20.6-17.66-26.55Z"/><path class="cls-2" d="M1113.71,779.56c0-7.72-3.46-17.55-17.41-17.55h-57.76v35.23h57.76c13.95,0,17.41-9.96,17.41-17.68Z"/><path class="cls-1" d="M515.73,777.53c6.14-9.69,14.24-14.6,24.1-14.6h40.35c7.34,0,14.09,2.85,20.09,8.43h24.08c-1.17-2.6-2.52-4.99-4.15-7.23-10.72-14.45-24.1-21.48-40.88-21.48h-38.07c-11.54,0-22.04,3.63-31.14,10.72-12.14,10.95-18.29,23.4-18.29,36.97v2.81c0,8.14,2.39,16.17,7.05,23.84,10.44,15.83,24.75,23.85,42.57,23.85h37.16c7.61,0,14.72-1.41,21.08-4.19,11.51-5.6,19.86-13.97,24.85-24.89h-24.06c-6.12,5.91-12.63,8.77-19.92,8.77h-40.35c-2.64,0-5.47-.44-9.08-1.41-12.62-5.94-19.02-14.85-19.02-26.51v-1.76c0-4.51,1.24-9.1,3.63-13.32Z"/><path class="cls-1" d="M92.61,813.94c13.27-3.73,25.15-12.71,25.15-34.4,0-34.12-29.45-36.89-47.13-36.89H0v98.68H20.59v-24.89h45.89l25.98,24.89h30.26l-30.12-27.37,.02-.02Zm-14.26-16.71H20.59v-35.23h57.76c13.95,0,17.41,9.82,17.41,17.55s-3.46,17.68-17.41,17.68Z"/><polygon class="cls-1" points="359.46 761.59 359.46 742.67 252.07 742.67 252.07 841.35 359.46 841.35 359.46 822.41 272.66 822.41 272.66 801.12 359.46 801.12 359.46 783.57 272.66 783.57 272.66 761.59 359.46 761.59"/><path class="cls-1" d="M1017.97,841.33h20.59v-24.89h45.87l25.98,24.89h30.26l-30.12-27.37,.04-.02c13.27-3.73,25.15-12.71,25.15-34.4,0-34.12-29.45-36.89-47.13-36.89h-70.63v98.68Zm20.57-44.1v-35.23h57.76c13.95,0,17.41,9.82,17.41,17.55s-3.46,17.68-17.41,17.68h-57.76v0Z"/><path class="cls-1" d="M1271.93,742.63v98.68h73.66c17.7,0,52.1-3.86,52.1-49.33v-.02c0-45.32-34.42-49.33-52.1-49.33h-73.66Zm103.65,49.35c0,18.1-8.85,30.12-26.82,30.12h-56.12v-60.11h56.12c17.97,0,26.82,11.89,26.82,29.99Z"/><path class="cls-1" d="M1608.14,822.11h-34.96c-18.66,0-20.59-12.29-20.59-15.2h-20.59c0,11.18,4.28,34.4,46.58,34.4h17.68c42.3,0,46.58-17.68,46.58-28.88l-.04,.02c0-42.41-90.39-20.45-90.39-42.15,0-4.84,3.31-8.3,13.95-8.3h35.11c18.66,0,20.45,12.16,20.45,15.2h20.74c0-11.33-4.28-34.56-46.71-34.56h-17.55c-42.43,0-46.71,17.68-46.71,29.01,0,41.46,90.52,20.03,90.52,42.15,0,4.7-3.44,8.3-14.09,8.3Z"/><path class="cls-1" d="M845.06,742.67h-53.96c-9.44,0-18.75,2.92-27.6,8.66-13.99,11.12-21.08,24.64-21.08,40.2,0,6.19,1.49,12.83,4.49,20.2,10.09,19.02,25.36,28.65,45.41,28.65l-.02,.02h51.51c11.81,0,22.13-3.44,30.72-10.21,12.75-10.57,19.21-23.68,19.21-39.01,0-8.12-2.41-16.42-7.32-25.25-10.91-15.42-24.83-23.26-41.36-23.26Zm25.63,61.3c-5.93,10.76-14.55,16.21-25.63,16.21h-53.96c-3.92,0-7.72-.76-11.41-2.33-11.33-6.14-17.09-14.99-17.09-26.34,0-4.78,1.4-9.71,4.17-14.7,6.14-9.27,14.09-13.97,23.64-13.97l-.02-.02h55.35c2.92,0,6.31,.71,10.15,2.14,11.72,5.94,17.66,14.89,17.66,26.55,0,4.28-.96,8.47-2.87,12.46Z"/><path class="cls-4" d="M315.66,570.7v112.33c0,.86,.52,1.3,1.56,1.3h34.32c.69,0,1.04-.43,1.04-1.3v-112.85c0-5.03-1.04-12.05-3.12-21.06-13.69-31.2-33.63-46.8-59.8-46.8h-68.65c-15.77,0-30.68,7.02-44.72,21.06-14.04-14.04-28.95-21.06-44.72-21.06H63.18c-9.01,0-11.94,.09-17.81,0H0v180.71c0,.86,.43,1.3,1.3,1.3H36.4c.87,0,1.3-.43,1.3-1.3v-118.83c3.64-16.29,13-24.44,28.08-24.44h64.48c1.73,0,3.73,.26,5.98,.78,14.39,5.03,21.58,13.95,21.58,26.78v115.71c0,.86,.43,1.3,1.3,1.3h34.32c.87,0,1.3-.43,1.3-1.3v-115.71c0-12.83,7.19-21.76,21.58-26.78,2.43-.52,4.42-.78,5.98-.78h64.74c18.73,0,28.6,14.46,28.6,30.94Z"/><path class="cls-4" d="M392.65,684.32h34.06c1.04,0,1.56-.43,1.56-1.3v-179.41c0-.86-.52-1.3-1.56-1.3h-34.06c-.52,0-.95,.43-1.3,1.3v179.41c0,.86,.43,1.3,1.3,1.3Z"/><path class="cls-4" d="M1024.14,502.31c-34.15,68.3-52.27,103.83-54.34,106.61-9.19,20.8-14.99,31.2-17.42,31.2,0-.52-.26-.78-.78-.78-1.04-.52-8.15-13.95-21.32-40.3-31.89-63.96-48.53-96.2-49.92-96.72h-38.22l-1.3,.78,77.22,152.37c6.59,19.24,17.77,28.86,33.54,28.86h2.86c8.84,0,16.9-3.64,24.18-10.92,49.06-96.38,77.66-153.41,85.81-171.09h-40.3Z"/><path class="cls-4" d="M1138.56,684.32c1.04,0,1.56-.43,1.56-1.3v-179.41c0-.86-.52-1.3-1.56-1.3h-34.06c-.52,0-.95,.43-1.3,1.3v179.41c0,.86,.43,1.3,1.3,1.3h34.06Z"/><path class="cls-4" d="M637.46,614.41c-6.83-7.53-17.95-7.22-24.62,.49-.08,.09-.16,.19-.24,.28-6.19,6.97-5.98,18.15,.11,25.25h-.03l37.77,43.9h50.46l-63.45-69.91Z"/><path class="cls-4" d="M554.84,571.72c.08-.09,.16-.19,.26-.28h0c6.24-7.02,6.05-18.26-.1-25.38l-37.55-43.48-.24-.28h-50.46l63.42,69.88c6.85,7.55,18,7.25,24.67-.45Z"/><path class="cls-4" d="M612.55,571.46c.08,.09,.16,.19,.24,.28,6.67,7.7,17.79,8.02,24.62,.49h.03l63.45-69.91h-50.46l-37.77,43.9c-6.1,7.09-6.3,18.26-.11,25.25Z"/><path class="cls-4" d="M466.75,684.34h50.46l37.79-43.75c6.14-7.13,6.34-18.36,.1-25.38-.08-.09-.16-.19-.26-.28-6.69-7.7-17.82-8-24.67-.45v-.02l-63.42,69.88Z"/><path class="cls-4" d="M1382.39,593.32c6.75-3.98,12.16-9.39,16.23-16.23,4.06-6.84,6.1-14.67,6.1-23.5,0-7.09-1.34-13.76-4.02-19.99-2.69-6.23-6.32-11.64-10.9-16.23-4.59-4.58-10-8.22-16.23-10.9-6.23-2.68-12.9-4.02-19.99-4.02h-171.96v181.74h171.96c7.1,0,13.76-1.34,19.99-4.02,6.23-2.68,11.64-6.32,16.23-10.9,4.58-4.58,8.22-10,10.9-16.23,2.68-6.23,4.02-12.89,4.02-19.99,0-8.83-2.04-16.66-6.1-23.5-4.07-6.84-9.48-12.24-16.23-16.23Zm-12.2,46.21c-1.21,2.77-2.86,5.11-4.93,7.01-2.08,1.91-4.54,3.46-7.4,4.67-2.86,1.21-6.02,1.82-9.48,1.82h-130.24v-44.91h130.24c3.46,0,6.62,.56,9.48,1.69,2.86,1.13,5.32,2.73,7.4,4.8,2.08,2.08,3.72,4.46,4.93,7.14,1.21,2.69,1.82,5.67,1.82,8.96,0,3.12-.61,6.06-1.82,8.83Zm0-74.77c-1.21,2.77-2.86,5.19-4.93,7.27-2.08,2.08-4.54,3.68-7.4,4.8-2.86,1.13-6.02,1.69-9.48,1.69h-130.24v-44.92h130.24c3.46,0,6.62,.61,9.48,1.82,2.86,1.21,5.32,2.77,7.4,4.67,2.08,1.91,3.72,4.24,4.93,7.01,1.21,2.77,1.82,5.71,1.82,8.83s-.61,6.06-1.82,8.83Z"/><path class="cls-4" d="M1643.28,533.6v-28.3c0-1.66-1.34-3-3-3h-194.8v181.88h197.8v-31.3h-161.46v-45.11h161.46v-29.79h-161.46v-44.38h161.46Z"/></g></svg>