<?xml version="1.0" encoding="UTF-8"?><svg id="Layer_2" xmlns="http://www.w3.org/2000/svg" viewBox="0 0 1901.02 294.36"><defs><style>.cls-1{fill:#1e2123;}.cls-2{fill:none;}.cls-3{fill:#c9f401;}.cls-4{fill:#1e1e1e;}</style></defs><g><path class="cls-3" d="M477.1,195.88h-87.09c2.26-2.35,3.71-3.91,5.19-5.4,29.11-29.33,58.18-58.68,87.38-87.91,3.05-3.06,4.46-6.18,4.42-10.53-.18-18.57-.08-37.15-.08-55.72,0-9.2,.04-18.4-.02-27.6-.03-4.23-1.87-6.9-5.24-8.12-1.69-.61-3.44-.38-5.16-.38-27.63-.02-55.25,.11-82.88-.12-4.79-.04-9.39,1.85-12.77,5.26-27.13,27.38-54.43,54.59-81.75,81.77-1.44,1.43-2.66,3.97-5.02,3.72-.17-18.17-.07-36.34-.07-54.52,0-9.2,.04-18.4-.02-27.6-.03-4.23-1.87-6.9-5.24-8.12-1.69-.61-3.44-.38-5.16-.38-27.63-.02-55.25,.11-82.88-.12-4.79-.04-9.39,1.85-12.77,5.26-27.13,27.38-54.43,54.59-81.75,81.77-1.59,1.58-2.92,4.56-5.83,3.54-3.29-1.15-2.18-4.36-2.19-6.81-.06-25.17-.02-50.34-.05-75.52,0-4.59-3.72-8.32-8.31-8.33-10.9-.03-21.79,0-32.69,0-4.43,0-8.86,.4-13.16,1.43C18.59,7.52,.76,29.42,.15,55.36c-.26,11.28-.11,22.57-.1,33.85,0,7.02,1.87,8.81,9.03,8.81,25,0,50.01,0,75.01,0,1.39,0,2.8-.11,4.16,.07,2.94,.4,3.83,2.45,2.07,4.77-.83,1.1-1.92,2-2.9,2.99-27.62,27.62-55.21,55.28-82.93,82.8C1.45,191.7,.02,194.74,.05,199.13c.18,28.47,.22,56.94,0,85.41-.05,6.95,2.03,9.65,9.36,9.58,27.61-.24,55.21-.12,82.82-.12,4.88,0,5.9,1.03,5.9-6.16,.03-60.24,.01-120.48,.02-180.72,0-7.1,1.84-8.93,8.89-8.94,26.74-.01,53.48,0,80.22,0,.69,0,1.39-.03,2.08,0,4.22,.25,6.37,2.3,6.64,6.41,.09,1.38,.02,2.78,.02,4.17,0,29.23,0,58.18-.03,86.91v66.47c0,.46,0,.93,0,1.39,0,.52,0,1.03,0,1.55v29.08h88.18c5.69,0,10.3-4.61,10.3-10.3v-77.89c0-5.69-4.61-10.3-10.3-10.3h-86.88c2.14-2.24,3.57-3.76,5.01-5.21,21.19-20.79,41.63-42.33,62.76-63.17,7.02-6.93,14.13-13.87,20.8-21.14,3.59-3.72,6.03-6.87,11.55-7.52,8.42-.99,16.83-.43,25.28-.43,18.86,0,37.73-.05,56.59-.05h.9c.69,0,1.39-.03,2.08,0,4.22,.25,6.37,2.3,6.64,6.41,.09,1.38,.02,2.78,.02,4.17,0,29.04,0,58.07,0,87.11v98.48h88.18c5.69,0,10.3-4.61,10.3-10.3v-77.89c0-5.69-4.61-10.3-10.3-10.3Z"/><path class="cls-4" d="M68.64,33.14c-4.77-4.87-11.04-7.6-17.67-7.69-.12,0-.23,0-.34,0-6.58,0-12.84,2.61-17.61,7.35-4.78,4.74-7.45,11-7.51,17.61-.07,7.13,2.45,13.64,7.08,18.32,4.6,4.65,11.02,7.22,18.07,7.23h.04c6.82,0,13.2-2.58,17.97-7.27,4.76-4.68,7.37-10.93,7.37-17.61,0-6.69-2.63-13.06-7.4-17.94Zm-17.76,35.12c-.08,0-.17,0-.25,0-9.4,0-17.16-7.66-17.31-17.07-.07-4.66,1.68-9.05,4.92-12.37,3.22-3.3,7.53-5.13,12.13-5.17h.16c9.65,0,17.25,7.48,17.29,17.03,.04,9.88-7.24,17.44-16.94,17.58Z"/><path class="cls-4" d="M448.48,27.85c-.21,0-.42,0-.64,0-4.55,0-9.1,0-13.65,0-.49,0-.84,.13-1.19,.48-1.28,1.32-2.6,2.59-3.88,3.9-.29,.3-.57,.42-.98,.42-8.85-.01-17.7-.01-26.55,0-.56,0-.72-.13-.72-.71,.02-4.9,.02-9.81,0-14.71,0-.52,.12-.68,.66-.68,19.28,.01,38.57,.01,57.85,0,.44,0,.75,.12,1.06,.43,3.47,3.49,6.96,6.98,10.45,10.46,.31,.31,.44,.62,.44,1.05,0,19.31,0,38.62,0,57.93,0,.46-.11,.58-.58,.58-4.95-.02-9.91-.02-14.86,0-.47,0-.64-.09-.64-.61,.02-8.9,.02-17.8,0-26.7,0-.42,.15-.7,.44-.98,1.33-1.3,2.64-2.62,3.95-3.94,.21-.21,.4-.4,.4-.76-.02-4.83-.01-9.66-.01-14.48,0-.04-.05-.08-.14-.21-.66,.67-1.29,1.34-1.94,1.99-15.07,15.07-30.14,30.14-45.19,45.22-.43,.43-.63,.39-1.04-.02-3.45-3.48-6.92-6.94-10.4-10.39-.37-.36-.39-.55,0-.93,12.73-12.72,25.45-25.45,38.17-38.18,2.9-2.9,5.79-5.8,8.69-8.7,.11-.11,.31-.18,.29-.48Z"/></g><g><path class="cls-2" d="M647.18,219.44h-46.28v28.22h46.28c11.18,0,13.95-7.98,13.95-14.17s-2.77-14.06-13.95-14.06Z"/><path class="cls-2" d="M1620.09,267.58h44.96c14.4,0,21.49-9.63,21.49-24.14s-7.09-24.03-21.49-24.03h-44.96v48.16Z"/><path class="cls-2" d="M1270.16,221.79c-3.08-1.15-5.79-1.72-8.13-1.72h-44.35l.02,.02c-7.66,0-14.03,3.77-18.94,11.19-2.22,4-3.34,7.95-3.34,11.78,0,9.1,4.61,16.19,13.69,21.1,2.96,1.26,6,1.87,9.14,1.87h43.23c8.88,0,15.79-4.36,20.54-12.99,1.53-3.2,2.3-6.55,2.3-9.98,0-9.34-4.76-16.51-14.15-21.27Z"/><path class="cls-2" d="M1476.72,233.49c0-6.19-2.77-14.06-13.95-14.06h-46.28v28.22h46.28c11.18,0,13.95-7.98,13.95-14.17Z"/><path class="cls-1" d="M997.61,231.87c4.92-7.76,11.41-11.7,19.31-11.7h32.33c5.88,0,11.29,2.28,16.1,6.75h19.3c-.93-2.08-2.02-4-3.32-5.79-8.59-11.58-19.31-17.21-32.76-17.21h-30.51c-9.25,0-17.66,2.91-24.95,8.59-9.72,8.78-14.66,18.74-14.66,29.62v2.25c0,6.52,1.91,12.96,5.65,19.1,8.36,12.68,19.83,19.11,34.1,19.11h29.77c6.1,0,11.79-1.13,16.89-3.35,9.22-4.49,15.91-11.19,19.91-19.94h-19.28c-4.9,4.73-10.12,7.03-15.96,7.03h-32.33c-2.11,0-4.38-.35-7.27-1.13-10.11-4.76-15.24-11.9-15.24-21.24v-1.41c0-3.61,1-7.29,2.91-10.67Z"/><path class="cls-1" d="M658.6,261.05c10.63-2.99,20.15-10.18,20.15-27.57,0-27.34-23.6-29.56-37.76-29.56h-56.59v79.07h16.49v-19.94h36.77l20.81,19.94h24.24l-24.14-21.93,.02-.02Zm-11.42-13.38h-46.28v-28.22h46.28c11.18,0,13.95,7.87,13.95,14.06s-2.77,14.17-13.95,14.17Z"/><polygon class="cls-1" points="872.4 219.1 872.4 203.94 786.37 203.94 786.37 283.01 872.4 283.01 872.4 267.83 802.86 267.83 802.86 250.77 872.4 250.77 872.4 236.71 802.86 236.71 802.86 219.1 872.4 219.1"/><path class="cls-1" d="M1400.01,282.99h16.49v-19.94h36.75l20.81,19.94h24.24l-24.14-21.93,.03-.02c10.63-2.99,20.15-10.18,20.15-27.57,0-27.34-23.6-29.56-37.76-29.56h-56.59v79.07Zm16.48-35.33v-28.22h46.28c11.18,0,13.95,7.87,13.95,14.06s-2.77,14.17-13.95,14.17h-46.28v0Z"/><path class="cls-1" d="M1603.49,203.91v79.07h59.02c14.18,0,41.75-3.09,41.75-39.53v-.02c0-36.31-27.58-39.53-41.75-39.53h-59.02Zm83.05,39.54c0,14.5-7.09,24.14-21.49,24.14h-44.96v-48.16h44.96c14.4,0,21.49,9.53,21.49,24.03Z"/><path class="cls-1" d="M1872.87,267.58h-28.01c-14.95,0-16.49-9.85-16.49-12.17h-16.49c0,8.96,3.43,27.57,37.32,27.57h14.17c33.89,0,37.32-14.17,37.32-23.14l-.03,.02c0-33.98-72.42-16.39-72.42-33.77,0-3.87,2.65-6.65,11.18-6.65h28.13c14.95,0,16.39,9.74,16.39,12.17h16.62c0-9.08-3.43-27.69-37.43-27.69h-14.06c-34,0-37.43,14.17-37.43,23.25,0,33.22,72.53,16.05,72.53,33.77,0,3.77-2.76,6.65-11.29,6.65Z"/><path class="cls-1" d="M1261.48,203.94h-43.23c-7.57,0-15.02,2.34-22.11,6.94-11.21,8.91-16.89,19.74-16.89,32.21,0,4.96,1.19,10.28,3.6,16.19,8.09,15.24,20.32,22.96,36.39,22.96l-.02,.02h41.27c9.46,0,17.73-2.76,24.61-8.18,10.21-8.47,15.39-18.97,15.39-31.26,0-6.51-1.93-13.16-5.87-20.23-8.74-12.36-19.89-18.64-33.14-18.64Zm20.54,49.11c-4.75,8.62-11.65,12.99-20.54,12.99h-43.23c-3.14,0-6.19-.61-9.14-1.87-9.08-4.92-13.69-12.01-13.69-21.1,0-3.83,1.12-7.78,3.34-11.78,4.92-7.43,11.29-11.19,18.94-11.19l-.02-.02h44.35c2.34,0,5.05,.57,8.13,1.72,9.39,4.76,14.15,11.93,14.15,21.27,0,3.43-.77,6.78-2.3,9.98Z"/><path class="cls-4" d="M837.31,66.15v90c0,.69,.42,1.04,1.25,1.04h27.5c.56,0,.83-.35,.83-1.04V65.73c0-4.03-.83-9.65-2.5-16.88-10.97-25-26.94-37.5-47.91-37.5h-55c-12.64,0-24.58,5.62-35.83,16.87-11.25-11.25-23.19-16.87-35.83-16.87h-54.79c-7.22,0-9.56,.07-14.27,0h-36.35V156.15c0,.69,.35,1.04,1.04,1.04h28.12c.7,0,1.04-.35,1.04-1.04V60.94c2.92-13.05,10.42-19.58,22.5-19.58h51.66c1.39,0,2.99,.21,4.79,.62,11.53,4.03,17.29,11.18,17.29,21.46v92.71c0,.69,.35,1.04,1.04,1.04h27.5c.7,0,1.04-.35,1.04-1.04V63.44c0-10.28,5.76-17.43,17.29-21.46,1.94-.42,3.54-.62,4.79-.62h51.87c15.01,0,22.91,11.59,22.91,24.79Z"/><path class="cls-4" d="M899,157.19h27.29c.83,0,1.25-.35,1.25-1.04V12.4c0-.69-.42-1.04-1.25-1.04h-27.29c-.42,0-.76,.35-1.04,1.04V156.15c0,.69,.35,1.04,1.04,1.04Z"/><path class="cls-4" d="M1404.96,11.36c-27.36,54.72-41.88,83.19-43.54,85.41-7.36,16.67-12.01,25-13.96,25,0-.42-.21-.62-.62-.62-.83-.42-6.53-11.18-17.08-32.29-25.55-51.25-38.89-77.08-40-77.5h-30.62l-1.04,.62,61.87,122.08c5.28,15.42,14.24,23.12,26.87,23.12h2.29c7.08,0,13.54-2.92,19.37-8.75,39.31-77.22,62.22-122.91,68.75-137.08h-32.29Z"/><path class="cls-4" d="M1496.63,157.19c.83,0,1.25-.35,1.25-1.04V12.4c0-.69-.42-1.04-1.25-1.04h-27.29c-.42,0-.76,.35-1.04,1.04V156.15c0,.69,.35,1.04,1.04,1.04h27.29Z"/><path class="cls-4" d="M1095.14,101.17c-5.47-6.03-14.38-5.78-19.73,.39-.06,.07-.13,.15-.19,.22-4.96,5.59-4.79,14.54,.09,20.23h-.03l30.26,35.17h40.43l-50.84-56.01Z"/><path class="cls-4" d="M1028.95,66.97c.06-.07,.13-.15,.2-.22h0c5-5.63,4.85-14.63-.08-20.34l-30.08-34.84-.19-.22h-40.43l50.81,55.99c5.49,6.05,14.42,5.81,19.77-.36Z"/><path class="cls-4" d="M1075.18,66.77c.06,.07,.13,.15,.19,.22,5.34,6.17,14.26,6.42,19.73,.39h.03l50.84-56.01h-40.43l-30.26,35.17c-4.88,5.68-5.05,14.63-.09,20.23Z"/><path class="cls-4" d="M958.37,157.2h40.43l30.28-35.05c4.92-5.71,5.08-14.71,.08-20.34-.06-.07-.13-.15-.2-.22-5.36-6.17-14.28-6.41-19.77-.36h0s-50.81,55.97-50.81,55.97Z"/><path class="cls-4" d="M1691.99,84.28c5.41-3.19,9.74-7.52,13-13,3.26-5.48,4.89-11.75,4.89-18.83,0-5.68-1.08-11.02-3.22-16.02-2.15-4.99-5.06-9.33-8.74-13-3.68-3.67-8.01-6.59-13-8.74-4.99-2.15-10.33-3.22-16.02-3.22h-137.78V157.08h137.78c5.69,0,11.03-1.07,16.02-3.22,4.99-2.15,9.33-5.06,13-8.74,3.67-3.67,6.59-8.01,8.74-13,2.15-4.99,3.22-10.33,3.22-16.02,0-7.07-1.63-13.35-4.89-18.83-3.26-5.48-7.59-9.81-13-13Zm-9.78,37.03c-.97,2.22-2.29,4.09-3.95,5.62-1.66,1.53-3.64,2.78-5.93,3.74-2.29,.97-4.82,1.46-7.59,1.46h-104.35v-35.99h104.35c2.77,0,5.3,.45,7.59,1.35,2.29,.9,4.26,2.18,5.93,3.85,1.66,1.66,2.98,3.57,3.95,5.72,.97,2.15,1.46,4.54,1.46,7.18,0,2.5-.49,4.86-1.46,7.07Zm0-59.91c-.97,2.22-2.29,4.16-3.95,5.82-1.66,1.66-3.64,2.95-5.93,3.85-2.29,.9-4.82,1.35-7.59,1.35h-104.35V36.43h104.35c2.77,0,5.3,.49,7.59,1.46,2.29,.97,4.26,2.22,5.93,3.74,1.66,1.53,2.98,3.4,3.95,5.62,.97,2.22,1.46,4.58,1.46,7.07s-.49,4.86-1.46,7.07Z"/><path class="cls-4" d="M1901.02,36.43V13.76c0-1.33-1.08-2.4-2.4-2.4h-156.08V157.08h158.48v-25.08h-129.37v-36.15h129.37v-23.87h-129.37V36.43h129.37Z"/></g></svg>