<?xml version="1.0" encoding="UTF-8"?><svg id="Layer_1" xmlns="http://www.w3.org/2000/svg" viewBox="0 0 1302.47 201.64"><defs><style>.cls-1{fill:#fff;}.cls-2{fill:#e5e5e5;}.cls-3{fill:#c9f401;}.cls-4{fill:#1e1e1e;}</style></defs><path class="cls-2" d="M443.51,179.35l15.46,14.04h-15.53l-13.33-12.77h-23.55v12.77h-10.57v-50.64h36.24c9.08,0,24.19,1.42,24.19,18.94,0,11.14-6.1,15.75-12.91,17.66Zm-36.95-8.58h29.65c7.16,0,8.94-5.11,8.94-9.08s-1.77-9.01-8.94-9.01h-29.65v18.09Z"/><g><path class="cls-3" d="M326.82,134.18h-59.66c1.55-1.61,2.54-2.68,3.56-3.7,19.94-20.09,39.86-40.2,59.86-60.22,2.09-2.09,3.06-4.23,3.03-7.21-.13-12.72-.05-25.45-.05-38.17,0-6.3,.03-12.61-.02-18.91-.02-2.89-1.28-4.73-3.59-5.56-1.16-.42-2.35-.26-3.53-.26-18.92-.01-37.85,.07-56.77-.08-3.28-.03-6.43,1.27-8.75,3.6-18.58,18.75-37.28,37.39-56,56.01-.98,.98-1.82,2.72-3.44,2.55-.12-12.45-.05-24.9-.05-37.34,0-6.3,.03-12.61-.02-18.91-.02-2.89-1.28-4.73-3.59-5.56-1.16-.42-2.35-.26-3.53-.26-18.92-.01-37.85,.07-56.77-.08-3.28-.03-6.43,1.27-8.75,3.6-18.58,18.75-37.28,37.39-56,56.01-1.09,1.09-2,3.12-3.99,2.42-2.26-.79-1.49-2.99-1.5-4.66-.04-17.24-.01-34.49-.03-51.73,0-3.14-2.55-5.7-5.69-5.71-7.46-.02-14.93,0-22.39,0-3.03,0-6.07,.27-9.02,.98C12.73,5.15,.52,20.16,.11,37.93c-.18,7.73-.08,15.46-.07,23.19,0,4.81,1.28,6.03,6.18,6.03,17.13,0,34.25,0,51.38,0,.95,0,1.92-.08,2.85,.05,2.01,.27,2.62,1.68,1.42,3.27-.57,.75-1.31,1.37-1.99,2.05-18.92,18.92-37.82,37.87-56.81,56.72C.99,131.31,.01,133.4,.03,136.41c.12,19.5,.15,39.01,0,58.51-.04,4.76,1.39,6.61,6.41,6.57,18.91-.17,37.82-.08,56.73-.08,3.34,0,4.04,.7,4.04-4.22,.02-41.26,0-82.53,.02-123.79,0-4.86,1.26-6.12,6.09-6.12,18.32,0,36.63,0,54.95,0,.48,0,.95-.02,1.43,0,2.89,.17,4.36,1.58,4.55,4.39,.06,.95,.01,1.9,.01,2.85,0,20.02,0,39.85-.02,59.54v45.53c0,.32,0,.63,0,.95,0,.35,0,.71,0,1.06v19.92h60.41c3.9,0,7.05-3.16,7.05-7.05v-53.35c0-3.9-3.16-7.05-7.05-7.05h-59.51c1.47-1.53,2.44-2.57,3.43-3.57,14.52-14.24,28.52-28.99,42.99-43.27,4.81-4.75,9.68-9.5,14.25-14.48,2.46-2.55,4.13-4.71,7.91-5.15,5.77-.68,11.53-.29,17.32-.29,12.92,0,25.84-.03,38.76-.03h.61c.48,0,.95-.02,1.43,0,2.89,.17,4.36,1.58,4.55,4.39,.06,.95,.01,1.9,.01,2.85,0,19.89,0,39.78,0,59.67v67.46h60.41c3.9,0,7.05-3.16,7.05-7.05v-53.35c0-3.9-3.16-7.05-7.05-7.05Z"/><path class="cls-4" d="M47.02,22.7c-3.26-3.34-7.56-5.21-12.1-5.27-.08,0-.16,0-.24,0-4.51,0-8.79,1.79-12.07,5.03-3.28,3.25-5.1,7.54-5.15,12.07-.05,4.88,1.68,9.34,4.85,12.55,3.15,3.19,7.55,4.95,12.38,4.96h.03c4.67,0,9.04-1.77,12.31-4.98,3.26-3.2,5.05-7.49,5.05-12.06,0-4.59-1.8-8.95-5.07-12.29Zm-12.16,24.06c-.06,0-.12,0-.17,0-6.44,0-11.76-5.25-11.85-11.69-.05-3.19,1.15-6.2,3.37-8.47,2.21-2.26,5.16-3.52,8.31-3.54h.11c6.61,0,11.82,5.13,11.85,11.67,.03,6.77-4.96,11.94-11.61,12.04Z"/><path class="cls-4" d="M307.21,19.08c-.14,0-.29,0-.44,0-3.12,0-6.23,0-9.35,0-.34,0-.58,.09-.81,.33-.88,.9-1.78,1.77-2.66,2.67-.2,.2-.39,.29-.67,.29-6.06,0-12.12,0-18.19,0-.38,0-.49-.09-.49-.48,.02-3.36,.02-6.72,0-10.08,0-.35,.08-.47,.45-.46,13.21,.01,26.42,0,39.63,0,.3,0,.51,.08,.73,.3,2.38,2.39,4.77,4.78,7.16,7.16,.21,.21,.3,.42,.3,.72,0,13.23,0,26.46,0,39.69,0,.32-.08,.4-.4,.39-3.39-.01-6.79-.01-10.18,0-.32,0-.44-.06-.44-.42,.01-6.1,.01-12.19,0-18.29,0-.29,.1-.48,.3-.67,.91-.89,1.81-1.8,2.71-2.7,.15-.14,.27-.27,.27-.52-.01-3.31,0-6.61,0-9.92,0-.03-.03-.05-.09-.15-.45,.46-.89,.92-1.33,1.36-10.32,10.32-20.64,20.64-30.96,30.98-.3,.3-.43,.27-.71-.01-2.36-2.38-4.74-4.76-7.12-7.12-.25-.25-.27-.37,0-.63,8.72-8.71,17.43-17.43,26.15-26.15,1.98-1.99,3.97-3.97,5.95-5.96,.08-.08,.21-.12,.2-.33Z"/></g><path class="cls-1" d="M573.57,45.32v61.65c0,.47,.29,.71,.86,.71h18.84c.38,0,.57-.24,.57-.71V45.03c0-2.76-.57-6.61-1.71-11.56-7.52-17.12-18.46-25.69-32.82-25.69h-37.68c-8.66,0-16.84,3.85-24.55,11.56-7.71-7.71-15.89-11.56-24.55-11.56h-37.53c-4.95,0-6.55,.05-9.77,0h-24.9V106.96c0,.47,.24,.71,.71,.71h19.27c.48,0,.71-.24,.71-.71V41.75c2-8.94,7.14-13.41,15.41-13.41h35.39c.95,0,2.05,.14,3.28,.43,7.9,2.76,11.84,7.66,11.84,14.7v63.5c0,.47,.24,.71,.71,.71h18.84c.48,0,.71-.24,.71-.71V43.46c0-7.04,3.95-11.94,11.84-14.7,1.33-.29,2.42-.43,3.28-.43h35.53c10.28,0,15.7,7.94,15.7,16.98Z"/><path class="cls-1" d="M615.82,107.68h18.7c.57,0,.86-.24,.86-.71V8.5c0-.47-.29-.71-.86-.71h-18.7c-.28,0-.52,.24-.71,.71V106.96c0,.47,.24,.71,.71,.71Z"/><path class="cls-1" d="M962.41,7.78c-18.74,37.48-28.69,56.99-29.83,58.51-5.04,11.42-8.23,17.12-9.56,17.12,0-.28-.14-.43-.43-.43-.57-.28-4.47-7.66-11.7-22.12-17.5-35.11-26.64-52.8-27.4-53.09h-20.98l-.71,.43,42.38,83.63c3.62,10.56,9.75,15.84,18.41,15.84h1.57c4.85,0,9.28-2,13.27-5.99,26.92-52.9,42.62-84.2,47.09-93.9h-22.12Z"/><path class="cls-1" d="M1025.21,107.68c.57,0,.86-.24,.86-.71V8.5c0-.47-.29-.71-.86-.71h-18.7c-.28,0-.52,.24-.71,.71V106.96c0,.47,.24,.71,.71,.71h18.7Z"/><path class="cls-1" d="M750.18,69.31c-3.75-4.13-9.85-3.96-13.51,.27-.04,.05-.09,.1-.13,.15-3.4,3.83-3.28,9.96,.06,13.86h-.02l20.73,24.1h27.69l-34.82-38.37Z"/><path class="cls-1" d="M704.84,45.88s.09-.1,.14-.15h0c3.42-3.86,3.32-10.02-.05-13.93l-20.61-23.87-.13-.15h-27.69l34.81,38.35c3.76,4.14,9.88,3.98,13.54-.25Z"/><path class="cls-1" d="M736.51,45.74s.09,.1,.13,.15c3.66,4.23,9.77,4.4,13.51,.27h.02l34.82-38.37h-27.69l-20.73,24.1c-3.35,3.89-3.46,10.02-.06,13.86Z"/><path class="cls-1" d="M656.49,107.69h27.69l20.74-24.01c3.37-3.91,3.48-10.08,.05-13.93-.04-.05-.09-.1-.14-.15-3.67-4.23-9.78-4.39-13.54-.25h0s-34.81,38.34-34.81,38.34Z"/><path class="cls-1" d="M1159.03,57.73c3.71-2.18,6.67-5.15,8.91-8.91,2.23-3.75,3.35-8.05,3.35-12.9,0-3.89-.74-7.55-2.21-10.97-1.47-3.42-3.47-6.39-5.98-8.91-2.52-2.52-5.49-4.51-8.91-5.98-3.42-1.47-7.08-2.21-10.97-2.21h-94.38V107.6h94.38c3.89,0,7.55-.73,10.97-2.21,3.42-1.47,6.39-3.47,8.91-5.98,2.52-2.52,4.51-5.49,5.98-8.91,1.47-3.42,2.21-7.08,2.21-10.97,0-4.85-1.12-9.14-3.35-12.9-2.23-3.75-5.2-6.72-8.91-8.91Zm-6.7,25.36c-.67,1.52-1.57,2.8-2.71,3.85-1.14,1.05-2.49,1.9-4.06,2.56-1.57,.67-3.3,1-5.2,1h-71.48v-24.65h71.48c1.9,0,3.63,.31,5.2,.93,1.57,.62,2.92,1.5,4.06,2.64,1.14,1.14,2.04,2.45,2.71,3.92,.66,1.47,1,3.11,1,4.92,0,1.71-.33,3.33-1,4.84Zm0-41.04c-.67,1.52-1.57,2.85-2.71,3.99-1.14,1.14-2.49,2.02-4.06,2.64-1.57,.62-3.3,.93-5.2,.93h-71.48V24.96h71.48c1.9,0,3.63,.33,5.2,1,1.57,.67,2.92,1.52,4.06,2.56,1.14,1.05,2.04,2.33,2.71,3.85,.66,1.52,1,3.13,1,4.84s-.33,3.33-1,4.85Z"/><path class="cls-1" d="M1302.22,24.95V9.42c0-.91-.74-1.65-1.65-1.65h-106.91V107.6h108.56v-17.18h-88.62v-24.76h88.62v-16.35h-88.62V24.95h88.62Z"/><path class="cls-2" d="M575.57,193.3c-9.14,0-16.49-4.12-21.85-12.24-2.4-3.94-3.62-8.06-3.62-12.23v-1.44c0-6.96,3.16-13.35,9.39-18.97,4.66-3.64,10.05-5.5,15.98-5.5h19.54c8.62,0,15.48,3.61,20.98,11.03,.83,1.15,1.53,2.37,2.13,3.71h-12.36c-3.08-2.87-6.54-4.32-10.31-4.32h-20.71c-5.06,0-9.22,2.52-12.37,7.49-1.23,2.17-1.87,4.52-1.87,6.84v.9c0,5.98,3.28,10.56,9.76,13.61,1.85,.5,3.31,.73,4.66,.73h20.71c3.74,0,7.08-1.47,10.23-4.5h12.35c-2.56,5.6-6.85,9.9-12.75,12.77-3.27,1.42-6.91,2.15-10.82,2.15h-19.09Z"/><path class="cls-2" d="M531.22,142.9v9.72h-44.54v11.28h44.54v9.01h-44.54v10.92h44.54v9.72h-55.11v-50.64h55.11Z"/><path class="cls-2" d="M783.28,179.5l15.46,14.04h-15.53l-13.33-12.77h-23.55v12.77h-10.57v-50.64h36.24c9.08,0,24.19,1.42,24.19,18.94,0,11.14-6.1,15.75-12.91,17.66Zm-36.95-8.58h29.65c7.16,0,8.94-5.11,8.94-9.08s-1.77-9.01-8.94-9.01h-29.65v18.09Z"/><path class="cls-2" d="M880.63,168.22c0,23.34-17.66,25.32-26.74,25.32h-37.81v-50.64h37.81c9.08,0,26.74,2.06,26.74,25.32Zm-11.35,0c0-9.29-4.54-15.39-13.76-15.39h-28.8v30.85h28.8c9.22,0,13.76-6.17,13.76-15.46Z"/><path class="cls-2" d="M956.41,178.72c0,5.75-2.2,14.82-23.9,14.82h-9.08c-21.7,0-23.9-11.92-23.9-17.66h10.57c0,1.49,.99,7.8,10.57,7.8h17.94c5.46,0,7.23-1.84,7.23-4.26,0-11.35-46.46-.35-46.46-21.63,0-5.82,2.2-14.89,23.97-14.89h9.01c21.77,0,23.97,11.92,23.97,17.73h-10.64c0-1.56-.92-7.8-10.5-7.8h-18.02c-5.46,0-7.16,1.77-7.16,4.26,0,11.14,46.39-.14,46.39,21.63Z"/><path class="cls-2" d="M663.14,193.05c-10.29,0-18.13-4.95-23.31-14.7-1.54-3.78-2.3-7.19-2.3-10.37,0-7.98,3.64-14.92,10.82-20.63,4.54-2.94,9.32-4.44,14.16-4.44h27.7c8.49,0,15.63,4.02,21.23,11.94,2.52,4.53,3.76,8.79,3.76,12.95,0,7.86-3.32,14.6-9.86,20.02-4.4,3.47-9.71,5.23-15.76,5.23h-26.44Zm-.99-39.79c-4.91,0-8.99,2.41-12.13,7.17-1.43,2.56-2.14,5.09-2.14,7.55,0,5.82,2.95,10.37,8.77,13.52,1.89,.8,3.84,1.2,5.86,1.2h27.7c5.69,0,10.11-2.8,13.16-8.32,.98-2.05,1.47-4.2,1.47-6.4,0-5.99-3.05-10.57-9.06-13.62-1.97-.73-3.71-1.1-5.21-1.1h-28.41Z"/><path class="cls-3" d="M1136.66,183.73v9.75h-55.28v-50.8h10.67v41.05h44.61Z"/><path class="cls-3" d="M1055.56,168.07c3.56,3.06,5.12,7.11,5.12,10.96,0,10.6-7.76,14.44-16.72,14.44h-47.96v-50.8h47.96c8.96,0,16.72,3.84,16.72,14.44,0,3.91-1.57,7.97-5.12,10.96Zm-11.88-4.62c3.56,0,6.4-2.49,6.4-5.69s-2.63-5.34-6.05-5.34h-37.42v11.03h37.07Zm-37.07,9.32v10.96h37.57c3.2,0,5.91-1.92,5.91-5.48,0-3.34-2.7-5.48-6.76-5.48h-36.71Z"/><path class="cls-3" d="M1302.47,165.44v28.03h-6.83l-1.49-4.77c-5.76,4.2-13.09,4.77-18.07,4.77h-11.03c-9.18,0-26.82-1.99-26.82-25.4s17.65-25.4,26.82-25.4h11.03c8.32,0,23.62,1.71,26.4,19.42h-11.53c-.93-4.63-3.91-9.46-13.52-9.46h-15.23c-9.32,0-12.66,6.48-12.66,15.44s3.34,15.51,12.66,15.51h15.23c10.17,0,14.51-4.13,14.94-10.17h-28.6v-7.97h38.7Z"/><path class="cls-3" d="M1176.46,193.17c-10.29,0-18.13-4.95-23.31-14.7-1.54-3.78-2.3-7.19-2.3-10.37,0-7.98,3.64-14.92,10.82-20.63,4.54-2.94,9.32-4.44,14.16-4.44h27.7c8.49,0,15.63,4.02,21.23,11.94,2.52,4.53,3.76,8.79,3.76,12.95,0,7.86-3.32,14.6-9.86,20.02-4.4,3.47-9.71,5.23-15.76,5.23h-26.44Zm-.99-39.79c-4.91,0-8.99,2.41-12.13,7.17-1.43,2.56-2.14,5.09-2.14,7.55,0,5.82,2.95,10.37,8.77,13.52,1.89,.8,3.84,1.2,5.86,1.2h27.7c5.69,0,10.11-2.8,13.16-8.32,.98-2.05,1.47-4.2,1.47-6.4,0-5.99-3.05-10.57-9.06-13.62-1.97-.73-3.71-1.1-5.21-1.1h-28.41Z"/></svg>