<svg id="Layer_1" data-name="Layer 1" xmlns="http://www.w3.org/2000/svg" xmlns:xlink="http://www.w3.org/1999/xlink" viewBox="0 0 1920.01 777.15"><defs><style>.cls-1{fill:url(#linear-gradient);}.cls-2{fill:url(#linear-gradient-2);}.cls-3{fill:#80807e;stroke:#c1c1c1;stroke-miterlimit:10;}.cls-4{fill:#606060;}.cls-5{fill:#3edfce;}</style><linearGradient id="linear-gradient" x1="1695.72" y1="454.18" x2="1904.36" y2="454.18" gradientUnits="userSpaceOnUse"><stop offset="0" stop-color="#1bd9f3"/><stop offset="1" stop-color="#3edfce"/></linearGradient><linearGradient id="linear-gradient-2" y1="281.6" x2="1920.01" y2="281.6" gradientUnits="userSpaceOnUse"><stop offset="0" stop-color="#6f75fd"/><stop offset="1" stop-color="#3edfce"/></linearGradient></defs><title>mixvibereclogocolor</title><path class="cls-1" d="M1800,347.56c-57.62,0-104.32,47.74-104.32,106.62S1742.42,560.8,1800,560.8s104.32-47.73,104.32-106.62S1857.65,347.56,1800,347.56Zm64.61,91.89v96.26c-.19,1.79-27-51.71-27.37-51.14-19.68-34.62,0,0-20.26-35.72l-2.8.18v66.24a33.61,33.61,0,0,1-.92,5.22c-15-24.16-32.71-52.53-47.74-76.68l-2.38.68V538.4a26.7,26.7,0,0,1-1.55,4.07L1712.3,439.06l23.84-1.73c0-12.4,0-22.5,0-34.4a5.72,5.72,0,0,1,2.67-3.75l48.39,38.67v-71a2.15,2.15,0,0,1,2.78-.7l45,67.24,2.35-.42V379.36a2.17,2.17,0,0,1,3.63-1.63l46.83,59.58Z"/><path class="cls-2" d="M1263.83,297.29,1168.07,175.8,771.6,559.38H594.49L198,175.8V559.38H0V0H283.85L683,394.76,1082.24,0h203.4L1391,147.52,1263.83,297.29Zm165.7,265.92H1094.38L603.9,3.82H879.11L1262,456.93,1644.8,3.82H1920L1429.53,563.21Z"/><g id="Text"><path class="cls-3" d="M1127.1,702.46a35,35,0,0,0,7.19-22q0-19.82-13-30.19t-37-10.38h-47.18V774.8H1056V720.25h33.46l30.92,54.55h20.16v-1.11l-33.47-57.24Q1119.9,711.82,1127.1,702.46Zm-42.22,3.25H1056V654.47h28.75q14.89.09,22.76,6.78t7.87,19.2q0,11.52-8.26,18.39T1084.88,705.71Z"/><path class="cls-3" d="M1749.24,647.71q-14.28-7.79-32.88-7.78h-40.21V774.8h39.42q19.17-.18,33.62-7.86a53.22,53.22,0,0,0,22.22-22.06q7.77-14.36,7.78-33.43v-8.62q-.12-18.62-7.89-33A53.94,53.94,0,0,0,1749.24,647.71ZM1760.59,711q0,23.64-12.09,36.44t-33.81,12.79h-19.76V654.47h21.92q20.94.19,32.34,12.93t11.4,35.75Z"/><path class="cls-3" d="M1899.53,722.66q-4.85-7.6-14.87-13.3t-27.78-10.43q-17.76-4.74-25.16-10.44t-7.38-14q0-10.31,7.78-16.1t21.67-5.8q15,0,23.19,7t8.22,19.29h18.88a36.41,36.41,0,0,0-6.31-20.66,42.32,42.32,0,0,0-17.8-14.82,61.19,61.19,0,0,0-26.18-5.37q-21.52,0-35,10.41t-13.46,26.37q0,14.07,11,23.66t35.18,16.16q19.29,5.28,26.61,10.71t7.35,15.33a18.28,18.28,0,0,1-7.94,15.65q-7.92,5.75-22.8,5.74-15.94,0-25.48-7.08t-9.54-19.32h-18.88a34.26,34.26,0,0,0,6.88,21q6.9,9.27,19.62,14.6a70.28,70.28,0,0,0,27.4,5.31q22.63,0,36.11-9.86t13.51-26.26A32.4,32.4,0,0,0,1899.53,722.66Z"/><path class="cls-3" d="M1640.63,702.46a35.1,35.1,0,0,0,7.19-22q0-19.82-13-30.19t-37-10.38h-47.16V774.8h18.88V720.25H1603l30.92,54.55h20.16v-1.11l-33.46-57.24Q1633.44,711.82,1640.63,702.46Zm-42.24,3.25h-28.86V654.47h28.77c9.91.06,17.51,2.33,22.75,6.78s7.88,10.86,7.88,19.2q0,11.52-8.28,18.39T1598.39,705.71Z"/><path class="cls-3" d="M1493.41,645.91q-13.07-7.83-30.19-7.83-16.85,0-29.89,7.92a52.16,52.16,0,0,0-20.21,22.84q-7.15,14.89-7.14,34.35v9.74q.18,19.08,7.38,33.58a52.76,52.76,0,0,0,20.2,22.33q13,7.81,29.86,7.81,17.22,0,30.13-7.77a51.32,51.32,0,0,0,20-22.56q7.07-14.77,7-34.59v-8.54q0-19.73-7-34.59A51.13,51.13,0,0,0,1493.41,645.91Zm8.46,67.1q-.3,23.46-10.28,36t-28.17,12.55q-18.11,0-28.44-13.3t-10.31-36.53V701.8q.28-22.77,10.51-35.61t28-12.83q18.29,0,28.48,12.83T1501.87,703Z"/><polygon class="cls-3" points="1181.41 712.46 1243.15 712.46 1243.15 697.92 1181.41 697.92 1181.41 654.47 1252.15 654.47 1252.15 639.93 1162.62 639.93 1162.62 774.8 1253.13 774.8 1253.13 760.26 1181.41 760.26 1181.41 712.46"/><path class="cls-3" d="M1302.74,665.23Q1313,652.62,1331,652.62q14.68,0,22.85,7.24t10.62,23.43h18.88q-2.25-21.22-16-33.22t-36.4-12q-17.13,0-30.13,7.64a51,51,0,0,0-20.11,21.9q-7.1,14.28-7.11,33.07v13q0,28.71,15.22,45.86t40.46,17.12q23.29,0,37.34-11.61t16.68-33h-18.88q-2.73,16.68-11.1,23.38t-24,6.72q-17.4,0-27.1-13t-9.68-35V701.1Q1292.52,677.85,1302.74,665.23Z"/><path class="cls-4" d="M947.74,663.09v-25H839.64V774.8h108.1V749.42H866.67V718.57h78.19v-24H866.67V663.09Z"/><polygon class="cls-4" points="371.4 639.27 371.4 638.11 341.49 638.11 305.38 689.08 269.28 638.11 239.38 638.11 239.38 639.27 288.06 705.68 237.93 774.02 237.93 774.8 268.46 774.8 305.38 723.45 342.31 774.8 372.84 774.8 372.84 774.02 322.5 705.68 371.4 639.27"/><path class="cls-4" d="M791.7,704.11c13.39-5.67,18.77-15.82,18.77-26.37,0-27.54-21.26-39.64-49.72-39.64h-68.5V774.8h68.5c29.91,0,54-9.76,54-40.23C814.8,726,808.61,709,791.7,704.11Zm-72.62-42.58h41.67c17.33,0,22.69,10.55,22.69,16.81,0,7.8-5.58,14.64-22.69,14.64H719.08Zm41.67,89.26H719.08V715.63h41.67c11.14,0,27,6.44,27,18.75C787.77,747.27,771.89,750.79,760.75,750.79Z"/><rect class="cls-4" x="184.75" y="638.1" width="27.03" height="136.69"/><rect class="cls-4" x="634.34" y="638.1" width="27.03" height="136.69"/><polygon class="cls-4" points="76.58 697.08 31.4 638.29 0.05 638.29 0.05 775 27.28 775 27.28 675.59 73.28 735.17 78.65 735.17 125.69 675.79 125.69 775 152.92 775 152.92 638.29 121.77 638.29 76.58 697.08"/><polygon class="cls-4" points="515.42 741.71 457.57 637.36 421.01 637.36 498.3 774.05 532.08 774.05 609.37 637.36 573.73 637.36 515.42 741.71"/><polygon class="cls-5" points="539.95 674.6 490.43 674.6 515.19 717.54 539.95 674.6"/></g></svg>