<svg id="Layer_1" data-name="Layer 1" xmlns="http://www.w3.org/2000/svg" xmlns:xlink="http://www.w3.org/1999/xlink" viewBox="0 0 1921.7 766.2"><defs><style>.cls-1{fill:url(#linear-gradient);}.cls-2{fill:url(#linear-gradient-2);}.cls-3{fill:#fff;}.cls-4{fill:#3edfce;}.cls-5{fill:#e5e5e5;stroke:#c1c1c1;stroke-miterlimit:10;}.cls-6{fill:#6f75fd;}</style><linearGradient id="linear-gradient" x1="1695.72" y1="454.18" x2="1904.36" y2="454.18" gradientUnits="userSpaceOnUse"><stop offset="0" stop-color="#1bd9f3"/><stop offset="1" stop-color="#3edfce"/></linearGradient><linearGradient id="linear-gradient-2" x1="0.01" y1="281.66" x2="1921.71" y2="281.66" gradientUnits="userSpaceOnUse"><stop offset="0" stop-color="#6f75fd"/><stop offset="1" stop-color="#3edfce"/></linearGradient></defs><title>MV For Artists</title><path class="cls-1" d="M1800,347.6c-57.6,0-104.3,47.7-104.3,106.6s46.7,106.6,104.3,106.6,104.4-47.7,104.4-106.6S1857.7,347.6,1800,347.6Zm64,91.7v96.1c-.2,1.7-26.8-51.3-27.1-50.8l-20.1-35.3-2.8.7v65.2a24.7,24.7,0,0,1-.9,5.2c-15-24.1-32.7-52.4-47.7-76.6l-2.4.7v93.8a33.9,33.9,0,0,1-1.5,4.1l-49.3-103.3,23.8-1.7V402.9a5.8,5.8,0,0,1,2.7-3.7l48.3,38.6V366.9a2.3,2.3,0,0,1,2.8-.7l45,67.3,2.2-.6v-53a2.2,2.2,0,0,1,3.6-1.6l46.3,58.9Z" transform="translate(0 -0.2)"/><path class="cls-2" d="M1263.7,297.2,1168,175.8,771.5,559.2H594.4L198,175.8V559.2H0V.2H283.8L683,394.7,1082.2.2h203.3l105.4,147.4L1263.7,297.2Zm165.6,266H1094.6L600.2.2H875.6L1262,456.4,1646.3,2.2h275.4l-492.4,561Z" transform="translate(0 -0.2)"/><path class="cls-3" d="M948,653.2v-25H840v136H948v-25H867v-31h78v-24H867v-31Z" transform="translate(0 -0.2)"/><polygon class="cls-3" points="372 629.1 372 628 341.5 628 305.4 678.9 269.3 628 239 628 239 629.1 288.1 695.5 238 763.9 238 765 268.4 765 305.4 713.3 342.3 765 373 765 373 763.9 322.5 695.5 372 629.1"/><path class="cls-3" d="M791.7,694.3c13.4-5.7,18.8-15.8,18.8-26.4,0-27.6-21.3-39.7-49.8-39.7H692v137h68.7c29.9,0,54.1-9.8,54.1-40.4C814.8,716.2,808.6,699.2,791.7,694.3ZM719,652.2h41.1c17.1,0,22.3,10.4,22.3,16.5,0,7.7-5.4,14.5-22.3,14.5H719Zm41.5,89H719v-35h41.5c11.1,0,26.9,6.4,26.9,18.6S771.6,741.2,760.5,741.2Z" transform="translate(0 -0.2)"/><rect class="cls-3" x="185" y="628" width="27" height="137"/><rect class="cls-3" x="634" y="628" width="27" height="137"/><polygon class="cls-3" points="76.6 686.9 31.4 628 0 628 0 765 27 765 27 665.2 72.8 725 78.2 725 125 665.4 125 765 153 765 153 628 121.8 628 76.6 686.9"/><polygon class="cls-3" points="515.4 731.6 457.4 627 420.8 627 498.2 764 532.1 764 609.6 627 573.9 627 515.4 731.6"/><polygon class="cls-4" points="539.9 664 490.4 664 515.2 706.9 539.9 664"/><path class="cls-5" d="M1069.1,650.1a12.3,12.3,0,0,0,2.5-7.7c0-4.7-1.5-8.2-4.5-10.7s-7.4-3.6-13-3.6h-16.6v47.5h6.7V656.2h11.9l10.9,19.4h6.8v-.4L1062.1,655A14.4,14.4,0,0,0,1069.1,650.1Zm-14.8,1.2h-10.1v-18h10.1c3.5.1,6.1.9,8,2.4a8.5,8.5,0,0,1,2.7,6.8,7.8,7.8,0,0,1-2.9,6.4A11.7,11.7,0,0,1,1054.3,651.3Z" transform="translate(0 -0.2)"/><path class="cls-5" d="M1738.4,630.8a24.2,24.2,0,0,0-11.6-2.7h-14.1v47.5h13.8a24.1,24.1,0,0,0,11.9-2.8,18.7,18.7,0,0,0,7.8-7.7,24.8,24.8,0,0,0,2.7-11.8v-3.1a24.5,24.5,0,0,0-2.7-11.6A18.9,18.9,0,0,0,1738.4,630.8Zm3.8,22.5q0,8.4-4.2,12.9t-12,4.5h-7V633.3h7.8c4.9.1,8.7,1.6,11.4,4.6s4,7.2,4,12.6Z" transform="translate(0 -0.2)"/><path class="cls-5" d="M1901.3,657.3a13.7,13.7,0,0,0-5.3-4.7,38.1,38.1,0,0,0-9.8-3.7,27.4,27.4,0,0,1-8.9-3.7,6.3,6.3,0,0,1-2.6-5,6.7,6.7,0,0,1,2.8-5.7,12.7,12.7,0,0,1,7.6-2c3.6,0,6.3.8,8.2,2.5a8.2,8.2,0,0,1,2.9,6.8h6.7a12.6,12.6,0,0,0-2.2-7.3,15.7,15.7,0,0,0-6.3-5.3,22.7,22.7,0,0,0-9.3-1.9c-5.1,0-9.2,1.3-12.4,3.7a11.6,11.6,0,0,0-4.7,9.4,10.5,10.5,0,0,0,3.9,8.3c2.6,2.3,6.7,4.2,12.4,5.7s7.7,2.5,9.4,3.8a6.3,6.3,0,0,1,2.6,5.5,6.4,6.4,0,0,1-2.8,5.5c-1.8,1.3-4.5,2-8,2s-6.8-.8-9.1-2.5a8.1,8.1,0,0,1-3.3-6.8h-6.7a12.1,12.1,0,0,0,2.4,7.4,17.2,17.2,0,0,0,7,5.2,25.8,25.8,0,0,0,9.7,1.9c5.3,0,9.6-1.2,12.7-3.5a11,11,0,0,0,4.8-9.3A11.9,11.9,0,0,0,1901.3,657.3Z" transform="translate(0 -0.2)"/><path class="cls-5" d="M1619.8,650.1a12.3,12.3,0,0,0,2.6-7.7c0-4.7-1.6-8.2-4.6-10.7s-7.4-3.6-13-3.6h-16.5v47.5h6.7V656.2h11.8l11,19.4h6.8v-.4L1612.8,655A14.4,14.4,0,0,0,1619.8,650.1Zm-14.7,1.2H1595v-18h10c3.5.1,6.2.9,8,2.4s2.8,3.8,2.8,6.8a8.1,8.1,0,0,1-2.9,6.4A11.7,11.7,0,0,1,1605.1,651.3Z" transform="translate(0 -0.2)"/><path class="cls-5" d="M1479.1,630.2a21.7,21.7,0,0,0-21.3,0,19.4,19.4,0,0,0-7.1,8.1,27.6,27.6,0,0,0-2.5,12.1v3.5a26.7,26.7,0,0,0,2.6,11.9,18.6,18.6,0,0,0,7.1,7.8,19.8,19.8,0,0,0,10.6,2.8,20.4,20.4,0,0,0,10.6-2.7,18.5,18.5,0,0,0,7.1-8,27.7,27.7,0,0,0,2.5-12.2v-3.1a27.7,27.7,0,0,0-2.5-12.2A17.9,17.9,0,0,0,1479.1,630.2Zm2.9,23.7q-.1,8.3-3.6,12.6a13.1,13.1,0,0,1-19.9-.2q-3.6-4.6-3.6-12.9V650c0-5.4,1.3-9.6,3.7-12.6a11.8,11.8,0,0,1,9.8-4.5,12,12,0,0,1,10,4.5c2.4,3,3.6,7.4,3.6,13Z" transform="translate(0 -0.2)"/><polygon class="cls-5" points="1188.2 653.6 1210.1 653.6 1210.1 648.3 1188.2 648.3 1188.2 633.2 1213.3 633.2 1213.3 627.9 1181.5 627.9 1181.5 675.5 1213.6 675.5 1213.6 670.5 1188.2 670.5 1188.2 653.6"/><path class="cls-5" d="M1331,636.8a13.6,13.6,0,0,1,18.1-1.9c1.9,1.7,3.2,4.5,3.7,8.3h6.7a17.6,17.6,0,0,0-5.6-11.8q-5-4.2-12.9-4.2a20.7,20.7,0,0,0-10.7,2.7,17.9,17.9,0,0,0-7.1,7.8,25.2,25.2,0,0,0-2.5,11.7V654q0,10.2,5.4,16.2c3.5,4.1,8.3,6.1,14.3,6.1s9.9-1.4,13.2-4.1a17.4,17.4,0,0,0,5.9-11.7h-6.7c-.6,3.9-1.9,6.7-3.9,8.3s-4.8,2.3-8.5,2.3a11.2,11.2,0,0,1-9.6-4.6c-2.3-3-3.4-7.2-3.4-12.3v-4.7C1327.4,644,1328.6,639.8,1331,636.8Z" transform="translate(0 -0.2)"/><path class="cls-6" d="M1050.9,715.6v13.6h45.3v12.3h-45.3v23h-16.3V702.6H1098v13Z" transform="translate(0 -0.2)"/><path class="cls-6" d="M1186.4,709c7.1,5.5,10.7,13.7,10.7,24.5s-3.6,19.1-10.7,24.6-17.2,8.2-30.1,8.2-22.9-2.7-30.1-8.2-10.7-13.7-10.7-24.6,3.6-19,10.7-24.5,17.2-8.3,30.1-8.3S1179.2,703.5,1186.4,709Zm-13.1,39.1c3.9-3.4,5.8-8.2,5.8-14.6s-1.9-11.2-5.8-14.5-9.6-5-17-5-13.1,1.7-17,5-5.8,8.2-5.8,14.5,1.9,11.2,5.8,14.6,9.6,4.9,17,4.9S1169.4,751.4,1173.3,748.1Z" transform="translate(0 -0.2)"/><path class="cls-6" d="M1291.1,764.5h-19l-13.2-21.9h-25.7v21.9h-16.3V702.6h49.6c8.1,0,14,1.6,17.7,4.7s5.4,8.2,5.4,14.9-1.2,9.3-3.7,11.9a18,18,0,0,1-10.1,5.4v.6Zm-21.4-36.1c1.3-1.1,2-3,2-5.5a7,7,0,0,0-2-5.4c-1.3-1.2-3.5-1.8-6.4-1.8h-30.1v14.4h30.1C1266.2,730.1,1268.4,729.6,1269.7,728.4Z" transform="translate(0 -0.2)"/><path class="cls-6" d="M1404.8,753.2h-36.2l-5.5,11.3h-18l31.4-61.9h20.8l31.2,61.9h-18.1Zm-6-12.5L1387,716.6h-.6l-11.7,24.1Z" transform="translate(0 -0.2)"/><path class="cls-6" d="M1519.5,764.5h-19l-13.2-21.9h-25.6v21.9h-16.4V702.6h49.6c8.1,0,14,1.6,17.7,4.7s5.4,8.2,5.4,14.9-1.2,9.3-3.6,11.9a18.7,18.7,0,0,1-10.2,5.4v.6Zm-21.4-36.1c1.3-1.1,2-3,2-5.5a7,7,0,0,0-2-5.4c-1.3-1.2-3.5-1.8-6.3-1.8h-30.1v14.4h30.1C1494.6,730.1,1496.8,729.6,1498.1,728.4Z" transform="translate(0 -0.2)"/><path class="cls-6" d="M1606.2,716h-27.8v48.5h-16.3V716h-27.7V702.6h71.8Z" transform="translate(0 -0.2)"/><path class="cls-6" d="M1625.1,764.5V702.6h16.3v61.9Z" transform="translate(0 -0.2)"/><path class="cls-6" d="M1707.9,714.4c-2.9-1.4-7.1-2-12.6-2s-9.2.5-11.7,1.7-3.7,2.9-3.7,5.2a4,4,0,0,0,2.1,3.9,17.9,17.9,0,0,0,6.8,1.7l24,2.1c6.8.7,12,2.4,15.5,5.3s5.2,7.4,5.2,13.4-1.4,9.4-4.3,12.4-7,5.2-12.3,6.4a96.7,96.7,0,0,1-20.5,1.8,85.4,85.4,0,0,1-19.9-1.9,24,24,0,0,1-12.3-6.9c-2.9-3.3-4.4-7.9-4.6-13.7h18.6c.4,4.1,2.2,6.9,5.3,8.4s7.6,2.3,13.6,2.3,10.2-.6,13.1-1.9,4.2-3.2,4.2-5.8-.7-3.8-2.2-4.7a14.3,14.3,0,0,0-6.4-1.9l-23.6-2.3q-10.2-1-15.6-5.1c-3.5-2.6-5.3-6.8-5.3-12.5s3-12,9-15.1,14.5-4.5,25.6-4.5,19.8,1.6,25.9,4.6,9.3,8.4,9.5,16h-18.5A8.1,8.1,0,0,0,1707.9,714.4Z" transform="translate(0 -0.2)"/><path class="cls-6" d="M1818.6,716h-27.7v48.5h-16.4V716h-27.6V702.6h71.7Z" transform="translate(0 -0.2)"/><path class="cls-6" d="M1880.9,714.4c-2.9-1.4-7.1-2-12.6-2s-9.1.5-11.6,1.7-3.7,2.9-3.7,5.2a4.1,4.1,0,0,0,2,3.9,18,18,0,0,0,6.9,1.7l23.9,2.1c6.9.7,12,2.4,15.5,5.3s5.3,7.4,5.3,13.4-1.5,9.4-4.3,12.4-7,5.2-12.4,6.4a96.7,96.7,0,0,1-20.5,1.8c-7.9,0-14.6-.6-19.8-1.9s-9.4-3.6-12.3-6.9-4.5-7.9-4.6-13.7h18.5q.8,6.2,5.4,8.4c3.1,1.6,7.6,2.3,13.5,2.3s10.3-.6,13.1-1.9,4.3-3.2,4.3-5.8-.7-3.8-2.2-4.7a14.3,14.3,0,0,0-6.5-1.9l-23.5-2.3q-10.3-1-15.6-5.1c-3.5-2.6-5.3-6.8-5.3-12.5s3-12,8.9-15.1,14.5-4.5,25.6-4.5,19.8,1.6,26,4.6,9.3,8.4,9.5,16h-18.6A7.7,7.7,0,0,0,1880.9,714.4Z" transform="translate(0 -0.2)"/></svg>