<?xml version="1.0" encoding="utf-8"?>
<!-- Generator: Adobe Illustrator 23.0.5, SVG Export Plug-In . SVG Version: 6.00 Build 0)  -->
<svg version="1.1" id="Layer_1" xmlns="http://www.w3.org/2000/svg" xmlns:xlink="http://www.w3.org/1999/xlink" x="0px" y="0px"
	 viewBox="0 0 1920.01 777.15" style="enable-background:new 0 0 1920.01 777.15;" xml:space="preserve">
<style type="text/css">
	.st0{fill:#FFFDFD;}
</style>
<g>
	<path class="st0" d="M1800.04,454.48c-57.61,0-104.32,47.74-104.32,106.62c0,58.88,46.71,106.62,104.32,106.62
		c57.61,0,104.32-47.74,104.32-106.62C1904.36,502.22,1857.65,454.48,1800.04,454.48z M1864.01,546.24c0,39.96,0,56.13,0,96.04
		c-0.19,1.77-26.79-51.28-27.14-50.7c-19.5-34.32-0.02-0.03-20.07-35.39c-1.48,0.39-1.31,0.34-2.79,0.74c0,0,0,43.18,0,65.24
		c-0.06,1.07-0.55,3.94-0.92,5.21c-15.02-24.13-32.68-52.47-47.7-76.6c-1.25,0.36-1.14,0.33-2.38,0.69c0,0,0,62.53,0,93.79
		c-0.43,1.27-0.87,2.81-1.54,4.06c-15.66-32.81-33.1-69.38-49.27-103.26c8.74-0.63,15.68-1.13,23.81-1.72
		c0-12.39-0.01-22.56-0.01-34.45c0.3-2,1.78-3.1,2.67-3.75c15.3,12.23,30.6,24.45,48.34,38.63c0-25.58,0-48.26,0-70.9
		c0.87-0.98,1.78-1.18,2.77-0.7c15.01,22.44,30.03,44.87,45.04,67.31c1.13-0.34,1.06-0.32,2.19-0.66c0,0,0-35.27,0-52.92
		c0.2-1.89,1.86-2.81,3.58-1.62c14.91,18.97,29.82,37.94,46.27,58.88C1878.41,544.91,1872.2,545.48,1864.01,546.24z"/>
	<g>
		<defs>
			<path id="SVGID_1_" d="M1263.73,404.16l-95.75-121.4L771.55,666.08h-177.1L198.01,282.76v383.32h-198v-559h283.83L683,501.57
				l399.16-394.5h203.39l105.32,147.42L1263.73,404.16L1263.73,404.16z M1429.33,670.08h-334.76l-494.38-563h275.41l386.34,456.27
				l384.34-454.27h275.41L1429.33,670.08L1429.33,670.08z"/>
		</defs>
		<use xlink:href="#SVGID_1_"  style="overflow:visible;fill:#FFFDFD;"/>
		<clipPath id="SVGID_2_">
			<use xlink:href="#SVGID_1_"  style="overflow:visible;"/>
		</clipPath>
	</g>
</g>
</svg>
