<svg id="Layer_1" data-name="Layer 1" xmlns="http://www.w3.org/2000/svg" xmlns:xlink="http://www.w3.org/1999/xlink" viewBox="0 0 1921.7 756.1"><defs><style>.cls-1{fill:#fff;}.cls-2{fill:url(#linear-gradient);}.cls-3{fill:#6f75fd;}.cls-4{fill:#e5e5e5;stroke:#c1c1c1;stroke-miterlimit:10;}.cls-5{fill:#3edfce;}</style><linearGradient id="linear-gradient" x1="-0.84" y1="292.01" x2="1920.85" y2="292.01" gradientUnits="userSpaceOnUse"><stop offset="0" stop-color="#6f75fd"/><stop offset="1" stop-color="#4e5bf9"/></linearGradient></defs><title>mvr-for-artists-white</title><path class="cls-1" d="M1800,359.3c-57.6,0-104.3,47.7-104.3,106.6s46.7,106.6,104.3,106.6,104.4-47.7,104.4-106.6S1857.7,359.3,1800,359.3Zm64,91.8v96c-.2,1.8-26.8-51.3-27.1-50.7L1816.8,461l-2.8.7V527a25.8,25.8,0,0,1-.9,5.2l-47.7-76.6-2.4.7v93.8a32.5,32.5,0,0,1-1.5,4l-49.3-103.2,23.8-1.8V414.7a5.5,5.5,0,0,1,2.7-3.7l48.3,38.6V378.7a2.1,2.1,0,0,1,2.8-.7l45,67.3,2.2-.7V391.7a2.1,2.1,0,0,1,3.6-1.6l46.3,58.9Z" transform="translate(0.8 -10.5)"/><path class="cls-2" d="M1262.9,307.6l-95.8-121.4L770.7,569.5H593.6L197.2,186.2V569.5H-.8V10.5H283L682.1,405,1081.3,10.5h203.4L1390,157.9,1262.9,307.6Zm165.6,265.9H1093.7L599.3,10.5H874.8l386.3,456.3L1645.4,12.5h275.5l-492.4,561Z" transform="translate(0.8 -10.5)"/><path class="cls-3" d="M37.6,655.1v30h99.6v27H37.6v50.5H1.8V626.5H141.2v28.6Z" transform="translate(0.8 -10.5)"/><path class="cls-3" d="M335.3,640.6q23.6,18.1,23.6,54t-23.6,53.9q-23.6,18.2-66,18.1t-66.1-18.1q-23.5-18-23.5-53.9t23.5-54c15.7-12,37.7-18.1,66.1-18.1S319.6,628.6,335.3,640.6Zm-28.7,85.9c8.5-7.3,12.8-17.9,12.8-31.9s-4.3-24.6-12.8-32-21-10.9-37.3-10.9-28.7,3.6-37.3,10.9-12.9,18-12.9,32,4.3,24.6,12.9,31.9,21,11,37.3,11S298,733.8,306.6,726.5Z" transform="translate(0.8 -10.5)"/><path class="cls-3" d="M565.6,762.6H523.8l-29-48.2H438.4v48.2H402.5V626.5H511.4c17.9,0,30.9,3.5,38.9,10.5s12,17.9,12,32.6c0,11.7-2.7,20.5-8.1,26.3s-12.9,9.8-22.4,11.8v1.4Zm-47.1-79.3c2.9-2.5,4.3-6.5,4.3-12s-1.4-9.3-4.3-11.9-7.6-3.9-14-3.9H438.4v31.6h66.1C510.9,687.1,515.5,685.9,518.5,683.3Z" transform="translate(0.8 -10.5)"/><path class="cls-3" d="M815.5,737.9H735.8l-12,24.7H684.1l69-136.1h45.8l68.6,136.1H827.7Zm-13.4-27.5-25.9-53h-1.1l-25.8,53Z" transform="translate(0.8 -10.5)"/><path class="cls-3" d="M1067.5,762.6h-41.7l-29-48.2H940.4v48.2H904.5V626.5h108.9c17.9,0,30.9,3.5,38.9,10.5s12,17.9,12,32.6c0,11.7-2.7,20.5-8.1,26.3s-12.9,9.8-22.4,11.8v1.4Zm-47.1-79.3c3-2.5,4.4-6.5,4.4-12s-1.4-9.3-4.4-11.9-7.5-3.9-13.9-3.9H940.4v31.6h66.1C1012.9,687.1,1017.5,685.9,1020.4,683.3Z" transform="translate(0.8 -10.5)"/><path class="cls-3" d="M1258,656.1h-61V762.6h-35.9V656.1h-60.8V626.5H1258Z" transform="translate(0.8 -10.5)"/><path class="cls-3" d="M1299.5,762.6V626.5h35.9V762.6Z" transform="translate(0.8 -10.5)"/><path class="cls-3" d="M1481.5,652.4c-6.4-2.9-15.6-4.3-27.7-4.3s-20.1,1.2-25.6,3.8-8.2,6.3-8.2,11.4,1.6,7,4.6,8.7,8.1,2.9,15.1,3.7l52.6,4.6c15,1.4,26.3,5.3,34,11.6s11.6,16.2,11.6,29.4c0,11.5-3.2,20.7-9.5,27.3s-15.3,11.4-27.1,14-26.9,4-45,4-32.1-1.4-43.7-4.2-20.6-8-27-15.2-9.8-17.3-10.2-30.1h40.8c1,9,5,15.2,11.8,18.6s16.7,5,29.8,5,22.6-1.4,28.8-4.2,9.3-7,9.3-12.7-1.6-8.3-4.8-10.4-8-3.5-14.2-4.1l-51.7-5.2c-15.1-1.5-26.6-5.2-34.3-11s-11.7-15.1-11.7-27.7c0-15.4,6.6-26.4,19.7-33s31.8-9.9,56.2-9.9,43.6,3.4,57,10.1,20.5,18.5,21,35.1h-40.8Q1491.1,656.9,1481.5,652.4Z" transform="translate(0.8 -10.5)"/><path class="cls-3" d="M1724.9,656.1h-61V762.6H1628V656.1h-60.8V626.5h157.7Z" transform="translate(0.8 -10.5)"/><path class="cls-3" d="M1861.9,652.4c-6.4-2.9-15.7-4.3-27.8-4.3s-20,1.2-25.5,3.8-8.2,6.3-8.2,11.4,1.5,7,4.6,8.7,8,2.9,15,3.7l52.6,4.6c15,1.4,26.4,5.3,34.1,11.6s11.5,16.2,11.5,29.4c0,11.5-3.1,20.7-9.4,27.3s-15.4,11.4-27.2,14-26.8,4-45,4-32.1-1.4-43.6-4.2-20.6-8-27-15.2-9.8-17.3-10.2-30.1h40.8q1.5,13.5,11.7,18.6c6.8,3.3,16.7,5,29.8,5s22.6-1.4,28.8-4.2,9.4-7,9.4-12.7-1.7-8.3-4.9-10.4-8-3.5-14.2-4.1l-51.7-5.2c-15.1-1.5-26.5-5.2-34.3-11s-11.6-15.1-11.6-27.7c0-15.4,6.5-26.4,19.6-33s31.9-9.9,56.3-9.9,43.5,3.4,57,10.1,20.4,18.5,20.9,35.1h-40.8C1871.9,660.5,1868.3,655.4,1861.9,652.4Z" transform="translate(0.8 -10.5)"/><g id="Text"><path class="cls-4" d="M1071.7,462.4a26,26,0,0,0,5.2-16.2c0-9.8-3.1-17.3-9.5-22.4s-15.4-7.6-27.2-7.6h-34.7v99.7h14V475.3h24.9l22.9,40.6h14.3v-.8l-24.7-42.4A31.5,31.5,0,0,0,1071.7,462.4Zm-31,2.5h-21.2V427.2h21.1c7.3.1,12.9,1.7,16.8,5s5.8,8,5.8,14.1a17,17,0,0,1-6.1,13.6C1053,463.2,1047.6,464.9,1040.7,464.9Z" transform="translate(0.8 -10.5)"/><path class="cls-4" d="M1531.5,421.9q-10.5-5.7-24.3-5.7h-29.7v99.7h29.1c9.5-.1,17.8-2,24.9-5.8a40.2,40.2,0,0,0,16.4-16.3c3.8-7.1,5.7-15.4,5.7-24.8v-6.3a50.9,50.9,0,0,0-5.8-24.4A39.6,39.6,0,0,0,1531.5,421.9Zm8.1,47.2q0,17.5-9,27c-6,6.3-14.4,9.4-25.1,9.4h-14.7V427.2h16.3q15.6.2,24,9.6c5.7,6.3,8.5,15.1,8.5,26.5Z" transform="translate(0.8 -10.5)"/><path class="cls-4" d="M1642.4,477.4c-2.4-3.8-6.1-7-11-9.9s-11.8-5.4-20.6-7.7-15-4.9-18.7-7.7-5.5-6.3-5.5-10.4a14.3,14.3,0,0,1,5.8-12c3.9-2.8,9.2-4.3,16.1-4.3s13.1,1.8,17.2,5.3,6.1,8.2,6.1,14.3h14a27.4,27.4,0,0,0-4.7-15.4,32.1,32.1,0,0,0-13.2-11,46,46,0,0,0-19.4-3.9c-10.7,0-19.3,2.5-26,7.7s-9.9,11.7-9.9,19.5a22.4,22.4,0,0,0,8.1,17.6q8.3,7,26.1,12c9.6,2.6,16.1,5.2,19.8,7.9s5.4,6.5,5.4,11.4a13.3,13.3,0,0,1-5.9,11.6c-3.9,2.8-9.5,4.3-16.9,4.3s-14.2-1.8-18.9-5.3a17,17,0,0,1-7.1-14.3h-14a25.6,25.6,0,0,0,5.1,15.6,34.1,34.1,0,0,0,14.6,10.8,52.8,52.8,0,0,0,20.3,3.9c11.2,0,20.1-2.4,26.8-7.3a22.7,22.7,0,0,0,10-19.4A24.1,24.1,0,0,0,1642.4,477.4Z" transform="translate(0.8 -10.5)"/><path class="cls-4" d="M1450.6,462.4a25.4,25.4,0,0,0,5.3-16.2c0-9.8-3.1-17.3-9.5-22.4s-15.5-7.6-27.3-7.6h-34.7v99.7h14.1V475.3h24.9l22.9,40.6h14.2v-.8l-24.6-42.4A30.7,30.7,0,0,0,1450.6,462.4Zm-30.9,2.5h-21.2V427.2h21.1c7.3.1,12.9,1.7,16.8,5s5.8,8,5.8,14.1a17,17,0,0,1-6.1,13.6C1432,463.2,1426.6,464.9,1419.7,464.9Z" transform="translate(0.8 -10.5)"/><path class="cls-4" d="M1342.1,420.6c-6.4-3.9-13.9-5.8-22.3-5.8a42.1,42.1,0,0,0-22.2,5.9,38.1,38.1,0,0,0-15,16.9,59,59,0,0,0-5.3,25.5v7.2c.1,9.4,1.9,17.7,5.5,24.9a39,39,0,0,0,15,16.6,42.5,42.5,0,0,0,22.1,5.7,43.1,43.1,0,0,0,22.4-5.7,38.1,38.1,0,0,0,14.7-16.7c3.5-7.3,5.3-15.9,5.3-25.7v-6.3c0-9.8-1.8-18.3-5.3-25.7A37.6,37.6,0,0,0,1342.1,420.6Zm6.1,49.7c-.1,11.6-2.6,20.4-7.5,26.6s-11.9,9.2-20.8,9.2-15.9-3.3-20.9-9.8-7.6-15.5-7.6-26.9v-7.3c.1-11.2,2.7-20,7.7-26.3s11.9-9.4,20.7-9.4,15.9,3.1,20.9,9.4,7.5,15.4,7.5,27.2Z" transform="translate(0.8 -10.5)"/><polygon class="cls-4" points="1112.7 459.6 1158.5 459.6 1158.5 448.5 1112.7 448.5 1112.7 416.7 1165.1 416.7 1165.1 405.6 1098.7 405.6 1098.7 505.4 1165.9 505.4 1165.9 495 1112.7 495 1112.7 459.6"/><path class="cls-4" d="M1201.4,434.5c5.1-6.2,12.1-9.4,21-9.4,7.3,0,12.9,1.8,17,5.4s6.7,9.4,7.9,17.4h14c-1.1-10.5-5.1-18.7-11.9-24.7s-15.8-8.9-27-8.9A43.4,43.4,0,0,0,1200,420a38,38,0,0,0-14.9,16.3,54.7,54.7,0,0,0-5.3,24.6v9.6c0,14.2,3.8,25.6,11.3,34.1s17.6,12.7,30.1,12.7,20.8-2.9,27.7-8.6,11.1-14,12.4-24.6h-14c-1.4,8.3-4.1,14.1-8.3,17.4s-10.1,5-17.8,5-15.4-3.2-20.2-9.7-7.2-15-7.2-25.9v-9.7C1193.8,449.6,1196.4,440.7,1201.4,434.5Z" transform="translate(0.8 -10.5)"/><path class="cls-1" d="M939.3,433.5V415H859.6V515.5h79.7V497H879.5V474.1h57.6V456.4H879.5V433.5Z" transform="translate(0.8 -10.5)"/><polygon class="cls-1" points="514.7 405.4 514.7 404.5 492.1 404.5 465.4 442.2 438.8 404.5 416.4 404.5 416.4 405.4 452.7 454.4 415.7 504.9 415.7 505.7 438.2 505.7 465.4 467.5 492.7 505.7 515.4 505.7 515.4 504.9 478.1 454.4 514.7 405.4"/><path class="cls-1" d="M823.9,463.9c9.9-4.2,13.9-11.7,13.9-19.5,0-20.4-15.8-29.4-36.9-29.4H750.2V516.3h50.7c22.2,0,40.1-7.3,40.1-29.8C841,480.1,836.4,467.5,823.9,463.9Zm-53.7-31.1h30.3c12.6,0,16.5,7.7,16.5,12.2s-4,10.7-16.5,10.7H770.2Zm30.6,65.7H770.2V472.7h30.6c8.2,0,19.9,4.7,19.9,13.8S809,498.5,800.8,498.5Z" transform="translate(0.8 -10.5)"/><rect class="cls-1" x="376.5" y="404.5" width="19.9" height="101.21"/><rect class="cls-1" x="708.2" y="404.5" width="19.9" height="101.21"/><polygon class="cls-1" points="296.4 448.1 263 404.5 239.9 404.5 239.9 505.7 259.8 505.7 259.8 432 293.6 476.2 297.6 476.2 332.2 432.2 332.2 505.7 352.9 505.7 352.9 404.5 329.9 404.5 296.4 448.1"/><polygon class="cls-1" points="620.6 481.1 577.8 403.8 550.7 403.8 607.9 505 632.9 505 690.2 403.8 663.8 403.8 620.6 481.1"/><polygon class="cls-5" points="638.7 431.1 602.1 431.1 620.4 462.9 638.7 431.1"/></g></svg>